<svg xmlns="http://www.w3.org/2000/svg" width="70.848" height="50.606" viewBox="0 0 70.848 50.606">
  <path id="Icon_metro-youtube-play" data-name="Icon metro-youtube-play" d="M53.176,31.913a2.276,2.276,0,0,0-1.186-2.135L31.748,17.127a2.384,2.384,0,0,0-2.57-.079,2.355,2.355,0,0,0-1.3,2.214v25.3a2.355,2.355,0,0,0,1.3,2.214,2.735,2.735,0,0,0,1.226.316,2.252,2.252,0,0,0,1.344-.4L51.99,34.048a2.276,2.276,0,0,0,1.186-2.135Zm20.242,0q0,3.8-.039,5.93t-.336,5.4a43.735,43.735,0,0,1-.89,5.832,9.249,9.249,0,0,1-2.728,4.863,8.337,8.337,0,0,1-4.9,2.293,259.2,259.2,0,0,1-26.528.988,259.2,259.2,0,0,1-26.528-.988,8.427,8.427,0,0,1-4.922-2.293A9.191,9.191,0,0,1,3.8,49.072a48.939,48.939,0,0,1-.85-5.832q-.3-3.262-.336-5.4t-.039-5.93q0-3.8.039-5.93t.336-5.4a43.732,43.732,0,0,1,.89-5.832A9.249,9.249,0,0,1,6.564,9.892a8.337,8.337,0,0,1,4.9-2.293A259.2,259.2,0,0,1,37.995,6.61,259.2,259.2,0,0,1,64.523,7.6a8.427,8.427,0,0,1,4.922,2.293,9.191,9.191,0,0,1,2.748,4.863,48.939,48.939,0,0,1,.85,5.832q.3,3.262.336,5.4T73.419,31.913Z" transform="translate(-2.571 -6.61)" fill="#43a99b"/>
</svg>
