<svg xmlns="http://www.w3.org/2000/svg" width="250" height="212.289" viewBox="0 0 250 212.289">
  <g id="_20" data-name="20" transform="translate(-1263.628 -228.645)">
    <g id="g6714" transform="translate(1263.628 228.645)">
      <path id="rect4523" d="M1524.975,693l55.254,1.249,4.542,43.241H1520.2Z" transform="translate(-1427.489 -525.202)" fill="#f2f2f2"/>
      <path id="path4534" d="M1530.854,693l-1.443,13.463h57.981l-1.283-12.213L1530.854,693Z" transform="translate(-1433.368 -525.202)" fill="#cccbcb"/>
      <rect id="rect4513" width="249.926" height="164.1" rx="11" transform="translate(0.037 14.063)" fill="#fff"/>
      <path id="path4517" d="M1263.628,257.965V402.648h250V257.965Zm5.893,7.477h237.13l-31.8,119.17-177.7-11.885Z" transform="translate(-1263.628 -247.37)" fill="#333"/>
      <rect id="rect4521" width="249.983" height="68.891" rx="9" transform="translate(0.006 0)" fill="#333"/>
      <rect id="rect4515" width="229.778" height="132.395" transform="translate(10.111 10.992)" fill="#ebebeb"/>
      <rect id="rect4525" width="101.83" height="6.551" rx="3.275" transform="translate(74.085 205.738)" fill="#fff"/>
    </g>
    <g id="Grupo_156501" data-name="Grupo 156501" transform="translate(1273.734 273.454)">
      <rect id="rect6724" width="229.802" height="98.53" transform="translate(0 0.053)" fill="#cccbcb"/>
      <rect id="rect6734" width="229.802" height="92.361" transform="translate(0 6.222)" fill="#fff"/>
      <g id="Grupo_156500" data-name="Grupo 156500" transform="translate(0)">
        <rect id="rect6738" width="229.802" height="1.166" transform="translate(0 20.283)" fill="#e5e5e4"/>
        <rect id="rect6740" width="229.802" height="1.166" transform="translate(0 26.828)" fill="#e5e5e4"/>
        <rect id="rect6742" width="229.802" height="1.166" transform="translate(0 33.373)" fill="#e5e5e4"/>
        <rect id="rect6744" width="229.802" height="1.166" transform="translate(0 39.918)" fill="#e5e5e4"/>
        <rect id="rect6748" width="229.802" height="1.166" transform="translate(0 46.463)" fill="#e5e5e4"/>
        <rect id="rect6750" width="229.802" height="1.166" transform="translate(0 53.008)" fill="#e5e5e4"/>
        <rect id="rect6752" width="229.802" height="1.166" transform="translate(0 59.552)" fill="#e5e5e4"/>
        <rect id="rect6754" width="229.802" height="1.166" transform="translate(0 66.097)" fill="#e5e5e4"/>
        <rect id="rect6756" width="229.802" height="1.166" transform="translate(0 72.642)" fill="#e5e5e4"/>
        <rect id="rect6758" width="229.802" height="1.166" transform="translate(0 79.187)" fill="#e5e5e4"/>
        <rect id="rect6760" width="229.802" height="1.166" transform="translate(0 85.732)" fill="#e5e5e4"/>
        <rect id="rect6762" width="229.802" height="1.166" transform="translate(0 92.277)" fill="#e5e5e4"/>
        <rect id="rect6764" width="1.166" height="98.534" transform="translate(8.017 0.051)" fill="#e5e5e4"/>
        <rect id="rect6766" width="1.166" height="98.534" transform="translate(14.779 0.051)" fill="#e5e5e4"/>
        <rect id="rect6768" width="1.166" height="98.534" transform="translate(71.173 0.051)" fill="#e5e5e4"/>
        <rect id="rect6770" width="1.166" height="98.534" transform="translate(92.9 0.051)" fill="#e5e5e4"/>
        <rect id="rect6772" width="1.166" height="98.534" transform="translate(114.996 0.051)" fill="#e5e5e4"/>
        <rect id="rect6774" width="1.166" height="98.534" transform="translate(137.091 0.051)" fill="#e5e5e4"/>
        <rect id="rect6776" width="1.166" height="98.534" transform="translate(159.37 0.051)" fill="#e5e5e4"/>
        <rect id="rect6778" width="1.166" height="98.534" transform="translate(182.386 0.051)" fill="#e5e5e4"/>
        <rect id="rect6780" width="1.166" height="98.534" transform="translate(207.244 0.051)" fill="#e5e5e4"/>
        <path id="path6784" d="M1299.676,369.852,1291.669,376h8.007Z" transform="translate(-1291.642 -363.635)" fill="#cccbcb"/>
        <g id="g4430" transform="translate(0.043 12.361)">
          <rect id="rect6782" width="8.463" height="1.156" fill="#e5e5e4"/>
          <rect id="rect6820" width="3.314" height="5.064" rx="1" transform="translate(1.972 2.052)" fill="#b3b2b3"/>
          <rect id="rect6822" width="3.314" height="3.498" rx="1" transform="translate(1.972 9.97)" fill="#b3b2b3"/>
          <rect id="rect6824" width="3.314" height="3.498" rx="1" transform="translate(1.972 16.598)" fill="#b3b2b3"/>
          <rect id="rect6826" width="3.314" height="3.498" rx="1" transform="translate(1.972 23.043)" fill="#b3b2b3"/>
          <rect id="rect6828" width="3.314" height="3.498" rx="1" transform="translate(1.972 29.763)" fill="#b3b2b3"/>
          <rect id="rect6830" width="3.314" height="3.498" rx="1" transform="translate(1.972 36.208)" fill="#b3b2b3"/>
          <rect id="rect6832" width="3.314" height="3.498" rx="1" transform="translate(1.972 42.836)" fill="#b3b2b3"/>
          <rect id="rect6834" width="3.314" height="3.498" rx="1" transform="translate(1.972 49.373)" fill="#b3b2b3"/>
          <rect id="rect6836" width="3.314" height="3.498" rx="1" transform="translate(1.972 55.817)" fill="#b3b2b3"/>
          <rect id="rect6838" width="3.314" height="3.498" rx="1" transform="translate(1.972 62.446)" fill="#b3b2b3"/>
          <rect id="rect6840" width="3.314" height="3.498" rx="1" transform="translate(1.972 68.891)" fill="#b3b2b3"/>
          <rect id="rect6842" width="3.314" height="3.498" rx="1" transform="translate(1.972 75.519)" fill="#b3b2b3"/>
          <rect id="rect6844" width="3.314" height="3.498" rx="1.32" transform="translate(1.972 81.964)" fill="#b3b2b3"/>
        </g>
        <rect id="rect6818" width="20.962" height="6.347" transform="translate(94.095)" fill="#607d8a"/>
      </g>
    </g>
    <g id="Grupo_156506" data-name="Grupo 156506" transform="translate(1289.604 294.342)">
      <g id="Grupo_156502" data-name="Grupo 156502" transform="translate(80.901 1.433)">
        <rect id="rect6866" width="125.739" height="1.172" transform="translate(0 43.035)" fill="#25a599"/>
        <rect id="rect6882" width="7.097" height="14.134" transform="translate(6.18 29.276)" fill="#06887b"/>
        <rect id="rect4448" width="7.097" height="12.477" transform="translate(17.404 30.933)" fill="#e53a34"/>
        <rect id="rect4450" width="7.097" height="16.896" transform="translate(28.628 26.514)" fill="#d71a60"/>
        <rect id="rect4452" width="7.097" height="19.474" transform="translate(39.852 23.937)" fill="#f68c1e"/>
        <rect id="rect4454" width="7.097" height="24.63" transform="translate(51.076 18.781)" fill="#bfc933"/>
        <rect id="rect4456" width="7.097" height="28.312" transform="translate(62.3 15.098)" fill="#3f4da0"/>
        <rect id="rect4458" width="7.097" height="23.157" transform="translate(73.524 20.254)" fill="#439f47"/>
        <rect id="rect4460" width="7.097" height="30.338" transform="translate(84.748 13.073)" fill="#66499c"/>
        <rect id="rect4462" width="7.097" height="25.919" transform="translate(95.972 17.492)" fill="#f0592b"/>
        <rect id="rect4464" width="7.097" height="34.204" transform="translate(107.196 9.206)" fill="#488ecb"/>
        <rect id="rect4466" width="7.097" height="43.411" transform="translate(118.42)" fill="#fcbf12"/>
      </g>
      <g id="Grupo_156503" data-name="Grupo 156503" transform="translate(0 0)">
        <rect id="rect4446" width="76.988" height="44.697" transform="translate(0 0.461)" fill="#fff"/>
        <circle id="path4468" cx="18.618" cy="18.618" r="18.618" transform="translate(15.605 9.792) rotate(-15.247)" fill="#ef5323"/>
        <path id="path4496" d="M1391.559,437.278a18.618,18.618,0,0,1,31.893-9.266l-13.6,12.718Z" transform="translate(-1371.306 -417.897)" fill="#3d82c3"/>
        <path id="path4481" d="M1442.936,457.239a18.618,18.618,0,0,1-27.064,22.011l9.423-16.057Z" transform="translate(-1386.833 -440.332)" fill="#3f4da0"/>
        <path id="path4483" d="M1429.114,479.682a18.618,18.618,0,0,1-34.866,1.146l17.219-7.081Z" transform="translate(-1373.023 -450.875)" fill="#439f47"/>
        <path id="circle4470" d="M1406.526,469.439a18.618,18.618,0,0,1-11.073-31.312l13.474,12.849Z" transform="translate(-1370.507 -428.126)" fill="#fbb116"/>
        <path id="path4494" d="M1397.507,456.524a18.618,18.618,0,0,1,6.533-32.563l4.988,17.938Z" transform="translate(-1370.572 -419.079)" fill="#06887b"/>
        <path id="path4485" d="M1421.189,483.227a18.618,18.618,0,0,1-30.683-16.6l18.44,2.572Z" transform="translate(-1370.519 -446.328)" fill="#5f449a"/>
        <path id="path4487" d="M1406.565,487.641l2.4-18.44-18.423-2.569q-.037.292-.065.586-.072.648-.1,1.3-.009.312-.006.623,0,.6.03,1.2.025.352.064.7.053.559.14,1.115.067.4.151.788.1.5.229.995.119.437.259.867.138.446.3.885.182.477.39.944.157.367.329.727.25.505.531.994.171.309.354.611.322.516.679,1.01.173.249.355.491.406.527.848,1.024.161.188.328.371.489.521,1.017,1,.145.137.293.271.566.5,1.171.946.131.1.265.2.644.461,1.325.866l.213.129q.711.411,1.456.757l.233.107q.752.339,1.531.611l.163.056q.809.273,1.641.471l.136.032q.851.2,1.719.311l.047.007Z" transform="translate(-1370.546 -446.331)" fill="#d71a60"/>
        <path id="path4492" d="M1400.823,461.247a18.618,18.618,0,0,1-.513-33.208l8.675,16.474Z" transform="translate(-1370.544 -421.683)" fill="#fbb116"/>
        <rect id="rect4510" width="12.598" height="1.753" transform="translate(6.524 12.077)" fill="#afbdc4"/>
        <rect id="rect4512" width="10.739" height="1.172" transform="translate(8.383 14.323)" fill="#afbdc4"/>
        <rect id="rect4517" width="11.566" height="1.262" transform="translate(18.234 3.737)" fill="#afbdc4"/>
        <rect id="rect4519" width="11.67" height="1.273" transform="translate(50.275 4.846)" fill="#afbdc4"/>
        <rect id="rect4527" width="11.67" height="1.273" transform="translate(56.644 12.02)" fill="#afbdc4"/>
        <rect id="rect4529" width="11.67" height="1.273" transform="translate(59.169 19.68)" fill="#afbdc4"/>
        <rect id="rect4531" width="11.67" height="1.273" transform="translate(56.8 31.469)" fill="#afbdc4"/>
        <rect id="rect4533" width="11.67" height="1.273" transform="translate(50.054 39.241)" fill="#afbdc4"/>
        <rect id="rect4535" width="11.076" height="1.209" transform="translate(19.645 41.169)" fill="#afbdc4"/>
      </g>
      <g id="Grupo_156504" data-name="Grupo 156504" transform="translate(86.805 48.793)">
        <rect id="rect4552" width="120.539" height="23.133" fill="#fff"/>
        <rect id="rect4554" width="120.539" height="3.55" fill="#009588"/>
        <rect id="rect4556" width="120.539" height="3.55" transform="translate(0 6.64)" fill="#4cb5ab"/>
        <rect id="rect4558" width="120.539" height="3.55" transform="translate(0 13.118)" fill="#4cb5ab"/>
        <rect id="rect4560" width="120.539" height="3.55" transform="translate(0 19.597)" fill="#4cb5ab"/>
        <rect id="rect4562" width="0.856" height="19.589" transform="translate(0 3.544)" fill="#4cb5ab"/>
        <rect id="rect4564" width="0.856" height="19.589" transform="translate(5.34 3.544)" fill="#4cb5ab"/>
        <rect id="rect4566" width="0.856" height="19.589" transform="translate(34.524 3.544)" fill="#4cb5ab"/>
        <rect id="rect4568" width="0.856" height="19.589" transform="translate(119.69 3.544)" fill="#4cb5ab"/>
        <rect id="rect4570" width="0.856" height="19.589" transform="translate(79.807 3.544)" fill="#4cb5ab"/>
      </g>
      <g id="Grupo_156505" data-name="Grupo 156505" transform="translate(2.291 47.688)">
        <path id="path4578" d="M1344.74,569.241v-6.754l10.794-3.464,4.192,1.322,5.954-4.032,3.945,2.353,7.317-4.949c4.3.641,7.452,1.532,11.692,2.025l7.917-1.565,2.21.368,5.524.829,4.787-5.432,7.273-1.657-.092,20.9Z" transform="translate(-1343.696 -546.165)" fill="#5e6bb1"/>
        <path id="path4576" d="M1344.683,579.908v-4.235l10.771-2.118,6.445,1.2,5.212-2.656,5.283,1.367,6.9-4.755,9.4,1.349,3.419,2.465,4.682-.9,3.279,1.644,7.031-2.083,3.906-4.036,5.077-2.213v14.582Z" transform="translate(-1343.66 -556.798)" fill="#33429a"/>
        <rect id="rect4572" width="73.402" height="1.893" transform="translate(0 22.095)" fill="#2d3079"/>
        <rect id="rect4574" width="1.592" height="23.988" transform="translate(71.81)" fill="#2d3079"/>
      </g>
    </g>
    <g id="Grupo_156507" data-name="Grupo 156507" transform="translate(1282.941 279.676)">
      <rect id="rect6736" width="220.596" height="10.24" transform="translate(0 0)" fill="#4555a4"/>
      <rect id="rect6884" width="108.635" height="2.746" transform="translate(56.246 2.362)" fill="#fff"/>
      <rect id="rect6886" width="62.051" height="2.037" transform="translate(77.973 6.755)" fill="#fff"/>
    </g>
    <g id="Grupo_156516" data-name="Grupo 156516" transform="translate(1273.734 239.628)">
      <g id="Grupo_156508" data-name="Grupo 156508" transform="translate(0 0)">
        <rect id="rect6726" width="229.802" height="34.076" fill="#ebebeb"/>
        <rect id="rect4473" width="229.802" height="12.717" fill="#439f47"/>
        <rect id="rect4615" width="229.802" height="6.284" fill="#4cae4e"/>
        <rect id="rect4477" width="5.058" height="5.143" transform="translate(2.564 1.555)" fill="#fff"/>
        <rect id="rect6846" width="60.933" height="3.125" rx="1.32" transform="translate(10.475 2.644)" fill="#fff"/>
      </g>
      <g id="Grupo_156509" data-name="Grupo 156509" transform="translate(141.556 15.996)">
        <rect id="rect4501" width="11.422" height="9.159" rx="2.109" fill="#fff"/>
        <rect id="rect4505" width="11.422" height="9.159" rx="2.109" transform="translate(14.629)" fill="#fff"/>
        <rect id="rect4507" width="11.422" height="9.159" rx="2.109" transform="translate(29.259)" fill="#fff"/>
        <rect id="rect4509" width="11.422" height="9.159" rx="2.109" transform="translate(43.888)" fill="#fff"/>
        <rect id="rect4511" width="11.422" height="9.159" rx="2.109" transform="translate(58.517)" fill="#fff"/>
      </g>
      <g id="Grupo_156510" data-name="Grupo 156510" transform="translate(3.004 15.856)">
        <rect id="rect4518" width="7.924" height="8.153" rx="2.109" fill="#ffd44e"/>
        <rect id="rect4520" width="5.486" height="6.705" rx="2.109" transform="translate(3.657 2.743)" fill="#fff"/>
      </g>
      <g id="Grupo_156511" data-name="Grupo 156511" transform="translate(88.476 16.217)">
        <rect id="rect4526-0" width="3.314" height="3.543" rx="1.657" fill="#66bb6a"/>
        <rect id="rect4547" width="7.505" height="3.543" rx="1.772" transform="translate(4.267)" fill="#66bb6a"/>
        <rect id="rect4549" width="33.259" height="3.543" rx="1.772" transform="translate(13.029)" fill="#66bb6a"/>
        <rect id="rect4551" width="3.314" height="3.543" rx="1.657" transform="translate(0 4.953)" fill="#66bb6a"/>
        <rect id="rect4553" width="7.505" height="3.543" rx="1.772" transform="translate(4.267 4.953)" fill="#66bb6a"/>
        <rect id="rect4555" width="33.259" height="3.543" rx="1.772" transform="translate(13.029 4.953)" fill="#66bb6a"/>
      </g>
      <g id="Grupo_156512" data-name="Grupo 156512" transform="translate(30.96 16.534)">
        <rect id="rect4514" width="42.887" height="3.771" rx="1.886" fill="#fff"/>
        <rect id="rect4516" width="5.927" height="3.879" rx="1.94" transform="translate(44.341 0.108)" fill="#fff"/>
        <rect id="rect4522" width="3.502" height="3.502" rx="1.416" transform="translate(46.55 5.442)" fill="#ab6bac"/>
        <rect id="rect4524" width="3.502" height="3.502" rx="1.416" transform="translate(42.348 5.442)" fill="#ee5451"/>
        <rect id="rect4557" width="11.163" height="2.705" rx="1.352" transform="translate(2.218 5.836)" fill="#71b1e1"/>
        <rect id="rect4559" width="11.163" height="2.705" rx="1.352" transform="translate(14.942 5.836)" fill="#71b1e1"/>
        <rect id="rect4561" width="11.163" height="2.705" rx="1.352" transform="translate(28.048 5.836)" fill="#71b1e1"/>
      </g>
      <g id="Grupo_156513" data-name="Grupo 156513" transform="translate(217.773 15.894)">
        <rect id="rect4547-2" width="9.068" height="2.113" rx="1.056" fill="#66bb6a"/>
        <rect id="rect4578" width="9.068" height="1.837" rx="0.918" transform="translate(0 3.418)" fill="#66bb6a"/>
        <rect id="rect4580" width="9.068" height="1.745" rx="0.872" transform="translate(0 6.498)" fill="#66bb6a"/>
      </g>
      <g id="Grupo_156514" data-name="Grupo 156514" transform="translate(1.882 27.832)">
        <rect id="rect6728" width="34.725" height="4.642" rx="1.911" fill="#fff"/>
        <rect id="rect6730" width="189.024" height="4.642" rx="1.911" transform="translate(36.826)" fill="#fff"/>
      </g>
      <g id="Grupo_156515" data-name="Grupo 156515" transform="translate(14.433 16.77)">
        <rect id="rect4526" width="10.705" height="2.019" rx="1.01" fill="#66bb6a"/>
        <rect id="rect4528" width="1.787" height="2.019" rx="0.893" transform="translate(8.919 2.972)" fill="#66bb6a"/>
        <rect id="rect4530" width="10.705" height="2.019" rx="1.01" transform="translate(0 5.981)" fill="#66bb6a"/>
        <rect id="rect6848" width="2.08" height="2.019" rx="1.01" transform="translate(0 2.972)" fill="#66bb6a"/>
        <rect id="rect6850" width="5.335" height="2.019" rx="1.01" transform="translate(2.734 2.972)" fill="#66bb6a"/>
      </g>
    </g>
  </g>
</svg>
