<svg xmlns="http://www.w3.org/2000/svg" xmlns:xlink="http://www.w3.org/1999/xlink" width="294" height="210" viewBox="0 0 294 210">
  <defs>
    <clipPath id="clip-path">
      <rect id="Rect치ngulo_43108" data-name="Rect치ngulo 43108" width="262.246" height="188.935" fill="none"/>
    </clipPath>
  </defs>
  <g id="_29" data-name="29" transform="translate(-420 -3647.613)">
    <g id="Grupo_156470" data-name="Grupo 156470" transform="translate(435.877 3658.146)">
      <g id="Grupo_156469" data-name="Grupo 156469" clip-path="url(#clip-path)">
        <path id="Trazado_191388" data-name="Trazado 191388" d="M295.162,129c3.117-19.216-1.014-41.386-15.825-55.066C264.6,60.32,244.527,54.283,229.894,40.513,219.782,31,212.445,18.232,201.2,9.957,189.8,1.574,174.35-1.652,160.5.8A41.889,41.889,0,0,0,142.98,7.93c-9.845,7.221-14.643,18.759-18.828,29.809-4.346,11.476-9.28,24.039-17.344,33.5C98.647,80.81,85.957,86.152,75.523,92.75c-11.667,7.378-23.03,17.9-24.435,31.636-1.087,10.636,3.77,20.266,9.43,28.878,7.507,11.422,16.469,22.348,23.221,34.123,19.237-.991,39.239.135,58.633.233l73.96.373c10.463.053,22.387,1.879,32.2-1.708,11.446-4.185,23.812-9.426,32.061-18.815,8.956-10.194,12.458-25.45,14.57-38.474" transform="translate(-40.42 0.001)" fill="#ffe7e4"/>
        <path id="Trazado_191389" data-name="Trazado 191389" d="M583.452,26.1a.657.657,0,0,1-.113.728l-1.166,1.25a.794.794,0,0,0,.039,1.123l2.022,1.885a.794.794,0,0,0,1.123-.039l1.157-1.242a.669.669,0,0,1,.749-.15q.234.1.475.178a.668.668,0,0,1,.465.605l.059,1.7a.794.794,0,0,0,.821.767l2.762-.1a.794.794,0,0,0,.767-.821l-.059-1.713a.653.653,0,0,1,.394-.624c.158-.068.342-.149.511-.229a.656.656,0,0,1,.728.114l1.25,1.167a.794.794,0,0,0,1.123-.038l1.887-2.02a.8.8,0,0,0-.038-1.123l-1.241-1.158a.669.669,0,0,1-.15-.75q.1-.234.178-.475a.669.669,0,0,1,.606-.466l1.7-.057a.8.8,0,0,0,.767-.821l-.094-2.763a.794.794,0,0,0-.821-.767l-1.714.058a.653.653,0,0,1-.624-.394c-.068-.158-.149-.342-.228-.512a.657.657,0,0,1,.114-.728l1.168-1.249a.794.794,0,0,0-.037-1.123l-2.019-1.889a.794.794,0,0,0-1.123.038l-1.16,1.239a.666.666,0,0,1-.749.149c-.164-.068-.33-.131-.5-.187a.668.668,0,0,1-.466-.6l-.061-1.7a.8.8,0,0,0-.823-.765l-2.762.1a.8.8,0,0,0-.765.823l.062,1.712a.653.653,0,0,1-.393.625c-.158.068-.342.15-.512.23a.655.655,0,0,1-.728-.113l-1.251-1.165a.794.794,0,0,0-1.123.04l-1.884,2.024A.794.794,0,0,0,581.816,18l1.242,1.156a.667.667,0,0,1,.151.749q-.1.235-.178.475a.667.667,0,0,1-.6.466l-1.695.06a.794.794,0,0,0-.766.822l.1,2.763a.8.8,0,0,0,.822.766l2.166-.077c.01.029.209.514.4.921m8.21.249a3.916,3.916,0,1,1,2.28-4.443,3.918,3.918,0,0,1-2.28,4.443" transform="translate(-460.237 -9.998)" fill="#ff8578"/>
        <path id="Trazado_191390" data-name="Trazado 191390" d="M839.546,268.191a3.4,3.4,0,0,1,1.85.31c.276.125.579.144.861.251a5.2,5.2,0,0,1,.909.484c.759.476,1.589,1.052,1.744,1.935a3.146,3.146,0,0,1-.107,1.231,6.591,6.591,0,0,1-.806,2.442,11.889,11.889,0,0,0-1.114,2.615c-.952,2.432-1.976,4.836-3,7.239-.849,2-1.773,4.087-3.519,5.373a1.932,1.932,0,0,1-1.894.424,2.16,2.16,0,0,1-.934-1.368,22.952,22.952,0,0,1-.128-13.943,11.924,11.924,0,0,1,3.443-5.72,5.266,5.266,0,0,1,2.694-1.273" transform="translate(-660.551 -212.807)" fill="#414042"/>
        <path id="Trazado_191391" data-name="Trazado 191391" d="M538.991,115.689c7.923-3.84,8.712,3.3,8.727,3.448-.013-.129-.349-4.006,5.681-5.318,1.553-.338,1.945.354,1.971,1.077a2.156,2.156,0,0,1-.883,1.783l-1.784,1.341a4.977,4.977,0,0,0-1.76,2.493l-1.352,4.323a5.16,5.16,0,0,0-.192,2.216,18.169,18.169,0,0,1,.181,2.505l-.023,2.938-11.594,5.109-1.7-3.689-1.7-4.47s-3.573-9.878,4.431-13.758" transform="translate(-423.575 -90.253)" fill="#fff"/>
        <path id="Trazado_191392" data-name="Trazado 191392" d="M535.276,136.042l-1.976-4.281-1.7-4.47a16.545,16.545,0,0,1-.826-5.667,9.648,9.648,0,0,1,5.566-8.869c2.809-1.361,5.115-1.562,6.855-.595a5.132,5.132,0,0,1,2.072,2.273c.692-1.329,2.229-2.858,5.619-3.6a2.462,2.462,0,0,1,2.083.267,1.749,1.749,0,0,1,.639,1.393,2.772,2.772,0,0,1-1.13,2.3l-1.784,1.341a4.331,4.331,0,0,0-1.541,2.183l-1.352,4.323a4.575,4.575,0,0,0-.169,1.95,18.628,18.628,0,0,1,.187,2.591l-.026,3.339Zm-.826-4.741,1.44,3.117,10.671-4.7.019-2.538a17.187,17.187,0,0,0-.176-2.42,5.822,5.822,0,0,1,.214-2.481l1.353-4.323a5.563,5.563,0,0,1,1.979-2.8l1.784-1.341a1.533,1.533,0,0,0,.636-1.266.594.594,0,0,0-.161-.46c-.08-.062-.344-.19-1.06-.034-5.465,1.189-5.21,4.511-5.2,4.651l-1.232.126c0-.025-.288-2.559-2.128-3.582-1.366-.759-3.288-.549-5.713.627a8.366,8.366,0,0,0-4.867,7.764,15.561,15.561,0,0,0,.748,5.227Zm2.16-17.987h0Z" transform="translate(-421.194 -87.877)" fill="#231f20"/>
        <path id="Trazado_191393" data-name="Trazado 191393" d="M553.456,76.569,552.243,70.5a4.355,4.355,0,0,1,.629-3.245c1.088-1.657,2.855-3.984,3.987-3.619,1.16.375.127,2.71-.683,4.212a2.92,2.92,0,0,0-.035,2.7l2.729,5.43Z" transform="translate(-438.171 -50.472)" fill="#fff"/>
        <path id="Trazado_191394" data-name="Trazado 191394" d="M550.962,74.218a.619.619,0,0,1-.606-.5l-1.1-5.525a4.945,4.945,0,0,1,.718-3.707c2.917-4.442,4.255-4.01,4.7-3.868a1.291,1.291,0,0,1,.826.768c.125.31.5,1.252-1.154,4.327a2.3,2.3,0,0,0-.033,2.111l2.394,4.281a.619.619,0,0,1-1.081.6L553.2,68.4a3.541,3.541,0,0,1,.043-3.267c1.02-1.892,1.228-2.949,1.1-3.278-.012-.031-.017-.038-.057-.051-.3-.1-1.381.479-3.279,3.369a3.714,3.714,0,0,0-.539,2.784l1.1,5.525a.62.62,0,0,1-.608.741" transform="translate(-435.786 -48.042)" fill="#231f20"/>
        <path id="Trazado_191395" data-name="Trazado 191395" d="M554.733,134.265a2.9,2.9,0,0,1-1.957-1.04.619.619,0,0,1,.874-.878c.638.635.987.685,1.108.679.041,0,.151-.009.29-.187a.992.992,0,0,0,.175-.774,5.683,5.683,0,0,0-2.327-4.026c-2.367-1.586-5.685-.837-5.719-.829a.619.619,0,0,1-.284-1.206c.156-.037,3.863-.883,6.684,1a6.864,6.864,0,0,1,2.868,4.861,2.232,2.232,0,0,1-.423,1.739,1.62,1.62,0,0,1-1.189.658c-.033,0-.067,0-.1,0" transform="translate(-433.615 -99.817)" fill="#231f20"/>
        <path id="Trazado_191396" data-name="Trazado 191396" d="M544.2,147.885a2.934,2.934,0,0,1-1.888-.9.619.619,0,0,1,.824-.925c.622.554.971.6,1.094.59a.388.388,0,0,0,.284-.158.677.677,0,0,0,.147-.573,4.838,4.838,0,0,0-2.017-3.308c-2.317-1.56-5.756-.864-5.79-.857a.619.619,0,0,1-.256-1.212c.161-.034,3.975-.813,6.731,1.038a6.028,6.028,0,0,1,2.551,4.118,1.909,1.909,0,0,1-.434,1.612,1.628,1.628,0,0,1-1.139.577c-.035,0-.071,0-.106,0" transform="translate(-425.433 -111.373)" fill="#231f20"/>
        <path id="Trazado_191397" data-name="Trazado 191397" d="M552.232,162.18a.62.62,0,0,1-.584-.412c-1.613-4.536.729-6.734.829-6.826a.619.619,0,0,1,.837.913c-.084.08-1.818,1.788-.5,5.5a.62.62,0,0,1-.584.827" transform="translate(-437.318 -122.828)" fill="#231f20"/>
        <path id="Trazado_191398" data-name="Trazado 191398" d="M622.831,254.229l-54.465-22.135a4.679,4.679,0,0,1-2.861-3.608l-4.482-30.6-14.742,7.158-.815,31.678c0,7.483,2.056,14.823,9.026,17.546l9.926,3.879a6.542,6.542,0,0,1,4.13,6.736l-4.931,80.2h63.708V260.908a7.209,7.209,0,0,0-4.495-6.678" transform="translate(-432.861 -157.037)" fill="#fff"/>
        <path id="Trazado_191399" data-name="Trazado 191399" d="M625.564,342.411H560.579l4.973-81.146a5.945,5.945,0,0,0-3.739-6.1l-9.927-3.879c-6.162-2.408-9.419-8.675-9.419-18.123l.825-32.07,15.841-7.693,4.6,31.434a4.079,4.079,0,0,0,2.481,3.123l54.465,22.136a7.8,7.8,0,0,1,4.881,7.252ZM561.9,341.172h62.43V257.346a6.564,6.564,0,0,0-4.108-6.1l-54.465-22.135a5.326,5.326,0,0,1-3.239-4.085l-4.36-29.767-13.642,6.624-.805,31.3c0,9.006,2.9,14.715,8.632,16.954l9.926,3.879a7.187,7.187,0,0,1,4.522,7.362Z" transform="translate(-430.481 -153.476)" fill="#231f20"/>
        <path id="Trazado_191400" data-name="Trazado 191400" d="M738.505,479.487l1.233-6.2a17.36,17.36,0,0,1,9.995,11.938l7.709,32.625a15.3,15.3,0,0,1-14.888,18.817H694.605s-6.276-9.377,0-13.9l36.05-4.233Z" transform="translate(-548.998 -375.585)" fill="#fff"/>
        <path id="Trazado_191401" data-name="Trazado 191401" d="M740.136,534.907H693.368a2.693,2.693,0,0,1-2.363-1.4c-1.539-2.81-4.539-9.763.819-13.626l.134-.1,23.34-2.427a.619.619,0,0,1,.128,1.232l-23.008,2.392c-4.375,3.309-1.694,9.433-.327,11.93a1.454,1.454,0,0,0,1.276.754h46.768a14.679,14.679,0,0,0,14.286-18.055l-7.709-32.625a16.816,16.816,0,0,0-9.639-11.512.619.619,0,1,1,.492-1.137A18.06,18.06,0,0,1,747.917,482.7l7.709,32.625a15.918,15.918,0,0,1-15.491,19.578" transform="translate(-546.579 -373.203)" fill="#231f20"/>
        <path id="Trazado_191402" data-name="Trazado 191402" d="M774.541,359.152l-.753,15-5.777,3.89a7.968,7.968,0,0,1-12.273-5.094l-1.29-6.656.623-9.66Z" transform="translate(-598.701 -283.011)" fill="#fff"/>
        <path id="Trazado_191403" data-name="Trazado 191403" d="M761.255,377.255A8.719,8.719,0,0,1,752.7,370.2l-1.269-6.551.671-10.4,20.691,2.676-.8,15.884-5.88,3.959a8.7,8.7,0,0,1-4.861,1.488m-8.578-13.687,1.239,6.4a7.472,7.472,0,0,0,11.509,4.776l5.365-3.613.708-14.121-18.246-2.36Z" transform="translate(-596.306 -280.324)" fill="#231f20"/>
        <path id="Trazado_191404" data-name="Trazado 191404" d="M738.087,234.838a17.381,17.381,0,0,0-4.047,8.719c-1.342,8.292-2.775,26.468,10.349,26.938,11.344.406,14.735-12.931,15.735-21.868a16.932,16.932,0,0,0-7.871-16.4c-4.043-2.46-9.118-3.133-14.167,2.612" transform="translate(-581.841 -182.845)" fill="#fff"/>
        <path id="Trazado_191405" data-name="Trazado 191405" d="M742.521,268.767c-.176,0-.352,0-.53-.009a10.435,10.435,0,0,1-8.066-3.78c-4.9-5.966-3.9-17.52-2.873-23.877a17.98,17.98,0,0,1,4.193-9.028c4.431-5.043,9.6-5.988,14.954-2.732a17.594,17.594,0,0,1,8.164,17c-.462,4.132-1.542,10.03-4.06,14.665-2.8,5.153-6.762,7.763-11.782,7.763m-6.346-35.876h0a16.742,16.742,0,0,0-3.9,8.409c-1,6.15-1.981,17.3,2.607,22.893a9.246,9.246,0,0,0,7.152,3.328c4.764.169,8.526-2.22,11.18-7.107,2.422-4.458,3.467-10.189,3.917-14.211a16.351,16.351,0,0,0-7.577-15.8c-4.838-2.943-9.34-2.1-13.38,2.492" transform="translate(-579.464 -180.489)" fill="#231f20"/>
        <path id="Trazado_191406" data-name="Trazado 191406" d="M846.343,322.653a3.131,3.131,0,1,0,2.529-3.635,3.131,3.131,0,0,0-2.529,3.635" transform="translate(-671.585 -253.122)" fill="#fff"/>
        <path id="Trazado_191407" data-name="Trazado 191407" d="M856.75,323.47a3.723,3.723,0,0,1-.721-.071.619.619,0,0,1,.24-1.215,2.512,2.512,0,1,0,.042-4.937.619.619,0,1,1-.219-1.219,3.75,3.75,0,1,1,.658,7.442" transform="translate(-678.915 -250.741)" fill="#231f20"/>
        <path id="Trazado_191408" data-name="Trazado 191408" d="M750.623,220.316a12.011,12.011,0,0,1,1.312-2.755c.7-.919,1.7-1.187,2.6-1.845,2.389-1.733,3.447-4.5,4.277-7.218a11.811,11.811,0,0,0,.548-5.643,3.847,3.847,0,0,0-1.98-2.925c-1.4-.6-2.535.649-3.686.366-.88-.216-1.338-1.8-1.892-2.41a24.68,24.68,0,0,0-3.011-2.823,24,24,0,0,0-15.136-5.225,23.835,23.835,0,0,0-4.5.453,7.646,7.646,0,0,0-3.344,1.507,7,7,0,0,0-2.459,3.425c-.818,2.705.244,5.873,1.652,8.2,3.053,5.041,8.038,6,13.554,5.461,1.3-.128,2.793-.658,4.093-.385a2.43,2.43,0,0,1,1.688,1.841c.738,2.187,1.962,4.482,4.3,5.259-.291,1.308-2.506,6.5.1,6.721,1.115.1,1.528-1.172,1.876-2" transform="translate(-573.802 -150.648)" fill="#414042"/>
        <path id="Trazado_191409" data-name="Trazado 191409" d="M857.806,655.051a.62.62,0,0,1-.582-.408,7.073,7.073,0,0,1,1.087-6.377.619.619,0,0,1,.975.764,5.921,5.921,0,0,0-.9,5.189.62.62,0,0,1-.582.831" transform="translate(-679.967 -514.251)" fill="#231f20"/>
        <path id="Trazado_191410" data-name="Trazado 191410" d="M607.3,706.585l-12.162-1.534-14.64,4.637a1.431,1.431,0,0,0,.727,2.764l9.344-1.968a.135.135,0,0,1,.082.255l-10.115,4.454a1.384,1.384,0,0,0,1.048,2.561l11.276-4.278a.1.1,0,0,1,.089.178l-4.607,2.9a1.513,1.513,0,0,0,1.34,2.7l4.594-1.734,10.92,2.062a6.582,6.582,0,1,0,2.1-12.99" transform="translate(-459.872 -559.501)" fill="#fff"/>
        <path id="Trazado_191411" data-name="Trazado 191411" d="M604.042,717.883a7.286,7.286,0,0,1-1.34-.125l-10.751-2.03-4.432,1.673a2.133,2.133,0,0,1-1.888-3.8l.2-.123-6.4,2.429a2.01,2.01,0,0,1-2.529-1.032A2,2,0,0,1,577.9,712.2l5.848-2.575-4.781,1.007a2.05,2.05,0,0,1-1.041-3.96l14.77-4.678,12.3,1.551a7.2,7.2,0,0,1-.962,14.337m-12.2-3.436,11.091,2.094a5.962,5.962,0,1,0,1.909-11.767l-12.024-1.517-14.51,4.6a.811.811,0,0,0,.412,1.567l9.344-1.968a.754.754,0,0,1,.459,1.428L578.4,713.333a.765.765,0,0,0-.386,1.021.768.768,0,0,0,.965.394l11.276-4.277a.719.719,0,0,1,.638,1.281l-4.607,2.9a.894.894,0,0,0,.792,1.593Z" transform="translate(-457.486 -557.075)" fill="#231f20"/>
        <path id="Trazado_191412" data-name="Trazado 191412" d="M624.516,368.691a.62.62,0,0,1-.577-.393,5.678,5.678,0,0,1,1.991-6.253.619.619,0,1,1,.794.951,4.421,4.421,0,0,0-1.632,4.849.62.62,0,0,1-.576.846" transform="translate(-494.911 -287.191)" fill="#231f20"/>
        <path id="Trazado_191413" data-name="Trazado 191413" d="M760.7,345.289a.853.853,0,0,1-.824-1.076l1.748-6.444a.619.619,0,0,1,1.2.324l-1.605,5.919,1.475-.108a.619.619,0,1,1,.091,1.235l-2.018.148-.061,0" transform="translate(-602.982 -267.677)" fill="#231f20"/>
        <path id="Trazado_191414" data-name="Trazado 191414" d="M786.178,380.365a4.018,4.018,0,0,1-1.021-.143.619.619,0,1,1,.316-1.2,1.464,1.464,0,0,0,2.1-1.217.619.619,0,0,1,1.23.147,3.01,3.01,0,0,1-1.164,1.983,2.531,2.531,0,0,1-1.459.428" transform="translate(-622.704 -299.383)" fill="#231f20"/>
        <path id="Trazado_191415" data-name="Trazado 191415" d="M746,303.179a.616.616,0,0,1-.376-.128,3.5,3.5,0,0,0-3.49-.29.619.619,0,1,1-.526-1.121,4.743,4.743,0,0,1,4.771.429.619.619,0,0,1-.379,1.109" transform="translate(-588.229 -239.005)" fill="#231f20"/>
        <path id="Trazado_191416" data-name="Trazado 191416" d="M803.037,315.189a.618.618,0,0,1-.5-.26,3.5,3.5,0,0,0-3.252-1.3.619.619,0,0,1-.175-1.226,4.747,4.747,0,0,1,4.437,1.805.619.619,0,0,1-.505.977" transform="translate(-633.717 -247.873)" fill="#231f20"/>
        <path id="Trazado_191417" data-name="Trazado 191417" d="M748.442,320.026a.891.891,0,1,0,.965-.969.975.975,0,0,0-.965.969" transform="translate(-593.931 -253.189)" fill="#231f20"/>
        <path id="Trazado_191418" data-name="Trazado 191418" d="M796.5,331.6a.892.892,0,1,0,1.179-.693.975.975,0,0,0-1.179.693" transform="translate(-632.01 -262.563)" fill="#231f20"/>
        <path id="Trazado_191419" data-name="Trazado 191419" d="M779.841,498.455a.62.62,0,0,1-.562-.879l14.288-31-.532-5.279h5.59l-1.777-14.19a.619.619,0,1,1,1.229-.154l1.951,15.583H794.4l.428,4.252L780.4,498.094a.619.619,0,0,1-.563.36" transform="translate(-618.36 -354.252)" fill="#231f20"/>
        <path id="Trazado_191420" data-name="Trazado 191420" d="M693.086,457.089h-.025a.619.619,0,0,1-.595-.643l1.779-45.666,3.459-2.546-3.129-2.08,6.244-13.019a.619.619,0,0,1,1.117.535l-5.778,12.048,3.706,2.464-4.4,3.242-1.756,45.071a.62.62,0,0,1-.619.6" transform="translate(-549.515 -311.697)" fill="#231f20"/>
        <path id="Trazado_191421" data-name="Trazado 191421" d="M747.8,489.346l12.72,3.042.946-3.5-12.829-3.47Z" transform="translate(-593.428 -385.21)" fill="#ff8578"/>
        <path id="Trazado_191422" data-name="Trazado 191422" d="M740.837,526.054l12.4,2.965.946-3.5-12.6-3.408Z" transform="translate(-587.9 -414.329)" fill="#ff8578"/>
        <path id="Trazado_191423" data-name="Trazado 191423" d="M733.871,562.856l11.7,2.8.891-3.526-11.846-3.2Z" transform="translate(-582.371 -443.541)" fill="#ff8578"/>
        <path id="Trazado_191424" data-name="Trazado 191424" d="M726.9,600.325l11.148,2.666.908-3.519-11.345-2.9Z" transform="translate(-576.843 -473.42)" fill="#ff8578"/>
        <path id="Trazado_191425" data-name="Trazado 191425" d="M719.938,636.459,730.563,639l.9-3.537-10.783-2.916Z" transform="translate(-571.315 -501.965)" fill="#ff8578"/>
        <path id="Trazado_191426" data-name="Trazado 191426" d="M712.972,672.537l10.081,2.411.972-3.776-10.278-2.726Z" transform="translate(-565.787 -530.453)" fill="#ff8578"/>
        <path id="Trazado_191427" data-name="Trazado 191427" d="M760.462,492.181a.629.629,0,0,1-.159-.021.619.619,0,0,1-.44-.757l13.117-49.6,4.742-3.193a.619.619,0,1,1,.692,1.027l-4.355,2.933-13,49.152a.62.62,0,0,1-.6.461" transform="translate(-602.981 -347.978)" fill="#231f20"/>
        <path id="Trazado_191428" data-name="Trazado 191428" d="M708.124,471.008a.621.621,0,0,1-.609-.735l10.354-54.642-.886-4.572a.619.619,0,1,1,1.216-.235l.931,4.8-10.4,54.876a.62.62,0,0,1-.608.5" transform="translate(-561.448 -325.615)" fill="#231f20"/>
        <path id="Trazado_191429" data-name="Trazado 191429" d="M615.935,478.349a9.789,9.789,0,1,0-15.141,8.191v6.247l10.7-1.1V486.54a9.775,9.775,0,0,0,4.437-8.191" transform="translate(-473.246 -371.831)" fill="#ff8578"/>
        <path id="Trazado_191430" data-name="Trazado 191430" d="M623.837,574.97l-.815.682h-5.3l-.763-.7a7.656,7.656,0,0,1-2.471-5.633V569.1h12.091a7.655,7.655,0,0,1-2.744,5.872" transform="translate(-487.635 -451.614)" fill="#414042"/>
        <path id="Trazado_191431" data-name="Trazado 191431" d="M625.949,570H613.618a.076.076,0,0,1-.075-.075v-.747a.076.076,0,0,1,.075-.075h12.331a.076.076,0,0,1,.075.075v.747a.076.076,0,0,1-.075.075" transform="translate(-486.884 -451.614)" fill="#231f20"/>
        <path id="Trazado_191432" data-name="Trazado 191432" d="M625.949,578.85H613.618a.076.076,0,0,1-.075-.075v-.747a.076.076,0,0,1,.075-.075h12.331a.076.076,0,0,1,.075.075v.747a.075.075,0,0,1-.075.075" transform="translate(-486.884 -458.641)" fill="#231f20"/>
        <path id="Trazado_191433" data-name="Trazado 191433" d="M634.616,601.925h-4.9a.3.3,0,0,1-.3-.3v-1.463h5.492v1.463a.3.3,0,0,1-.3.3" transform="translate(-499.482 -476.269)" fill="#231f20"/>
        <path id="Trazado_191434" data-name="Trazado 191434" d="M182.24,597.909a7.942,7.942,0,0,1,6.926,4.015L205.3,630.287l7.133,1.615c13.474,5.152,8.917,30.653,8.917,30.653l-97.913-.17a17.356,17.356,0,0,1-15.406-9.854c-9.592-20.612,27.946-48.567,35.16-53.689a4.483,4.483,0,0,1,2.585-.827Z" transform="translate(-84.494 -474.477)" fill="#ff8578"/>
        <path id="Trazado_191435" data-name="Trazado 191435" d="M252.19,606.635c-1.654,1.2-4.057,3.009-6.844,5.272,6.243,4.693,16.138,9.751,27.007,6.842,0,0-15.89-2.407-20.163-12.114" transform="translate(-194.697 -481.402)" fill="#231f20"/>
        <path id="Trazado_191436" data-name="Trazado 191436" d="M457.543,632.4a27.735,27.735,0,0,0,13.53-4.143l-2.561-4.5c-2.594,5.926-10.969,8.646-10.969,8.646" transform="translate(-363.088 -494.985)" fill="#231f20"/>
        <path id="Trazado_191437" data-name="Trazado 191437" d="M318.155,519.8c-10.837-12.694-26.918-10.245-35.741-7.589a12.867,12.867,0,0,0-9.148,13.9c1.725,12.783,21.508,16.08,21.508,16.08H311.22s20.805-6.143,6.935-22.39" transform="translate(-216.765 -404.777)" fill="#ff8578"/>
        <path id="Trazado_191438" data-name="Trazado 191438" d="M308.849,540.478a.62.62,0,0,1-.176-1.213c.09-.027,9.047-2.747,10.915-9.052,1.07-3.612-.368-7.765-4.276-12.342-10.613-12.433-26.541-9.972-35.09-7.4A12.3,12.3,0,0,0,271.51,523.7c1.644,12.189,20.8,15.52,21,15.552a.619.619,0,1,1-.2,1.222,43.749,43.749,0,0,1-10.268-3.3c-6.953-3.263-11.017-7.866-11.751-13.311a13.549,13.549,0,0,1,9.584-14.576c8.839-2.66,25.319-5.188,36.389,7.78,4.2,4.919,5.72,9.462,4.52,13.5-2.063,6.951-11.356,9.767-11.751,9.884a.62.62,0,0,1-.175.026" transform="translate(-214.395 -402.446)" fill="#231f20"/>
        <path id="Trazado_191439" data-name="Trazado 191439" d="M330.809,485.171a3.553,3.553,0,1,1-4.071-2.947,3.553,3.553,0,0,1,4.071,2.947" transform="translate(-256.913 -382.638)" fill="#fff"/>
        <path id="Trazado_191440" data-name="Trazado 191440" d="M324.917,487.524a4.176,4.176,0,1,1,.662-.053,4.18,4.18,0,0,1-.662.053m.009-7.108a2.974,2.974,0,0,0-.471.038,2.922,2.922,0,1,0,.471-.038" transform="translate(-254.531 -380.256)" fill="#231f20"/>
        <path id="Trazado_191441" data-name="Trazado 191441" d="M347.662,516.227V529.9a5.528,5.528,0,0,0,2.654,4.722l14.549,8.857,5.481-10.4V520.123Z" transform="translate(-275.891 -409.658)" fill="#fff"/>
        <path id="Trazado_191442" data-name="Trazado 191442" d="M362.726,541.966l-14.515-8.837a7.433,7.433,0,0,1-3.547-6.312V513.845a.619.619,0,1,1,1.239,0v12.972a6.187,6.187,0,0,0,2.953,5.254l13.39,8.152,4.162-7.9a8.186,8.186,0,0,0,.94-3.8V526.15a.619.619,0,1,1,1.239,0v2.374A9.428,9.428,0,0,1,367.5,532.9Z" transform="translate(-273.511 -407.276)" fill="#231f20"/>
        <path id="Trazado_191443" data-name="Trazado 191443" d="M350.456,433h0a17.359,17.359,0,0,1-19.558-12.82l-4.582-17.829s29.139-12.709,32.087-5.139c2.351,6.037,2.374,16.8,1.992,24.672A11.828,11.828,0,0,1,350.456,433" transform="translate(-258.952 -313.306)" fill="#fff"/>
        <path id="Trazado_191444" data-name="Trazado 191444" d="M362.337,475.731a17.84,17.84,0,0,1-9.847-2.936,18.172,18.172,0,0,1-7.619-11.115.619.619,0,1,1,1.206-.283,16.716,16.716,0,0,0,16.277,13.095,17.158,17.158,0,0,0,2.715-.217,11.262,11.262,0,0,0,9.418-10.534,141.51,141.51,0,0,0-.24-15.487.619.619,0,0,1,1.235-.093,142.959,142.959,0,0,1,.242,15.641,12.507,12.507,0,0,1-10.459,11.7,18.5,18.5,0,0,1-2.929.234" transform="translate(-273.664 -355.187)" fill="#231f20"/>
        <path id="Trazado_191445" data-name="Trazado 191445" d="M318.784,365.872q-1.6-.342-3.181-.746a19.89,19.89,0,0,1-4.029,11.263c-.3.4-.724.832-1.226.76a1.469,1.469,0,0,1-.78-.506l-2.012-2.044a19.023,19.023,0,0,0-2.579-1.834,11.452,11.452,0,0,1-4.6-6.868,8.043,8.043,0,0,1,2.587-7.643,6.492,6.492,0,0,1,7.92-.233c1.621-7.406,8.8-13.306,16.513-13.57a17.835,17.835,0,0,1,12.769,5.051,17.207,17.207,0,0,1,3.161,4.106c.948,1.727,2.015,3.815,1.569,5.833a9.839,9.839,0,0,1-5.993,7.149c-3.023,1.189-6.388,1.119-9.624.844a84.261,84.261,0,0,1-10.5-1.563" transform="translate(-238.256 -273.336)" fill="#ff8578"/>
        <path id="Trazado_191446" data-name="Trazado 191446" d="M539.626,682.249a.629.629,0,0,1-.11-.01.619.619,0,0,1-.5-.718c.044-.25,4.3-25-8.487-29.95l-7.354-1.665-15.547-27.032a.619.619,0,1,1,1.074-.618l15.276,26.562,6.911,1.565.041.016c5.749,2.2,9.174,8.349,9.907,17.789a60.782,60.782,0,0,1-.6,13.551.619.619,0,0,1-.609.51" transform="translate(-402.768 -493.552)" fill="#231f20"/>
        <path id="Trazado_191447" data-name="Trazado 191447" d="M136.68,667.72c-6.245,0-11.822-.1-14.961-.171a17.766,17.766,0,0,1-15.958-10.222c-2.268-5.118-1.847-11.145,1.252-17.915,2.445-5.341,6.56-11.162,12.231-17.3a154.3,154.3,0,0,1,20.678-18.359.619.619,0,0,1,.72,1.008,152.963,152.963,0,0,0-20.5,18.2c-5.578,6.043-9.618,11.753-12.006,16.972-2.942,6.43-3.36,12.112-1.242,16.89a16.524,16.524,0,0,0,14.854,9.485c19.1.428,41.1.156,45.578-1.895,5.831-2.673,4.173-13.206,3.782-15.29a2.034,2.034,0,0,0-1.89-1.659l-.026,0-33.42-3.269a.619.619,0,1,1,.121-1.233l33.408,3.268a3.269,3.269,0,0,1,3.025,2.666c.592,3.151,2.019,13.665-4.483,16.645-3.9,1.786-18.831,2.177-31.162,2.177" transform="translate(-82.788 -479.022)" fill="#231f20"/>
        <path id="Trazado_191448" data-name="Trazado 191448" d="M394.892,833.122l11.569.623,12.835,6.78a1.352,1.352,0,0,1-1.142,2.448l-8.358-3.405a.127.127,0,0,0-.119.223l8.657,5.847a1.308,1.308,0,0,1-1.407,2.205l-9.766-5.879a.1.1,0,0,0-.112.151l3.8,3.471a1.43,1.43,0,0,1-1.7,2.282l-3.981-2.387-10.5.077a6.221,6.221,0,1,1,.232-12.436" transform="translate(-308.222 -661.129)" fill="#fff"/>
        <path id="Trazado_191449" data-name="Trazado 191449" d="M407.5,846.311a2.043,2.043,0,0,1-1.052-.292l-3.831-2.3-10.33.076h-.04a6.84,6.84,0,1,1,.294-13.674h.007l11.705.63L417.2,837.6a1.971,1.971,0,0,1-1.665,3.569l-3.975-1.619,4.734,3.2a1.927,1.927,0,0,1,.5,2.706,1.934,1.934,0,0,1-2.571.543l-5.267-3.171a2.051,2.051,0,0,1-1.462,3.489m-4.545-3.831,4.13,2.476a.811.811,0,0,0,.964-1.294l-3.8-3.471a.714.714,0,0,1,.849-1.139l9.767,5.879a.692.692,0,0,0,.919-.194.689.689,0,0,0-.178-.967l-8.657-5.847a.747.747,0,0,1,.7-1.31l8.358,3.4a.733.733,0,0,0,.619-1.327l-12.714-6.716-11.43-.616a5.6,5.6,0,1,0-.206,11.2Z" transform="translate(-305.842 -658.748)" fill="#231f20"/>
        <path id="Trazado_191450" data-name="Trazado 191450" d="M369.878,832.219h-.026a.62.62,0,0,1-.593-.645,7.356,7.356,0,0,1,4.234-6.366.619.619,0,1,1,.527,1.121,6.121,6.121,0,0,0-3.523,5.3.619.619,0,0,1-.618.593" transform="translate(-293.029 -654.806)" fill="#231f20"/>
        <path id="Trazado_191451" data-name="Trazado 191451" d="M272.692,769.634h-.024a.619.619,0,0,1-.595-.643c.113-2.954-1.555-4.094-1.626-4.142a.619.619,0,0,1,.671-1.041c.1.061,2.334,1.535,2.192,5.23a.619.619,0,0,1-.618.6" transform="translate(-214.395 -606.051)" fill="#231f20"/>
        <path id="Trazado_191452" data-name="Trazado 191452" d="M531.519,770.323a.653.653,0,0,1-.076,0,.62.62,0,0,1-.54-.69c1.228-10.046,9.887-10.3,9.974-10.3h.01a.619.619,0,0,1,.011,1.239c-.313.006-7.671.255-8.765,9.208a.619.619,0,0,1-.614.544" transform="translate(-421.3 -602.576)" fill="#231f20"/>
        <path id="Trazado_191453" data-name="Trazado 191453" d="M563.745,795.345a.626.626,0,0,1-.076,0,.619.619,0,0,1-.54-.69c.984-8.047,7.936-8.247,8.006-8.248a.627.627,0,0,1,.629.61.619.619,0,0,1-.608.629c-.242.005-5.947.205-6.8,7.16a.619.619,0,0,1-.614.544" transform="translate(-446.874 -624.059)" fill="#231f20"/>
        <path id="Trazado_191454" data-name="Trazado 191454" d="M396.226,672.661l-.053,0a.826.826,0,0,1-.772-.877c.837-13.13-4.593-17.876-4.648-17.922a.826.826,0,0,1,1.056-1.27c.251.207,6.137,5.245,5.241,19.3a.826.826,0,0,1-.823.773" transform="translate(-309.853 -517.721)" fill="#fff"/>
        <path id="Trazado_191455" data-name="Trazado 191455" d="M435.245,672.659a.826.826,0,0,1-.819-.731c-1.756-15.2,1.743-18.933,2.148-19.308a.826.826,0,0,1,1.135,1.2c-.079.084-3.292,3.631-1.642,17.919a.826.826,0,0,1-.725.915.893.893,0,0,1-.1.005" transform="translate(-344.355 -517.719)" fill="#fff"/>
        <path id="Trazado_191456" data-name="Trazado 191456" d="M446.546,500.287h-.019l-1.912-.044a.619.619,0,0,1,.014-1.238h.015l1.35.031-1.78-5.466a.619.619,0,1,1,1.178-.384l1.954,6a.84.84,0,0,1-.8,1.1m-.379-.717h0Z" transform="translate(-352.349 -391.034)" fill="#231f20"/>
        <path id="Trazado_191457" data-name="Trazado 191457" d="M433.128,536.76a2.391,2.391,0,0,1-1.291-.355,2.823,2.823,0,0,1-1.191-1.851.619.619,0,0,1,1.223-.2,1.622,1.622,0,0,0,.63,1,1.64,1.64,0,0,0,1.355.04.619.619,0,0,1,.365,1.184,3.709,3.709,0,0,1-1.09.179" transform="translate(-341.737 -423.633)" fill="#231f20"/>
        <path id="Trazado_191458" data-name="Trazado 191458" d="M448.556,468.559a.619.619,0,0,1-.463-1.029,4.52,4.52,0,0,1,4.391-1.242.619.619,0,1,1-.31,1.2,3.276,3.276,0,0,0-3.158.868.62.62,0,0,1-.46.2" transform="translate(-355.466 -369.908)" fill="#231f20"/>
        <path id="Trazado_191459" data-name="Trazado 191459" d="M397.105,481.16a.619.619,0,0,1-.479-1.01,4.521,4.521,0,0,1,4.337-1.417.619.619,0,1,1-.262,1.211,3.272,3.272,0,0,0-3.12.994.621.621,0,0,1-.477.222" transform="translate(-314.636 -379.818)" fill="#231f20"/>
        <path id="Trazado_191460" data-name="Trazado 191460" d="M462.073,483.982a.843.843,0,1,1-1.065-.732.921.921,0,0,1,1.065.732" transform="translate(-365.381 -383.468)" fill="#231f20"/>
        <path id="Trazado_191461" data-name="Trazado 191461" d="M414.5,497.271a.843.843,0,1,1-1.065-.732.921.921,0,0,1,1.065.732" transform="translate(-327.627 -394.013)" fill="#231f20"/>
        <path id="Trazado_191462" data-name="Trazado 191462" d="M351.118,887.45h-43.1a4.216,4.216,0,0,1-4.216-4.216V881.2h47.319Z" transform="translate(-241.083 -699.284)" fill="#231f20"/>
        <path id="Trazado_191463" data-name="Trazado 191463" d="M504.4,741.153H434.454l14.538-38.5a8.988,8.988,0,0,1,8.408-5.813h56.683a4.873,4.873,0,0,1,4.558,6.594Z" transform="translate(-344.766 -552.987)" fill="#414042"/>
        <path id="Trazado_191464" data-name="Trazado 191464" d="M631.052,793.115a4.041,4.041,0,1,1-3.2-4.736,4.041,4.041,0,0,1,3.2,4.736" transform="translate(-494.424 -625.568)" fill="#58595b"/>
        <path id="Trazado_191465" data-name="Trazado 191465" d="M880.43,432.789c8.474,2.641,21.887-2.3,27.349-7.192,4.121-3.69,4.581-10.035,4.054-15.146-1.245-12.067-7.5-23-12.324-33.9-2.95-6.669-10.984-11.909-18.062-13.126a18.2,18.2,0,0,0-15.187,4.726,21.4,21.4,0,0,0-6.545,14.674c-.424,10.13,3.641,21.825,8.206,30.726,3.155,6.152,4.785,16.829,12.509,19.236" transform="translate(-682.212 -288.216)" fill="#ff8578"/>
        <path id="Trazado_191466" data-name="Trazado 191466" d="M694.9,637.968l-19.853,22.369-10.745-10.2a3.814,3.814,0,0,0-5.212-.037l-6.1,5.63a3.809,3.809,0,0,0-.951,4.229c2.941,7.271,12.244,28.12,22.262,28.244,12.135.15,27.416-29.662,27.416-29.662Z" transform="translate(-517.209 -506.267)" fill="#fff"/>
        <path id="Trazado_191467" data-name="Trazado 191467" d="M672.021,684.151h-.1c-10.2-.127-19.363-20.064-22.828-28.631A4.453,4.453,0,0,1,650.2,650.6l6.1-5.63a4.444,4.444,0,0,1,6.058.043l10.281,9.761,20.141-22.694,7.233,21.838-.118.231c-.629,1.228-15.519,30-27.876,30M659.308,645.04a3.185,3.185,0,0,0-2.166.844l-6.1,5.63a3.208,3.208,0,0,0-.8,3.542c2.631,6.5,11.971,27.736,21.7,27.856h.086c11.054,0,25.208-26.351,26.652-29.1l-6.393-19.3-19.565,22.044-11.209-10.643a3.187,3.187,0,0,0-2.2-.875" transform="translate(-514.843 -501.597)" fill="#231f20"/>
        <path id="Trazado_191468" data-name="Trazado 191468" d="M875.9,609.889l-8.364-.722-20.45,2.141a10.894,10.894,0,0,0-9.593,8.939l-2.86,16.179a10.209,10.209,0,0,0,3.021,9.178l2.016,1.916.449,23.97h57.87L891.756,623A18.092,18.092,0,0,0,875.9,609.889" transform="translate(-662.208 -483.411)" fill="#fff"/>
        <path id="Trazado_191469" data-name="Trazado 191469" d="M984.38,852.289l1.56,12.132H945.307Z" transform="translate(-750.159 -676.343)" fill="#231f20"/>
        <path id="Trazado_191470" data-name="Trazado 191470" d="M908.2,669.718H849.014l-.461-24.578a.619.619,0,0,1,1.238-.023l.438,23.362h56.558l-6.138-47.744a17.56,17.56,0,0,0-15.3-12.619l-8.305-.717-20.391,2.135a10.233,10.233,0,0,0-6.779,3.588l-2.34,2.637a.619.619,0,1,1-.926-.822l2.33-2.626a11.456,11.456,0,0,1,7.586-4.009l20.509-2.148,8.423.727a18.805,18.805,0,0,1,16.4,13.561l.018.089Z" transform="translate(-671.71 -481.02)" fill="#231f20"/>
        <path id="Trazado_191471" data-name="Trazado 191471" d="M994.616,609.167l9.683.836a26.641,26.641,0,0,1,18.8,10.241c7.174,9.289,16.9,23.678,17.645,34.208.825,11.721-27.748,13.807-38.106,14.911a5.873,5.873,0,0,1-6.127-3.748,19.3,19.3,0,0,1-.55-10.488,5.575,5.575,0,0,1,4.223-4.4l11.961-2.756s-11.985-12.285-12.135-18.127-5.393-20.674-5.393-20.674" transform="translate(-789.289 -483.411)" fill="#fff"/>
        <path id="Trazado_191472" data-name="Trazado 191472" d="M999.625,667.635a6.477,6.477,0,0,1-6.073-4.183,20.046,20.046,0,0,1-.579-10.821,6.194,6.194,0,0,1,4.692-4.89l11.961-2.756a.619.619,0,0,1,.278,1.207l-11.961,2.756a4.954,4.954,0,0,0-3.753,3.912,18.836,18.836,0,0,0,.521,10.156,5.244,5.244,0,0,0,5.481,3.35c.663-.071,1.4-.145,2.2-.226,5.958-.6,14.963-1.515,22.523-3.652,8.823-2.494,13.14-5.984,12.831-10.374-.717-10.176-9.922-24.036-17.518-33.872a26.085,26.085,0,0,0-18.363-10l-9.683-.836a.619.619,0,0,1,.107-1.234l9.683.836a27.329,27.329,0,0,1,19.237,10.479c7.7,9.971,17.035,24.058,17.773,34.542.815,11.572-24.365,14.12-36.465,15.345-.8.081-1.532.155-2.193.226a6.648,6.648,0,0,1-.7.037" transform="translate(-786.909 -481.031)" fill="#231f20"/>
        <path id="Trazado_191473" data-name="Trazado 191473" d="M926.427,833.68l-11.272.607-12.505,6.605a1.317,1.317,0,0,0,1.112,2.385l8.144-3.318a.124.124,0,0,1,.116.218l-8.435,5.7a1.275,1.275,0,0,0,1.371,2.148l9.515-5.728a.092.092,0,0,1,.11.147l-3.7,3.382a1.394,1.394,0,0,0,1.657,2.224l3.878-2.326,10.234.075a6.061,6.061,0,1,0-.226-12.116" transform="translate(-715.75 -661.571)" fill="#fff"/>
        <path id="Trazado_191474" data-name="Trazado 191474" d="M909.436,846.484a2.032,2.032,0,0,1-.439-.048,2.013,2.013,0,0,1-1.076-3.294l-5.034,3.031a1.9,1.9,0,0,1-2.526-.534,1.894,1.894,0,0,1,.489-2.658l4.487-3.03-3.731,1.52a1.937,1.937,0,0,1-1.635-3.506L912.6,831.3l.136-.007,11.279-.608a6.68,6.68,0,1,1,.249,13.355l-10.061-.074-3.729,2.236a2.007,2.007,0,0,1-1.033.287m2.7-7.2a.712.712,0,0,1,.479,1.237l-3.7,3.381a.775.775,0,0,0,.355,1.328.771.771,0,0,0,.566-.092l4.028-2.415,10.408.076h.032a5.442,5.442,0,1,0-.232-10.879l-11.134.6-12.385,6.542a.7.7,0,0,0,.589,1.264l8.144-3.318a.743.743,0,0,1,.7,1.3l-8.435,5.7a.655.655,0,0,0-.169.92.657.657,0,0,0,.874.185l9.515-5.728a.712.712,0,0,1,.368-.1" transform="translate(-713.361 -659.19)" fill="#231f20"/>
        <path id="Trazado_191475" data-name="Trazado 191475" d="M933.316,530.492l2.946,14.9a2.347,2.347,0,0,0,2.061,1.879l5.744.594a.327.327,0,0,1,.19.564L925.845,577.8l-9.528-28.549a.567.567,0,0,1,.4-.895l3.214-.321a1.721,1.721,0,0,0,1.549-1.712v-15.1Z" transform="translate(-727.068 -420.978)" fill="#fff"/>
        <path id="Trazado_191476" data-name="Trazado 191476" d="M946.154,709.509a24.049,24.049,0,0,0,9.548.629l-1.664,2.653c-.52.031-1.041.05-1.562.05a26.534,26.534,0,0,1-5.4-.558Z" transform="translate(-750.831 -563.039)" fill="#231f20"/>
        <path id="Trazado_191477" data-name="Trazado 191477" d="M947.784,636.643l-2.626,4.188a26.5,26.5,0,0,1-20.292.235l-1.072-3.212a24.072,24.072,0,0,0,23.974-1.2l.016-.008" transform="translate(-733.087 -505.215)" fill="#231f20"/>
        <path id="Trazado_191478" data-name="Trazado 191478" d="M951.453,677.094l-1.953,3.115a26.475,26.475,0,0,1-13.288-.49l-.987-2.958a24.052,24.052,0,0,0,16.229.333" transform="translate(-742.157 -537.051)" fill="#231f20"/>
        <path id="Trazado_191479" data-name="Trazado 191479" d="M956.681,741.049a24.062,24.062,0,0,0,3.468.349l-1.507,2.4c-.36-.03-.72-.065-1.08-.11Z" transform="translate(-759.185 -588.068)" fill="#231f20"/>
        <path id="Trazado_191480" data-name="Trazado 191480" d="M923.289,576.733l-9.919-29.72a1.186,1.186,0,0,1,.9-1.781l3.215-.321a1.1,1.1,0,0,0,.992-1.1V528.132l12.953-.795,3.051,15.434A1.719,1.719,0,0,0,936,544.155l5.744.594a.947.947,0,0,1,.619,1.56Zm-8.8-30.277,0,0,9.143,27.394,17.507-27.921-5.265-.544a2.951,2.951,0,0,1-2.6-2.375l-2.841-14.372-10.709.657v14.519a2.333,2.333,0,0,1-2.107,2.329Z" transform="translate(-724.684 -418.474)" fill="#231f20"/>
        <path id="Trazado_191481" data-name="Trazado 191481" d="M1002.609,470.628a4,4,0,1,0,3.592-4.363,4,4,0,0,0-3.592,4.363" transform="translate(-795.617 -369.995)" fill="#fff"/>
        <path id="Trazado_191482" data-name="Trazado 191482" d="M1004.2,472.478a4.621,4.621,0,1,1,.448-.022q-.225.022-.448.022m.006-7.992q-.163,0-.328.016a3.375,3.375,0,1,0,.328-.016" transform="translate(-793.235 -367.614)" fill="#231f20"/>
        <path id="Trazado_191483" data-name="Trazado 191483" d="M914.61,404.361s6.525,25.855-11.944,29.218-14.127-31.238-14.127-31.238,11.47-16.059,26.071,2.021" transform="translate(-704.758 -314.065)" fill="#fff"/>
        <path id="Trazado_191484" data-name="Trazado 191484" d="M897.8,457.319a9.743,9.743,0,0,1-6.936-2.69c-8.026-7.595-5.5-28.585-5.384-29.474a.619.619,0,0,1,1.229.154c-.026.212-2.565,21.257,5.008,28.421,2.152,2.036,4.977,2.753,8.395,2.131,7.184-1.308,11.332-6.267,12.33-14.739a.619.619,0,1,1,1.23.145c-1.054,8.949-5.666,14.417-13.338,15.813a14.147,14.147,0,0,1-2.532.24" transform="translate(-702.316 -336.956)" fill="#231f20"/>
        <path id="Trazado_191485" data-name="Trazado 191485" d="M1017.013,353.429a7.6,7.6,0,0,0-1.518,4.23,4.185,4.185,0,0,0,.126,1.871,6.828,6.828,0,0,0,1.487,1.949,13.217,13.217,0,0,0,1.184.9,7.668,7.668,0,0,0,1.442,1,7.066,7.066,0,0,0,7.536-1.079,6.693,6.693,0,0,0-3.758-11.66,7.306,7.306,0,0,0-6.5,2.789" transform="translate(-805.823 -278.219)" fill="#ff8578"/>
        <path id="Trazado_191486" data-name="Trazado 191486" d="M932.425,519.452a.835.835,0,0,1-.834-.87l.074-3.146a.619.619,0,0,1,.619-.6h.015a.619.619,0,0,1,.6.634l-.062,2.6,1.248-.38a.619.619,0,1,1,.361,1.185l-1.783.542a.836.836,0,0,1-.243.036m.4-.842v.013a.125.125,0,0,0,0-.013" transform="translate(-739.274 -408.55)" fill="#231f20"/>
        <path id="Trazado_191487" data-name="Trazado 191487" d="M894.75,474.364a.619.619,0,0,1-.311-1.155,4.419,4.419,0,0,1,4.462.015.619.619,0,0,1-.668,1.043,3.177,3.177,0,0,0-3.174.014.619.619,0,0,1-.31.083" transform="translate(-709.547 -375.041)" fill="#231f20"/>
        <path id="Trazado_191488" data-name="Trazado 191488" d="M958.8,473.956a.617.617,0,0,1-.353-.111,3.179,3.179,0,0,0-3.172-.114.619.619,0,0,1-.578-1.1,4.422,4.422,0,0,1,4.458.194.619.619,0,0,1-.356,1.126" transform="translate(-757.351 -374.654)" fill="#231f20"/>
        <path id="Trazado_191489" data-name="Trazado 191489" d="M902.4,490.259a.821.821,0,1,0,.808-.966.9.9,0,0,0-.808.966" transform="translate(-716.106 -388.284)" fill="#231f20"/>
        <path id="Trazado_191490" data-name="Trazado 191490" d="M959.052,491.411a.821.821,0,1,0,.808-.966.9.9,0,0,0-.808.966" transform="translate(-761.066 -389.198)" fill="#231f20"/>
        <path id="Trazado_191491" data-name="Trazado 191491" d="M949.45,541.355a1.6,1.6,0,1,0,.355-2.137,1.535,1.535,0,0,0-.355,2.137" transform="translate(-753.216 -427.616)" fill="#ff5722"/>
        <path id="Trazado_191492" data-name="Trazado 191492" d="M946.175,539.274a.619.619,0,0,1-.028-1.238,2.235,2.235,0,0,0,1.626-.615,1.678,1.678,0,0,0,.387-1.117.619.619,0,0,1,1.234-.1,2.875,2.875,0,0,1-.679,2.026,3.391,3.391,0,0,1-2.511,1.048h-.029" transform="translate(-750.357 -425.061)" fill="#231f20"/>
        <path id="Trazado_191493" data-name="Trazado 191493" d="M1061.4,771.779a.617.617,0,0,1-.443-.187,2.861,2.861,0,0,1-.011-4.05.619.619,0,0,1,.91.841,1.638,1.638,0,0,0-.013,2.344.619.619,0,0,1-.443,1.052" transform="translate(-841.258 -608.935)" fill="#231f20"/>
        <path id="Trazado_191494" data-name="Trazado 191494" d="M555.137,626.848h0a1.857,1.857,0,0,1,2.686-.127l6.988,6.667-2.132-6.911c1.121-1.44,2.594,0,2.594,0l3.735,6.324-.61-5.5c.69-1.648,2.429.148,2.429.148l2.64,5.682.381-1.467a11.866,11.866,0,0,1,2.4-2.3.545.545,0,0,1,.733.183,2.887,2.887,0,0,1,.41,2.1c-.284,1.5-.64,1.305-.64,1.305l-.052,2.694.353.015,2.847-3.047,1.39-2.432a3.411,3.411,0,0,1,2.962-1.719h.02a.231.231,0,0,1,.23.253l-.974,6,1,3.944.084.124a6.8,6.8,0,0,1-9.045,9.7l-3.825-2.236a16.746,16.746,0,0,1-4.555-3.909L555.127,627.47a.484.484,0,0,1,.01-.622" transform="translate(-440.441 -496.64)" fill="#fff"/>
        <path id="Trazado_191495" data-name="Trazado 191495" d="M576.606,649.072a7.4,7.4,0,0,1-3.738-1.01l-3.825-2.237a17.3,17.3,0,0,1-4.723-4.054L552.264,626.9a1.1,1.1,0,0,1,.023-1.418,2.476,2.476,0,0,1,3.581-.17l6.814,6.5a.619.619,0,1,1-.855.9l-6.814-6.5a1.238,1.238,0,0,0-1.713,0l11.982,14.777a16.068,16.068,0,0,0,4.386,3.765l3.825,2.237a6.179,6.179,0,0,0,8.221-8.818l-.146-.214-1.057-4.174.913-5.627a2.8,2.8,0,0,0-1.981,1.369l-1.426,2.5-2.9,3.1a.619.619,0,1,1-.9-.845l2.8-2.994,1.354-2.37a4.039,4.039,0,0,1,3.5-2.031.863.863,0,0,1,.649.278.852.852,0,0,1,.217.652l-.005.041-.954,5.877.94,3.713.022.032a7.411,7.411,0,0,1-6.131,11.6" transform="translate(-438.059 -495.683)" fill="#231f20"/>
        <path id="Trazado_191496" data-name="Trazado 191496" d="M645.989,650.034a.614.614,0,0,1-.172-.025l-5.785-1.671v-5.046l.491-.718a2.211,2.211,0,0,0,.058-2.414l-2.1,2.1-1.5,5.768a.619.619,0,1,1-1.2-.311l1.584-6.094,2.539-2.538a1,1,0,0,1,1.5.1l.03.039a3.448,3.448,0,0,1,.107,4.05l-.275.4v3.732l4.89,1.412a.619.619,0,0,1-.172,1.215m-5.564-10.1h0Z" transform="translate(-504.516 -506.92)" fill="#231f20"/>
        <path id="Trazado_191497" data-name="Trazado 191497" d="M618.51,638.124a.619.619,0,0,1-.615-.552l-1.057-9.7a1,1,0,0,1,.6-1.053,2.382,2.382,0,0,1,2.965.921l.05.1L622.966,634a.619.619,0,1,1-1.147.468l-2.491-6.11a1.147,1.147,0,0,0-1.24-.459l1.039,9.536a.62.62,0,0,1-.616.686" transform="translate(-489.492 -497.264)" fill="#231f20"/>
        <path id="Trazado_191498" data-name="Trazado 191498" d="M592.779,634.716a.62.62,0,0,1-.592-.438l-3.024-9.85a1,1,0,0,1,.581-1.235l.2-.081a2.556,2.556,0,0,1,2.834.631l.045.049.034.057,3.736,6.27a.619.619,0,1,1-1.064.634l-3.7-6.207a1.325,1.325,0,0,0-1.427-.284l2.964,9.652a.62.62,0,0,1-.592.8m-2.438-10.669,0,.014,0-.014" transform="translate(-467.496 -494.329)" fill="#231f20"/>
        <path id="Trazado_191499" data-name="Trazado 191499" d="M960.5,649.585a.619.619,0,0,1-.446-1.048l15.934-16.57-1.919-6.037,6.854-1.519-.144-9.572a.619.619,0,0,1,.61-.629.626.626,0,0,1,.628.61l.159,10.581-6.517,1.445,1.732,5.449-16.445,17.1a.617.617,0,0,1-.446.19" transform="translate(-761.727 -487.412)" fill="#231f20"/>
        <path id="Trazado_191500" data-name="Trazado 191500" d="M902.23,661.888a.619.619,0,0,1-.619-.619v-7.884L889.884,630.81l2.674-4.873-4.927-.71.041-7.353a.619.619,0,0,1,.619-.616h0a.619.619,0,0,1,.616.623l-.035,6.274,5.628.811-3.215,5.86,11.561,22.257v8.186a.619.619,0,0,1-.619.619" transform="translate(-704.389 -489.832)" fill="#231f20"/>
        <path id="Trazado_191501" data-name="Trazado 191501" d="M941.74,471.987a6.444,6.444,0,1,1,6.444-6.444,6.452,6.452,0,0,1-6.444,6.444m0-11.65a5.206,5.206,0,1,0,5.205,5.206,5.211,5.211,0,0,0-5.205-5.206" transform="translate(-742.215 -364.323)" fill="#231f20"/>
        <path id="Trazado_191502" data-name="Trazado 191502" d="M988.775,466.617a.619.619,0,0,1-.165-1.216l7.688-2.133a.619.619,0,1,1,.331,1.194l-7.688,2.133a.625.625,0,0,1-.166.023" transform="translate(-784.162 -367.614)" fill="#231f20"/>
        <path id="Trazado_191503" data-name="Trazado 191503" d="M880.709,382.531a16.858,16.858,0,0,1-11.884,11.609,25.374,25.374,0,0,1,2.49-12.955,15.362,15.362,0,0,1,3.669-5.2c2.619-2.261,6.228-3.047,9.682-3.026a24.964,24.964,0,0,1,13.988,4.43,22.057,22.057,0,0,1,7.6,9.418c.261.581.718,1.032,1.024,1.584a2.936,2.936,0,0,1,.272,1.962,2.048,2.048,0,0,1-1.359,1.826,19.608,19.608,0,0,1-2.689.276,23.753,23.753,0,0,1-3.474.206,24.7,24.7,0,0,1-13.162-4.112,22.674,22.674,0,0,1-6.159-6.015" transform="translate(-689.397 -295.963)" fill="#ff8578"/>
        <path id="Trazado_191504" data-name="Trazado 191504" d="M881.6,471.987a6.444,6.444,0,1,1,6.444-6.444,6.451,6.451,0,0,1-6.444,6.444m0-11.65a5.206,5.206,0,1,0,5.205,5.206,5.211,5.211,0,0,0-5.205-5.206" transform="translate(-694.492 -364.323)" fill="#231f20"/>
        <path id="Trazado_191505" data-name="Trazado 191505" d="M1023.769,504.144h-1.8a1.061,1.061,0,0,1-1.06-1.06V497.5a.619.619,0,0,1,1.239,0v5.4h1.363l-1.125-3a.619.619,0,0,1,1.16-.435l1.215,3.24a1.06,1.06,0,0,1-.992,1.432" transform="translate(-810.154 -394.309)" fill="#231f20"/>
        <path id="Trazado_191506" data-name="Trazado 191506" d="M83.728,443.556l-2.072-1.45v-2.687a4.489,4.489,0,0,0-4.49-4.489H39.25a4.489,4.489,0,0,0-4.49,4.489v10.3a4.49,4.49,0,0,0,4.49,4.489H77.166a4.49,4.49,0,0,0,4.49-4.489V446.71l1.961-1.081a1.223,1.223,0,0,0,.111-2.073" transform="translate(-27.584 -345.144)" fill="#414042"/>
        <path id="Trazado_191507" data-name="Trazado 191507" d="M59.969,461.151H50.878a2.656,2.656,0,0,1-2.656-2.656V449.4a2.656,2.656,0,0,1,2.656-2.656h9.091a2.656,2.656,0,0,1,2.656,2.656v9.091a2.656,2.656,0,0,1-2.656,2.656" transform="translate(-38.267 -354.522)" fill="#fff"/>
        <path id="Trazado_191508" data-name="Trazado 191508" d="M68.936,473.366l-2.491-2.491,1.423-1.423,1.068,1.068,2.965-2.966,1.423,1.423Z" transform="translate(-52.728 -371.032)" fill="#ff8578"/>
        <path id="Trazado_191509" data-name="Trazado 191509" d="M150.845,458.334H128.059a.2.2,0,0,1-.2-.2V456.13a.2.2,0,0,1,.2-.2h22.786a.2.2,0,0,1,.2.2v2.008a.2.2,0,0,1-.2.2" transform="translate(-101.467 -361.812)" fill="#fff"/>
        <path id="Trazado_191510" data-name="Trazado 191510" d="M150.845,479.212H128.059a.2.2,0,0,1-.2-.2v-2.008a.2.2,0,0,1,.2-.2h22.786a.2.2,0,0,1,.2.2v2.008a.2.2,0,0,1-.2.2" transform="translate(-101.467 -378.38)" fill="#fff"/>
        <path id="Trazado_191511" data-name="Trazado 191511" d="M139.256,500.09h-11.2a.2.2,0,0,1-.2-.2v-2.008a.2.2,0,0,1,.2-.2h11.2a.2.2,0,0,1,.2.2v2.008a.2.2,0,0,1-.2.2" transform="translate(-101.467 -394.948)" fill="#fff"/>
        <path id="Trazado_191512" data-name="Trazado 191512" d="M104.346,829.454h10.3a4.8,4.8,0,0,0,4.8-4.8v-15.39a1.145,1.145,0,0,0-1.146-1.145H100.691a1.145,1.145,0,0,0-1.145,1.145v15.39a4.8,4.8,0,0,0,4.8,4.8" transform="translate(-78.996 -641.292)" fill="#fff"/>
        <path id="Trazado_191513" data-name="Trazado 191513" d="M112.264,827.693h-10.3a5.426,5.426,0,0,1-5.419-5.419v-15.39a1.767,1.767,0,0,1,1.765-1.765h17.607a1.767,1.767,0,0,1,1.765,1.765v15.39a5.426,5.426,0,0,1-5.419,5.419M98.312,806.358a.527.527,0,0,0-.526.526v15.39a4.185,4.185,0,0,0,4.181,4.181h10.3a4.185,4.185,0,0,0,4.181-4.181v-15.39a.527.527,0,0,0-.526-.526Z" transform="translate(-76.616 -638.911)" fill="#231f20"/>
        <path id="Trazado_191514" data-name="Trazado 191514" d="M132.872,712.1a9.353,9.353,0,0,1,4.726-6.022,19.039,19.039,0,0,1,7.555-2.086c-.545,1.959.53,3.948,1.185,5.873a10.514,10.514,0,0,1,.166,6.857,7.31,7.31,0,0,1-2.3,3.236,10.818,10.818,0,0,1-3.54,1.473,7.14,7.14,0,0,1-1.931.662,2.948,2.948,0,0,1-2.38-1.566,24.247,24.247,0,0,0-1.306-2.1,13.1,13.1,0,0,1-1.459-1.768,6.7,6.7,0,0,1-.72-4.559" transform="translate(-105.34 -558.658)" fill="#ffb6ae"/>
        <path id="Trazado_191515" data-name="Trazado 191515" d="M69.014,707.583c.243-2.071.968-4.052,1.4-6.093a21.754,21.754,0,0,0,.381-6.421c2.387,2.783,6.7,2.8,9.778,4.789a9.608,9.608,0,0,1,3.78,5.034,9.409,9.409,0,0,1-.113,6.79q-.062.147-.125.293l-.841,1.951c-.139.321-.315.677-.649.779a1.452,1.452,0,0,1-.466.028,16.2,16.2,0,0,0-3.251.652,15.886,15.886,0,0,1-3.093.141,7.271,7.271,0,0,1-5.335-2.055,7.476,7.476,0,0,1-1.465-5.887" transform="translate(-54.707 -551.58)" fill="#ffb6ae"/>
        <path id="Trazado_191516" data-name="Trazado 191516" d="M156.523,737.272h-.033a.62.62,0,0,1-.586-.651c.329-6.324,1.117-12.917,4.62-18.279a.619.619,0,1,1,1.037.677c-3.343,5.117-4.1,11.514-4.42,17.666a.62.62,0,0,1-.618.587" transform="translate(-123.719 -569.826)" fill="#231f20"/>
        <path id="Trazado_191517" data-name="Trazado 191517" d="M101.154,742.63a.62.62,0,0,1-.6-.486A32.89,32.89,0,0,0,91.5,725.876a.619.619,0,1,1,.865-.887,34.145,34.145,0,0,1,9.392,16.888.619.619,0,0,1-.605.753" transform="translate(-72.465 -575.184)" fill="#231f20"/>
        <path id="Trazado_191518" data-name="Trazado 191518" d="M258.494,909.707H.619a.619.619,0,0,1,0-1.239H258.494a.619.619,0,1,1,0,1.239" transform="translate(0 -720.925)" fill="#231f20"/>
        <path id="Trazado_191519" data-name="Trazado 191519" d="M284.835,272.582a4.061,4.061,0,1,1-4.061-4.061,4.06,4.06,0,0,1,4.061,4.061" transform="translate(-219.589 -213.088)" fill="#ffe7e4"/>
        <path id="Trazado_191520" data-name="Trazado 191520" d="M139.016,295.688a4.061,4.061,0,1,0,4.06,4.06,4.061,4.061,0,0,0-4.06-4.06m0,6.38a2.319,2.319,0,1,1,2.32-2.32,2.32,2.32,0,0,1-2.32,2.32" transform="translate(-107.095 -234.646)" fill="#ffe7e4"/>
        <path id="Trazado_191521" data-name="Trazado 191521" d="M1202.539,236.784a4.061,4.061,0,1,0,4.06,4.06,4.061,4.061,0,0,0-4.06-4.06m0,6.38a2.319,2.319,0,1,1,2.319-2.32,2.32,2.32,0,0,1-2.319,2.32" transform="translate(-951.065 -187.903)" fill="#ffe7e4"/>
        <path id="Trazado_191522" data-name="Trazado 191522" d="M1005,195.035a2.428,2.428,0,1,1-2.428-2.428,2.428,2.428,0,0,1,2.428,2.428" transform="translate(-793.672 -152.845)" fill="#ffe7e4"/>
        <path id="Trazado_191523" data-name="Trazado 191523" d="M1258.405,512.544a1.551,1.551,0,1,1-1.552-1.552,1.552,1.552,0,0,1,1.552,1.552" transform="translate(-996.159 -405.503)" fill="#ffe7e4"/>
        <path id="Trazado_191524" data-name="Trazado 191524" d="M1242.982,755.395l-1.537-.838.838-1.536a.82.82,0,0,0-1.44-.785l-.838,1.536-1.537-.838a.82.82,0,1,0-.785,1.44l1.536.838-.838,1.537a.82.82,0,1,0,1.44.785l.838-1.537,1.537.838a.82.82,0,1,0,.785-1.44" transform="translate(-981.839 -596.605)" fill="#ffe7e4"/>
        <path id="Trazado_191525" data-name="Trazado 191525" d="M25.582,815.4l-1.537-.838.838-1.537a.82.82,0,1,0-1.44-.785l-.838,1.536-1.537-.838a.82.82,0,1,0-.785,1.439l1.537.838-.838,1.537a.82.82,0,1,0,1.44.785l.838-1.537,1.537.838a.82.82,0,1,0,.785-1.44" transform="translate(-15.757 -644.227)" fill="#ffe7e4"/>
        <path id="Trazado_191526" data-name="Trazado 191526" d="M926.794,52.287l-1.536-.838.838-1.537a.82.82,0,1,0-1.44-.785l-.838,1.537-1.537-.838a.82.82,0,0,0-.785,1.44l1.537.838L922.2,53.64a.82.82,0,1,0,1.44.785l.838-1.537,1.537.838a.82.82,0,0,0,.785-1.44" transform="translate(-730.924 -38.646)" fill="#ffe7e4"/>
        <path id="Trazado_191527" data-name="Trazado 191527" d="M363.081,115.1l-1.537-.838.838-1.537a.82.82,0,0,0-1.44-.785l-.838,1.537-1.537-.838a.82.82,0,1,0-.785,1.44l1.536.838-.838,1.537a.82.82,0,1,0,1.44.785l.838-1.537,1.537.838a.82.82,0,1,0,.785-1.44" transform="translate(-283.584 -88.492)" fill="#ffe7e4"/>
      </g>
    </g>
    <rect id="Rect치ngulo_43109" data-name="Rect치ngulo 43109" width="294" height="210" transform="translate(420 3647.613)" fill="none"/>
  </g>
</svg>
