<svg xmlns="http://www.w3.org/2000/svg" xmlns:xlink="http://www.w3.org/1999/xlink" width="294" height="196" viewBox="0 0 294 196">
  <defs>
    <clipPath id="clip-path">
      <rect id="Rectángulo_43113" data-name="Rectángulo 43113" width="259.98" height="178.583" fill="none"/>
    </clipPath>
  </defs>
  <g id="_30" data-name="30" transform="translate(-420 -3648)">
    <rect id="Rectángulo_43109" data-name="Rectángulo 43109" width="294" height="196" transform="translate(420 3648)" fill="none"/>
    <g id="Grupo_156481" data-name="Grupo 156481" transform="translate(437.01 3656.709)">
      <g id="Grupo_156481-2" data-name="Grupo 156481" clip-path="url(#clip-path)">
        <path id="Trazado_191528" data-name="Trazado 191528" d="M256.832,96.321a35.271,35.271,0,0,0,1.817-5.843c3.139-14.628-4.8-30.809-17.8-37.886-9.193-5-19.616-6.695-29.488-9.833-9.607-3.054-18.581-8.392-26.461-14.632-6.662-5.276-12.624-11.429-19.58-16.31C134.878-9.542,90.992-.985,70.444,29.732,63.727,39.773,59.781,51.448,53.19,61.572,38.077,84.787,5.653,101.512,5.413,132.419c-.127,16.364,10.428,33.892,21.838,45.624H235.1c6.473-13.066-1.74-28.894,1.048-43.207,2.87-14.727,15.3-25.21,20.688-38.516" transform="translate(-2.49 0)" fill="#ffe7e4"/>
        <path id="Trazado_191529" data-name="Trazado 191529" d="M368.264,277.886c-.127-.758-1.281-.437-1.155.319,1.355,8.1-3.1,15.656-4.379,23.465l1.118.542c.618-3.976,2.006-7.774,3.116-11.626,1.2-4.148,2.021-8.389,1.3-12.7" transform="translate(-166.913 -127.672)" fill="#231f20"/>
        <path id="Trazado_191530" data-name="Trazado 191530" d="M367.141,294.99a111.033,111.033,0,0,0-3.354-13.08.6.6,0,0,0-1.155.318c2.315,7.705,4.393,15.354,3.891,23.477l1.151.705a47.534,47.534,0,0,0-.533-11.42" transform="translate(-166.855 -129.53)" fill="#231f20"/>
        <path id="Trazado_191531" data-name="Trazado 191531" d="M389.82,202.281a1.641,1.641,0,0,1-1.8.5c-.856-.41-.839-1.649-.495-2.533a6.348,6.348,0,0,1,.4-.826c-.212-.093-.422-.191-.636-.281a24.588,24.588,0,0,0-6.487-1.874c-.125.16-.243.326-.351.5a38.875,38.875,0,0,0-2.1,4.669,3.234,3.234,0,0,1-1.41,1.684,2.29,2.29,0,0,1-2.856-1.278.751.751,0,0,1-.086-.417.873.873,0,0,1,.269-.431,27.9,27.9,0,0,0,3.712-4.814c-.855.035-1.71.111-2.561.2a43.744,43.744,0,0,0-4.948.785,5.4,5.4,0,0,0-.714.618,7.13,7.13,0,0,0-1.722,3.737,5.43,5.43,0,0,1-.544,1.945,1.43,1.43,0,0,1-1.723.681,1.379,1.379,0,0,1-.634-1.444,4.037,4.037,0,0,1,.688-1.526L367.9,198.9a17.17,17.17,0,0,0-3.17,1.466c-3.2,1.918-5.728,5.344-5.622,9.074l.145,1.252a9.253,9.253,0,0,0,8.617,2.942,20.877,20.877,0,0,0,4.834-1.911,32.681,32.681,0,0,1,9.758-3.208c2.413-.318,4.859-.219,7.289-.35a38.581,38.581,0,0,0,9.54-1.736,47.484,47.484,0,0,0-8.472-5.626,8.831,8.831,0,0,1-1,1.483m-5.691.9a1.964,1.964,0,0,1-.8.622,10.2,10.2,0,0,1-1.716.626,1.474,1.474,0,0,1-1.458-.638,1.092,1.092,0,0,1-.312-.544,1.218,1.218,0,0,1,.311-.87,3.055,3.055,0,0,1,2.765-1.278c.952.118,1.737,1.281,1.209,2.082" transform="translate(-165.246 -90.731)" fill="#ff8578"/>
        <path id="Trazado_191532" data-name="Trazado 191532" d="M370.1,251.864a22.578,22.578,0,0,1,.519-15.908c.283-.685-.76-1.187-1.046-.5A23.814,23.814,0,0,0,369,252.239a.579.579,0,0,0,1.095-.375" transform="translate(-169.221 -108.196)" fill="#231f20"/>
        <path id="Trazado_191533" data-name="Trazado 191533" d="M385.627,213.767l-7.82-.8c-1.12-.115-2.243-.228-3.367-.31a8.292,8.292,0,0,0-.994,2.643,11.472,11.472,0,0,1-4.456-2.639c-1.533.139-3.056.385-4.574.646-1.315.226-2.633.465-3.935.761.031.04.06.082.093.121.8.978,1.882,1.716,2.592,2.762.392.577.586,1.505-.014,1.861-.5.3-1.121-.07-1.555-.455-1.266-1.122-2.266-2.519-3.518-3.656a23.211,23.211,0,0,0-2.54.929,14.425,14.425,0,0,0-6.26,4.961l.157.067c2.016.831,4.175,1.259,6.227,2a7.2,7.2,0,0,1,2.171,1.123,1.031,1.031,0,0,1,.35.434c.178.512-.386.972-.9,1.143-2.095.7-4.33-.288-6.385-1.1-.946-.372-1.908-.706-2.879-1.009a8.228,8.228,0,0,0,.929,7.028c2.749,3.908,7.246,3.142,10.262.147,1.378-1.368,2.486-2.979,3.749-4.454a29.144,29.144,0,0,1,17.282-9.793l9.7-1.339a10.721,10.721,0,0,0-4.32-1.068" transform="translate(-159.967 -97.855)" fill="#ff9d93"/>
        <path id="Trazado_191534" data-name="Trazado 191534" d="M317.835,231.731a9.094,9.094,0,0,0-6.834-.717c-3.085.912-5.44,3.39-7.377,5.958a36.912,36.912,0,0,0-4.226,7.062,9.995,9.995,0,0,0,4.739.2c2.06-.349,4.043-1.069,6.1-1.415,1.46-.246,3.17-.216,4.155.889a1.44,1.44,0,0,1,.406,1.28,1.559,1.559,0,0,1-.324.57,5,5,0,0,1-3.175,1.62,15.05,15.05,0,0,1-3.636-.066,34.913,34.913,0,0,0-5.986-.236,13.848,13.848,0,0,0-3.609.727,22.917,22.917,0,0,0-.9,4.865,8.541,8.541,0,0,0,1.544,1.006,21.171,21.171,0,0,0,9.141,1.9,3.241,3.241,0,0,1,1.158.174,1.066,1.066,0,0,1,.7.871c.032.724-.858,1.094-1.578,1.176-3.123.358-6.353-.683-9.393.115a8.688,8.688,0,0,0-1.183.406c.086.451.176.9.268,1.35q.863,4.208,1.725,8.417l1-.8a22.964,22.964,0,0,1,5.462-3.593,2.547,2.547,0,0,1,1.778-.219.767.767,0,0,1,.506.456.828.828,0,0,1-.01.428c-.308,1.3-1.7,1.971-2.8,2.729a17.783,17.783,0,0,0-4.046,4.372c-.286.392-.572.795-.823,1.213a41,41,0,0,0,3.411,8.662l.445.138c2.161-4.064,6.158-16.812,6.838-19.257,1.2-4.322,2.45-8.744,5.068-12.388a15.3,15.3,0,0,1,5.759-4.9l.059-.263a17.106,17.106,0,0,0-.037-7.386,9.1,9.1,0,0,0-4.33-5.336" transform="translate(-136.746 -106.136)" fill="#ff9d93"/>
        <path id="Trazado_191535" data-name="Trazado 191535" d="M316.993,292.023a9.508,9.508,0,0,0,.934-6.415c-.1-.431-.114-1.046.317-1.139.261-.057.5.151.672.358,1.322,1.625,1.173,3.985,2.017,5.9a27.653,27.653,0,0,0,4.607-2.572,30.993,30.993,0,0,0-3.735-6.71,6.219,6.219,0,0,1-1.326-2.44,1.889,1.889,0,0,1,1.207-2.225,1.939,1.939,0,0,1,1.936,1.079,9.712,9.712,0,0,1,.728,2.25,9.146,9.146,0,0,0,3.707,5.085c.237.157.483.3.734.435a65.974,65.974,0,0,0,7.322-7.786c-.479-.195-.966-.367-1.458-.518a21.486,21.486,0,0,1-3.092-1.032,4.3,4.3,0,0,1-2.258-2.244,2.433,2.433,0,0,1,.852-2.885,2.524,2.524,0,0,1,2.1-.121,5.942,5.942,0,0,1,1.829,1.157,19.106,19.106,0,0,1,2.069,2.055,8.923,8.923,0,0,0,1.53,1.56l.053.034.307-.379a33.434,33.434,0,0,0,4.745-7,9.379,9.379,0,0,0-2.287-1.065c-1.847-.592-3.826-.849-5.513-1.806-.941-.534-1.844-1.493-1.64-2.556a2.055,2.055,0,0,1,2.132-1.48,4.071,4.071,0,0,1,2.488,1.217c.693.64,1.274,1.394,1.979,2.02a7.4,7.4,0,0,0,3.571,1.706,7.491,7.491,0,0,0,.3-2.186,7.378,7.378,0,0,0-.278-1.774,13.88,13.88,0,0,0-.528-1.537,7.539,7.539,0,0,0-2.42-3.5,5.409,5.409,0,0,0-3.232-.894,12.816,12.816,0,0,0-3.9.771,9.461,9.461,0,0,1-2.674.667,2.729,2.729,0,0,1-2.415-1.076l-.255-.181a15.4,15.4,0,0,0-5.5,4.765c-2.617,3.644-3.865,8.066-5.067,12.388-.678,2.437-4.651,15.11-6.817,19.216l.6.373c1.622-.918,3.548-1.069,5.372-1.453.093-.019.186-.044.279-.065" transform="translate(-142.992 -118.084)" fill="#ff9d93"/>
        <path id="Trazado_191536" data-name="Trazado 191536" d="M335.492,249.695a11.2,11.2,0,0,0-1.557-.508,10.331,10.331,0,0,0-1.155-.217c-.114-.015-.216-.026-.317-.036-.119-.012-.226-.013-.343-.021-.23-.008-.469-.03-.714-.025a10.841,10.841,0,0,0-3.23.522,13,13,0,0,0-3.161,1.507c-.024-.051-.049-.1-.08-.161l-.189-.34-.215-.385c-.079-.131-.168-.262-.259-.4s-.182-.287-.288-.431l-.333-.442c-.11-.154-.236-.3-.367-.452s-.259-.307-.4-.458c-.29-.294-.578-.606-.906-.886-.312-.3-.664-.557-1-.829-.36-.247-.708-.506-1.08-.717-.359-.23-.738-.414-1.1-.6-.182-.089-.367-.165-.544-.245s-.351-.155-.527-.215l-.505-.185c-.164-.058-.327-.1-.481-.146s-.3-.091-.443-.127l-.406-.09a6.319,6.319,0,0,0-.662-.126l-.579-.086.569.138a6.372,6.372,0,0,1,.643.185l.391.124c.137.049.277.108.425.165s.3.114.457.186l.477.226a5.3,5.3,0,0,1,.493.256c.165.093.337.183.5.285.33.214.678.423,1,.676.338.234.649.514.969.779.3.289.611.564.88.872.285.292.529.611.774.908.118.153.224.311.333.462a5.208,5.208,0,0,1,.3.451l.27.436c.086.142.154.287.228.421s.143.265.2.388l.157.352.138.308c.042.1.076.2.108.286l.045.123a16.8,16.8,0,0,0-2.413,2.272c-.229.284-.485.576-.694.864l-.319.435c-.123.165-.211.312-.319.469-.32.476-.614.972-.894,1.48-.136.033-.286.071-.4.1-.271.078-.655.19-1.114.294a7.691,7.691,0,0,1-1.563.206h-.053s-.033,0-.012,0h-.029l-.116,0-.235-.009c-.153-.009-.289-.03-.438-.044a7.06,7.06,0,0,1-.907-.2,8.056,8.056,0,0,1-.89-.315c-.291-.117-.571-.254-.838-.394a16.586,16.586,0,0,1-1.428-.848c-.409-.267-.742-.505-.976-.669l-.366-.262.333.3c.214.191.516.466.894.783s.828.677,1.343,1.028c.257.175.529.35.819.51a8.5,8.5,0,0,0,.9.445,7.709,7.709,0,0,0,.967.333c.168.037.346.083.505.111l.232.037.115.018.029,0,.046,0,.061.006a8.588,8.588,0,0,0,1.77-.021c.246-.025.468-.055.665-.084a31.794,31.794,0,0,0-1.339,3.309c-.4,1.158-.748,2.328-1.069,3.49-.288.217-.693.518-.744.557-.079.068-.189.15-.321.245s-.286.189-.46.289a7.1,7.1,0,0,1-1.276.552c-.246.08-.506.148-.774.209s-.548.106-.82.144c-.293.036-.564.062-.846.079s-.557.024-.825.025c-.538,0-1.044-.02-1.476-.045-.866-.054-1.445-.1-1.445-.1s.565.127,1.421.3c.428.083.93.172,1.475.243.273.035.557.064.846.087s.6.033.881.036c.306,0,.6-.012.9-.036s.587-.063.868-.114a8.033,8.033,0,0,0,1.519-.43c.218-.089.414-.18.586-.267l.025-.014c-.292,1.119-.58,2.226-.861,3.3q-.138.529-.275,1.047l-.018.068c-.086.326-.173.649-.259.968v0q-.275,1.018-.545,1.984l-.019.07c-.284.276-.712.693-.8.8-.124.141-.3.343-.543.575-.118.117-.25.237-.392.363s-.3.249-.464.374-.343.242-.528.358-.38.22-.579.316a5.689,5.689,0,0,1-1.235.428c-.409.1-.821.116-1.173.2a2.652,2.652,0,0,0-.8.322,2.24,2.24,0,0,0-.263.184,2.281,2.281,0,0,1,.287-.137,2.54,2.54,0,0,1,.8-.178c.337-.024.742.024,1.2,0a6.179,6.179,0,0,0,1.4-.238c.234-.068.465-.15.689-.238s.438-.191.643-.295.4-.215.578-.324.347-.219.5-.324a.381.381,0,0,0,.083-.1c-.121.412-.242.817-.362,1.2-.334,1.078-.647,2.063-.954,2.926-.147.434-.3.835-.439,1.205s-.278.708-.4,1.012-.248.571-.359.8a6.2,6.2,0,0,1-.294.579l-.27.469.285-.46a6.216,6.216,0,0,0,.313-.57c.119-.227.255-.489.386-.791s.292-.632.438-1,.318-.764.479-1.194c.336-.855.681-1.833,1.051-2.9.659-1.922,1.361-4.154,2.078-6.553.045.1.1.216.156.35a30.6,30.6,0,0,0,3.68,6.189c.3.389.553.7.735.923l.287.342-.243-.374c-.155-.238-.372-.58-.618-1a29.993,29.993,0,0,1-2.865-6.449c-.145-.461-.246-.829-.32-1.108-.047-.177-.151-.593-.219-.868.29-.983.584-1.978.884-2.992.393-1.29.809-2.591,1.285-3.867.117.177.243.363.387.56.174.252.374.515.587.792s.45.56.69.854.5.585.782.873.559.576.844.863.585.556.888.813.6.508.892.747.583.457.866.655.546.389.8.552.482.315.69.441.388.239.541.323l.477.271-.448-.316c-.144-.1-.314-.225-.506-.372s-.411-.311-.64-.5-.477-.4-.734-.621-.516-.472-.788-.724-.538-.528-.8-.815-.526-.58-.787-.874-.5-.6-.736-.915-.457-.616-.672-.913-.408-.6-.583-.883-.345-.555-.487-.81-.276-.487-.383-.694-.205-.387-.281-.547l-.064-.13a28.316,28.316,0,0,1,1.455-3.013,20.55,20.55,0,0,1,1.152-1.819c.1-.139.207-.3.3-.42l.333-.425c.221-.286.447-.52.668-.779.1-.1.195-.195.292-.294.073.159.168.347.281.561.127.253.277.531.453.821s.365.607.58.931.459.653.707,1c.265.33.529.677.828,1s.606.655.915.979c.328.307.645.622.985.9s.675.552,1,.81c.341.241.663.485.988.687s.626.4.918.56.555.311.8.43.449.229.628.3l.554.248-.53-.295c-.171-.09-.37-.213-.6-.356s-.483-.3-.751-.494-.557-.4-.854-.63-.6-.492-.907-.756c-.3-.28-.614-.561-.907-.874s-.587-.634-.876-.956c-.271-.34-.552-.669-.8-1.018s-.482-.693-.707-1.029c-.207-.347-.418-.675-.588-1s-.339-.633-.471-.927-.256-.557-.351-.794-.184-.442-.246-.629l-.126-.35a14.885,14.885,0,0,1,1.779-1.337,12.274,12.274,0,0,1,1.507-.818,11.309,11.309,0,0,1,1.641-.606,9.473,9.473,0,0,1,2.844-.369c.213,0,.417.03.615.042.1.009.2.013.286.025.1.013.2.028.286.042a8.838,8.838,0,0,1,.981.218c.194.055.368.111.531.168a9.722,9.722,0,0,1,1.593-.16l.681.024,1.436.3s-1.961-1.107-2.309-1.25" transform="translate(-141.303 -112.091)" fill="#231f20"/>
        <path id="Trazado_191537" data-name="Trazado 191537" d="M381.6,230.407a9.1,9.1,0,0,1,5.833-3.633c3.173-.527,6.374.671,9.239,2.133a36.866,36.866,0,0,1,6.888,4.5,9.992,9.992,0,0,1-4.174,2.252c-2,.586-4.1.807-6.108,1.4-1.421.417-2.946,1.191-3.349,2.616a1.44,1.44,0,0,0,.195,1.328,1.559,1.559,0,0,0,.54.371,5,5,0,0,0,3.564.07,15.079,15.079,0,0,0,3.242-1.649,34.967,34.967,0,0,1,5.28-2.829,13.829,13.829,0,0,1,3.564-.924,22.974,22.974,0,0,1,2.934,3.982,8.537,8.537,0,0,1-.949,1.58,21.161,21.161,0,0,1-7.392,5.7,3.238,3.238,0,0,0-.966.663,1.066,1.066,0,0,0-.247,1.088c.288.666,1.249.609,1.934.368,2.965-1.043,5.415-3.392,8.5-4a8.645,8.645,0,0,1,1.242-.152q.18.663.349,1.33l2.129,8.324-1.25-.286a22.978,22.978,0,0,0-6.484-.844,2.549,2.549,0,0,0-1.695.581.765.765,0,0,0-.256.631.829.829,0,0,0,.2.381c.846,1.036,2.386,1.031,3.709,1.231a17.785,17.785,0,0,1,5.55,2.164c.429.228.862.464,1.27.732a41.006,41.006,0,0,1,.719,9.281l-.341.318c-3.72-2.711-12.888-12.429-14.568-14.33-2.971-3.362-6.027-6.794-9.974-8.927a15.312,15.312,0,0,0-7.321-1.889l-.168-.211a17.116,17.116,0,0,1-3.2-6.659,9.1,9.1,0,0,1,1.561-6.692" transform="translate(-174.824 -104.294)" fill="#ff9d93"/>
        <path id="Trazado_191538" data-name="Trazado 191538" d="M402.439,285.559a9.5,9.5,0,0,1-3.645-5.362c-.1-.429-.355-.991-.783-.886-.26.064-.387.356-.448.617-.479,2.039.687,4.1.764,6.189a27.665,27.665,0,0,1-5.267-.3,31.009,31.009,0,0,1,.425-7.668,6.219,6.219,0,0,0,.126-2.774,1.889,1.889,0,0,0-2.058-1.474,1.939,1.939,0,0,0-1.27,1.817,9.7,9.7,0,0,0,.329,2.341,9.144,9.144,0,0,1-1.111,6.194c-.144.246-.3.482-.47.712a65.888,65.888,0,0,1-9.99-3.8c.346-.384.709-.753,1.085-1.1a21.473,21.473,0,0,0,2.329-2.28,4.3,4.3,0,0,0,1.05-3,2.434,2.434,0,0,0-2.027-2.223,2.523,2.523,0,0,0-1.945.811,5.948,5.948,0,0,0-1.14,1.84,19.153,19.153,0,0,0-.963,2.753,8.9,8.9,0,0,1-.694,2.071c-.01.018-.023.036-.033.053l-.442-.206a33.461,33.461,0,0,1-7.328-4.223,9.373,9.373,0,0,1,1.591-1.957c1.4-1.339,3.071-2.436,4.169-4.034.613-.892,1.006-2.149.357-3.016a2.054,2.054,0,0,0-2.564-.4,4.069,4.069,0,0,0-1.706,2.183c-.343.878-.536,1.811-.9,2.682a7.407,7.407,0,0,1-2.465,3.1,7.5,7.5,0,0,1-1.23-1.833,7.411,7.411,0,0,1-.526-1.717,13.984,13.984,0,0,1-.2-1.614,7.538,7.538,0,0,1,.647-4.2,5.4,5.4,0,0,1,2.515-2.217,12.815,12.815,0,0,1,3.849-1.012,9.471,9.471,0,0,0,2.7-.57,2.728,2.728,0,0,0,1.7-2.023l.15-.274a15.39,15.39,0,0,1,7.027,1.884c3.947,2.133,7,5.565,9.973,8.926,1.675,1.9,10.789,11.557,14.531,14.3l-.374.6c-1.86-.117-3.658.59-5.466,1.042-.092.023-.186.042-.279.064" transform="translate(-168.155 -119.063)" fill="#ff9d93"/>
        <path id="Trazado_191539" data-name="Trazado 191539" d="M370.608,251.784a11.236,11.236,0,0,1,1.178-1.137,10.38,10.38,0,0,1,.944-.7c.1-.063.183-.118.269-.171.1-.063.2-.111.3-.168.2-.107.408-.232.632-.335a10.836,10.836,0,0,1,3.133-.943,12.994,12.994,0,0,1,3.5-.026c0-.056,0-.115,0-.18l.021-.388c.008-.138.016-.286.025-.441s.038-.309.058-.475.038-.337.07-.513l.105-.543c.032-.187.08-.376.133-.567s.1-.389.158-.586c.132-.391.254-.8.427-1.193.151-.4.354-.791.54-1.184.216-.379.415-.764.658-1.117.222-.365.483-.7.722-1.021.125-.159.258-.308.382-.457a5.581,5.581,0,0,1,.38-.424l.374-.387c.121-.124.251-.232.369-.341s.232-.213.343-.308l.326-.258a6.551,6.551,0,0,1,.54-.4l.484-.33-.451.372a6.256,6.256,0,0,0-.5.448l-.3.283c-.1.1-.2.218-.309.334s-.222.235-.331.367l-.33.412a5.524,5.524,0,0,0-.332.446c-.107.156-.222.312-.33.476-.2.338-.424.677-.606,1.047-.2.358-.358.747-.531,1.124-.143.391-.3.775-.41,1.169-.13.387-.209.781-.3,1.156-.039.189-.065.378-.1.56a5.341,5.341,0,0,0-.075.538l-.052.51c-.016.165-.014.325-.022.478s-.013.3-.013.438.009.264.013.385.007.233.01.337.02.213.028.3c0,.046.009.089.013.13a16.787,16.787,0,0,1,3.163.989c.331.155.688.306,1,.474l.477.252c.182.1.326.188.491.283.5.287.978.606,1.451.939.137-.03.288-.062.407-.082.278-.049.673-.116,1.13-.223a7.714,7.714,0,0,0,1.5-.5l.049-.023s.029-.015.011,0l.025-.014.1-.055.207-.111c.134-.075.246-.153.375-.23a7.078,7.078,0,0,0,.73-.573,8.091,8.091,0,0,0,.662-.672c.211-.233.4-.478.582-.721.36-.485.663-.967.914-1.386s.446-.779.585-1.029l.214-.4s-.06.152-.166.418-.261.645-.462,1.095-.448.971-.758,1.512c-.154.27-.323.546-.513.816a8.564,8.564,0,0,1-.619.8,7.832,7.832,0,0,1-.724.723c-.135.106-.275.225-.407.32l-.193.135-.1.066-.024.017-.039.024-.052.032a8.56,8.56,0,0,1-1.6.756c-.233.084-.445.155-.635.215a31.752,31.752,0,0,1,2.652,2.391c.868.865,1.69,1.767,2.488,2.671.354.069.849.162.913.176.1.026.236.052.4.08s.34.045.54.058a7.062,7.062,0,0,0,1.389-.061c.255-.036.519-.087.787-.15s.54-.144.8-.229c.279-.1.533-.191.8-.3s.511-.222.754-.339c.485-.234.93-.474,1.308-.686.756-.427,1.255-.726,1.255-.726s-.454.362-1.149.887c-.349.261-.761.562-1.221.864-.23.151-.472.3-.723.448s-.522.29-.777.417c-.276.133-.545.252-.823.36s-.556.2-.831.276a8.014,8.014,0,0,1-1.554.277c-.234.016-.451.019-.643.017l-.029,0,2.216,2.591.706.822.046.053q.33.383.656.757h0q.692.8,1.358,1.547l.048.054c.376.124.943.313,1.065.366.174.072.423.176.74.28.157.055.329.1.511.154s.378.094.581.133.415.069.631.092.437.031.659.03a5.679,5.679,0,0,0,1.3-.155c.409-.093.789-.255,1.142-.333a2.657,2.657,0,0,1,.857-.059,2.266,2.266,0,0,1,.317.05,2.219,2.219,0,0,0-.318,0,2.556,2.556,0,0,0-.8.19c-.314.125-.657.345-1.076.52a6.191,6.191,0,0,1-1.365.4c-.241.041-.483.068-.724.087s-.477.019-.707.016-.451-.019-.661-.039-.408-.045-.588-.075a.39.39,0,0,1-.117-.051c.29.318.576.628.853.926.771.823,1.484,1.573,2.138,2.214.322.326.633.621.923.892s.559.515.806.733.472.4.673.563a6.111,6.111,0,0,0,.517.392l.448.3-.457-.289a6.1,6.1,0,0,1-.531-.376c-.206-.152-.443-.328-.693-.543s-.538-.441-.832-.708-.62-.548-.952-.865c-.676-.622-1.414-1.35-2.213-2.15-1.433-1.441-3.04-3.14-4.733-4.985,0,.112.009.236.014.383a30.631,30.631,0,0,1-.6,7.175c-.1.479-.19.875-.258,1.151l-.108.434s.02-.161.056-.443.081-.685.119-1.169a30.011,30.011,0,0,0-.242-7.052c-.071-.478-.141-.853-.2-1.137-.035-.18-.124-.6-.182-.876l-2.1-2.3c-.918-.989-1.861-1.977-2.846-2.917-.028.21-.06.433-.1.674-.046.3-.111.627-.182.969s-.16.7-.248,1.069-.2.748-.322,1.127-.251.762-.382,1.145c-.146.377-.283.756-.443,1.12s-.318.72-.475,1.062-.325.666-.493.967-.321.589-.477.845-.3.494-.428.7-.245.385-.346.527l-.31.452.265-.48c.086-.151.183-.34.292-.556s.233-.46.356-.731.256-.565.389-.879.258-.651.391-1,.253-.71.364-1.083.219-.751.326-1.13c.091-.383.189-.763.262-1.144s.141-.754.2-1.115.106-.714.138-1.049.068-.649.084-.942.035-.558.041-.791.015-.437.013-.615c0-.052,0-.1,0-.145a28.427,28.427,0,0,0-2.626-2.074,20.638,20.638,0,0,0-1.831-1.132c-.152-.081-.317-.179-.457-.245l-.485-.236c-.323-.16-.629-.273-.941-.409-.13-.05-.26-.091-.39-.137,0,.175,0,.386-.008.628,0,.282-.016.6-.048.936s-.064.706-.115,1.091-.128.789-.2,1.2c-.093.413-.18.841-.3,1.266-.109.429-.259.854-.395,1.28-.161.419-.308.842-.492,1.242-.167.408-.366.792-.548,1.168-.2.367-.384.727-.588,1.05s-.388.633-.581.9-.364.523-.53.736-.3.4-.432.548l-.39.465.348-.5c.113-.155.24-.353.381-.581s.3-.483.459-.773.327-.6.493-.939.32-.7.485-1.077c.146-.383.307-.773.433-1.183.144-.4.25-.826.37-1.243.1-.424.2-.843.272-1.264.085-.417.131-.834.186-1.234.034-.4.081-.79.09-1.16s.029-.717.018-1.039-.012-.613-.031-.868-.028-.478-.053-.674c-.016-.15-.029-.274-.04-.37a14.9,14.9,0,0,0-2.184-.425,12.282,12.282,0,0,0-1.713-.077,11.235,11.235,0,0,0-1.74.172,9.47,9.47,0,0,0-2.719.912c-.191.094-.362.209-.534.307-.083.05-.174.1-.246.147-.088.058-.171.113-.239.163a8.943,8.943,0,0,0-.788.625c-.151.134-.282.261-.4.383a9.752,9.752,0,0,0-1.5.552l-.608-.479s.125-.158.376-.439" transform="translate(-170.365 -109.143)" fill="#231f20"/>
        <rect id="Rectángulo_43110" data-name="Rectángulo 43110" width="147.8" height="5.39" transform="translate(93.526 172.383)" fill="#e6e6e6"/>
        <path id="Trazado_191540" data-name="Trazado 191540" d="M195.993,200.016H85.17V62.938a7.4,7.4,0,0,1,7.4-7.4h96.022a7.4,7.4,0,0,1,7.4,7.4Z" transform="translate(-39.192 -25.556)" fill="#f2f2f2"/>
        <path id="Trazado_191541" data-name="Trazado 191541" d="M188.777,55.536H92.388a7.217,7.217,0,0,0-7.217,7.218v7.558H195.994V62.754a7.218,7.218,0,0,0-7.217-7.218" transform="translate(-39.192 -25.555)" fill="#ffb6ae"/>
        <path id="Trazado_191542" data-name="Trazado 191542" d="M106.694,69.354a1.759,1.759,0,1,1-1.759-1.759,1.759,1.759,0,0,1,1.759,1.759" transform="translate(-47.477 -31.104)" fill="#fff"/>
        <path id="Trazado_191543" data-name="Trazado 191543" d="M119.755,69.354A1.759,1.759,0,1,1,118,67.6a1.759,1.759,0,0,1,1.759,1.759" transform="translate(-53.487 -31.104)" fill="#fff"/>
        <path id="Trazado_191544" data-name="Trazado 191544" d="M132.817,69.354a1.759,1.759,0,1,1-1.759-1.759,1.759,1.759,0,0,1,1.759,1.759" transform="translate(-59.498 -31.104)" fill="#fff"/>
        <path id="Trazado_191545" data-name="Trazado 191545" d="M179.083,158.134H117.754a13.572,13.572,0,0,1-13.572-13.573v-30a13.573,13.573,0,0,1,13.572-13.573h61.329a13.573,13.573,0,0,1,13.573,13.573v30a13.573,13.573,0,0,1-13.573,13.573" transform="translate(-47.94 -46.469)" fill="#ffe7e4"/>
        <path id="Trazado_191546" data-name="Trazado 191546" d="M172.554,83.25h0l-87.843-.263a.54.54,0,0,1,0-1.08h0l87.843.263a.54.54,0,0,1,0,1.08" transform="translate(-38.732 -37.69)" fill="#231f20"/>
        <path id="Trazado_191547" data-name="Trazado 191547" d="M195.533,200.094a.54.54,0,0,1-.54-.54V62.477a6.869,6.869,0,0,0-6.861-6.861H92.112a6.868,6.868,0,0,0-6.861,6.861V199.554a.54.54,0,0,1-1.08,0V62.477a7.95,7.95,0,0,1,7.941-7.941h96.021a7.95,7.95,0,0,1,7.941,7.941V199.554a.54.54,0,0,1-.54.54" transform="translate(-38.732 -25.095)" fill="#231f20"/>
        <path id="Trazado_191548" data-name="Trazado 191548" d="M246.193,160.152a4.321,4.321,0,1,1-4.321-4.321,4.321,4.321,0,0,1,4.321,4.321" transform="translate(-109.31 -71.707)" fill="#414042"/>
        <path id="Trazado_191549" data-name="Trazado 191549" d="M245.867,162.034a2.114,2.114,0,1,1-2.114-2.114,2.114,2.114,0,0,1,2.114,2.114" transform="translate(-111.192 -73.588)" fill="#ff8578"/>
        <path id="Trazado_191550" data-name="Trazado 191550" d="M287.071,241.533a1.129,1.129,0,1,1-1.129-1.129,1.13,1.13,0,0,1,1.129,1.129" transform="translate(-131.059 -110.624)" fill="#ff8578"/>
        <path id="Trazado_191551" data-name="Trazado 191551" d="M317.806,217.123a1.707,1.707,0,1,1-1.707-1.707,1.707,1.707,0,0,1,1.707,1.707" transform="translate(-144.67 -99.125)" fill="#ff8578"/>
        <path id="Trazado_191552" data-name="Trazado 191552" d="M289.287,195.5a1.968,1.968,0,1,1-1.969-1.968,1.969,1.969,0,0,1,1.969,1.968" transform="translate(-131.306 -89.053)" fill="#ff8578"/>
        <path id="Trazado_191553" data-name="Trazado 191553" d="M167.179,35.9a1.222,1.222,0,1,1-1.222-1.222,1.222,1.222,0,0,1,1.222,1.222" transform="translate(-75.804 -15.956)" fill="#ff8578"/>
        <path id="Trazado_191554" data-name="Trazado 191554" d="M178.315,35.9a1.222,1.222,0,1,1-1.222-1.222,1.222,1.222,0,0,1,1.222,1.222" transform="translate(-80.928 -15.956)" fill="#ff8578"/>
        <path id="Trazado_191555" data-name="Trazado 191555" d="M189.451,35.9a1.222,1.222,0,1,1-1.222-1.222,1.222,1.222,0,0,1,1.222,1.222" transform="translate(-86.052 -15.956)" fill="#ff8578"/>
        <path id="Trazado_191556" data-name="Trazado 191556" d="M200.586,35.9a1.222,1.222,0,1,1-1.222-1.222,1.222,1.222,0,0,1,1.222,1.222" transform="translate(-91.176 -15.956)" fill="#ff8578"/>
        <path id="Trazado_191557" data-name="Trazado 191557" d="M211.722,35.9a1.222,1.222,0,1,1-1.222-1.222,1.222,1.222,0,0,1,1.222,1.222" transform="translate(-96.3 -15.956)" fill="#ff8578"/>
        <path id="Trazado_191558" data-name="Trazado 191558" d="M179.813,102.306H116.6V95.221a6.025,6.025,0,0,1,6.025-6.025h57.189a6.025,6.025,0,0,1,6.025,6.025v1.06a6.025,6.025,0,0,1-6.025,6.025" transform="translate(-53.654 -41.044)" fill="#ff8578"/>
        <rect id="Rectángulo_43111" data-name="Rectángulo 43111" width="59.004" height="1.979" transform="translate(68.53 51.771)" fill="#fff"/>
        <rect id="Rectángulo_43112" data-name="Rectángulo 43112" width="29.502" height="1.979" transform="translate(68.53 56.045)" fill="#fff"/>
        <path id="Trazado_191559" data-name="Trazado 191559" d="M172.689,170.444H148.436a6.106,6.106,0,0,1-6.106-6.106V140.085a6.105,6.105,0,0,1,6.106-6.105h24.253a6.1,6.1,0,0,1,6.105,6.105v24.253a6.105,6.105,0,0,1-6.105,6.106" transform="translate(-65.494 -61.652)" fill="#fff"/>
        <path id="Trazado_191560" data-name="Trazado 191560" d="M148,182.125h25.12a5.672,5.672,0,0,0,5.672-5.672v-15.36c-1.844-.55-3.783-1.717-5.72-1.729-3.157-.018-5.409,2.957-7.028,5.667s-3.593,5.78-6.726,6.163c-2.57.315-4.931-1.344-6.909-3.014a5.031,5.031,0,0,0-2.143-1.282c-1.685-.335-3.195,1.16-3.942,2.707s-1.132,3.325-2.313,4.574a4.515,4.515,0,0,1-1.682,1.107v1.166A5.672,5.672,0,0,0,148,182.125" transform="translate(-65.495 -73.333)" fill="#414042"/>
        <path id="Trazado_191561" data-name="Trazado 191561" d="M245.643,152.7a.594.594,0,1,1-.594-.594.594.594,0,0,1,.594.594" transform="translate(-112.488 -69.993)" fill="#414042"/>
        <path id="Trazado_191562" data-name="Trazado 191562" d="M252.994,156.245a.594.594,0,1,1,0-.839.594.594,0,0,1,0,.839" transform="translate(-115.951 -71.431)" fill="#414042"/>
        <path id="Trazado_191563" data-name="Trazado 191563" d="M255.676,163.951a.594.594,0,1,1,.6-.592.594.594,0,0,1-.6.592" transform="translate(-117.379 -74.897)" fill="#414042"/>
        <path id="Trazado_191564" data-name="Trazado 191564" d="M252.113,171.293a.594.594,0,1,1,.84,0,.593.593,0,0,1-.84,0" transform="translate(-115.933 -78.356)" fill="#414042"/>
        <path id="Trazado_191565" data-name="Trazado 191565" d="M244.4,173.956a.594.594,0,1,1,.591.6.594.594,0,0,1-.591-.6" transform="translate(-112.463 -79.775)" fill="#414042"/>
        <path id="Trazado_191566" data-name="Trazado 191566" d="M237.067,170.374a.594.594,0,1,1-.005.84.593.593,0,0,1,.005-.84" transform="translate(-109.007 -78.32)" fill="#414042"/>
        <path id="Trazado_191567" data-name="Trazado 191567" d="M238.025,155.331a.594.594,0,1,1-.84-.008.594.594,0,0,1,.84.008" transform="translate(-109.061 -71.395)" fill="#414042"/>
        <path id="Trazado_191568" data-name="Trazado 191568" d="M224.552,164.451H214.058a.512.512,0,0,1-.512-.512v-.09a.512.512,0,0,1,.512-.512h10.493a.511.511,0,0,1,.512.512v.09a.511.511,0,0,1-.512.512" transform="translate(-98.265 -75.161)" fill="#414042"/>
        <path id="Trazado_191569" data-name="Trazado 191569" d="M466.288,291.326a3.134,3.134,0,1,0,3.183,3.084,3.134,3.134,0,0,0-3.183-3.084m.078,4.924a1.79,1.79,0,1,1,1.762-1.818,1.79,1.79,0,0,1-1.762,1.818" transform="translate(-213.147 -134.056)" fill="#ffe7e4"/>
        <path id="Trazado_191570" data-name="Trazado 191570" d="M53.829,61.79a3.134,3.134,0,1,0,3.183,3.084,3.134,3.134,0,0,0-3.183-3.084m.078,4.924A1.79,1.79,0,1,1,55.669,64.9a1.79,1.79,0,0,1-1.762,1.818" transform="translate(-23.351 -28.433)" fill="#ffe7e4"/>
        <path id="Trazado_191571" data-name="Trazado 191571" d="M472.707,203.546a2.589,2.589,0,1,1-2.63-2.548,2.59,2.59,0,0,1,2.63,2.548" transform="translate(-215.137 -92.491)" fill="#ffe7e4"/>
        <path id="Trazado_191572" data-name="Trazado 191572" d="M326.442,13.06a2.589,2.589,0,1,1-2.63-2.548,2.589,2.589,0,0,1,2.63,2.548" transform="translate(-147.832 -4.837)" fill="#ffe7e4"/>
        <path id="Trazado_191573" data-name="Trazado 191573" d="M64.923,105.235a2.589,2.589,0,1,1-2.63-2.548,2.59,2.59,0,0,1,2.63,2.548" transform="translate(-27.492 -47.252)" fill="#ffe7e4"/>
        <path id="Trazado_191574" data-name="Trazado 191574" d="M452.562,248.581l-1.18-.619.62-1.18a.624.624,0,0,0-1.106-.58l-.619,1.18-1.18-.619a.624.624,0,0,0-.58,1.106l1.18.619-.62,1.18a.624.624,0,1,0,1.106.58l.62-1.18,1.18.619a.624.624,0,0,0,.58-1.106" transform="translate(-206.234 -113.138)" fill="#ffe7e4"/>
        <path id="Trazado_191575" data-name="Trazado 191575" d="M450.378,79.177l-1.71-.9.9-1.71a.905.905,0,0,0-1.6-.841l-.9,1.71-1.71-.9a.905.905,0,1,0-.841,1.6l1.71.9-.9,1.71a.9.9,0,1,0,1.6.841l.9-1.71,1.71.9a.9.9,0,0,0,.841-1.6" transform="translate(-204.324 -34.624)" fill="#ffe7e4"/>
        <path id="Trazado_191576" data-name="Trazado 191576" d="M13.908,309.8l-1.71-.9.9-1.71a.9.9,0,1,0-1.6-.841l-.9,1.71-1.71-.9a.905.905,0,0,0-.841,1.6l1.71.9-.9,1.71a.9.9,0,1,0,1.6.841l.9-1.71,1.71.9a.9.9,0,0,0,.841-1.6" transform="translate(-3.478 -140.745)" fill="#ffe7e4"/>
        <path id="Trazado_191577" data-name="Trazado 191577" d="M28.376,130.056l-1.71-.9.9-1.71a.9.9,0,0,0-1.6-.841l-.9,1.71-1.71-.9a.905.905,0,0,0-.841,1.6l1.71.9-.9,1.71a.9.9,0,1,0,1.6.841l.9-1.71,1.71.9a.9.9,0,0,0,.841-1.6" transform="translate(-10.136 -58.036)" fill="#ffe7e4"/>
        <path id="Trazado_191578" data-name="Trazado 191578" d="M259.441,329.885H.54a.54.54,0,1,1,0-1.08h258.9a.54.54,0,1,1,0,1.08" transform="translate(0 -151.302)" fill="#231f20"/>
        <path id="Trazado_191579" data-name="Trazado 191579" d="M360.509,74.588a46.476,46.476,0,1,1-46.476-46.476,46.475,46.475,0,0,1,46.476,46.476" transform="translate(-123.119 -12.936)" fill="#414042"/>
        <path id="Trazado_191580" data-name="Trazado 191580" d="M284.941,80.634c8.674-4.2,9.538,3.615,9.555,3.776-.014-.141-.382-4.386,6.22-5.823,1.7-.37,2.13.388,2.158,1.18a2.361,2.361,0,0,1-.966,1.953l-1.953,1.468a5.446,5.446,0,0,0-1.927,2.729l-1.481,4.733a5.657,5.657,0,0,0,0,3.386l5.535,14.11,34.225-2.954,2.785,19.46-41.724,1.087a8.18,8.18,0,0,1-7.859-5.269L280.089,95.7s-3.912-10.815,4.852-15.063" transform="translate(-128.485 -36.118)" fill="#fff"/>
        <path id="Trazado_191581" data-name="Trazado 191581" d="M296.715,125.822a8.73,8.73,0,0,1-8.149-5.62L279.145,95.43c-.044-.121-3.975-11.331,5.12-15.74,3.061-1.485,5.575-1.7,7.471-.646a5.685,5.685,0,0,1,2.333,2.612c.649-1.461,2.244-3.218,6.092-4.055a2.569,2.569,0,0,1,2.166.266,1.783,1.783,0,0,1,.646,1.421,2.9,2.9,0,0,1-1.182,2.4l-1.954,1.468a4.876,4.876,0,0,0-1.736,2.458l-1.481,4.734a5.089,5.089,0,0,0,0,3.063l5.272,13.436a.38.38,0,0,0,.384.239l33.542-2.9a.54.54,0,0,1,.093,1.076l-33.542,2.9a1.466,1.466,0,0,1-1.482-.92l-5.285-13.471a6.185,6.185,0,0,1-.015-3.745l1.48-4.733a5.954,5.954,0,0,1,2.118-3l1.954-1.468a1.815,1.815,0,0,0,.751-1.5.768.768,0,0,0-.229-.607,1.673,1.673,0,0,0-1.275-.064c-5.9,1.282-5.707,4.781-5.666,5.176v.005l-1.074.112a5.671,5.671,0,0,0-2.456-3.971c-1.569-.864-3.742-.634-6.459.683-8.23,3.99-4.617,14.29-4.579,14.394l9.418,24.764a7.622,7.622,0,0,0,7.341,4.921l41.724-1.087a.54.54,0,1,1,.028,1.08l-41.724,1.087-.228,0" transform="translate(-128.045 -35.659)" fill="#231f20"/>
        <path id="Trazado_191582" data-name="Trazado 191582" d="M288.34,71.7l-1.327-6.64a4.768,4.768,0,0,1,.688-3.553c1.191-1.814,3.125-4.362,4.365-3.962,1.27.41.139,2.966-.748,4.612a3.2,3.2,0,0,0-.038,2.951l2.988,5.945Z" transform="translate(-132.028 -26.46)" fill="#fff"/>
        <path id="Trazado_191583" data-name="Trazado 191583" d="M287.781,71.284a.539.539,0,0,1-.529-.434l-1.231-6.157a5.275,5.275,0,0,1,.767-3.955c3.137-4.774,4.525-4.329,4.982-4.179a1.278,1.278,0,0,1,.818.761c.131.324.527,1.311-1.257,4.621a2.654,2.654,0,0,0-.031,2.451l2.555,5.084a.54.54,0,0,1-.965.485l-2.555-5.084a3.737,3.737,0,0,1,.046-3.449c1.138-2.112,1.369-3.3,1.205-3.705a.207.207,0,0,0-.148-.137c-.394-.124-1.628.518-3.748,3.744a4.2,4.2,0,0,0-.611,3.151l1.231,6.158a.539.539,0,0,1-.423.635.512.512,0,0,1-.106.011" transform="translate(-131.567 -25.988)" fill="#231f20"/>
        <path id="Trazado_191584" data-name="Trazado 191584" d="M339.206,129.8l24.705-1.848,2.785,19.46-26.724.952Z" transform="translate(-156.088 -58.878)" fill="#ff8578"/>
        <path id="Trazado_191585" data-name="Trazado 191585" d="M339.159,154.023l-.572-13.858a.54.54,0,1,1,1.079-.044l.528,12.8,26.2-.682a.54.54,0,0,1,.028,1.08Z" transform="translate(-155.803 -64.239)" fill="#231f20"/>
        <path id="Trazado_191586" data-name="Trazado 191586" d="M382.182,128.813c-5.273-1.519-15.843-1.481-22.484-.384-9.651,1.594-12.89,7.82-13.579,16.5l.628,21.8q1.7.124,3.437.126a46.484,46.484,0,0,0,42.611-27.9,15.01,15.01,0,0,0-10.613-10.145" transform="translate(-159.269 -58.733)" fill="#ff8578"/>
        <path id="Trazado_191587" data-name="Trazado 191587" d="M346.287,181.013a.54.54,0,0,1-.539-.524l-.628-21.264a.54.54,0,0,1,.524-.556.555.555,0,0,1,.555.524l.628,21.264a.54.54,0,0,1-.524.555Z" transform="translate(-158.809 -73.013)" fill="#231f20"/>
        <path id="Trazado_191588" data-name="Trazado 191588" d="M386.87,138.15a.54.54,0,0,1-.52-.4c-1.208-4.416-4.68-7.566-10.043-9.11-5.267-1.516-15.663-1.892-22.247-.806L334.273,130a.54.54,0,1,1-.117-1.073l19.757-2.156c6.683-1.1,17.3-.716,22.692.837,5.744,1.654,9.473,5.065,10.786,9.863a.54.54,0,0,1-.378.663.565.565,0,0,1-.142.019" transform="translate(-153.543 -58.043)" fill="#231f20"/>
        <path id="Trazado_191589" data-name="Trazado 191589" d="M389.622,116.225l-12.528,8.627,1.948-20.981h10.58Z" transform="translate(-173.523 -47.797)" fill="#fff"/>
        <path id="Trazado_191590" data-name="Trazado 191590" d="M375.9,125.491,378,102.87h11.612v13.178Zm3.084-21.541-1.8,19.343,11.344-7.812V103.95Zm10.088,11.814h0Z" transform="translate(-172.974 -47.336)" fill="#231f20"/>
        <path id="Trazado_191591" data-name="Trazado 191591" d="M389.622,122.747l-12.528,10.791,6.36,5.984a.256.256,0,0,0,.4-.072l7.178-14.362Z" transform="translate(-173.523 -56.483)" fill="#fff"/>
        <path id="Trazado_191592" data-name="Trazado 191592" d="M382.92,139.375a.88.88,0,0,1-.6-.238l-6.718-6.32,13.466-11.6,1.9,3.142L383.7,138.89a.867.867,0,0,1-.63.471.855.855,0,0,1-.153.013m-5.707-6.522,5.646,5.311,6.875-13.756-.931-1.54Z" transform="translate(-172.835 -55.779)" fill="#231f20"/>
        <path id="Trazado_191593" data-name="Trazado 191593" d="M371.931,135.843l-5.594,2.054a.344.344,0,0,1-.422-.485l4.872-9.121,1.894-.534Z" transform="translate(-168.359 -58.788)" fill="#fff"/>
        <path id="Trazado_191594" data-name="Trazado 191594" d="M365.733,137.839a.878.878,0,0,1-.77-1.29l4.989-9.34,2.872-.811-.855,9.21-5.931,2.177a.889.889,0,0,1-.306.055m4.955-9.716-4.522,8.465,4.792-1.759.646-6.964Zm.776,7.1h0Z" transform="translate(-167.892 -58.163)" fill="#231f20"/>
        <path id="Trazado_191595" data-name="Trazado 191595" d="M316.311,53.252a9.453,9.453,0,1,1-9.453-9.453,9.453,9.453,0,0,1,9.453,9.453" transform="translate(-136.853 -20.154)" fill="#ff8578"/>
        <path id="Trazado_191596" data-name="Trazado 191596" d="M309.8,61.876l-3.284-3.284,1.876-1.876,1.408,1.408,3.907-3.909,1.876,1.876Z" transform="translate(-141.046 -24.947)" fill="#fff"/>
        <path id="Trazado_191597" data-name="Trazado 191597" d="M401.6,96.546a2.723,2.723,0,0,0,1.864,3.286,2.557,2.557,0,0,0,3.11-1.969,2.722,2.722,0,0,0-1.864-3.286,2.558,2.558,0,0,0-3.11,1.969" transform="translate(-184.762 -43.482)" fill="#fff"/>
        <path id="Trazado_191598" data-name="Trazado 191598" d="M403.628,99.992a2.989,2.989,0,0,1-.765-.1,3.268,3.268,0,0,1-2.251-3.932,3.208,3.208,0,0,1,1.471-2.037,2.971,2.971,0,0,1,2.3-.329,3.27,3.27,0,0,1,2.251,3.932,3.208,3.208,0,0,1-1.472,2.037,2.979,2.979,0,0,1-1.537.43m-.006-5.419a1.911,1.911,0,0,0-.985.276,2.136,2.136,0,0,0-.975,1.359,2.182,2.182,0,0,0,1.477,2.64,1.9,1.9,0,0,0,1.471-.212,2.136,2.136,0,0,0,.975-1.36,2.184,2.184,0,0,0-1.476-2.64,1.9,1.9,0,0,0-.487-.064m-2.485,1.511h0Z" transform="translate(-184.303 -43.022)" fill="#231f20"/>
        <path id="Trazado_191599" data-name="Trazado 191599" d="M370.73,95.391h0a12.416,12.416,0,0,0,14.859-8.445L390,73.707s-20.152-11.574-22.743-6.02c-2.066,4.43-2.756,12.606-2.973,18.606a8.961,8.961,0,0,0,6.45,9.1" transform="translate(-167.623 -30.453)" fill="#fff"/>
        <path id="Trazado_191600" data-name="Trazado 191600" d="M373.372,102.962a12.648,12.648,0,0,1-3.241-.426A9.547,9.547,0,0,1,363.28,92.9a114.976,114.976,0,0,1,1.151-11.867.54.54,0,1,1,1.067.166,113.569,113.569,0,0,0-1.139,11.741,8.46,8.46,0,0,0,6.048,8.556c6.164,1.631,12.327-2.011,14.335-8.476a.54.54,0,0,1,1.031.321,13.141,13.141,0,0,1-12.4,9.625" transform="translate(-167.163 -37.076)" fill="#231f20"/>
        <path id="Trazado_191601" data-name="Trazado 191601" d="M377.616,68.984c.564-.213,1.117-.486,1.714-.658a.445.445,0,0,1,.42.031.348.348,0,0,1,.1.208,13.406,13.406,0,0,1,.077,1.456,16.22,16.22,0,0,0,2.128,7.025c.194.324.469.68.833.659a1.045,1.045,0,0,0,.593-.333c2.724-2.457,6.005-7.042,5.221-11.1a3.436,3.436,0,0,0-1.92-2.59,2.176,2.176,0,0,0-2.765,1.081c1.056-2.535-2.366-5.948-4.436-6.506a4.64,4.64,0,0,0-3.364.133c.375-.236-1.97-3.475-2.3-3.828a9.786,9.786,0,0,0-5.577-3.271,8.66,8.66,0,0,0-7.941,2.871,9.7,9.7,0,0,0-2.172,5.77,8.65,8.65,0,0,0,1.972,6.455c2.713,3.125,7.722,3.168,11.187,1.608a12.68,12.68,0,0,0,1.3-.735,4.507,4.507,0,0,0,3,1.988,3.6,3.6,0,0,0,1.937-.268" transform="translate(-164.833 -23.55)" fill="#ff8578"/>
        <path id="Trazado_191602" data-name="Trazado 191602" d="M372.646,103.943a.7.7,0,0,1-.543-.262.717.717,0,0,1-.13-.64l1.156-3.182a.54.54,0,0,1,1.014.369l-.948,2.605.808-.043a.54.54,0,0,1,.057,1.079l-1.378.073h-.036" transform="translate(-171.154 -45.788)" fill="#231f20"/>
        <path id="Trazado_191603" data-name="Trazado 191603" d="M377.151,110.868a2.7,2.7,0,0,1-.765-.12.54.54,0,1,1,.3-1.035,1.043,1.043,0,0,0,.866-.033,1.167,1.167,0,0,0,.421-.743.545.545,0,0,1,.605-.463.537.537,0,0,1,.466.6,2.234,2.234,0,0,1-.9,1.507,1.792,1.792,0,0,1-1,.289" transform="translate(-173.018 -49.913)" fill="#231f20"/>
        <path id="Trazado_191604" data-name="Trazado 191604" d="M369.246,89.357a.538.538,0,0,1-.4-.179,2.19,2.19,0,0,0-2.184-.57.54.54,0,0,1-.314-1.033,3.263,3.263,0,0,1,3.3.884.54.54,0,0,1-.4.9" transform="translate(-168.401 -40.231)" fill="#231f20"/>
        <path id="Trazado_191605" data-name="Trazado 191605" d="M385,92.357a.533.533,0,0,1-.329-.112,2.158,2.158,0,0,0-2.241-.141.54.54,0,1,1-.5-.956,3.232,3.232,0,0,1,3.4.245.54.54,0,0,1-.333.965" transform="translate(-175.613 -41.768)" fill="#231f20"/>
        <path id="Trazado_191606" data-name="Trazado 191606" d="M367.3,93.131a.712.712,0,0,0,.406.887.669.669,0,0,0,.754-.58.712.712,0,0,0-.406-.887.669.669,0,0,0-.754.58" transform="translate(-169.003 -42.581)" fill="#231f20"/>
        <path id="Trazado_191607" data-name="Trazado 191607" d="M382.793,96.016a.712.712,0,0,0,.406.887.669.669,0,0,0,.754-.58.712.712,0,0,0-.406-.887.669.669,0,0,0-.754.58" transform="translate(-176.133 -43.908)" fill="#231f20"/>
        <path id="Trazado_191608" data-name="Trazado 191608" d="M297.005,88.853a1.635,1.635,0,0,1-.229-.016,2.734,2.734,0,0,1-1.83-1.481.54.54,0,0,1,.922-.563c.36.591.726.927,1.059.975a.852.852,0,0,0,.662-.265,1.576,1.576,0,0,0,.448-1.317A5.643,5.643,0,0,0,296,81.9a5.384,5.384,0,0,0-3.95-.7,13.273,13.273,0,0,0-3.817,1.224.54.54,0,0,1-.5-.959,14.212,14.212,0,0,1,4.094-1.322,6.383,6.383,0,0,1,4.787.87,6.646,6.646,0,0,1,2.493,5.071,2.657,2.657,0,0,1-.792,2.216,1.954,1.954,0,0,1-1.313.554" transform="translate(-132.27 -36.814)" fill="#231f20"/>
        <path id="Trazado_191609" data-name="Trazado 191609" d="M292.662,93.324a3.813,3.813,0,0,1-2.312-.941.54.54,0,0,1,.661-.854,2.434,2.434,0,0,0,1.87.7.905.905,0,0,0,.625-.42,1.638,1.638,0,0,0,.013-1.553c-3.451-6.956-9.182-4.319-9.424-4.2a.54.54,0,0,1-.469-.972c.069-.033,6.927-3.232,10.859,4.7a2.726,2.726,0,0,1-.054,2.589,2,2,0,0,1-1.351.925,2.245,2.245,0,0,1-.418.038" transform="translate(-130.372 -38.842)" fill="#231f20"/>
        <path id="Trazado_191610" data-name="Trazado 191610" d="M287.737,98.416h-.048c-1.148-.024-2.388-.869-3.791-2.585a.54.54,0,1,1,.836-.683c1.463,1.788,2.427,2.178,2.978,2.189a1.16,1.16,0,0,0,.911-.43.635.635,0,0,0,.126-.646c-1.043-2.667-2.44-4.253-4.152-4.717-2.4-.651-4.7,1.136-4.719,1.154a.54.54,0,0,1-.672-.845c.111-.088,2.735-2.142,5.664-1.354,2.065.555,3.708,2.362,4.884,5.369a1.7,1.7,0,0,1-.324,1.757,2.226,2.226,0,0,1-1.692.792" transform="translate(-128.385 -41.561)" fill="#231f20"/>
        <path id="Trazado_191611" data-name="Trazado 191611" d="M288.666,104.458a.537.537,0,0,1-.448-.238c-1.845-2.733-.423-4.561-.362-4.637a.54.54,0,0,1,.845.672c-.047.063-.964,1.323.412,3.361a.539.539,0,0,1-.447.842" transform="translate(-132.192 -45.731)" fill="#231f20"/>
        <path id="Trazado_191612" data-name="Trazado 191612" d="M402.951,175.537a.54.54,0,0,1-.538-.5l-.565-7.139a.54.54,0,0,1,1.077-.085l.564,7.139a.54.54,0,0,1-.5.581l-.043,0" transform="translate(-184.913 -76.993)" fill="#231f20"/>
        <path id="Trazado_191613" data-name="Trazado 191613" d="M319.493,137.517a.54.54,0,0,1-.511-.367,4.3,4.3,0,0,1,.962-4.191.54.54,0,0,1,.774.753A3.21,3.21,0,0,0,320,136.8a.54.54,0,0,1-.511.713" transform="translate(-146.684 -61.107)" fill="#231f20"/>
        <path id="Trazado_191614" data-name="Trazado 191614" d="M165.646,240.049l11.291,13.467a1.387,1.387,0,0,0,1.876.231c2.814-2.033,10.451-9.353,16.545-31.773l13.952,4.715c-4.76,36.649-18.988,48.171-18.988,48.171l-24.184.148-15.652-19.944Z" transform="translate(-69.247 -102.143)" fill="#fff"/>
        <path id="Trazado_191615" data-name="Trazado 191615" d="M165.262,275.088l-16.113-20.531,15.918-15.765,11.668,13.916a.85.85,0,0,0,1.146.14c2.912-2.1,10.335-9.381,16.34-31.477a.54.54,0,0,1,1.042.283c-6.1,22.428-13.745,29.9-16.75,32.069a1.933,1.933,0,0,1-2.605-.322l-10.915-13.017-14.4,14.264,15.192,19.357,23.719-.145c1.469-1.318,14.235-13.663,18.656-47.7a.54.54,0,0,1,1.071.139c-4.733,36.444-18.6,48.045-19.184,48.521l-.147.119Z" transform="translate(-68.632 -101.682)" fill="#231f20"/>
        <path id="Trazado_191616" data-name="Trazado 191616" d="M228.764,233.563l15.109,5.3q.492-2.548.918-5.295l-14.449-4.883q-.779,2.588-1.579,4.881" transform="translate(-105.268 -105.23)" fill="#414042"/>
        <path id="Trazado_191617" data-name="Trazado 191617" d="M115.128,233.211l-15.241-21.12c-2.955-5.113-7.9-8.627-15.874-9.944-9.59-1.584-24.854-1.637-32.468.555-10.147,2.923-16.731,11.607-15.906,21.036l.549,46.443h64.926c-.608-7.356-2.494-12.456-.409-25.587,4.018-5.045,11.119-10.687,14.422-11.382" transform="translate(-16.367 -92.493)" fill="#ff8578"/>
        <path id="Trazado_191618" data-name="Trazado 191618" d="M101.238,270.257H35.192l-.555-46.976c-.847-9.67,5.854-18.553,16.3-21.561,7.881-2.269,23.273-2.128,32.705-.569,7.671,1.267,12.973,4.579,16.211,10.124l3.747,5.211a.54.54,0,1,1-.877.629l-3.774-5.253c-3.093-5.293-8.149-8.435-15.483-9.646-9.315-1.538-24.488-1.688-32.23.541-9.94,2.863-16.322,11.281-15.518,20.471l.545,45.949h63.8c-.142-1.528-.338-2.989-.528-4.406-.758-5.656-1.542-11.506.6-23.223l.929-6.013a.54.54,0,0,1,1.067.164l-.93,6.028c-2.116,11.565-1.344,17.327-.6,22.9.216,1.611.439,3.277.586,5.045Z" transform="translate(-15.905 -92.03)" fill="#231f20"/>
        <path id="Trazado_191619" data-name="Trazado 191619" d="M77.7,185.073l3.744,4.748a9.216,9.216,0,0,0,16.384-4.581l-1.78-19.177H80.772Z" transform="translate(-35.755 -76.416)" fill="#fff"/>
        <path id="Trazado_191620" data-name="Trazado 191620" d="M88.119,193.427a9.592,9.592,0,0,1-7.583-3.731l-3.891-4.935,3.181-19.7H96.056l1.832,19.725-.007.058a9.608,9.608,0,0,1-7.056,8.2,10.022,10.022,0,0,1-2.705.376m-10.332-8.962,3.6,4.563A8.676,8.676,0,0,0,96.8,184.772l-1.73-18.628H80.746Z" transform="translate(-35.269 -75.955)" fill="#231f20"/>
        <path id="Trazado_191621" data-name="Trazado 191621" d="M248.7,196.985a3.9,3.9,0,0,0-2.069-.717c-.669-.031-.991-.045-1.393-.558a1.669,1.669,0,0,0-1.561-.682c-.2.035-.79.375-.956.277a.3.3,0,0,1-.082-.086c-.483-.674-1-1.424-1.958-1.258a1.475,1.475,0,0,0-.945.626l-.058-.019.869-6.913q.194-1.334.387-2.665a15.925,15.925,0,0,0,.238-2.756,2.87,2.87,0,0,0-.356-1.459,1.282,1.282,0,0,0-1.281-.63,1.72,1.72,0,0,0-1.093,1.31c-.923,3.073-1.268,6.2-1.959,9.309-.888,3.992-1.819,7.989-2.879,11.953l13.952,4.715,2.525-6.388a3.525,3.525,0,0,0-1.078-3.817,3.733,3.733,0,0,0-.3-.241" transform="translate(-107.496 -82.886)" fill="#fff"/>
        <path id="Trazado_191622" data-name="Trazado 191622" d="M233.146,202.8a.546.546,0,0,1-.14-.018.54.54,0,0,1-.382-.661c1.16-4.339,2.145-8.655,2.874-11.93.256-1.15.468-2.327.673-3.465a52.971,52.971,0,0,1,1.3-5.882,2.177,2.177,0,0,1,1.5-1.683,1.8,1.8,0,0,1,1.85.87,3.385,3.385,0,0,1,.439,1.731,16.353,16.353,0,0,1-.243,2.851l-.387,2.665-.867,6.9a.548.548,0,0,1-.6.468.54.54,0,0,1-.469-.6l.869-6.913.388-2.675a15.554,15.554,0,0,0,.233-2.662,2.313,2.313,0,0,0-.273-1.187.748.748,0,0,0-.712-.39c-.392.083-.611.683-.688.937a52.187,52.187,0,0,0-1.267,5.763c-.207,1.149-.421,2.336-.682,3.507-.731,3.286-1.719,7.617-2.884,11.975a.541.541,0,0,1-.521.4" transform="translate(-107.035 -82.426)" fill="#231f20"/>
        <path id="Trazado_191623" data-name="Trazado 191623" d="M258.2,221.271a.533.533,0,0,1-.2-.038.54.54,0,0,1-.3-.7l2.525-6.388a2.965,2.965,0,0,0-.932-3.213,2.918,2.918,0,0,0-.26-.206,3.371,3.371,0,0,0-1.781-.619.54.54,0,0,1,.049-1.079,4.473,4.473,0,0,1,2.358.817,4.339,4.339,0,0,1,.348.275,4.059,4.059,0,0,1,1.223,4.42L258.7,220.93a.54.54,0,0,1-.5.342" transform="translate(-118.139 -96.186)" fill="#231f20"/>
        <path id="Trazado_191624" data-name="Trazado 191624" d="M253.052,198.2a1.283,1.283,0,0,0-1.209-.906,5.151,5.151,0,0,0-3.2,1.175l-9.006,5.89,4.493,8.24a4.939,4.939,0,0,0,2.065-2.867,6.723,6.723,0,0,0-.056-3.571,1.881,1.881,0,0,1-.1-.557,1.361,1.361,0,0,1,.582-.951,49.924,49.924,0,0,0,5.877-5.225,1.6,1.6,0,0,0,.551-1.228" transform="translate(-110.273 -90.78)" fill="#fff"/>
        <path id="Trazado_191625" data-name="Trazado 191625" d="M43.877,288.507l26.779,21.94H37.876Z" transform="translate(-17.429 -132.759)" fill="#231f20"/>
        <path id="Trazado_191626" data-name="Trazado 191626" d="M67.983,265.309l6.865,12.7a3.483,3.483,0,0,0,2.776,1.867c12.216,1.115,24.605,3.018,36.862,3.364v.009l2.632.284,24.246,8.534a9.462,9.462,0,0,1,5.572,5.237l.372.88a.656.656,0,0,1-.637.911l-25.864-.742-7.285,1.306v.008h-.046l-.068.012v-.012c-2.383,0-41.741.012-41.741.012-5.849,0-10.036-2.913-14.532-8.225,0,0-9.279-11.459-7.867-16.229,1.506-5.085,13.595-11.3,18.715-9.919" transform="translate(-22.603 -121.994)" fill="#fff"/>
        <path id="Trazado_191627" data-name="Trazado 191627" d="M109.809,299.874l.009-.124c-5.441,0-41.164.011-41.164.011h0c-5.551,0-9.88-2.438-14.939-8.415l-.049-.067L42.653,273.246a.54.54,0,1,1,.922-.563l10.986,18c4.818,5.682,8.9,8,14.088,8h0s39.357-.009,41.741-.011h.019l7.34-1.316,25.921.744a.109.109,0,0,0,.112-.049.112.112,0,0,0,.012-.112l-.372-.88a8.941,8.941,0,0,0-5.254-4.939L113.985,283.6l-2.661-.288c-8.158-.238-16.482-1.173-24.533-2.076-4.016-.451-8.169-.917-12.227-1.286a4.007,4.007,0,0,1-3.207-2.157L64.61,265.317c-2.949-.629-8.622,1.244-13.1,4.352a.54.54,0,1,1-.616-.887c4.169-2.894,10.568-5.439,14.216-4.455l.223.061,6.975,12.9a2.935,2.935,0,0,0,2.351,1.586c4.069.372,8.228.838,12.25,1.29,8.074.906,16.422,1.842,24.578,2.073l.556.016,0,.052,2.241.256,24.246,8.534a10.023,10.023,0,0,1,5.89,5.537l.372.88a1.2,1.2,0,0,1-1.161,1.661l-25.8-.74-6.812,1.221-.005.083-.527.012Z" transform="translate(-19.591 -121.533)" fill="#231f20"/>
        <path id="Trazado_191628" data-name="Trazado 191628" d="M207.859,323.1a8.765,8.765,0,0,1,2.856.581,3.112,3.112,0,0,1,1.67,1.615.209.209,0,0,0,.251.142.206.206,0,0,0,.143-.251,3.479,3.479,0,0,0-1.821-1.843,9.228,9.228,0,0,0-3.1-.654c-.262-.024-.26.384,0,.409" transform="translate(-95.558 -148.491)" fill="#f9696a"/>
        <path id="Trazado_191629" data-name="Trazado 191629" d="M206.712,326.257H178.732a1.913,1.913,0,0,1-1.913-1.913v-.336a1.913,1.913,0,0,1,1.913-1.913h27.979a1.848,1.848,0,0,1,1.848,1.848v.467a1.848,1.848,0,0,1-1.848,1.848" transform="translate(-81.365 -148.214)" fill="#231f20"/>
        <path id="Trazado_191630" data-name="Trazado 191630" d="M279.582,294.47h-59.5a2.722,2.722,0,0,1-2.539-3.7l13.91-36.009a2.722,2.722,0,0,1,2.539-1.742h59.5a2.722,2.722,0,0,1,2.539,3.7l-13.91,36.009a2.722,2.722,0,0,1-2.539,1.741" transform="translate(-100.02 -116.428)" fill="#414042"/>
        <path id="Trazado_191631" data-name="Trazado 191631" d="M291,287.94a4.073,4.073,0,1,1-4.073-4.073A4.073,4.073,0,0,1,291,287.94" transform="translate(-130.157 -130.624)" fill="#5a595b"/>
        <path id="Trazado_191632" data-name="Trazado 191632" d="M207.243,326.551a.2.2,0,0,0,.2-.2v-.419a.288.288,0,0,1,.287-.287h2.76a.2.2,0,1,0,0-.4h-2.76a.69.69,0,0,0-.689.689v.419a.2.2,0,0,0,.2.2" transform="translate(-95.272 -149.663)" fill="#293241"/>
        <path id="Trazado_191633" data-name="Trazado 191633" d="M199.243,326.36a.2.2,0,0,0,.2-.2v-.418a.287.287,0,0,1,.287-.287h2.753a.2.2,0,1,0,0-.4H199.73a.688.688,0,0,0-.687.687v.418a.2.2,0,0,0,.2.2" transform="translate(-91.591 -149.577)" fill="#293241"/>
        <path id="Trazado_191634" data-name="Trazado 191634" d="M71.46,159.751a3.8,3.8,0,1,1-4.458-3,3.8,3.8,0,0,1,4.458,3" transform="translate(-29.417 -72.097)" fill="#fff"/>
        <path id="Trazado_191635" data-name="Trazado 191635" d="M67.268,164.359a4.341,4.341,0,1,1,.832-.08,4.348,4.348,0,0,1-.832.08m0-7.6a3.261,3.261,0,1,0,3.2,2.637,3.253,3.253,0,0,0-3.2-2.637" transform="translate(-28.957 -71.637)" fill="#231f20"/>
        <path id="Trazado_191636" data-name="Trazado 191636" d="M94.816,137.56s9.692,28.026-7.379,28.6S68.407,142.2,68.407,142.2s7.063-23.06,26.409-4.638" transform="translate(-31.478 -60.015)" fill="#fff"/>
        <path id="Trazado_191637" data-name="Trazado 191637" d="M88.162,172.334c-9.743,0-14.544-8.011-16.863-14.812a.539.539,0,1,1,1.021-.349c2.25,6.6,6.918,14.378,16.416,14.072,3.335-.112,5.83-1.34,7.417-3.648,5.161-7.509-.473-24.071-.53-24.237a.54.54,0,1,1,1.02-.353c.242.7,5.869,17.243.4,25.2-1.792,2.607-4.575,3.992-8.271,4.116-.2.008-.409.011-.61.011" transform="translate(-32.796 -65.638)" fill="#231f20"/>
        <path id="Trazado_191638" data-name="Trazado 191638" d="M66.771,135.328c.525,1.872.944,4.759.054,6.319a1.55,1.55,0,0,1-1.967.739c-1.1-.618-1.365-2.256-1.859-3.3a9.266,9.266,0,0,0-2.421-3.118c-2-1.73-4.662-2.987-5.17-5.859-.292-1.651.637-4.627,2.535-4.984a1.69,1.69,0,0,0,.958-.306,1.386,1.386,0,0,0,.267-.775c.57-3.522,5.393-7.156,8.185-8.982,4.2-2.748,9.45-4.439,14.567-3.583,4.5.753,9.028,4.1,10.53,8.5,1.193,3.5.273,7.816-2.717,9.987-4.034,2.928-10.913,1.914-15.043-.355-.681-.374-3.593-2.267-3.819-2.91a6.008,6.008,0,0,1-.127,4.916,6.5,6.5,0,0,1-4.178,3.04c.069.2.139.43.207.673" transform="translate(-25.472 -51.196)" fill="#414042"/>
        <path id="Trazado_191639" data-name="Trazado 191639" d="M108.121,153.541a.54.54,0,0,1-.3-.989,4.736,4.736,0,0,1,4.782-.072.54.54,0,0,1-.53.94,3.65,3.65,0,0,0-3.658.034.544.544,0,0,1-.294.087" transform="translate(-49.504 -69.88)" fill="#231f20"/>
        <path id="Trazado_191640" data-name="Trazado 191640" d="M112.726,159.512a.908.908,0,1,1-1.255-.6.992.992,0,0,1,1.255.6" transform="translate(-51.071 -73.092)" fill="#231f20"/>
        <path id="Trazado_191641" data-name="Trazado 191641" d="M87.924,158.37a.539.539,0,0,1-.453-.831,4.726,4.726,0,0,1,4.35-1.988.54.54,0,0,1-.107,1.075,3.665,3.665,0,0,0-3.337,1.5.542.542,0,0,1-.453.243" transform="translate(-40.211 -71.566)" fill="#231f20"/>
        <path id="Trazado_191642" data-name="Trazado 191642" d="M94.762,163.017a.908.908,0,1,1-1.255-.6.992.992,0,0,1,1.255.6" transform="translate(-42.805 -74.704)" fill="#231f20"/>
        <path id="Trazado_191643" data-name="Trazado 191643" d="M106.169,170.248a.54.54,0,0,1-.048-1.078l1.646-.147-2.113-5.225a.54.54,0,0,1,1-.4l2.261,5.593a.768.768,0,0,1-.044.692.779.779,0,0,1-.6.384l-2.052.184-.049,0m1.746-.859c0,.008.006.016.01.024Z" transform="translate(-48.6 -75.032)" fill="#231f20"/>
        <path id="Trazado_191644" data-name="Trazado 191644" d="M102.108,181.536a2.972,2.972,0,0,1-2.817-1.81.54.54,0,0,1,1.009-.384,1.912,1.912,0,0,0,1.814,1.114h.071a.546.546,0,0,1,.554.526.54.54,0,0,1-.525.554h-.107" transform="translate(-45.673 -82.367)" fill="#231f20"/>
        <path id="Trazado_191645" data-name="Trazado 191645" d="M157.232,247.023a.54.54,0,0,1-.37-.933c3.477-3.274,7.278-5.963,9.686-6.848a.085.085,0,0,0,.053-.057.1.1,0,0,0-.015-.088l-17-23.555a.54.54,0,0,1,.876-.631l17,23.554a1.169,1.169,0,0,1,.172,1.035,1.156,1.156,0,0,1-.713.755c-2.281.839-5.939,3.438-9.318,6.621a.536.536,0,0,1-.37.147" transform="translate(-68.787 -98.79)" fill="#231f20"/>
        <path id="Trazado_191646" data-name="Trazado 191646" d="M244.393,212.719a.54.54,0,0,1-.253-1.017c3.389-1.795,1.5-6.442,1.48-6.489l-.148-.355,5.718-5.085a2.448,2.448,0,0,0,.723-2.485l-.111-.39a.1.1,0,0,0-.059-.064.1.1,0,0,0-.087.01L240.2,204.39a.54.54,0,1,1-.594-.9l11.459-7.548a1.177,1.177,0,0,1,1.779.66l.111.39a3.534,3.534,0,0,1-1.045,3.587l-5.152,4.581c.725,2.046,1.089,5.8-2.11,7.5a.536.536,0,0,1-.252.063" transform="translate(-110.144 -90.074)" fill="#231f20"/>
        <path id="Trazado_191647" data-name="Trazado 191647" d="M243.7,238.988l-16.207-5.682.177-.509c.54-1.554,1.069-3.188,1.571-4.859l.161-.534,15.408,5.207-.07.449c-.279,1.8-.589,3.591-.922,5.314Zm-14.835-6.345,14.011,4.911c.259-1.375.5-2.787.728-4.212l-13.49-4.559c-.4,1.319-.822,2.612-1.248,3.859" transform="translate(-104.682 -104.642)" fill="#231f20"/>
        <path id="Trazado_191648" data-name="Trazado 191648" d="M244.285,236.213a1.55,1.55,0,1,1-1.55-1.55,1.55,1.55,0,0,1,1.55,1.55" transform="translate(-110.983 -107.982)" fill="#ff8578"/>
        <path id="Trazado_191649" data-name="Trazado 191649" d="M198.365,285.148a.54.54,0,0,1-.382-.922,4.3,4.3,0,0,0,1.11-3.261.54.54,0,0,1,.469-.6.534.534,0,0,1,.6.465,5.328,5.328,0,0,1-1.417,4.161.539.539,0,0,1-.382.158" transform="translate(-91.031 -129.009)" fill="#231f20"/>
        <path id="Trazado_191650" data-name="Trazado 191650" d="M95.3,295.975a.54.54,0,0,1-.317-.977,3.546,3.546,0,0,0,1.481-2.937.541.541,0,0,1,.5-.574.534.534,0,0,1,.575.5,4.632,4.632,0,0,1-1.925,3.888.534.534,0,0,1-.316.1" transform="translate(-43.603 -134.129)" fill="#231f20"/>
      </g>
    </g>
  </g>
</svg>
