<svg xmlns="http://www.w3.org/2000/svg" width="398" height="54" viewBox="0 0 398 54">
  <g id="_31" data-name="31" transform="translate(-811 -4248)">
    <rect id="Rectángulo_38986" data-name="Rectángulo 38986" width="398" height="26" transform="translate(811 4248)" fill="#fff"/>
    <rect id="Rectángulo_43094" data-name="Rectángulo 43094" width="398" height="26" transform="translate(811 4276)" fill="#fff"/>
    <g id="Grupo_156426" data-name="Grupo 156426" transform="translate(0 -4)">
      <line id="Línea_177" data-name="Línea 177" y2="54" transform="translate(880 4252)" fill="rgba(0,0,0,0)" stroke="#fff6e2" stroke-width="2"/>
      <line id="Línea_178" data-name="Línea 178" y2="54" transform="translate(943.345 4252)" fill="rgba(0,0,0,0)" stroke="#fff6e2" stroke-width="2"/>
      <line id="Línea_179" data-name="Línea 179" y2="54" transform="translate(1009.034 4252)" fill="rgba(0,0,0,0)" stroke="#fff6e2" stroke-width="2"/>
      <line id="Línea_180" data-name="Línea 180" y2="54" transform="translate(1074.724 4252)" fill="rgba(0,0,0,0)" stroke="#fff6e2" stroke-width="2"/>
      <line id="Línea_181" data-name="Línea 181" y2="54" transform="translate(1138 4252)" fill="rgba(0,0,0,0)" stroke="#fff6e2" stroke-width="2"/>
    </g>
    <path id="Trazado_197290" data-name="Trazado 197290" d="M5.031-7.016l2.727-4.359H9.523L5.93-5.734,9.609,0H7.828l-2.8-4.437L2.219,0H.445L4.133-5.734l-3.6-5.641H2.289Z" transform="translate(818 4268)" fill="#12263f"/>
    <g id="Grupo_156425" data-name="Grupo 156425" transform="translate(-21)">
      <path id="Trazado_197291" data-name="Trazado 197291" d="M8.4,0H.945V-1.039L4.883-5.414A9.354,9.354,0,0,0,6.09-7.027a2.693,2.693,0,0,0,.332-1.285,2.041,2.041,0,0,0-.539-1.461,1.885,1.885,0,0,0-1.437-.57A2.232,2.232,0,0,0,2.77-9.73a2.343,2.343,0,0,0-.6,1.707H.727a3.355,3.355,0,0,1,1.012-2.539,3.751,3.751,0,0,1,2.707-.969,3.6,3.6,0,0,1,2.508.832,2.838,2.838,0,0,1,.922,2.215q0,1.68-2.141,4L2.688-1.18H8.4Z" transform="translate(910 4268)" fill="#12263f"/>
      <path id="Trazado_197300" data-name="Trazado 197300" d="M8.4,15H.945V13.961L4.883,9.586A9.355,9.355,0,0,0,6.09,7.973a2.693,2.693,0,0,0,.332-1.285,2.041,2.041,0,0,0-.539-1.461,1.885,1.885,0,0,0-1.437-.57A2.232,2.232,0,0,0,2.77,5.27a2.343,2.343,0,0,0-.6,1.707H.727A3.355,3.355,0,0,1,1.738,4.438a3.751,3.751,0,0,1,2.707-.969A3.6,3.6,0,0,1,6.953,4.3a2.838,2.838,0,0,1,.922,2.215q0,1.68-2.141,4l-3.047,3.3H8.4Zm3.164-7.684L9.2,6.614l.359-1.178,2.359.874-.07-2.685h1.2l-.078,2.724,2.32-.859.359,1.186-2.4.71L14.8,9.5l-.969.734-1.453-2.25-1.406,2.2-.977-.711ZM24.273,15H16.82V13.961l3.938-4.375a9.354,9.354,0,0,0,1.207-1.613A2.693,2.693,0,0,0,22.3,6.688a2.041,2.041,0,0,0-.539-1.461,1.885,1.885,0,0,0-1.437-.57,2.232,2.232,0,0,0-1.676.613,2.343,2.343,0,0,0-.6,1.707H16.6a3.355,3.355,0,0,1,1.012-2.539,3.751,3.751,0,0,1,2.707-.969,3.6,3.6,0,0,1,2.508.832,2.838,2.838,0,0,1,.922,2.215q0,1.68-2.141,4l-3.047,3.3h5.711Z" transform="translate(910 4277)" fill="#12263f"/>
    </g>
    <g id="Grupo_156424" data-name="Grupo 156424" transform="translate(-23)">
      <path id="Trazado_197292" data-name="Trazado 197292" d="M3.047-6.391H4.133A2.387,2.387,0,0,0,5.742-6.93a1.8,1.8,0,0,0,.586-1.414,1.764,1.764,0,0,0-1.992-2,2.072,2.072,0,0,0-1.5.535,1.873,1.873,0,0,0-.559,1.418H.836a2.9,2.9,0,0,1,.988-2.246,3.6,3.6,0,0,1,2.512-.895,3.558,3.558,0,0,1,2.523.852,3.076,3.076,0,0,1,.914,2.367,2.5,2.5,0,0,1-.48,1.438A2.9,2.9,0,0,1,5.984-5.836a2.8,2.8,0,0,1,1.449.984,2.734,2.734,0,0,1,.512,1.68,3.1,3.1,0,0,1-1,2.43,3.745,3.745,0,0,1-2.6.9A3.844,3.844,0,0,1,1.738-.711,2.877,2.877,0,0,1,.734-3H2.188a1.859,1.859,0,0,0,.586,1.438,2.229,2.229,0,0,0,1.57.539,2.187,2.187,0,0,0,1.6-.547A2.108,2.108,0,0,0,6.5-3.141a1.912,1.912,0,0,0-.609-1.523,2.655,2.655,0,0,0-1.758-.547H3.047Z" transform="translate(977 4269)" fill="#12263f"/>
      <path id="Trazado_197299" data-name="Trazado 197299" d="M8.4,15H.945V13.961L4.883,9.586A9.355,9.355,0,0,0,6.09,7.973a2.693,2.693,0,0,0,.332-1.285,2.041,2.041,0,0,0-.539-1.461,1.885,1.885,0,0,0-1.437-.57A2.232,2.232,0,0,0,2.77,5.27a2.343,2.343,0,0,0-.6,1.707H.727A3.355,3.355,0,0,1,1.738,4.438a3.751,3.751,0,0,1,2.707-.969A3.6,3.6,0,0,1,6.953,4.3a2.838,2.838,0,0,1,.922,2.215q0,1.68-2.141,4l-3.047,3.3H8.4Zm3.164-7.684L9.2,6.614l.359-1.178,2.359.874-.07-2.685h1.2l-.078,2.724,2.32-.859.359,1.186-2.4.71L14.8,9.5l-.969.734-1.453-2.25-1.406,2.2-.977-.711Zm7.359,1.293h1.086a2.387,2.387,0,0,0,1.609-.539A1.8,1.8,0,0,0,22.2,6.656a1.764,1.764,0,0,0-1.992-2,2.072,2.072,0,0,0-1.5.535,1.873,1.873,0,0,0-.559,1.418H16.711A2.9,2.9,0,0,1,17.7,4.363a3.6,3.6,0,0,1,2.512-.895,3.558,3.558,0,0,1,2.523.852,3.076,3.076,0,0,1,.914,2.367,2.5,2.5,0,0,1-.48,1.438,2.9,2.9,0,0,1-1.309,1.039,2.8,2.8,0,0,1,1.449.984,2.734,2.734,0,0,1,.512,1.68,3.1,3.1,0,0,1-1,2.43,3.745,3.745,0,0,1-2.6.9,3.844,3.844,0,0,1-2.605-.867,2.877,2.877,0,0,1-1-2.289h1.453a1.859,1.859,0,0,0,.586,1.438,2.229,2.229,0,0,0,1.57.539,2.187,2.187,0,0,0,1.6-.547,2.108,2.108,0,0,0,.555-1.57,1.912,1.912,0,0,0-.609-1.523,2.655,2.655,0,0,0-1.758-.547H18.922Z" transform="translate(977 4277)" fill="#12263f"/>
    </g>
    <g id="Grupo_156423" data-name="Grupo 156423" transform="translate(-22)">
      <path id="Trazado_197293" data-name="Trazado 197293" d="M7.047-3.82H8.625v1.18H7.047V0H5.594V-2.641H.414v-.852l5.094-7.883H7.047Zm-4.992,0H5.594V-9.4l-.172.313Z" transform="translate(1042 4269)" fill="#12263f"/>
      <path id="Trazado_197298" data-name="Trazado 197298" d="M8.4,15H.945V13.961L4.883,9.586A9.355,9.355,0,0,0,6.09,7.973a2.693,2.693,0,0,0,.332-1.285,2.041,2.041,0,0,0-.539-1.461,1.885,1.885,0,0,0-1.437-.57A2.232,2.232,0,0,0,2.77,5.27a2.343,2.343,0,0,0-.6,1.707H.727A3.355,3.355,0,0,1,1.738,4.438a3.751,3.751,0,0,1,2.707-.969A3.6,3.6,0,0,1,6.953,4.3a2.838,2.838,0,0,1,.922,2.215q0,1.68-2.141,4l-3.047,3.3H8.4Zm3.164-7.684L9.2,6.614l.359-1.178,2.359.874-.07-2.685h1.2l-.078,2.724,2.32-.859.359,1.186-2.4.71L14.8,9.5l-.969.734-1.453-2.25-1.406,2.2-.977-.711ZM22.922,11.18H24.5v1.18H22.922V15H21.469V12.359h-5.18v-.852l5.094-7.883h1.539Zm-4.992,0h3.539V5.6l-.172.313Z" transform="translate(1042 4277)" fill="#12263f"/>
    </g>
    <g id="Grupo_156422" data-name="Grupo 156422" transform="translate(-22)">
      <path id="Trazado_197294" data-name="Trazado 197294" d="M6.617-11.383v1.227H6.352a3.805,3.805,0,0,0-2.687,1A4.161,4.161,0,0,0,2.508-6.43,3.085,3.085,0,0,1,4.961-7.461,2.95,2.95,0,0,1,7.332-6.414a4.038,4.038,0,0,1,.887,2.7A4.025,4.025,0,0,1,7.262-.9,3.3,3.3,0,0,1,4.7.156,3.247,3.247,0,0,1,2.047-1.1a4.97,4.97,0,0,1-1.016-3.23v-.555a7.488,7.488,0,0,1,1.34-4.8,4.921,4.921,0,0,1,3.988-1.7Zm-1.9,5.125a2.306,2.306,0,0,0-1.367.445A2.32,2.32,0,0,0,2.484-4.7v.531A3.731,3.731,0,0,0,3.117-1.9,1.9,1.9,0,0,0,4.7-1.039,1.838,1.838,0,0,0,6.23-1.758a2.982,2.982,0,0,0,.559-1.883,2.983,2.983,0,0,0-.566-1.895A1.816,1.816,0,0,0,4.719-6.258Z" transform="translate(1105 4269)" fill="#12263f"/>
      <path id="Trazado_197297" data-name="Trazado 197297" d="M8.4,15H.945V13.961L4.883,9.586A9.355,9.355,0,0,0,6.09,7.973a2.693,2.693,0,0,0,.332-1.285,2.041,2.041,0,0,0-.539-1.461,1.885,1.885,0,0,0-1.437-.57A2.232,2.232,0,0,0,2.77,5.27a2.343,2.343,0,0,0-.6,1.707H.727A3.355,3.355,0,0,1,1.738,4.438a3.751,3.751,0,0,1,2.707-.969A3.6,3.6,0,0,1,6.953,4.3a2.838,2.838,0,0,1,.922,2.215q0,1.68-2.141,4l-3.047,3.3H8.4Zm3.164-7.684L9.2,6.614l.359-1.178,2.359.874-.07-2.685h1.2l-.078,2.724,2.32-.859.359,1.186-2.4.71L14.8,9.5l-.969.734-1.453-2.25-1.406,2.2-.977-.711ZM17.484,9.3l.578-5.672h5.828V4.961h-4.6l-.344,3.1a3.671,3.671,0,0,1,1.9-.492A3.138,3.138,0,0,1,23.313,8.6a4.026,4.026,0,0,1,.914,2.777,3.886,3.886,0,0,1-.949,2.77,3.46,3.46,0,0,1-2.652,1.012,3.6,3.6,0,0,1-2.461-.836,3.337,3.337,0,0,1-1.086-2.312h1.367a2.3,2.3,0,0,0,.7,1.473,2.162,2.162,0,0,0,1.484.5,1.95,1.95,0,0,0,1.582-.687,2.874,2.874,0,0,0,.574-1.9,2.638,2.638,0,0,0-.621-1.832,2.113,2.113,0,0,0-1.652-.691,2.383,2.383,0,0,0-1.484.414l-.383.313Z" transform="translate(1105 4277)" fill="#12263f"/>
    </g>
    <g id="Grupo_156421" data-name="Grupo 156421" transform="translate(-26)">
      <path id="Trazado_197296" data-name="Trazado 197296" d="M8.4,15H.945V13.961L4.883,9.586A9.355,9.355,0,0,0,6.09,7.973a2.693,2.693,0,0,0,.332-1.285,2.041,2.041,0,0,0-.539-1.461,1.885,1.885,0,0,0-1.437-.57A2.232,2.232,0,0,0,2.77,5.27a2.343,2.343,0,0,0-.6,1.707H.727A3.355,3.355,0,0,1,1.738,4.438a3.751,3.751,0,0,1,2.707-.969A3.6,3.6,0,0,1,6.953,4.3a2.838,2.838,0,0,1,.922,2.215q0,1.68-2.141,4l-3.047,3.3H8.4Zm3.164-7.684L9.2,6.614l.359-1.178,2.359.874-.07-2.685h1.2l-.078,2.724,2.32-.859.359,1.186-2.4.71L14.8,9.5l-.969.734-1.453-2.25-1.406,2.2-.977-.711Zm10.93-3.7V4.844h-.266a3.805,3.805,0,0,0-2.687,1A4.161,4.161,0,0,0,18.383,8.57a3.085,3.085,0,0,1,2.453-1.031,2.95,2.95,0,0,1,2.371,1.047,4.038,4.038,0,0,1,.887,2.7,4.025,4.025,0,0,1-.957,2.813,3.3,3.3,0,0,1-2.566,1.055A3.247,3.247,0,0,1,17.922,13.9a4.97,4.97,0,0,1-1.016-3.23v-.555a7.488,7.488,0,0,1,1.34-4.8,4.921,4.921,0,0,1,3.988-1.7Zm-1.9,5.125A2.429,2.429,0,0,0,18.359,10.3v.531a3.731,3.731,0,0,0,.633,2.266,1.9,1.9,0,0,0,1.578.859,1.838,1.838,0,0,0,1.535-.719,2.982,2.982,0,0,0,.559-1.883A2.983,2.983,0,0,0,22.1,9.465,1.816,1.816,0,0,0,20.594,8.742Z" transform="translate(1176 4277)" fill="#12263f"/>
      <path id="Trazado_197295" data-name="Trazado 197295" d="M6.617-11.383v1.227H6.352a3.805,3.805,0,0,0-2.687,1A4.161,4.161,0,0,0,2.508-6.43,3.085,3.085,0,0,1,4.961-7.461,2.95,2.95,0,0,1,7.332-6.414a4.038,4.038,0,0,1,.887,2.7A4.025,4.025,0,0,1,7.262-.9,3.3,3.3,0,0,1,4.7.156,3.247,3.247,0,0,1,2.047-1.1a4.97,4.97,0,0,1-1.016-3.23v-.555a7.488,7.488,0,0,1,1.34-4.8,4.921,4.921,0,0,1,3.988-1.7Zm-1.9,5.125a2.306,2.306,0,0,0-1.367.445A2.32,2.32,0,0,0,2.484-4.7v.531A3.731,3.731,0,0,0,3.117-1.9,1.9,1.9,0,0,0,4.7-1.039,1.838,1.838,0,0,0,6.23-1.758a2.982,2.982,0,0,0,.559-1.883,2.983,2.983,0,0,0-.566-1.895A1.816,1.816,0,0,0,4.719-6.258Z" transform="translate(1176 4269)" fill="#12263f"/>
    </g>
  </g>
</svg>
