<svg xmlns="http://www.w3.org/2000/svg" xmlns:xlink="http://www.w3.org/1999/xlink" width="294" height="188" viewBox="0 0 294 188">
  <defs>
    <clipPath id="clip-path">
      <rect id="Rectángulo_43122" data-name="Rectángulo 43122" width="262.785" height="168.238" fill="none"/>
    </clipPath>
    <clipPath id="clip-path-3">
      <rect id="Rectángulo_43118" data-name="Rectángulo 43118" width="30.784" height="26.132" fill="none"/>
    </clipPath>
    <clipPath id="clip-path-4">
      <rect id="Rectángulo_43119" data-name="Rectángulo 43119" width="54.517" height="16.479" fill="none"/>
    </clipPath>
  </defs>
  <g id="_33" data-name="33" transform="translate(-420 -3701)">
    <rect id="Rectángulo_43109" data-name="Rectángulo 43109" width="294" height="188" transform="translate(420 3701)" fill="none"/>
    <g id="Grupo_156493" data-name="Grupo 156493" transform="translate(435.607 3710.881)">
      <g id="Grupo_156492" data-name="Grupo 156492" clip-path="url(#clip-path)">
        <g id="Grupo_156491" data-name="Grupo 156491">
          <g id="Grupo_156490" data-name="Grupo 156490" clip-path="url(#clip-path)">
            <path id="Trazado_191785" data-name="Trazado 191785" d="M259.808,85.849a45.549,45.549,0,0,0,1-16.931A77.029,77.029,0,0,0,149.213,8.223C124.349,20.892,107.49,46.388,81.826,57.345c-6.278,2.681-12.927,4.411-19.213,7.072C56,67.218,49.856,71.016,43.748,74.8a42.345,42.345,0,0,0-8.84,6.6c-6.63,7.055-7.639,17.709-6.712,27.346,2.027,21.077,13.014,44.3,28.316,58.93l199-.666c8.648-19.772-9.378-39.8-3.919-60.674,1.864-7.128,6.231-13.393,8.213-20.491" transform="translate(-12.912 0)" fill="#ffe7e4"/>
            <path id="Trazado_191786" data-name="Trazado 191786" d="M249.67,197.886l-62.758.351a2.036,2.036,0,0,0-1.935,1.663l-7.755,47.481h66.36l7.755-47.447a1.423,1.423,0,0,0-.671-1.449Z" transform="translate(-82.013 -91.576)" fill="#231f20"/>
            <path id="Trazado_191787" data-name="Trazado 191787" d="M241.084,246.627H174.725l7.755-47.481a2.036,2.036,0,0,1,1.934-1.663h63.034a1.377,1.377,0,0,1,1.391,1.663Z" transform="translate(-80.858 -91.389)" fill="#5a595b"/>
            <path id="Trazado_191788" data-name="Trazado 191788" d="M222.026,289.289h-83.1a2.679,2.679,0,1,1,0-5.357h83.1a2.679,2.679,0,0,1,0,5.357" transform="translate(-63.05 -131.395)" fill="#6f6e6f"/>
            <path id="Trazado_191789" data-name="Trazado 191789" d="M222.026,288.909h-83.1a2.673,2.673,0,0,1-2.5-1.74,2.66,2.66,0,0,0,2.5,3.618h83.1a2.66,2.66,0,0,0,2.5-3.618,2.673,2.673,0,0,1-2.5,1.74" transform="translate(-63.05 -132.893)" fill="#231f20"/>
            <path id="Trazado_191790" data-name="Trazado 191790" d="M252.847,289.289H205.526a2.679,2.679,0,0,1,0-5.357h47.322a2.679,2.679,0,1,1,0,5.357" transform="translate(-93.872 -131.395)" fill="#414042"/>
            <path id="Trazado_191791" data-name="Trazado 191791" d="M330.481,79.151a1.143,1.143,0,1,1-1.143-1.143,1.142,1.142,0,0,1,1.143,1.143" transform="translate(-151.88 -36.1)" fill="#ff8578"/>
            <path id="Trazado_191792" data-name="Trazado 191792" d="M329.476,47.009a1.46,1.46,0,1,1-1.46-1.46,1.46,1.46,0,0,1,1.46,1.46" transform="translate(-151.12 -21.079)" fill="#ff8578"/>
            <path id="Trazado_191793" data-name="Trazado 191793" d="M287.866,52.665A2.568,2.568,0,1,1,285.3,50.1a2.568,2.568,0,0,1,2.568,2.568" transform="translate(-130.839 -23.183)" fill="#ff8578"/>
            <path id="Trazado_191794" data-name="Trazado 191794" d="M158.784,153.583l8.6-52.667a4.867,4.867,0,0,1,4.8-4.082h76.456a3.461,3.461,0,0,1,3.415,4.018l-8.6,52.666a4.868,4.868,0,0,1-4.8,4.083H162.2a3.46,3.46,0,0,1-3.415-4.018" transform="translate(-73.459 -44.811)" fill="#f2f2f2"/>
            <path id="Trazado_191795" data-name="Trazado 191795" d="M255.075,96.833H178.62a4.868,4.868,0,0,0-4.8,4.083l-1.185,7.253H257.3l1.195-7.318a3.46,3.46,0,0,0-3.415-4.018" transform="translate(-79.889 -44.811)" fill="#ffb6ae"/>
            <path id="Trazado_191796" data-name="Trazado 191796" d="M256.859,187.427,258,180.444a.645.645,0,0,1,.637-.542h19.2a.459.459,0,0,1,.453.533l-1.141,6.983a.646.646,0,0,1-.637.542h-19.2a.459.459,0,0,1-.453-.533" transform="translate(-118.864 -83.253)" fill="#ff8578"/>
            <path id="Trazado_191797" data-name="Trazado 191797" d="M188.962,107.6a1.14,1.14,0,1,1-.769-1.6,1.269,1.269,0,0,1,.769,1.6" transform="translate(-86.421 -49.044)" fill="#fff"/>
            <path id="Trazado_191798" data-name="Trazado 191798" d="M197.307,107.6a1.14,1.14,0,1,1-.769-1.6,1.269,1.269,0,0,1,.769,1.6" transform="translate(-90.282 -49.044)" fill="#fff"/>
            <path id="Trazado_191799" data-name="Trazado 191799" d="M205.652,107.6a1.14,1.14,0,1,1-.769-1.6,1.269,1.269,0,0,1,.769,1.6" transform="translate(-94.144 -49.044)" fill="#fff"/>
            <path id="Trazado_191800" data-name="Trazado 191800" d="M250.565,135.42H177.717l.471-2.875h72.848Z" transform="translate(-82.242 -61.338)" fill="#ffcec9"/>
            <path id="Trazado_191801" data-name="Trazado 191801" d="M248.534,147.223H175.686l.471-2.875h72.848Z" transform="translate(-81.302 -66.8)" fill="#ffcec9"/>
            <path id="Trazado_191802" data-name="Trazado 191802" d="M207.336,159.026H173.655l.471-2.875h33.681Z" transform="translate(-80.363 -72.262)" fill="#ffcec9"/>
            <path id="Trazado_191803" data-name="Trazado 191803" d="M238.192,157.676H161.737a4,4,0,0,1-3.945-4.642l8.6-52.667a5.385,5.385,0,0,1,5.335-4.533h76.456a4,4,0,0,1,3.945,4.641l-8.6,52.667a5.384,5.384,0,0,1-5.334,4.534M171.728,96.908a4.314,4.314,0,0,0-4.274,3.632l-8.6,52.667a2.923,2.923,0,0,0,2.884,3.394h76.456a4.313,4.313,0,0,0,4.273-3.632l8.6-52.667a2.922,2.922,0,0,0-2.884-3.394Zm-13.406,56.212h0Z" transform="translate(-72.997 -44.349)" fill="#231f20"/>
            <path id="Trazado_191804" data-name="Trazado 191804" d="M194.728,118.007H172.168a.537.537,0,1,1,0-1.074h22.559a.537.537,0,0,1,0,1.074" transform="translate(-79.426 -54.113)" fill="#231f20"/>
            <path id="Trazado_191805" data-name="Trazado 191805" d="M137.362,131.658a.537.537,0,0,1-.531-.624l8.6-52.667a5.385,5.385,0,0,1,5.335-4.533h76.456a4,4,0,0,1,3.945,4.641l-.812,4.975a.538.538,0,0,1-1.061-.174l.812-4.974a2.922,2.922,0,0,0-2.884-3.394H150.767a4.314,4.314,0,0,0-4.274,3.632l-8.6,52.667a.537.537,0,0,1-.53.451" transform="translate(-63.318 -34.168)" fill="#231f20"/>
            <g id="Grupo_156486" data-name="Grupo 156486" transform="translate(85.332 82.594)" opacity="0.3">
              <g id="Grupo_156485" data-name="Grupo 156485">
                <g id="Grupo_156484" data-name="Grupo 156484" clip-path="url(#clip-path-3)">
                  <path id="Trazado_191806" data-name="Trazado 191806" d="M189.512,154.666a1.492,1.492,0,0,0-1.378-.926H163.106l-4.268,26.132h25a2.093,2.093,0,0,0,2.066-1.756l3.7-22.649a1.475,1.475,0,0,0,0-.5,1.451,1.451,0,0,0-.088-.306" transform="translate(-158.838 -153.74)" fill="#6f6e6f"/>
                </g>
              </g>
            </g>
            <g id="Grupo_156489" data-name="Grupo 156489" transform="translate(122.387 66.065)" opacity="0.3">
              <g id="Grupo_156488" data-name="Grupo 156488">
                <g id="Grupo_156487" data-name="Grupo 156487" clip-path="url(#clip-path-4)">
                  <path id="Trazado_191807" data-name="Trazado 191807" d="M282.329,122.973H231.46a1.321,1.321,0,0,0-1.3,1.107l-.321,1.967-2.012,12.315a.939.939,0,0,0,.926,1.09h50.887Z" transform="translate(-227.812 -122.973)" fill="#6f6e6f"/>
                </g>
              </g>
            </g>
            <path id="Trazado_191808" data-name="Trazado 191808" d="M284.826,117.024a.939.939,0,0,0-.9-.679H224.832a1.321,1.321,0,0,0-1.3,1.107l-.321,1.967L221.2,131.734a.938.938,0,0,0,.926,1.09h59.092a1.319,1.319,0,0,0,1.3-1.107l2.009-12.3.324-1.985a.939.939,0,0,0-.024-.411" transform="translate(-102.357 -53.841)" fill="#fff"/>
            <path id="Trazado_191809" data-name="Trazado 191809" d="M280.752,132.9H221.661a1.476,1.476,0,0,1-1.456-1.714l2.333-14.282a1.858,1.858,0,0,1,1.833-1.558h59.092a1.475,1.475,0,0,1,1.456,1.713l-2.333,14.283a1.849,1.849,0,0,1-1.833,1.558M224.37,116.419a.785.785,0,0,0-.68.394.8.8,0,0,0-.093.263l-2.332,14.282a.4.4,0,0,0,.4.466h59.091a.779.779,0,0,0,.773-.656l2.333-14.283a.393.393,0,0,0-.01-.175.4.4,0,0,0-.386-.291Z" transform="translate(-101.895 -53.378)" fill="#231f20"/>
            <path id="Trazado_191810" data-name="Trazado 191810" d="M266.15,123.193a.541.541,0,0,0-.52-.391H231.558a.761.761,0,0,0-.661.383.769.769,0,0,0-.09.255l-.185,1.135-1.16,7.1a.541.541,0,0,0,.534.628h34.072a.761.761,0,0,0,.751-.638l1.158-7.09.187-1.145a.537.537,0,0,0-.014-.237" transform="translate(-106.185 -56.829)" fill="#ff8578"/>
            <path id="Trazado_191811" data-name="Trazado 191811" d="M224.853,48.68a.451.451,0,0,0-.434-.326H172.4a.634.634,0,0,0-.626.532l-.154.945-1.383,8.032a.451.451,0,0,0,.445.524H222.7a.634.634,0,0,0,.626-.532l1.381-8.024.156-.954a.45.45,0,0,0-.011-.2" transform="translate(-78.78 -22.377)" fill="#ff8578"/>
            <path id="Trazado_191812" data-name="Trazado 191812" d="M236.405,55.5a.14.14,0,0,0-.135-.1h-31.51a.2.2,0,0,0-.171.1.211.211,0,0,0-.024.066l-.048.294-.3,1.843a.141.141,0,0,0,.139.163h31.51a.2.2,0,0,0,.2-.166l.3-1.841.049-.3a.149.149,0,0,0,0-.062" transform="translate(-94.505 -25.636)" fill="#fff"/>
            <rect id="Rectángulo_43120" data-name="Rectángulo 43120" width="218.734" height="9.908" transform="translate(20.14 157.894)" fill="#f2f2f2"/>
            <path id="Trazado_191813" data-name="Trazado 191813" d="M254.1,293.978H118.288a.537.537,0,0,1,0-1.074H254.1a.537.537,0,0,1,0,1.074" transform="translate(-54.492 -135.547)" fill="#231f20"/>
            <path id="Trazado_191814" data-name="Trazado 191814" d="M369.457,54.147c-2.132,4.982-.205,10.716,2.1,15.62s5.07,9.985,4.569,15.382a19.607,19.607,0,0,1-1.669,5.914c-1.873,4.334-5.139,8.668-9.814,9.332a9.536,9.536,0,0,1-8.654-3.7c-7.188-9.341,4.836-17.387,5.827-26.461.538-4.925-1.8-9.749-1.784-14.7.018-4.8,6.172-12.466,11.53-9.142a1.844,1.844,0,0,1,.82.924c.595,1.76-2.261,5.28-2.925,6.833" transform="translate(-163.687 -21.093)" fill="#ff8578"/>
            <path id="Trazado_191815" data-name="Trazado 191815" d="M338.435,170.972l-.014-10.8H320.247l.06,10.826c-.006,1.847.135,8.225-1.715,9.84l0,0c-2.914,2.544-9.448,8.431-11.7,10.4h0s-.864.946-1.1,1.171a22.117,22.117,0,0,1-2.963,1.871l-3.351,2.32a32,32,0,0,0-4.212,3.64,19.23,19.23,0,0,0-3.587,4.328c-.421.777-1.845,3.927.084,4.011.541.024.94-.485,1.21-.954,1.04-1.8,1.911-4.065,3.914-4.628a9.565,9.565,0,0,0-1.038,8.069,2.321,2.321,0,0,0,.717,1.18c1.229.921,1.087-1.278,1.162-1.9a7.283,7.283,0,0,1,1.367-3.885,7.715,7.715,0,0,1,.535,2.028,16.022,16.022,0,0,0,.947,2.58c.385.807,1,1.671,1.891,1.706a.644.644,0,0,0,.487-.151.683.683,0,0,0,.164-.387,5.052,5.052,0,0,0-.658-2.485,7.125,7.125,0,0,1-.414-3.552c.05-.353.314-.81.638-.657a8.338,8.338,0,0,0,3.222,6.355,1.182,1.182,0,0,0,.925.339c.468-.1.653-.68.632-1.158-.055-1.236-.894-2.4-.66-3.619.314-1.63,3.385-1.6,4.673-2.172a21.615,21.615,0,0,0,4.168-2.91l0-.005,0,.006c1.769-1.291,12.164-10.2,17.5-14.848,3.823-3.33,5.8-11.526,5.3-16.571" transform="translate(-134.56 -74.124)" fill="#fff"/>
            <path id="Trazado_191816" data-name="Trazado 191816" d="M302.043,212.863h-.064c-.943-.037-1.735-.713-2.355-2.012a16.556,16.556,0,0,1-.979-2.666,6.931,6.931,0,0,1-.157-.775c-.008-.047-.015-.092-.023-.138a8.9,8.9,0,0,0-.672,2.689c-.01.089-.016.215-.023.36-.035.768-.083,1.82-.77,2.145a1.148,1.148,0,0,1-1.224-.244,2.81,2.81,0,0,1-.9-1.442,10.055,10.055,0,0,1,.18-6.723,12.267,12.267,0,0,0-1.552,2.424c-.175.326-.349.648-.527.958-.483.839-1.051,1.244-1.7,1.222a1.439,1.439,0,0,1-1.278-.716c-.731-1.29.592-3.805.745-4.088a19.687,19.687,0,0,1,3.682-4.454,31.986,31.986,0,0,1,4.281-3.7l3.352-2.321a12.977,12.977,0,0,1,1.235-.726,7.428,7.428,0,0,0,1.662-1.091c.182-.175.838-.887,1.074-1.146l.044-.042c1.06-.925,3.072-2.721,5.2-4.623,2.438-2.177,4.959-4.428,6.5-5.777l.061.07-.061-.07.014-.012c1.533-1.363,1.524-7.111,1.521-9v-.428l-.062-11.361H338.5l.014,11.309c.521,5.337-1.6,13.621-5.479,17-4.974,4.333-15.644,13.487-17.526,14.868a21.581,21.581,0,0,1-4.281,2.977,8.863,8.863,0,0,1-1.647.452c-1.2.255-2.565.545-2.716,1.33a3.784,3.784,0,0,0,.291,1.8,6.438,6.438,0,0,1,.378,1.69,1.572,1.572,0,0,1-1.053,1.706,1.712,1.712,0,0,1-1.37-.439,8.985,8.985,0,0,1-3-4.274,6.539,6.539,0,0,0,.387,1.509c.061.157.128.314.2.471a4.213,4.213,0,0,1,.493,2.289,1.179,1.179,0,0,1-.314.686,1.126,1.126,0,0,1-.824.309m-3.349-7.771.391.637a4.066,4.066,0,0,1,.463,1.506,6,6,0,0,0,.131.658,15.475,15.475,0,0,0,.914,2.494c.3.625.788,1.376,1.427,1.4a.33.33,0,0,0,.086,0c0-.012.006-.038.013-.077A3.336,3.336,0,0,0,301.7,210c-.073-.168-.144-.336-.209-.5a7.637,7.637,0,0,1-.445-3.821,1.439,1.439,0,0,1,.643-1.048.82.82,0,0,1,.755-.021l.3.142.006.334a7.808,7.808,0,0,0,3.015,5.941c.3.234.428.249.48.237.109-.024.224-.294.21-.608a5.575,5.575,0,0,0-.327-1.41,4.627,4.627,0,0,1-.324-2.336c.286-1.485,2.1-1.869,3.549-2.178a8.3,8.3,0,0,0,1.435-.383,18.813,18.813,0,0,0,3.625-2.476l-2.964-3.408,3.725,2.791c2.364-1.841,11.61-9.753,17.15-14.58,3.537-3.08,5.617-11.048,5.114-16.113l0-.052-.013-10.262h-17.1l.056,10.712c.006,3.8-.2,8.342-1.9,9.822l-.188.164c-1.559,1.365-3.991,3.537-6.345,5.64-2.1,1.878-4.09,3.653-5.154,4.581l-.045.048c-.365.4-.871.944-1.057,1.123a8.341,8.341,0,0,1-1.9,1.262,12.007,12.007,0,0,0-1.133.665l-3.351,2.32a31.11,31.11,0,0,0-4.139,3.581,18.881,18.881,0,0,0-3.492,4.2c-.508.938-1.053,2.519-.755,3.047.027.047.09.158.389.172.209.019.463-.235.721-.685.174-.3.342-.615.512-.93.862-1.6,1.838-3.418,3.722-3.948l1.369-.385-.773,1.194a9.088,9.088,0,0,0-.979,7.609,1.869,1.869,0,0,0,.529.918,1.088,1.088,0,0,0,.126.083,4.813,4.813,0,0,0,.151-1.173c.008-.177.016-.331.029-.441a7.822,7.822,0,0,1,1.488-4.164Z" transform="translate(-134.1 -73.661)" fill="#231f20"/>
            <path id="Trazado_191817" data-name="Trazado 191817" d="M321.427,208.148a2.2,2.2,0,0,1,.2-.126c.966-.542,2.488-.191,3.958.75l-.417.351c-1.263-.809-2.5-1.028-3.262-.6-1.874,1.054-1.347,5.721,1.161,10.194a17.444,17.444,0,0,0,4.382,5.312c1.484,1.123,2.836,1.485,3.711,1,.854-.479,1.245-1.268,1.1-3.048l.564-.472c.162,2.016-.327,3.425-1.385,4.019-1.1.615-2.638.247-4.336-1.038a18.022,18.022,0,0,1-4.535-5.489c-2.666-4.755-3.137-9.427-1.141-10.847" transform="translate(-148.178 -96.148)" fill="#ff8578"/>
            <path id="Trazado_191818" data-name="Trazado 191818" d="M316.778,210.507c1.036-.737,3.314-.391,5.4.551l-.5.443c-2.066-.934-3.989-1.161-4.789-.338-1.5,1.545.338,5.869,4.016,9.441s8.055,5.285,9.554,3.742a2.139,2.139,0,0,0,.482-1.89l.573-.482a3.691,3.691,0,0,1-.645,2.77c-1.775,1.829-6.328.19-10.363-3.73s-5.8-8.422-4.028-10.25a2.14,2.14,0,0,1,.3-.257" transform="translate(-146.138 -97.233)" fill="#414042"/>
            <path id="Trazado_191819" data-name="Trazado 191819" d="M363.813,138.236s-14.961,3.213-18.173,0v-7.294a18.173,18.173,0,0,1,18.173-18.173Z" transform="translate(-159.952 -52.186)" fill="#fff"/>
            <path id="Trazado_191820" data-name="Trazado 191820" d="M351.426,139.75c-2.862,0-5.428-.4-6.628-1.6L344.64,138V130.48a18.732,18.732,0,0,1,18.711-18.711h.537v26.439l-.424.091a66.009,66.009,0,0,1-12.038,1.451m-5.711-2.214c2.656,2.178,12.81.679,17.1-.2V112.852a17.658,17.658,0,0,0-17.1,17.628Zm17.636.237h0Z" transform="translate(-159.489 -51.723)" fill="#231f20"/>
            <path id="Trazado_191821" data-name="Trazado 191821" d="M391.58,222.387l.051,2.907,2.2,3.543a34.606,34.606,0,0,1,4.487,25.177l-1.057,5.158,1.779,11.543H340.783l10.584-48.329Z" transform="translate(-157.704 -102.914)" fill="#414042"/>
            <path id="Trazado_191822" data-name="Trazado 191822" d="M340.51,270.327a.537.537,0,0,1-.525-.652l10.575-48.288h41.173l.057,3.287,2.118,3.417a35.009,35.009,0,0,1,4.556,25.568l-1.038,5.064,1.684,10.926a.537.537,0,1,1-1.062.163L396.335,258.7l1.077-5.254a33.934,33.934,0,0,0-4.417-24.786l-2.274-3.669-.043-2.528H351.424L341.034,269.9a.538.538,0,0,1-.524.422" transform="translate(-157.329 -102.451)" fill="#231f20"/>
            <path id="Trazado_191823" data-name="Trazado 191823" d="M398.858,101.675H382.107l2.476-22.7h12.575Z" transform="translate(-176.828 -36.548)" fill="#fff"/>
            <path id="Trazado_191824" data-name="Trazado 191824" d="M398.923,101.748H380.992l2.593-23.772H397.14Zm-16.733-1.074h15.574L396.143,79.05H384.548Z" transform="translate(-176.312 -36.085)" fill="#231f20"/>
            <path id="Trazado_191825" data-name="Trazado 191825" d="M365.327,112.8h24.061a11.829,11.829,0,0,1,11.791,12.779l-3.715,46.094H357.251l.8-18.271-3.515-15.391-1-12.432A11.829,11.829,0,0,1,365.327,112.8" transform="translate(-163.588 -52.201)" fill="#fff"/>
            <path id="Trazado_191826" data-name="Trazado 191826" d="M365.067,118.875a62.052,62.052,0,0,1,7.322,1.258q3.439.745,6.851,1.612,6.852,1.743,13.567,3.977,5.645,1.878,11.169,4.1l.049-.614q-4.621-1.852-9.332-3.471-6.719-2.3-13.593-4.12-3.465-.915-6.962-1.7c-2.391-.538-4.792-1.067-7.219-1.41a38.58,38.58,0,0,0-6.4-.329q-.346.3-.667.625a39.345,39.345,0,0,1,5.218.077" transform="translate(-166.528 -54.68)" fill="#ff8578"/>
            <path id="Trazado_191827" data-name="Trazado 191827" d="M384.624,164.647a80.081,80.081,0,0,1,14.234.151q1.82.183,3.63.453l.048-.588q-.942-.139-1.887-.257a79.625,79.625,0,0,0-14.338-.466,81.785,81.785,0,0,0-14.173,2.067,80.438,80.438,0,0,0-13.015,4.284l.133.584a79.546,79.546,0,0,1,11.289-3.861,80.817,80.817,0,0,1,14.078-2.368" transform="translate(-166.192 -75.806)" fill="#ff8578"/>
            <path id="Trazado_191828" data-name="Trazado 191828" d="M377.67,197.316a54.816,54.816,0,0,1,13.5-3.352,108.593,108.593,0,0,1,10.856-.7l.048-.594c-3.139.068-6.276.206-9.4.527a57.178,57.178,0,0,0-13.8,3.028,80.549,80.549,0,0,0-12.422,5.989c-1.931,1.109-3.838,2.261-5.741,3.418l-.031.711q2.393-1.463,4.811-2.885a88.676,88.676,0,0,1,12.186-6.146" transform="translate(-166.908 -89.164)" fill="#ff8578"/>
            <path id="Trazado_191829" data-name="Trazado 191829" d="M420.33,208.606q-1.334.43-2.664.872c-3.992,1.332-7.941,2.8-11.787,4.51q-2.154.957-4.259,2.021h1.327q.889-.436,1.787-.854a120.919,120.919,0,0,1,11.673-4.627q1.928-.662,3.871-1.284Z" transform="translate(-185.858 -96.537)" fill="#ff8578"/>
            <path id="Trazado_191830" data-name="Trazado 191830" d="M381.437,178.867a70.7,70.7,0,0,1,11.476-2.05,68.743,68.743,0,0,1,10.246-.2l.048-.589a68.558,68.558,0,0,0-8.964.081,71.478,71.478,0,0,0-11.626,1.842,72.615,72.615,0,0,0-11.172,3.717,71.32,71.32,0,0,0-9.836,5.113l-.031.721a71.279,71.279,0,0,1,19.859-8.639" transform="translate(-167.328 -81.412)" fill="#ff8578"/>
            <path id="Trazado_191831" data-name="Trazado 191831" d="M357.992,143.981a87.262,87.262,0,0,1,16.54-3,71.824,71.824,0,0,1,15.949.457,65.783,65.783,0,0,1,10.7,2.464l.048-.6a65.234,65.234,0,0,0-8.714-2.132,71.243,71.243,0,0,0-15.906-.914,85.842,85.842,0,0,0-16.758,2.618q-2.7.691-5.358,1.538l.049.607q1.714-.546,3.447-1.032" transform="translate(-164.05 -64.856)" fill="#ff8578"/>
            <path id="Trazado_191832" data-name="Trazado 191832" d="M397.5,171.747h-41.27l.824-18.759-3.511-15.4-1-12.431A12.366,12.366,0,0,1,364.866,111.8a.537.537,0,1,1,0,1.074,11.291,11.291,0,0,0-11.255,12.2l1,12.393,3.523,15.424-.781,17.782h39.155l3.675-45.6a11.291,11.291,0,0,0-11.255-12.2.537.537,0,1,1,0-1.074,12.365,12.365,0,0,1,12.326,13.359Z" transform="translate(-163.127 -51.738)" fill="#231f20"/>
            <path id="Trazado_191833" data-name="Trazado 191833" d="M408.591,158.462,405.823,192.8H388.017L371.56,166.362l24.84,17.723Z" transform="translate(-171.947 -73.332)" fill="#231f20"/>
            <path id="Trazado_191834" data-name="Trazado 191834" d="M374.058,112.06a12.7,12.7,0,1,0,25.4,0l-4.727-.826-15.8.366-.051.46H374.2c-.046,0-.091,0-.137,0" transform="translate(-173.103 -51.475)" fill="#fff"/>
            <path id="Trazado_191835" data-name="Trazado 191835" d="M386.294,125.577a13.274,13.274,0,0,1-13.237-13.268v-.5l.5-.032c.035,0,.075,0,.106,0h5.284a.537.537,0,1,1,0,1.074h-4.807a12.161,12.161,0,0,0,24.3,0h-4.308a.537.537,0,0,1,0-1.074h5.394v.537a13.27,13.27,0,0,1-13.237,13.271" transform="translate(-172.64 -51.723)" fill="#231f20"/>
            <path id="Trazado_191836" data-name="Trazado 191836" d="M357.28,146.891H368.1a2.451,2.451,0,0,0,2.391-2.992l-5-22.432a3.305,3.305,0,0,0-3.224-2.577h-10.82a2.451,2.451,0,0,0-2.391,2.992l5,22.432a3.305,3.305,0,0,0,3.224,2.577" transform="translate(-161.503 -55.019)" fill="#414042"/>
            <path id="Trazado_191837" data-name="Trazado 191837" d="M381.924,143.9l-5-22.432a3.306,3.306,0,0,0-3.224-2.577h1.261a3.306,3.306,0,0,1,3.224,2.577l5,22.432a2.451,2.451,0,0,1-2.391,2.992h-1.261a2.452,2.452,0,0,0,2.391-2.992" transform="translate(-172.936 -55.019)" fill="#5a595b"/>
            <path id="Trazado_191838" data-name="Trazado 191838" d="M373.928,149.745l-.093-.153a2.819,2.819,0,0,1-.407-1.689l.215-2.784-.588-5.512a.923.923,0,0,0-1.838-.124l-.167,5.633-5.082-2.238-2.332-2.968-1.592-4.029c-.558-1.483-1.83-.923-1.393.363l.865,4.059,2.235,4.016-3.113-3.077-1.194-5.216c-.242-1.064-1.449-.878-1.346.405l.753,5.749,2.877,3.785-3.028-2.755-2.144-4.561c-.37-.981-1.793-.86-1.309.654l1.7,5.027,2.665,2.968-2.786-1.484-1.666-3.362c-.363-.787-1.635-.424-1.144.9l1.447,3.859,4.752,5.5a15.469,15.469,0,0,0,3.176,2.792L365,156.567Z" transform="translate(-163.775 -62.473)" fill="#fff"/>
            <path id="Trazado_191839" data-name="Trazado 191839" d="M402.194,173.835l16.065,5.014,3.089-17.106c-2.386-3.43-13.023-5.323-16.452-2.936Z" transform="translate(-186.124 -72.997)" fill="#fff"/>
            <path id="Trazado_191840" data-name="Trazado 191840" d="M404.69,185.183l.781-4.153-21.982-18.58-8.929,6.821,14.891,17.983c4.344,5.579,13.581,5.913,15.24-2.072" transform="translate(-173.335 -75.177)" fill="#fff"/>
            <path id="Trazado_191841" data-name="Trazado 191841" d="M180.179,148.343a1.491,1.491,0,0,0-1.467-1.232H151.96a2.094,2.094,0,0,0-2.066,1.756l-.509,3.119-3.19,19.529a1.488,1.488,0,0,0,1.469,1.728h26.753a2.093,2.093,0,0,0,2.066-1.756l3.7-22.648a1.491,1.491,0,0,0,0-.5" transform="translate(-67.645 -68.079)" fill="#414042"/>
            <path id="Trazado_191842" data-name="Trazado 191842" d="M175.989,165.492l1.97,0a.86.86,0,0,0,.823-.723l.353-2.512a.612.612,0,0,0-.62-.721h-1.542a.508.508,0,0,1-.507-.4q-.051-.216-.117-.426a.658.658,0,0,1,.21-.685l1.244-1.091a.738.738,0,0,0,.144-1.021l-1.526-1.775a.72.72,0,0,0-1.021,0l-1.253,1.1a.637.637,0,0,1-.675.126c-.147-.067-.307-.135-.445-.192a.5.5,0,0,1-.3-.554l.22-1.557a.613.613,0,0,0-.62-.722h-2.512a.86.86,0,0,0-.824.722l-.218,1.542a.728.728,0,0,1-.483.564q-.239.085-.473.186a.571.571,0,0,1-.67-.111l-.94-1.088a.721.721,0,0,0-1.021,0l-2.023,1.781a.737.737,0,0,0-.141,1.021l.947,1.1a.569.569,0,0,1,.035.658c-.089.156-.18.326-.257.472a.707.707,0,0,1-.607.379l-1.558,0a.86.86,0,0,0-.822.724l-.349,2.512a.612.612,0,0,0,.622.72l1.542,0a.509.509,0,0,1,.508.4q.052.215.118.425a.658.658,0,0,1-.208.686l-1.243,1.093a.738.738,0,0,0-.142,1.021l1.529,1.773a.721.721,0,0,0,1.021,0l1.252-1.1a.639.639,0,0,1,.675-.127c.147.067.307.134.445.191a.5.5,0,0,1,.3.554l-.218,1.557a.612.612,0,0,0,.622.72l2.512,0a.86.86,0,0,0,.823-.723l.215-1.541a.732.732,0,0,1,.483-.565q.227-.081.451-.177a.571.571,0,0,1,.669.112l.938,1.089a.721.721,0,0,0,1.021,0l2.025-1.778a.737.737,0,0,0,.143-1.021l-.944-1.1a.57.57,0,0,1-.034-.658c.213-.376.441-.823.453-.849m-9.627-2.614a4.084,4.084,0,0,1,5.164-2.678,3.121,3.121,0,0,1,1.657,3.96,4.083,4.083,0,0,1-5.164,2.678,3.121,3.121,0,0,1-1.657-3.96" transform="translate(-74.23 -71.421)" fill="#fff"/>
            <path id="Trazado_191843" data-name="Trazado 191843" d="M178.254,56.951l.722-4.269a.4.4,0,0,1,.383-.327h5.01l.441-.552a.347.347,0,0,1,.264-.134h.186a.315.315,0,0,0-.28-.191h-1.336a.254.254,0,0,0-.228.138l-.3.572-4.968,0a.3.3,0,0,0-.3.339l.371,4.415a.3.3,0,0,0,.032.111.25.25,0,0,1,0-.1" transform="translate(-82.305 -23.822)" fill="#fff"/>
            <path id="Trazado_191844" data-name="Trazado 191844" d="M188.675,53.748h-1.346a.347.347,0,0,0-.264.134l-.441.552h-5.009a.4.4,0,0,0-.382.328l-.722,4.269a.239.239,0,0,0,0,.1.214.214,0,0,0,.216.161h.017l.02,0,4.393,0h2.6a.326.326,0,0,0,.309-.264l.845-5a.235.235,0,0,0-.237-.286" transform="translate(-83.533 -24.873)" fill="#fff"/>
            <path id="Trazado_191845" data-name="Trazado 191845" d="M389.823,56.437s4.684,18.558-8.573,20.971-10.14-22.421-10.14-22.421,8.233-11.526,18.713,1.451" transform="translate(-171.592 -23.262)" fill="#fff"/>
            <path id="Trazado_191846" data-name="Trazado 191846" d="M379.039,81.712A7.081,7.081,0,0,1,374,79.755c-5.795-5.483-3.973-20.594-3.893-21.234a.537.537,0,0,1,1.066.134c-.019.151-1.835,15.212,3.566,20.32a6.5,6.5,0,0,0,5.945,1.506c5.11-.931,8.062-4.463,8.774-10.5a.537.537,0,0,1,1.067.126c-.762,6.468-4.1,10.42-9.649,11.431a10.236,10.236,0,0,1-1.835.174" transform="translate(-171.12 -26.864)" fill="#231f20"/>
            <path id="Trazado_191847" data-name="Trazado 191847" d="M383.308,86.435a.692.692,0,0,1-.691-.722l.053-2.256a.531.531,0,0,1,.55-.524.538.538,0,0,1,.525.55l-.041,1.741.773-.235a.537.537,0,1,1,.313,1.028l-1.279.389a.7.7,0,0,1-.2.03m.383-.7v0Z" transform="translate(-177.063 -38.378)" fill="#231f20"/>
            <path id="Trazado_191848" data-name="Trazado 191848" d="M372.822,72.736a.537.537,0,0,1-.27-1,3.268,3.268,0,0,1,3.3.013.537.537,0,0,1-.579.905,2.191,2.191,0,0,0-2.182.011.539.539,0,0,1-.269.073" transform="translate(-172.282 -32.99)" fill="#231f20"/>
            <path id="Trazado_191849" data-name="Trazado 191849" d="M392.172,72.659a.535.535,0,0,1-.305-.1,2.2,2.2,0,0,0-2.182-.076.537.537,0,0,1-.5-.95,3.275,3.275,0,0,1,3.3.145.537.537,0,0,1-.309.977" transform="translate(-179.971 -32.929)" fill="#231f20"/>
            <path id="Trazado_191850" data-name="Trazado 191850" d="M374.736,76.757a.589.589,0,1,0,.58-.694.644.644,0,0,0-.58.694" transform="translate(-173.417 -35.2)" fill="#231f20"/>
            <path id="Trazado_191851" data-name="Trazado 191851" d="M390.362,77.075a.589.589,0,1,0,.58-.694.644.644,0,0,0-.58.694" transform="translate(-180.648 -35.347)" fill="#231f20"/>
            <path id="Trazado_191852" data-name="Trazado 191852" d="M386.908,90.318a.537.537,0,0,1-.024-1.074,2.785,2.785,0,0,0,2.036-.785,2.148,2.148,0,0,0,.5-1.441.537.537,0,0,1,1.071-.091,3.22,3.22,0,0,1-.748,2.229,3.787,3.787,0,0,1-2.8,1.161h-.025" transform="translate(-178.801 -40.001)" fill="#231f20"/>
            <path id="Trazado_191853" data-name="Trazado 191853" d="M107.269,49.666a2.772,2.772,0,1,0,2.772,2.773,2.772,2.772,0,0,0-2.772-2.773m0,4.356a1.583,1.583,0,1,1,1.584-1.583,1.583,1.583,0,0,1-1.584,1.583" transform="translate(-48.358 -22.984)" fill="#ffe7e4"/>
            <path id="Trazado_191854" data-name="Trazado 191854" d="M12.835,192.726a2.772,2.772,0,1,0,2.772,2.772,2.772,2.772,0,0,0-2.772-2.772m0,4.356a1.583,1.583,0,1,1,1.583-1.584,1.584,1.584,0,0,1-1.583,1.584" transform="translate(-4.657 -89.188)" fill="#ffe7e4"/>
            <path id="Trazado_191855" data-name="Trazado 191855" d="M141.734,82.773a1.9,1.9,0,1,1-1.9-1.9,1.9,1.9,0,0,1,1.9,1.9" transform="translate(-63.836 -37.428)" fill="#ffe7e4"/>
            <path id="Trazado_191856" data-name="Trazado 191856" d="M19.014,287.285a1.9,1.9,0,1,1-1.9-1.9,1.9,1.9,0,0,1,1.9,1.9" transform="translate(-7.045 -132.07)" fill="#ffe7e4"/>
            <path id="Trazado_191857" data-name="Trazado 191857" d="M475.061,177.186a1.9,1.9,0,1,1-1.9-1.9,1.9,1.9,0,0,1,1.9,1.9" transform="translate(-218.09 -81.12)" fill="#ffe7e4"/>
            <path id="Trazado_191858" data-name="Trazado 191858" d="M149.173,40.812l-1.82-.992.992-1.82a.971.971,0,1,0-1.705-.93l-.992,1.82-1.82-.992a.971.971,0,1,0-.93,1.705l1.82.992-.993,1.82a.971.971,0,1,0,1.706.93l.992-1.82,1.82.992a.971.971,0,1,0,.93-1.705" transform="translate(-65.894 -16.92)" fill="#ffe7e4"/>
            <path id="Trazado_191859" data-name="Trazado 191859" d="M456,221.178l-1.82-.992.992-1.82a.971.971,0,1,0-1.705-.93l-.992,1.82-1.821-.992a.971.971,0,1,0-.929,1.705l1.82.992-.993,1.82a.971.971,0,0,0,1.706.93l.992-1.82,1.82.992a.971.971,0,1,0,.93-1.705" transform="translate(-207.883 -100.388)" fill="#ffe7e4"/>
            <path id="Trazado_191860" data-name="Trazado 191860" d="M206.818,125.038a.808.808,0,1,1-.808-.808.808.808,0,0,1,.808.808" transform="translate(-94.961 -57.49)" fill="#ffcec9"/>
            <path id="Trazado_191861" data-name="Trazado 191861" d="M198.515,125.038a.808.808,0,1,1-.808-.808.808.808,0,0,1,.808.808" transform="translate(-91.119 -57.49)" fill="#ffcec9"/>
            <path id="Trazado_191862" data-name="Trazado 191862" d="M190.212,125.038a.808.808,0,1,1-.808-.808.808.808,0,0,1,.808.808" transform="translate(-87.277 -57.49)" fill="#ffcec9"/>
            <path id="Trazado_191863" data-name="Trazado 191863" d="M181.909,125.038a.808.808,0,1,1-.809-.808.808.808,0,0,1,.809.808" transform="translate(-83.434 -57.49)" fill="#ffcec9"/>
            <path id="Trazado_191864" data-name="Trazado 191864" d="M173.6,125.038a.808.808,0,1,1-.808-.808.808.808,0,0,1,.808.808" transform="translate(-79.591 -57.49)" fill="#ffcec9"/>
            <path id="Trazado_191865" data-name="Trazado 191865" d="M163.007,121.723a2.155,2.155,0,1,0,2.155,2.155,2.155,2.155,0,0,0-2.155-2.155m0,3.482a1.327,1.327,0,1,1,1.326-1.326,1.327,1.327,0,0,1-1.326,1.326" transform="translate(-74.438 -56.33)" fill="#ffcec9"/>
            <path id="Trazado_191866" data-name="Trazado 191866" d="M65.683,155.526l3.292,4.176a8.1,8.1,0,0,0,14.407-4.028l-1.566-16.864H68.383Z" transform="translate(-30.396 -64.238)" fill="#fff"/>
            <path id="Trazado_191867" data-name="Trazado 191867" d="M90.964,121.391a13.9,13.9,0,0,1-2.269-4.911l.063-6.393a3.445,3.445,0,0,0-3.491-3.479l-17.751.238a3.841,3.841,0,0,0-3.762,4.3l2.539,20.89,16.808.165a5.438,5.438,0,0,0,5.492-5.385l.041-4.146h1.659a.818.818,0,0,0,.671-1.283" transform="translate(-29.49 -49.335)" fill="#fff"/>
            <path id="Trazado_191868" data-name="Trazado 191868" d="M65.221,156.748a.516.516,0,0,1-.095-.009.536.536,0,0,1-.435-.623l1.347-7.58a4.9,4.9,0,0,0,.066-1.152l-.463-4.717a.537.537,0,0,1,1.069-.105l.465,4.737a6,6,0,0,1-.079,1.425l-1.348,7.58a.537.537,0,0,1-.528.443" transform="translate(-29.934 -65.749)" fill="#231f20"/>
            <path id="Trazado_191869" data-name="Trazado 191869" d="M97.523,162.7a.537.537,0,0,1-.532-.468l-.746-5.761a.538.538,0,0,1,1.066-.138l.746,5.761a.538.538,0,0,1-.464.6.617.617,0,0,1-.07,0" transform="translate(-44.537 -72.129)" fill="#231f20"/>
            <path id="Trazado_191870" data-name="Trazado 191870" d="M231.6,211.374c-.915,1.034-4.747-.861-8.559-4.234s-6.159-6.946-5.244-7.98,4.747.861,8.559,4.234,6.159,6.946,5.244,7.98" transform="translate(-100.698 -92.035)" fill="#231f20"/>
            <path id="Trazado_191871" data-name="Trazado 191871" d="M79.656,181.895a48.652,48.652,0,0,0-2.2-6.3c-1.824-4.244-4.77-8.163-8.871-10.287-12.161-6.3-25.528-3.989-33.51,4.186-6.54,6.7-7.947,21.854-7.443,31.2.485,9,1.217,32.838,1.7,41.837l47.453,0A3.448,3.448,0,0,0,80.2,239.9c1.5-6.289.088-12.961-.241-19.3-.4-7.823,1.1-15.551,1.477-23.34a49.738,49.738,0,0,0-1.781-15.373" transform="translate(-12.745 -74.831)" fill="#ff8578"/>
            <path id="Trazado_191872" data-name="Trazado 191872" d="M28.877,242.6a.538.538,0,0,1-.536-.508c-.242-4.5-.552-12.853-.851-20.927s-.609-16.415-.851-20.91c-.452-8.387.639-24.483,7.595-31.606,8.523-8.729,22.243-10.454,34.142-4.287,4.872,2.524,7.647,7.131,9.118,10.552a49.22,49.22,0,0,1,2.223,6.369,50.164,50.164,0,0,1,1.8,15.542c-.141,2.9-.442,5.829-.732,8.663a95.886,95.886,0,0,0-.744,14.624c.087,1.685.256,3.434.419,5.126.455,4.735.926,9.631-.192,14.323a.537.537,0,1,1-1.045-.249c1.076-4.518.614-9.323.167-13.97-.163-1.7-.333-3.465-.422-5.174a96.664,96.664,0,0,1,.749-14.788c.289-2.82.588-5.737.727-8.606a49.08,49.08,0,0,0-1.762-15.2,48.154,48.154,0,0,0-2.174-6.23c-1.4-3.259-4.035-7.644-8.624-10.023-11.475-5.945-24.688-4.3-32.88,4.084-6.7,6.857-7.733,22.585-7.29,30.8.242,4.5.552,12.853.851,20.927s.609,16.415.851,20.91a.538.538,0,0,1-.508.566h-.03" transform="translate(-12.287 -74.366)" fill="#231f20"/>
            <path id="Trazado_191873" data-name="Trazado 191873" d="M106.282,268.994c1.5-6.289.087-12.961-.241-19.3-.051-.99-.071-1.978-.068-2.965v0L86.505,226.548,83.9,224.562l5.063,47.063,13.908,0a3.449,3.449,0,0,0,3.412-2.633" transform="translate(-38.826 -103.921)" fill="#231f20"/>
            <path id="Trazado_191874" data-name="Trazado 191874" d="M165.289,250.675a9,9,0,0,1-3.221,5.462.288.288,0,0,0,0,.406.293.293,0,0,0,.406,0,9.479,9.479,0,0,0,3.37-5.715c.063-.362-.491-.517-.554-.153" transform="translate(-74.961 -115.909)" fill="#293241"/>
            <path id="Trazado_191875" data-name="Trazado 191875" d="M242.936,177.043a2.453,2.453,0,0,0-1.324-1.871,1.911,1.911,0,0,0-2.35-2.266l-.012-.008-.073-.045a1.33,1.33,0,0,0-.684-1.4,1.688,1.688,0,0,0-1.644.1c.429-.9,1.7-3.182,2.117-4.088.5-1.086,1.536-3.116.723-4.278-.428-.612-1.114-.4-1.529.057-2.47,2.743-4.352,7.862-6.316,10.972a11.993,11.993,0,0,0-.918,1.224l-.2.331-.016.02,0,0-.438.718c-.385.676-2.234,1.2-2.636.3a2.181,2.181,0,0,1,.057-1.529c.222-.7.529-1.367.7-2.076a3.21,3.21,0,0,0-.111-2.147,1.184,1.184,0,0,0-.7-.668c-1.7-.459-3.19,4.465-3.857,5.484-1.84,2.809-2.543,10.978-2.543,10.978a27.674,27.674,0,0,0,3.8,3.947,55.591,55.591,0,0,0,4.6,3.2l2.227-1.493c2.681-.845,5.423-1.532,8.084-6.6.818-1.557,1.475-2.928,2-4.115.078-.177.148-.355.211-.535a12.246,12.246,0,0,0,.5-1.725c.1-.41.2-.809.329-1.206a2.912,2.912,0,0,0-.005-1.279" transform="translate(-102.358 -75.342)" fill="#fff"/>
            <path id="Trazado_191876" data-name="Trazado 191876" d="M82.694,132.279h-.06a.537.537,0,0,1-.533-.542.531.531,0,0,1,.543-.532h.05a4.906,4.906,0,0,0,4.9-4.853l.031-3.127a1.572,1.572,0,0,1,1.567-1.551h.64a.266.266,0,0,0,.245-.148.279.279,0,0,0-.017-.295,14.477,14.477,0,0,1-2.352-5.1l-.012-.057.063-6.453a2.907,2.907,0,0,0-2.906-2.936h-.04l-17.752.237a3.3,3.3,0,0,0-3.235,3.7.537.537,0,0,1-.468.6.543.543,0,0,1-.6-.468,4.38,4.38,0,0,1,4.288-4.907l17.752-.237a3.874,3.874,0,0,1,2.865,1.161,3.951,3.951,0,0,1,1.171,2.859l-.062,6.333a13.517,13.517,0,0,0,2.173,4.66,1.355,1.355,0,0,1-1.113,2.126h-.64a.493.493,0,0,0-.492.487l-.031,3.127a5.983,5.983,0,0,1-5.974,5.917" transform="translate(-29.028 -48.872)" fill="#231f20"/>
            <path id="Trazado_191877" data-name="Trazado 191877" d="M164.572,197.593c-3.352-2.967-5.5-6.1-5.053-7.282l-.035-.031-23.6,23.093a3.751,3.751,0,0,1-5.62-.423l-26.167-34.7L91.255,206.023l31.829,33.852h18.268l31.185-38.221-.008-.007c-.987.789-4.481-.979-7.957-4.055" transform="translate(-42.23 -82.488)" fill="#ff8578"/>
            <path id="Trazado_191878" data-name="Trazado 191878" d="M130.586,239.95H116.952a5.668,5.668,0,0,1-4.114-1.779l-29.1-30.95a20.7,20.7,0,0,0-8.03-5.272l-2.122-.764a.537.537,0,0,1,.364-1.011l2.122.764a21.783,21.783,0,0,1,8.449,5.547l29.1,30.95a4.589,4.589,0,0,0,3.331,1.44h13.633a4.553,4.553,0,0,0,3.542-1.682l28.84-35.348c-1.9-.344-4.749-2.24-7.093-4.314-2.314-2.048-4.59-4.692-5.155-6.55l-22.742,22.252a4.366,4.366,0,0,1-6.539-.492L95.323,178.108a.537.537,0,1,1,.858-.647L122.3,212.095a3.291,3.291,0,0,0,4.93.371l23.892-23.377.659.566-.1.383c-.271.72,1.32,3.516,4.907,6.69,3.836,3.4,6.771,4.434,7.265,4.038l.349-.279.732.634-.322.411L134.96,237.873a5.623,5.623,0,0,1-4.375,2.077" transform="translate(-33.889 -82.025)" fill="#231f20"/>
            <path id="Trazado_191879" data-name="Trazado 191879" d="M82.156,92.087c-3.44-.074-6.873-.918-10.506-.339-5.94.948-14.079,3.789-15.064,10.665a15.243,15.243,0,0,0,1.283,8.769c1.291,2.579,2.361,5.268,3.608,7.894.266.562,1.6,3.757,2.285,1.962a20.629,20.629,0,0,0,1.275-5.189c.155-1.448-.214-3.187-.032-4.6q.234-.158.456-.334a15.173,15.173,0,0,0,1.875.4,2.291,2.291,0,0,0,1.551-.211,2.6,2.6,0,0,0,.783-2.238,11.926,11.926,0,0,1-.044-2.348,7.426,7.426,0,0,0,10.037-1.858l.1-.052a8.4,8.4,0,0,0,3.61.849,7.989,7.989,0,0,0,7.569-4.915,9.639,9.639,0,0,0-.024-4.9c-.1-.468-1.7-5.128-2.284-4.844a13.506,13.506,0,0,1-6.476,1.282" transform="translate(-26.112 -42.016)" fill="#414042"/>
            <path id="Trazado_191880" data-name="Trazado 191880" d="M75.533,126.407c1.362,2.413.984,5.206-.844,6.237s-4.413-.089-5.775-2.5-.984-5.206.843-6.237,4.414.089,5.776,2.5" transform="translate(-31.513 -57.162)" fill="#fff"/>
            <path id="Trazado_191881" data-name="Trazado 191881" d="M72.728,133.1a4.491,4.491,0,0,1-1.779-.389,6.745,6.745,0,0,1-3.806-6.744,3.91,3.91,0,0,1,1.887-3c1.54-.869,3.575-.468,5.185,1.021a.538.538,0,0,1-.731.789,3.418,3.418,0,0,0-3.926-.874,2.864,2.864,0,0,0-1.35,2.2,5.676,5.676,0,0,0,3.169,5.614,2.861,2.861,0,0,0,2.585-.016.537.537,0,1,1,.528.936,3.548,3.548,0,0,1-1.761.455" transform="translate(-31.049 -56.699)" fill="#231f20"/>
            <path id="Trazado_191882" data-name="Trazado 191882" d="M80.844,131.217q-.143-3.1-.287-6.208c-.095-2.037-.3-4.1-.219-6.13.032-.766.583-.566.832-.084a5.828,5.828,0,0,1,.329,2.233l.269,5.127a6.736,6.736,0,0,0,3.14,5.171,5.009,5.009,0,0,0,3.541.928,2.5,2.5,0,0,0,1.535-.9c.461-.582.478-1.331.83-1.981a2.5,2.5,0,0,1,.352-.515,2.2,2.2,0,0,1,1.107-.6,9.053,9.053,0,0,1,3.342-.177,2.111,2.111,0,0,1,1.286.528,2.271,2.271,0,0,1,.427,1.575,24.39,24.39,0,0,1-.744,6.115,5.731,5.731,0,0,1-1.01,2.3c-1.042,1.256-2.734,1.3-4.234,1.337a13.838,13.838,0,0,1-5.818-.953,7.5,7.5,0,0,1-4.116-4.064,12.063,12.063,0,0,1-.562-3.705" transform="translate(-37.169 -54.778)" fill="#414042"/>
            <path id="Trazado_191883" data-name="Trazado 191883" d="M221.242,217.451a.535.535,0,0,1-.2-.04c-3.32-1.347-7.188-4.291-7.834-7.574a.537.537,0,0,1,1.055-.208c.544,2.763,4.026,5.5,7.184,6.786a.537.537,0,0,1-.2,1.035" transform="translate(-98.66 -96.81)" fill="#231f20"/>
            <path id="Trazado_191884" data-name="Trazado 191884" d="M173.155,254.288h-.021a.537.537,0,0,1-.516-.558c.111-2.892-1.528-4.009-1.6-4.054a.537.537,0,0,1,.582-.9c.091.058,2.226,1.463,2.09,5a.537.537,0,0,1-.536.516" transform="translate(-79.031 -115.085)" fill="#231f20"/>
            <path id="Trazado_191885" data-name="Trazado 191885" d="M220.99,185.619c-.021,0-.043,0-.065,0a.538.538,0,0,1-.469-.6c.056-.463,1.418-11.383,5.539-15.209l.128-.118.173-.021a1.932,1.932,0,0,1,1.648.685c.747.907.74,2.553-.019,4.89a.832.832,0,0,0,.359,1.006c.6.292,1.561-.627,2.562-2.465,1.731-3.392,5.913-11.354,7.209-11.764a1.441,1.441,0,0,1,1.565.4,3.167,3.167,0,0,1,.2,3.242c-.7,1.616-4.425,8.63-4.584,8.928a.537.537,0,0,1-.949-.505c.038-.072,3.866-7.272,4.546-8.848a2.188,2.188,0,0,0-.008-2.1.368.368,0,0,0-.443-.095c-.73.411-3.929,6.042-6.584,11.242-1.393,2.557-2.73,3.539-3.982,2.929a1.9,1.9,0,0,1-.91-2.3c.832-2.559.5-3.52.221-3.865a.834.834,0,0,0-.55-.3c-3.718,3.7-5.038,14.3-5.051,14.4a.538.538,0,0,1-.533.473" transform="translate(-102.019 -74.941)" fill="#231f20"/>
            <path id="Trazado_191886" data-name="Trazado 191886" d="M236.834,201.212a.537.537,0,0,1-.292-.988l2.272-1.464.163,0H239c1.037,0,3.12-1.274,3.84-1.769,2.16-1.668,3.8-4.946,5.885-9.392.8-1.7,1.013-3.108.625-4.069a1.8,1.8,0,0,0-.927-1.01l-.413-.158.07-.438a1.353,1.353,0,0,0-.222-1.2,2.281,2.281,0,0,0-1.642-.492l-.595.044.017-.6c.018-.6-.2-.768-.269-.823a1.918,1.918,0,0,0-1.41-.094.537.537,0,0,1-.3-1.031,2.909,2.909,0,0,1,2.368.275,1.771,1.771,0,0,1,.654,1.161,2.978,2.978,0,0,1,1.972.832,2.22,2.22,0,0,1,.537,1.714,2.98,2.98,0,0,1,1.144,1.375c.53,1.267.317,2.937-.633,4.965-2.146,4.585-3.849,7.971-6.224,9.8-.308.212-2.766,1.874-4.337,1.971l-2.008,1.294a.531.531,0,0,1-.291.086" transform="translate(-109.351 -82.187)" fill="#231f20"/>
            <path id="Trazado_191887" data-name="Trazado 191887" d="M251.629,185.01a.537.537,0,0,1-.471-.794l1.389-2.551a.537.537,0,1,1,.943.514L252.1,184.73a.536.536,0,0,1-.472.28" transform="translate(-116.198 -83.94)" fill="#231f20"/>
            <path id="Trazado_191888" data-name="Trazado 191888" d="M256,188.883a.537.537,0,0,1-.471-.794l1.389-2.55a.537.537,0,1,1,.943.513l-1.389,2.551a.535.535,0,0,1-.472.28" transform="translate(-118.221 -85.732)" fill="#231f20"/>
            <path id="Trazado_191889" data-name="Trazado 191889" d="M103.469,121.848a.533.533,0,0,1-.326-.111,3.614,3.614,0,0,0-3.6-.3.537.537,0,1,1-.457-.972,4.689,4.689,0,0,1,4.715.422.537.537,0,0,1-.329.962" transform="translate(-45.709 -55.537)" fill="#231f20"/>
            <path id="Trazado_191890" data-name="Trazado 191890" d="M101.534,126.12a.9.9,0,1,0,.972-.976.982.982,0,0,0-.972.976" transform="translate(-46.985 -57.912)" fill="#231f20"/>
            <path id="Trazado_191891" data-name="Trazado 191891" d="M412.519,81.28c-1.2-2.3-3.181-4.076-5.032-5.9a67.611,67.611,0,0,1-8.523-10.7c-2.436-3.607-.844-9.352-1.732-13.559a18.725,18.725,0,0,0-1.706-4.751,17.949,17.949,0,0,0-8.115-7.981,20.921,20.921,0,0,0-8.654-1.848,23.94,23.94,0,0,0-5.795.348,8.268,8.268,0,1,0-11.753,11.334c4.314,4.839,12.544-2.268,18,2.109a13.806,13.806,0,0,1,4.294,8.109c.553,3.814-.227,7.675-.708,11.5a37.741,37.741,0,0,0,.171,12.445,19.165,19.165,0,0,0,5.981,10.723,18.749,18.749,0,0,0,10.772,4.135,14.976,14.976,0,0,0,8.726-1.684,11.185,11.185,0,0,0,4.075-14.284" transform="translate(-165.63 -15.434)" fill="#ff8578"/>
            <path id="Trazado_191892" data-name="Trazado 191892" d="M401.631,72.539a2.868,2.868,0,1,0,2.578-3.132,2.868,2.868,0,0,0-2.578,3.132" transform="translate(-185.857 -32.113)" fill="#fff"/>
            <path id="Trazado_191893" data-name="Trazado 191893" d="M406.533,75.192a.537.537,0,0,1-.052-1.072,2.331,2.331,0,1,0-.449-4.641.529.529,0,0,1-.586-.483.536.536,0,0,1,.482-.586,3.405,3.405,0,1,1,.657,6.779.444.444,0,0,1-.053,0" transform="translate(-187.627 -31.651)" fill="#231f20"/>
            <path id="Trazado_191894" data-name="Trazado 191894" d="M409.476,84.78h-1.292a.854.854,0,0,1-.853-.853V79.922a.537.537,0,1,1,1.074,0v1.359a.537.537,0,0,1,1,.021l.872,2.326a.853.853,0,0,1-.8,1.153m-1.071-1.074h.752l-.752-2Z" transform="translate(-188.501 -36.737)" fill="#231f20"/>
            <path id="Trazado_191895" data-name="Trazado 191895" d="M396.434,190.315a8.457,8.457,0,0,1-6.508-3.06l-16.242-19.4a.537.537,0,0,1,.824-.69l16.242,19.4a7.455,7.455,0,0,0,13.022-3.3l4.917-24.2a.537.537,0,1,1,1.052.214l-4.917,24.2a8.463,8.463,0,0,1-6.263,6.569,8.637,8.637,0,0,1-2.127.268" transform="translate(-172.872 -73.413)" fill="#231f20"/>
            <path id="Trazado_191896" data-name="Trazado 191896" d="M397.813,166.193a.774.774,0,0,1-.5-.182l-6.944-5.869a.537.537,0,0,1,.693-.821l6.543,5.531,1.245-6.918.209-.126c.183-.11,4.568-2.654,11.824-.093a.537.537,0,0,1-.358,1.013c-5.9-2.08-9.792-.54-10.708-.1l-1.247,6.934a.77.77,0,0,1-.759.635" transform="translate(-180.564 -72.459)" fill="#231f20"/>
            <path id="Trazado_191897" data-name="Trazado 191897" d="M407.866,179.086a.5.5,0,0,1-.069,0,.537.537,0,0,1-.465-.6,2.634,2.634,0,0,0-.883-2.291.537.537,0,1,1,.662-.846,3.714,3.714,0,0,1,1.286,3.273.537.537,0,0,1-.532.469" transform="translate(-187.998 -81.091)" fill="#231f20"/>
            <path id="Trazado_191898" data-name="Trazado 191898" d="M364.534,156.642a.534.534,0,0,1-.3-.089l-1.611-1.064a15.986,15.986,0,0,1-3.286-2.889l-4.816-5.574-1.481-3.949a1.4,1.4,0,0,1,.6-1.944,1.182,1.182,0,0,1,1.539.636l.07.141-.977-2.894c-.364-1.138.114-1.751.634-1.932a1.389,1.389,0,0,1,1.686.917l1.058,2.248-.551-4.208c-.085-1.049.478-1.606,1.035-1.691a1.247,1.247,0,0,1,1.368,1.1l.9,3.93-.737-3.452a1.389,1.389,0,0,1,.657-1.865c.558-.2,1.348.082,1.758,1.171l1.56,3.948,2.2,2.8,4.229,1.863.149-4.9a1.423,1.423,0,0,1,1.5-1.257,1.49,1.49,0,0,1,1.4,1.449l.59,5.519-.219,2.833a2.265,2.265,0,0,0,.329,1.367l.093.153a.537.537,0,1,1-.916.561l-.093-.152a3.338,3.338,0,0,1-.485-2.011l.212-2.734-.583-5.464a.424.424,0,0,0-.4-.448c-.2-.013-.324.1-.368.321l-.189,6.392-5.935-2.614-2.492-3.208-1.592-4.029c-.157-.418-.349-.545-.4-.546-.026.023-.1.208.017.538l.017.061.848,3.98,1.846,3.316a.64.64,0,0,1-1.009.767l-2.712-2.681-1.228-5.369c-.048-.209-.136-.274-.157-.274s-.16.146-.13.516l.732,5.581,2.79,3.673-.789.722-3.107-2.828-2.189-4.658c-.108-.28-.289-.338-.344-.32-.024.009-.094.187.033.582l1.658,4.915,1.93,2.149a.712.712,0,0,1-.865,1.1l-2.065-1.1-1.742-3.516c-.051-.11-.114-.126-.157-.107-.077.032-.13.233,0,.577l1.412,3.768,4.69,5.429a14.9,14.9,0,0,0,3.065,2.695l1.611,1.064a.537.537,0,0,1-.3.986m-3.871-16.134.323.32-.425-.764Z" transform="translate(-163.311 -62.01)" fill="#231f20"/>
            <path id="Trazado_191899" data-name="Trazado 191899" d="M307.1,236.138a2.531,2.531,0,0,1-1.6-.488,2.4,2.4,0,0,1-.856-1.8l0-.3,8.907-5.287a.537.537,0,0,1,.549.924l-8.345,4.953a1.176,1.176,0,0,0,.407.667,2.391,2.391,0,0,0,2.009.1l2.379-.918a2.524,2.524,0,0,1,2.251.222l.292.185a2.112,2.112,0,0,0,2.187.049l1.834-1.05a.537.537,0,0,1,.534.933l-1.834,1.05a3.184,3.184,0,0,1-3.3-.074l-.292-.185a1.446,1.446,0,0,0-1.289-.127l-2.459.946a5.352,5.352,0,0,1-1.386.206" transform="translate(-140.984 -105.598)" fill="#231f20"/>
            <path id="Trazado_191900" data-name="Trazado 191900" d="M435.844,294.091a4.682,4.682,0,0,1-.65-.04.537.537,0,0,1,.158-1.063c.047.006,2.3.3,3.009-1.266a.537.537,0,1,1,.979.442,3.632,3.632,0,0,1-3.5,1.927" transform="translate(-201.183 -134.854)" fill="#231f20"/>
            <path id="Trazado_191901" data-name="Trazado 191901" d="M262.248,312.193H.537a.537.537,0,0,1,0-1.074H262.248a.537.537,0,0,1,0,1.074" transform="translate(0 -143.977)" fill="#231f20"/>
            <path id="Trazado_191902" data-name="Trazado 191902" d="M387.161,90.486s2.492,2.456,3.326,0c.7-2.058-.167-2.773-.167-2.773a2.933,2.933,0,0,1-3.159,2.773" transform="translate(-179.167 -40.591)" fill="#231f20"/>
          </g>
        </g>
      </g>
    </g>
  </g>
</svg>
