<svg xmlns="http://www.w3.org/2000/svg" xmlns:xlink="http://www.w3.org/1999/xlink" width="294" height="198" viewBox="0 0 294 198">
  <defs>
    <clipPath id="clip-path">
      <rect id="Rectángulo_43127" data-name="Rectángulo 43127" width="271.551" height="163.398" fill="none"/>
    </clipPath>
  </defs>
  <g id="_34" data-name="34" transform="translate(-420 -3696)">
    <rect id="Rectángulo_43109" data-name="Rectángulo 43109" width="294" height="198" transform="translate(420 3696)" fill="none"/>
    <g id="Grupo_156495" data-name="Grupo 156495" transform="translate(431.225 3713.301)">
      <g id="Grupo_156494" data-name="Grupo 156494" clip-path="url(#clip-path)">
        <path id="Trazado_191903" data-name="Trazado 191903" d="M266.861,114.14c1.335-25.182-14.343-43.9-33.978-57.572-9.922-6.906-22.012-10.022-31.928-17.229-11.117-8.08-19.183-18.919-31.549-25.946-12.528-7.119-29.516-9.858-44.737-7.778-7.446,1.018-16.378,3.055-22.607,7.543C93.777,19.128,87.2,27.006,79.934,34.09,72.182,41.643,63.7,46.159,54.1,50.987c-15.522,7.808-30.2,18.3-39.659,32.874-7.76,11.965-8.392,25.933-3.744,39.183a81.026,81.026,0,0,0,9.7,19.064c3.264,4.709,7.682,8.242,11.555,12.394,1.622,1.738,6.064,9.641,8.322,9.551,21.149-.842,43.139.115,64.461.2l81.311.317c11.5.045,24.612,1.595,35.4-1.451,10.612-3,22.742-5.48,31.592-12.806,10.1-8.357,12.985-23.033,13.784-35.478q.022-.346.041-.694" transform="translate(-3.456 -2.197)" fill="#ffe7e4"/>
        <path id="Trazado_191904" data-name="Trazado 191904" d="M271.6,182.859H164.9V51.549a7.8,7.8,0,0,1,7.8-7.8h91.1a7.8,7.8,0,0,1,7.8,7.8Z" transform="translate(-73.354 -19.461)" fill="#f2f2f2"/>
        <path id="Trazado_191905" data-name="Trazado 191905" d="M264.652,43.747H171.843a6.949,6.949,0,0,0-6.949,6.949v7.277H271.6V50.7a6.949,6.949,0,0,0-6.949-6.949" transform="translate(-73.353 -19.461)" fill="#ffb6ae"/>
        <path id="Trazado_191906" data-name="Trazado 191906" d="M185.141,56.732a1.694,1.694,0,1,1-1.694-1.694,1.694,1.694,0,0,1,1.694,1.694" transform="translate(-80.853 -24.484)" fill="#fff"/>
        <path id="Trazado_191907" data-name="Trazado 191907" d="M197.371,56.732a1.694,1.694,0,1,1-1.694-1.694,1.694,1.694,0,0,1,1.694,1.694" transform="translate(-86.293 -24.484)" fill="#fff"/>
        <path id="Trazado_191908" data-name="Trazado 191908" d="M209.6,56.732a1.694,1.694,0,1,1-1.694-1.694,1.694,1.694,0,0,1,1.694,1.694" transform="translate(-91.734 -24.484)" fill="#fff"/>
        <path id="Trazado_191909" data-name="Trazado 191909" d="M261.962,141.327H188.615a5.921,5.921,0,0,1-5.921-5.921V92.221a5.92,5.92,0,0,1,5.921-5.92h73.347a5.92,5.92,0,0,1,5.921,5.92v43.186a5.921,5.921,0,0,1-5.921,5.921" transform="translate(-81.272 -38.391)" fill="#ffcec9"/>
        <path id="Trazado_191910" data-name="Trazado 191910" d="M271.157,181.859a.555.555,0,0,1-.555-.555V51.1a7.255,7.255,0,0,0-7.247-7.246h-91.1a7.254,7.254,0,0,0-7.246,7.246V181.3a.555.555,0,0,1-1.11,0V51.1a8.365,8.365,0,0,1,8.357-8.356h91.1a8.366,8.366,0,0,1,8.357,8.356V181.3a.555.555,0,0,1-.555.555" transform="translate(-72.909 -19.016)" fill="#231f20"/>
        <path id="Trazado_191911" data-name="Trazado 191911" d="M247.526,69.749h0l-82.077-.266a.555.555,0,0,1,0-1.11h0l82.077.266a.555.555,0,0,1,0,1.11" transform="translate(-73.353 -30.416)" fill="#231f20"/>
        <path id="Trazado_191912" data-name="Trazado 191912" d="M348.236,49.533a2,2,0,1,1-2-2,2,2,0,0,1,2,2" transform="translate(-153.132 -21.145)" fill="#ff8578"/>
        <path id="Trazado_191913" data-name="Trazado 191913" d="M311.137,82.66a1,1,0,1,1-1-1,1,1,0,0,1,1,1" transform="translate(-137.519 -36.326)" fill="#ff8578"/>
        <path id="Trazado_191914" data-name="Trazado 191914" d="M301.1,32.877a1.445,1.445,0,1,1-1.445-1.445,1.445,1.445,0,0,1,1.445,1.445" transform="translate(-132.658 -13.983)" fill="#ff8578"/>
        <path id="Trazado_191915" data-name="Trazado 191915" d="M246.609,192.309a1.11,1.11,0,1,1-1.11-1.11,1.11,1.11,0,0,1,1.11,1.11" transform="translate(-108.717 -85.055)" fill="#ffcec9"/>
        <path id="Trazado_191916" data-name="Trazado 191916" d="M256.441,192.309a1.11,1.11,0,1,1-1.11-1.11,1.11,1.11,0,0,1,1.11,1.11" transform="translate(-113.09 -85.055)" fill="#ffcec9"/>
        <path id="Trazado_191917" data-name="Trazado 191917" d="M266.274,192.309a1.11,1.11,0,1,1-1.11-1.11,1.11,1.11,0,0,1,1.11,1.11" transform="translate(-117.465 -85.055)" fill="#ffcec9"/>
        <path id="Trazado_191918" data-name="Trazado 191918" d="M276.107,192.309A1.11,1.11,0,1,1,275,191.2a1.11,1.11,0,0,1,1.11,1.11" transform="translate(-121.839 -85.055)" fill="#ffcec9"/>
        <path id="Trazado_191919" data-name="Trazado 191919" d="M285.939,192.309a1.11,1.11,0,1,1-1.11-1.11,1.11,1.11,0,0,1,1.11,1.11" transform="translate(-126.213 -85.055)" fill="#ffcec9"/>
        <path id="Trazado_191920" data-name="Trazado 191920" d="M230.26,187a3.441,3.441,0,1,0,3.441,3.441A3.441,3.441,0,0,0,230.26,187m0,5.594a2.153,2.153,0,1,1,2.153-2.153,2.153,2.153,0,0,1-2.153,2.153" transform="translate(-100.901 -83.188)" fill="#ffcec9"/>
        <path id="Trazado_191921" data-name="Trazado 191921" d="M262.37,282.393l-1.994.636c-.614.2-1.233.38-1.838.6a6.151,6.151,0,0,0-1.6.829,4.837,4.837,0,0,0-1.113,1.221,7.833,7.833,0,0,0-.82,1.709c-.085.244-.475.139-.389-.107a6.777,6.777,0,0,1,1.843-2.951,9.426,9.426,0,0,1,3.449-1.58l2.352-.749c.248-.079.354.31.107.389" transform="translate(-113.262 -125.445)" fill="#f9696a"/>
        <path id="Trazado_191922" data-name="Trazado 191922" d="M266.836,287.25a8.681,8.681,0,0,0-2.821.573,3.071,3.071,0,0,0-1.649,1.6.208.208,0,0,1-.249.141.2.2,0,0,1-.141-.248,3.436,3.436,0,0,1,1.8-1.82,9.1,9.1,0,0,1,3.061-.646c.259-.024.257.38,0,.4" transform="translate(-116.536 -127.603)" fill="#f9696a"/>
        <path id="Trazado_191923" data-name="Trazado 191923" d="M200.98,145.943h63.844a8.111,8.111,0,0,0,8.111-8.111v-8.111H200.98a8.111,8.111,0,1,0,0,16.221" transform="translate(-85.798 -57.707)" fill="#ff8578"/>
        <path id="Trazado_191924" data-name="Trazado 191924" d="M211.3,141.624h-3.573l-1.154,2.9h-1.216l3.573-8.693H210.1l3.573,8.693h-1.216Zm-.405-1.014-1.381-3.472-1.381,3.472Z" transform="translate(-91.355 -60.425)" fill="#fff"/>
        <path id="Trazado_191925" data-name="Trazado 191925" d="M221.02,143.146a3.024,3.024,0,0,1,3.092-3.295,2.864,2.864,0,0,1,2.256,1.191v-1.064h1.014v6.336h-1.014v-1.065a2.863,2.863,0,0,1-2.256,1.191,3.024,3.024,0,0,1-3.092-3.295m5.348,0a2.179,2.179,0,1,0-2.155,2.408,2.164,2.164,0,0,0,2.155-2.408" transform="translate(-98.321 -62.213)" fill="#fff"/>
        <rect id="Rectángulo_43123" data-name="Rectángulo 43123" width="47.864" height="2.926" transform="translate(132.872 75.408)" fill="#fff"/>
        <rect id="Rectángulo_43124" data-name="Rectángulo 43124" width="29.45" height="2.926" transform="translate(132.872 81.302)" fill="#fff"/>
        <path id="Trazado_191926" data-name="Trazado 191926" d="M220.178,93.884H156.334a8.111,8.111,0,0,1-8.111-8.111V77.663h71.955a8.111,8.111,0,0,1,0,16.221" transform="translate(-65.937 -34.548)" fill="#414042"/>
        <path id="Trazado_191927" data-name="Trazado 191927" d="M169.629,86.13a6.445,6.445,0,1,1-6.445-6.445,6.445,6.445,0,0,1,6.445,6.445" transform="translate(-69.725 -35.448)" fill="#fff"/>
        <path id="Trazado_191928" data-name="Trazado 191928" d="M164,91.964l-2.6-2.529,1.145-1.211,1.382,1.351,3.965-4.35,1.214,1.178Z" transform="translate(-71.802 -37.913)" fill="#ff8578"/>
        <rect id="Rectángulo_43125" data-name="Rectángulo 43125" width="51.079" height="2.812" transform="translate(102.371 46.893)" fill="#fff"/>
        <rect id="Rectángulo_43126" data-name="Rectángulo 43126" width="25.54" height="2.812" transform="translate(102.371 52.567)" fill="#fff"/>
        <path id="Trazado_191929" data-name="Trazado 191929" d="M391.462,63.488a2.741,2.741,0,1,1-2.741-2.741,2.741,2.741,0,0,1,2.741,2.741" transform="translate(-171.703 -27.023)" fill="#ffe7e4"/>
        <path id="Trazado_191930" data-name="Trazado 191930" d="M483.756,241.426a2.741,2.741,0,1,1-2.741-2.741,2.741,2.741,0,0,1,2.741,2.741" transform="translate(-212.76 -106.179)" fill="#ffe7e4"/>
        <path id="Trazado_191931" data-name="Trazado 191931" d="M53.754,85.023a2.741,2.741,0,1,1-2.741-2.741,2.741,2.741,0,0,1,2.741,2.741" transform="translate(-21.473 -36.603)" fill="#ffe7e4"/>
        <path id="Trazado_191932" data-name="Trazado 191932" d="M383.782,23.684a2.741,2.741,0,1,0,2.741,2.741,2.741,2.741,0,0,0-2.741-2.741m0,4.307a1.566,1.566,0,1,1,1.566-1.566,1.566,1.566,0,0,1-1.566,1.566" transform="translate(-169.506 -10.536)" fill="#ffe7e4"/>
        <path id="Trazado_191933" data-name="Trazado 191933" d="M152.658,0A2.741,2.741,0,1,0,155.4,2.741,2.741,2.741,0,0,0,152.658,0m0,4.307a1.566,1.566,0,1,1,1.566-1.566,1.566,1.566,0,0,1-1.566,1.566" transform="translate(-66.691)" fill="#ffe7e4"/>
        <path id="Trazado_191934" data-name="Trazado 191934" d="M14.911,267.032a2.741,2.741,0,1,0,2.741,2.741,2.741,2.741,0,0,0-2.741-2.741m0,4.307a1.566,1.566,0,1,1,1.566-1.566,1.566,1.566,0,0,1-1.566,1.566" transform="translate(-5.414 -118.789)" fill="#ffe7e4"/>
        <path id="Trazado_191935" data-name="Trazado 191935" d="M459.872,275.654l-1.246-.679.68-1.246a.665.665,0,1,0-1.167-.636l-.68,1.246-1.245-.68a.665.665,0,1,0-.637,1.167l1.246.68-.679,1.245a.665.665,0,1,0,1.167.636l.679-1.245,1.246.679a.665.665,0,1,0,.636-1.167" transform="translate(-202.51 -121.331)" fill="#ffe7e4"/>
        <path id="Trazado_191936" data-name="Trazado 191936" d="M451.617,69.754l-1.038-.566.566-1.038a.553.553,0,0,0-.972-.53l-.566,1.037-1.037-.565a.553.553,0,1,0-.53.972l1.038.566-.566,1.038a.554.554,0,1,0,.972.53l.566-1.038,1.037.566a.554.554,0,0,0,.53-.972" transform="translate(-199.182 -29.953)" fill="#ffe7e4"/>
        <path id="Trazado_191937" data-name="Trazado 191937" d="M48.4,32.715l-1.038-.566.566-1.038a.553.553,0,0,0-.972-.53l-.566,1.037-1.037-.565a.553.553,0,1,0-.53.972l1.038.566-.566,1.038a.554.554,0,0,0,.972.53l.566-1.038,1.037.566a.554.554,0,0,0,.531-.972" transform="translate(-19.809 -13.476)" fill="#ffe7e4"/>
        <path id="Trazado_191938" data-name="Trazado 191938" d="M108.271,228.57a60.383,60.383,0,0,0-7.1-24.233H64.007a20,20,0,0,0-2.225,1.859,27.521,27.521,0,0,0-8.4,23.06l2.711,24.326H79.906l3.04-19.656,2.6,19.656h24.593Z" transform="translate(-23.67 -90.899)" fill="#414042"/>
        <path id="Trazado_191939" data-name="Trazado 191939" d="M110.289,253.693H84.612l-2.152-16.3-2.521,16.3H55.152l-2.766-24.82a28.208,28.208,0,0,1,8.573-23.524,20.312,20.312,0,0,1,2.295-1.915l.14-.1h37.666l.158.291a60.552,60.552,0,0,1,7.165,24.455Zm-24.7-1.11h23.508l-1.819-24.415a59.432,59.432,0,0,0-6.878-23.719H63.741a21.393,21.393,0,0,0-2.021,1.708,27.091,27.091,0,0,0-8.232,22.594l2.656,23.833H78.986l3.56-23.013Z" transform="translate(-23.227 -90.455)" fill="#231f20"/>
        <path id="Trazado_191940" data-name="Trazado 191940" d="M148.51,124l-17.03,9.247-9.129-16.59a9.689,9.689,0,1,1,17.03-9.247Z" transform="translate(-53.904 -45.525)" fill="#ff8578"/>
        <path id="Trazado_191941" data-name="Trazado 191941" d="M181.22,185.633l-21.269-.516-22.929-39.586c1.376-4.645,12.385-10.623,17.03-9.247Z" transform="translate(-60.954 -60.537)" fill="#fff"/>
        <path id="Trazado_191942" data-name="Trazado 191942" d="M86.275,42.343c3.4-3.249,8.6-5.6,13.4-5.259,5.073.356,5.649,5.528,5.193,9.4-1.357,11.547,3.41,22.239-.489,33.679a19.7,19.7,0,0,1-4.2,7.44,10.362,10.362,0,0,1-7.651,3.374c-3.16-.128-5.982-2.056-8.183-4.327-8.253-8.514-8.378-21.015-5.218-31.764a28.138,28.138,0,0,1,7.149-12.547" transform="translate(-34.348 -16.483)" fill="#414042"/>
        <path id="Trazado_191943" data-name="Trazado 191943" d="M95.634,102.023H60.974a9.69,9.69,0,0,0-9.112,5.4L43.6,124.467l12.037,5.921,4.1,28.431H96.9l6.835-47.448a8.181,8.181,0,0,0-8.1-9.348" transform="translate(-19.395 -45.382)" fill="#ff8578"/>
        <path id="Trazado_191944" data-name="Trazado 191944" d="M106.582,171.881H68.453l-4.164-28.907a.555.555,0,1,1,1.1-.158l4.027,27.955h36.2l5.449-40.161a.555.555,0,0,1,1.1.149Z" transform="translate(-28.596 -57.888)" fill="#231f20"/>
        <path id="Trazado_191945" data-name="Trazado 191945" d="M72.321,153.283l-2.943,28.272-4.1-28.431Z" transform="translate(-29.041 -68.117)" fill="#231f20"/>
        <path id="Trazado_191946" data-name="Trazado 191946" d="M105.788,190.12H84.562a1.822,1.822,0,0,1-1.747-2.342l8.242-27.7a2.9,2.9,0,0,1,2.778-2.072h21.226a1.822,1.822,0,0,1,1.747,2.342l-8.242,27.7a2.9,2.9,0,0,1-2.777,2.071" transform="translate(-36.806 -70.289)" fill="#5a595b"/>
        <path id="Trazado_191947" data-name="Trazado 191947" d="M83.741,188.6l8.242-27.7a2.9,2.9,0,0,1,2.777-2.071h21.227a1.81,1.81,0,0,1,.674.129,1.816,1.816,0,0,0-1.6-.952H93.834a2.9,2.9,0,0,0-2.777,2.072l-8.242,27.7a1.823,1.823,0,0,0,1.073,2.213,1.8,1.8,0,0,1-.147-1.39" transform="translate(-36.806 -70.289)" fill="#828182"/>
        <path id="Trazado_191948" data-name="Trazado 191948" d="M116.569,182.879c-.84,1.618-2.525,2.409-3.762,1.767s-1.559-2.475-.719-4.094,2.525-2.409,3.762-1.767,1.559,2.475.719,4.094" transform="translate(-49.654 -79.433)" fill="#414042"/>
        <path id="Trazado_191949" data-name="Trazado 191949" d="M75.907,169.708l-6.625-.781,5.472-.4c1.144-.159,1.372-1.348.082-1.387l-11.5-1.317-3.72-.4a1.31,1.31,0,0,1-1.006-1.464c.112-.743.758-1.616,2.348-2.306l.949-3.19-8.22,3.257a7.636,7.636,0,0,0-1.471.795l-1.581,1.1-5.916-1.213L52.9,145.745c-1.562-4.586-12.8-10.116-17.389-8.554L25.622,157.31h0L23.564,161.5a11.262,11.262,0,0,0,11.555,16.131l15.289-1.576,1.2.46a7.273,7.273,0,0,0,1.957.454c3.565.318,18.081-1.075,20.182-1.684.846-.245,1-1.244,0-1.3l-7.132.127,8.263-.881c.87-.157,1.08-1.208,0-1.272l-6.972-.3,7.921-.529a.709.709,0,1,0,.076-1.415" transform="translate(-9.961 -60.91)" fill="#fff"/>
        <path id="Trazado_191950" data-name="Trazado 191950" d="M87.289,88.838l17.467,15.5,1.013-15.494L102.377,72.4H91.7Z" transform="translate(-38.831 -32.206)" fill="#fff"/>
        <path id="Trazado_191951" data-name="Trazado 191951" d="M105.469,124.85a.555.555,0,0,1-.555-.555v-3.55a5.276,5.276,0,0,0-1.769-3.939l-15.666-13.93a.555.555,0,0,1,.738-.829l15.666,13.93a6.389,6.389,0,0,1,2.141,4.769v3.55a.555.555,0,0,1-.555.555" transform="translate(-38.832 -45.332)" fill="#231f20"/>
        <path id="Trazado_191952" data-name="Trazado 191952" d="M85.707,173.6a.555.555,0,0,1-.041-1.109l6.895-.513a.962.962,0,0,0,.2-.135.81.81,0,0,0-.09-.09l-14.033-1.595a4.073,4.073,0,0,1-2.554-1.08,1.462,1.462,0,0,1-.282-1.181,3.44,3.44,0,0,1,1.828-2.3l.617-1.944-6.572,2.6-3.2,1.98-5.155-1.057a1.307,1.307,0,0,1-.9-1.885l9.916-18.976a.555.555,0,1,1,.984.514l-9.915,18.976a.2.2,0,0,0,.134.284l4.723.968,2.952-1.818,8.008-3.173.527.473-.1.348-1.117,3.516-.241.1a2.485,2.485,0,0,0-1.4,1.591.35.35,0,0,0,.07.306,3.113,3.113,0,0,0,1.781.652l14.316,1.627.1.063a1.414,1.414,0,0,1,.728,1.168c-.025.458-.346.834-.955,1.116l-.092.043-7.1.528-.042,0" transform="translate(-27.706 -64.959)" fill="#231f20"/>
        <path id="Trazado_191953" data-name="Trazado 191953" d="M118.073,109.78h-.037a.555.555,0,0,1-.518-.59l.871-13.313-1.464-7.1a.555.555,0,0,1,1.088-.225l1.5,7.247-.881,13.463a.556.556,0,0,1-.553.519" transform="translate(-52.009 -39.195)" fill="#231f20"/>
        <path id="Trazado_191954" data-name="Trazado 191954" d="M32.545,162.726a11.482,11.482,0,0,1-10.366-16.421l18.645-39.141a9.512,9.512,0,0,1,6.44-5.193.555.555,0,1,1,.254,1.081,8.407,8.407,0,0,0-5.693,4.59L23.181,146.783a10.372,10.372,0,0,0,9.364,14.832h.48l16.883-1.686,2.515,1.158a4.3,4.3,0,0,0,2.328.362l18.236-2.261a1.549,1.549,0,0,0,.146-.1,2.1,2.1,0,0,0-.275-.109L64.492,159h0a.555.555,0,0,1,0-1.11l8.535-.014.08.024c.294.09,1.19.363,1.245,1.1.052.7-.717,1.122-.955,1.236l-.081.039-18.427,2.285a5.4,5.4,0,0,1-2.93-.455l-2.24-1.032L33.08,162.723Z" transform="translate(-9.366 -45.355)" fill="#231f20"/>
        <path id="Trazado_191955" data-name="Trazado 191955" d="M60.194,142.418a.554.554,0,0,1-.365-.137c-7.1-6.209-14.062-4.909-14.131-4.894a.555.555,0,0,1-.22-1.088c.3-.062,7.546-1.442,15.083,5.146a.555.555,0,0,1-.366.973" transform="translate(-20.033 -60.561)" fill="#231f20"/>
        <path id="Trazado_191956" data-name="Trazado 191956" d="M51.162,184.508a.555.555,0,0,1-.452-.877,5.757,5.757,0,0,1,4.47-2.347.555.555,0,0,1,0,1.11h0a4.645,4.645,0,0,0-3.559,1.88.555.555,0,0,1-.454.234" transform="translate(-22.513 -80.644)" fill="#231f20"/>
        <path id="Trazado_191957" data-name="Trazado 191957" d="M103.466,201.85a.555.555,0,0,1-.065-1.106l6.093-.724a.858.858,0,0,0,.187-.172.506.506,0,0,0-.056-.051l-7.895-.386a.555.555,0,1,1,.054-1.109l8.161.4.1.053a1.364,1.364,0,0,1,.755,1.038,1.421,1.421,0,0,1-.812,1.231l-.107.068-6.353.756a.543.543,0,0,1-.067,0" transform="translate(-45.02 -88.214)" fill="#231f20"/>
        <path id="Trazado_191958" data-name="Trazado 191958" d="M107.085,197.394a.555.555,0,0,1-.051-1.108l6-.557c.134-.13.165-.216.164-.239a.236.236,0,0,0-.079-.111l-5.253-.834a.555.555,0,1,1,.174-1.1l5.488.87.089.052a1.41,1.41,0,0,1,.687,1.034,1.525,1.525,0,0,1-.693,1.294l-.13.1-6.341.589-.052,0" transform="translate(-47.39 -86.053)" fill="#231f20"/>
        <path id="Trazado_191959" data-name="Trazado 191959" d="M58.392,233.372a.555.555,0,0,1-.107-1.1c8.461-1.663,10.5-11.4,10.889-13.872l-8.043-.524a.555.555,0,1,1,.072-1.108l9.208.6-.054.57c-.013.134-1.4,13.369-11.857,15.424a.55.55,0,0,1-.108.011" transform="translate(-25.729 -96.429)" fill="#231f20"/>
        <path id="Trazado_191960" data-name="Trazado 191960" d="M101.075,269.144a.555.555,0,0,1-.548-.645l4.627-28.181a.555.555,0,1,1,1.1.18l-4.626,28.181a.556.556,0,0,1-.547.465" transform="translate(-44.716 -106.699)" fill="#231f20"/>
        <path id="Trazado_191961" data-name="Trazado 191961" d="M169.976,164.265a.555.555,0,0,1-.488-.289l-30.517-55.993a11.027,11.027,0,0,0-9.556-5.744l-9.288-.1a.555.555,0,0,1,.006-1.11h.006l9.288.1a12.138,12.138,0,0,1,10.519,6.323l30.517,55.992a.555.555,0,0,1-.487.821" transform="translate(-53.194 -44.943)" fill="#231f20"/>
        <path id="Trazado_191962" data-name="Trazado 191962" d="M159.576,192.917a.555.555,0,0,1-.481-.277l-15.273-26.37a.555.555,0,0,1,.96-.556l15.273,26.37a.555.555,0,0,1-.48.833" transform="translate(-63.946 -73.595)" fill="#231f20"/>
        <path id="Trazado_191963" data-name="Trazado 191963" d="M154.412,137.55a.555.555,0,0,1-.251-1.05,11.885,11.885,0,0,1,7.507-1.169.555.555,0,0,1-.25,1.082,10.974,10.974,0,0,0-6.755,1.077.553.553,0,0,1-.25.06" transform="translate(-68.443 -60.123)" fill="#231f20"/>
        <path id="Trazado_191964" data-name="Trazado 191964" d="M94.681,65.709a3.2,3.2,0,1,1-3.051-3.334,3.2,3.2,0,0,1,3.051,3.334" transform="translate(-39.277 -27.746)" fill="#fff"/>
        <path id="Trazado_191965" data-name="Trazado 191965" d="M91.048,68.874c-.057,0-.113,0-.171,0a3.74,3.74,0,1,1,.171,0m-.007-6.391a2.644,2.644,0,1,0,.119,0c-.039,0-.079,0-.119,0" transform="translate(-38.832 -27.302)" fill="#231f20"/>
        <path id="Trazado_191966" data-name="Trazado 191966" d="M94.486,47.745s-4.131,20.92,10.758,22.834,9.978-25.536,9.978-25.536-9.83-12.346-20.735,2.7" transform="translate(-41.798 -17.917)" fill="#fff"/>
        <path id="Trazado_191967" data-name="Trazado 191967" d="M106.556,74.6a11.829,11.829,0,0,1-1.508-.1c-6.214-.8-10.143-4.99-11.363-12.121a.555.555,0,0,1,1.094-.187c1.146,6.7,4.648,10.466,10.41,11.206a7.285,7.285,0,0,0,6.564-2.034c5.727-6.015,2.826-22.686,2.8-22.854a.555.555,0,0,1,1.093-.2c.127.707,3.028,17.392-3.085,23.814a7.948,7.948,0,0,1-6,2.47" transform="translate(-41.672 -21.291)" fill="#231f20"/>
        <path id="Trazado_191968" data-name="Trazado 191968" d="M118.783,79.165a.745.745,0,0,1-.174-.021l-1.447-.359a.555.555,0,0,1,.268-1.078l.932.231-.152-1.994a.555.555,0,0,1,1.107-.084l.192,2.519a.727.727,0,0,1-.726.786m-.382-.705v0Z" transform="translate(-51.932 -33.518)" fill="#231f20"/>
        <path id="Trazado_191969" data-name="Trazado 191969" d="M125.065,65a.555.555,0,0,1-.325-1.006,3.6,3.6,0,0,1,3.625-.2.555.555,0,1,1-.506.988,2.483,2.483,0,0,0-2.471.116.553.553,0,0,1-.324.1" transform="translate(-55.388 -28.199)" fill="#231f20"/>
        <path id="Trazado_191970" data-name="Trazado 191970" d="M107.178,65.849a.555.555,0,0,1-.343-.993,3.6,3.6,0,0,1,3.614-.348.555.555,0,1,1-.465,1.008,2.487,2.487,0,0,0-2.464.215.553.553,0,0,1-.342.118" transform="translate(-47.431 -28.546)" fill="#231f20"/>
        <path id="Trazado_191971" data-name="Trazado 191971" d="M128.647,69.2a.657.657,0,1,1-.686-.738.718.718,0,0,1,.686.738" transform="translate(-56.654 -30.455)" fill="#231f20"/>
        <path id="Trazado_191972" data-name="Trazado 191972" d="M111.84,70.421a.657.657,0,1,1-.686-.738.718.718,0,0,1,.686.738" transform="translate(-49.177 -30.998)" fill="#231f20"/>
        <path id="Trazado_191973" data-name="Trazado 191973" d="M114.429,85.908a1.28,1.28,0,1,1-.372-1.692,1.227,1.227,0,0,1,.372,1.692" transform="translate(-49.886 -37.354)" fill="#ff5722"/>
        <path id="Trazado_191974" data-name="Trazado 191974" d="M114.633,85.881a2.754,2.754,0,0,1-2.064-.751,2.361,2.361,0,0,1-.644-1.633.547.547,0,0,1,.575-.535.556.556,0,0,1,.535.57,1.281,1.281,0,0,0,.339.833,1.75,1.75,0,0,0,1.281.4h0a.555.555,0,0,1,0,1.11Z" transform="translate(-49.789 -36.906)" fill="#231f20"/>
        <path id="Trazado_191975" data-name="Trazado 191975" d="M106.4,69.7a5.215,5.215,0,1,1,.275-.007c-.092,0-.184.007-.275.007m.008-9.317c-.073,0-.146,0-.219.006a4.08,4.08,0,1,0,.219-.006" transform="translate(-45.016 -26.369)" fill="#231f20"/>
        <path id="Trazado_191976" data-name="Trazado 191976" d="M97.618,63.971a.532.532,0,0,1-.121-.013l-6.229-1.382a.555.555,0,0,1,.241-1.084l6.229,1.382a.555.555,0,0,1-.12,1.1" transform="translate(-40.407 -27.349)" fill="#231f20"/>
        <path id="Trazado_191977" data-name="Trazado 191977" d="M124.259,68.767a5.219,5.219,0,1,1,.279-.007c-.093,0-.186.007-.279.007m.009-9.316c-.072,0-.144,0-.217.006a4.1,4.1,0,1,0,.217-.006" transform="translate(-52.961 -25.953)" fill="#231f20"/>
        <path id="Trazado_191978" data-name="Trazado 191978" d="M103.656,29.47a7.83,7.83,0,0,0-3.229.694A15.358,15.358,0,0,0,96.4,29c-10.858-1.6-24.43,1.7-27.156,13.858-1.019,4.545-.492,9.305.555,13.844C70.952,61.712,72,66.891,67.028,70.224c3.917.078,9.45.275,13.233-1a5.949,5.949,0,0,0,3.87-5.811,31.9,31.9,0,0,0-1.083-6.455A24.823,24.823,0,0,1,82.6,52.8a9.094,9.094,0,0,1,.432-3.511,4.7,4.7,0,0,1,1.758-1.84c1.7-1.288,3.987-1.522,5.515-2.989a5.18,5.18,0,0,0,1.463-3.332,2.12,2.12,0,0,0,1.046,1.407c1.548,1.157,3.729,1.575,5.614,1.949a17.589,17.589,0,0,0,3.625.553,7.867,7.867,0,1,0,1.6-15.57" transform="translate(-29.817 -12.732)" fill="#414042"/>
        <path id="Trazado_191979" data-name="Trazado 191979" d="M393.514,112.462l-6.991,3.3a30.184,30.184,0,0,0-1.132,10.029,10.543,10.543,0,0,0,1.671,6.011,2.943,2.943,0,0,0,2.589,1.357c1.351-.2,2.047-1.7,2.44-3a42.261,42.261,0,0,0,1.423-17.694" transform="translate(-171.426 -50.029)" fill="#ff8578"/>
        <path id="Trazado_191980" data-name="Trazado 191980" d="M277.053,222.261l-11.154,13.3c-.462.551-14.852,6.637-15.435,6.217-2.78-2.007,2.214,14.866,2.214,14.866l23.887.146,15.46-19.7Z" transform="translate(-111.045 -98.873)" fill="#fff"/>
        <path id="Trazado_191981" data-name="Trazado 191981" d="M294.83,208.047l17.307-23.983,21.116,15.269-22.411,22.484c-3.169-5.414-12.179-12.963-16.012-13.769" transform="translate(-131.155 -81.881)" fill="#fff"/>
        <path id="Trazado_191982" data-name="Trazado 191982" d="M381.9,238.023l.551-46.2c.815-9.314-5.688-17.891-15.711-20.778-7.521-2.166-22.6-2.113-32.069-.548-13.765,2.273-18.386,11.154-19.367,23.534l5.246,7.342c1.024,21.891-5.246,24.57-2.9,36.778Z" transform="translate(-140.264 -75.34)" fill="#fff"/>
        <path id="Trazado_191983" data-name="Trazado 191983" d="M402.754,217.023l1.572.767,7.508-15.393a37.1,37.1,0,0,0,3.385-21.676,21.93,21.93,0,0,0-2.016-1.68l.265,1.77a35.366,35.366,0,0,1-3.206,20.82Z" transform="translate(-179.165 -79.646)" fill="#ff8578"/>
        <path id="Trazado_191984" data-name="Trazado 191984" d="M302.129,238.254l-.087-.451c-1.145-5.966-.278-9.678.82-14.378a72.245,72.245,0,0,0,2.075-22.479.555.555,0,0,1,.528-.581.566.566,0,0,1,.581.529,73.24,73.24,0,0,1-2.1,22.783c-1.039,4.451-1.866,7.99-.894,13.465l63.244-.121.546-45.657c.794-9.108-5.5-17.413-15.31-20.239-7.643-2.2-22.626-2.053-31.825-.534-7.065,1.167-11.98,4.142-15.023,9.1-.312.508-.635,1.034-.992,1.537-2.96,4.175-17.9,25.17-21.295,28.433a.555.555,0,0,1-.769-.8c3.323-3.193,18.208-24.113,21.159-28.274.336-.474.635-.96.951-1.476,3.222-5.245,8.387-8.388,15.788-9.611,9.318-1.539,24.526-1.68,32.313.563,10.326,2.974,16.951,11.758,16.112,21.36l-.556,46.71Z" transform="translate(-125.205 -74.893)" fill="#231f20"/>
        <path id="Trazado_191985" data-name="Trazado 191985" d="M379.983,155.176l-3.7,4.69a9.1,9.1,0,0,1-16.183-4.524L361.86,136.4h15.09Z" transform="translate(-160.191 -60.678)" fill="#fff"/>
        <path id="Trazado_191986" data-name="Trazado 191986" d="M368.767,163.459a9.94,9.94,0,0,1-2.679-.372,9.512,9.512,0,0,1-6.985-8.122l-.008-.059.006-.06,1.806-19.446h16.069l3.147,19.484-3.848,4.882a9.5,9.5,0,0,1-7.507,3.694m-8.554-8.571a8.548,8.548,0,0,0,15.188,4.19l3.547-4.5L376.03,136.51H361.918Z" transform="translate(-159.744 -60.233)" fill="#231f20"/>
        <path id="Trazado_191987" data-name="Trazado 191987" d="M369.572,194.664a.667.667,0,1,0,.667-.667.667.667,0,0,0-.667.667" transform="translate(-164.404 -86.3)" fill="#231f20"/>
        <path id="Trazado_191988" data-name="Trazado 191988" d="M368.371,204.189a.667.667,0,1,0,.667-.667.667.667,0,0,0-.667.667" transform="translate(-163.87 -90.537)" fill="#231f20"/>
        <path id="Trazado_191989" data-name="Trazado 191989" d="M366.922,214.216a.667.667,0,1,0,.666-.667.666.666,0,0,0-.666.667" transform="translate(-163.225 -94.997)" fill="#231f20"/>
        <path id="Trazado_191990" data-name="Trazado 191990" d="M411.762,237.025l-8.582,13.327L381.6,268.246l11.382-.123h18.413Z" transform="translate(-169.753 -105.441)" fill="#231f20"/>
        <path id="Trazado_191991" data-name="Trazado 191991" d="M326.981,231.731,320.2,244.277a3.44,3.44,0,0,1-2.743,1.844c-12.066,1.1-24.3,2.981-36.41,3.323v.009l-2.6.281L254.5,258.163a9.347,9.347,0,0,0-5.5,5.173l-.368.869a.647.647,0,0,0,.629.9l25.548-.733,7.2,1.29v.008h.046l.067.012v-.012c2.354,0,41.229.012,41.229.012,5.777,0,9.913-2.877,14.354-8.124,0,0,9.166-11.319,7.77-16.03-1.487-5.023-13.428-11.162-18.486-9.8" transform="translate(-110.579 -103)" fill="#fff"/>
        <path id="Trazado_191992" data-name="Trazado 191992" d="M347.966,97.642A17.043,17.043,0,0,0,344,106.19c-1.316,8.13-2.72,25.951,10.147,26.412,11.123.4,14.447-12.679,15.428-21.441a16.6,16.6,0,0,0-7.717-16.08c-3.964-2.412-8.94-3.072-13.89,2.561" transform="translate(-152.663 -41.505)" fill="#fff"/>
        <path id="Trazado_191993" data-name="Trazado 191993" d="M354.2,132.729c-.17,0-.341,0-.514-.009a10.182,10.182,0,0,1-7.87-3.687c-4.788-5.834-3.813-17.145-2.806-23.369a17.578,17.578,0,0,1,4.1-8.826c4.327-4.922,9.374-5.845,14.6-2.669a17.2,17.2,0,0,1,7.98,16.617c-.923,8.248-4.164,21.943-15.485,21.943M347.939,97.57h0a16.468,16.468,0,0,0-3.836,8.271c-.978,6.039-1.944,16.99,2.568,22.487a9.115,9.115,0,0,0,7.051,3.281c.154.006.308.008.46.008,10.472,0,13.515-13.08,14.4-20.956a16.082,16.082,0,0,0-7.453-15.544c-4.77-2.9-9.2-2.075-13.185,2.453" transform="translate(-152.219 -41.067)" fill="#231f20"/>
        <path id="Trazado_191994" data-name="Trazado 191994" d="M384.459,129.2a3.07,3.07,0,1,0,2.479-3.563,3.069,3.069,0,0,0-2.479,3.563" transform="translate(-171.005 -55.869)" fill="#fff"/>
        <path id="Trazado_191995" data-name="Trazado 191995" d="M389.017,131.84a3.592,3.592,0,0,1-.7-.068.555.555,0,1,1,.215-1.089,2.532,2.532,0,0,0,.93.007,2.515,2.515,0,0,0-.889-4.95.555.555,0,0,1-.2-1.093,3.625,3.625,0,1,1,1.281,7.136,3.653,3.653,0,0,1-.643.058" transform="translate(-172.545 -55.423)" fill="#231f20"/>
        <path id="Trazado_191996" data-name="Trazado 191996" d="M352.78,136.556a.576.576,0,0,1-.106-.01l-1.947-.379A.784.784,0,0,1,350.2,135l3.308-5.649a.555.555,0,0,1,.958.561l-3.076,5.252,1.5.291a.555.555,0,0,1-.1,1.1" transform="translate(-155.739 -57.42)" fill="#231f20"/>
        <path id="Trazado_191997" data-name="Trazado 191997" d="M360.911,149.38a3.876,3.876,0,0,1-.987-.138.555.555,0,1,1,.283-1.074,1.486,1.486,0,0,0,2.122-1.237.555.555,0,0,1,1.1.132,2.894,2.894,0,0,1-1.119,1.907,2.432,2.432,0,0,1-1.4.41" transform="translate(-159.928 -65.146)" fill="#231f20"/>
        <path id="Trazado_191998" data-name="Trazado 191998" d="M350.135,120.6a.555.555,0,0,1-.375-.145,3.482,3.482,0,0,0-3.436-.589.555.555,0,0,1-.383-1.042,4.594,4.594,0,0,1,4.571.813.555.555,0,0,1-.376.963" transform="translate(-153.73 -52.728)" fill="#231f20"/>
        <path id="Trazado_191999" data-name="Trazado 191999" d="M370.279,125.18a.555.555,0,0,1-.479-.273,3.5,3.5,0,0,0-3.114-1.568.548.548,0,0,1-.585-.524.554.554,0,0,1,.523-.585,4.594,4.594,0,0,1,4.133,2.114.555.555,0,0,1-.479.836" transform="translate(-162.86 -54.371)" fill="#231f20"/>
        <path id="Trazado_192000" data-name="Trazado 192000" d="M347.534,125.832a.874.874,0,1,0,1.025-.865.956.956,0,0,0-1.025.865" transform="translate(-154.593 -55.587)" fill="#231f20"/>
        <path id="Trazado_192001" data-name="Trazado 192001" d="M364.674,129.419a.874.874,0,1,0,1.211-.577.956.956,0,0,0-1.211.577" transform="translate(-162.177 -57.286)" fill="#231f20"/>
        <path id="Trazado_192002" data-name="Trazado 192002" d="M292.276,251.791a.555.555,0,0,1-.184-1.079l3.606-1.269a15.9,15.9,0,0,1,3.747-.827l37.3-3.6a3.364,3.364,0,0,0,2.675-1.811l6.38-12.349.263-.052c.333-.066,8.265-1.511,17.161,7.065a.555.555,0,1,1-.771.8c-7.583-7.31-14.523-6.967-15.922-6.81L340.41,243.71a4.472,4.472,0,0,1-3.556,2.407l-37.3,3.6a14.79,14.79,0,0,0-3.485.77l-3.606,1.269a.565.565,0,0,1-.184.032" transform="translate(-129.772 -102.613)" fill="#231f20"/>
        <path id="Trazado_192003" data-name="Trazado 192003" d="M386.869,271.581a.555.555,0,0,1-.05-1.108,14.976,14.976,0,0,0,11.27-6.907l12.539-19.956a.555.555,0,0,1,.94.591l-12.54,19.955a16.087,16.087,0,0,1-12.109,7.422l-.05,0" transform="translate(-171.852 -108.255)" fill="#231f20"/>
        <path id="Trazado_192004" data-name="Trazado 192004" d="M381.463,262.767a.555.555,0,0,1-.542-.436c-.645-2.941-2.573-3.242-2.655-3.253a.558.558,0,0,1-.476-.622.552.552,0,0,1,.613-.48c.113.013,2.782.373,3.6,4.118a.555.555,0,0,1-.424.661.547.547,0,0,1-.119.013" transform="translate(-168.058 -114.759)" fill="#231f20"/>
        <path id="Trazado_192005" data-name="Trazado 192005" d="M329.7,254.43a.555.555,0,0,1-.118-1.1c2.941-.645,3.242-2.573,3.253-2.655a.562.562,0,0,1,.622-.477.553.553,0,0,1,.481.613c-.014.113-.374,2.782-4.118,3.6a.549.549,0,0,1-.119.013" transform="translate(-146.418 -111.3)" fill="#231f20"/>
        <path id="Trazado_192006" data-name="Trazado 192006" d="M306.758,236.456a.552.552,0,0,1-.412-.184,39.933,39.933,0,0,0-12.181-8.943.555.555,0,0,1,.44-1.019,40.278,40.278,0,0,1,12.566,9.219.555.555,0,0,1-.413.927" transform="translate(-130.71 -100.654)" fill="#231f20"/>
        <path id="Trazado_192007" data-name="Trazado 192007" d="M360.693,205.7a.516.516,0,0,1-.092-.008.554.554,0,0,1-.456-.638l2.5-15.03a5.988,5.988,0,0,1,3.424-4.472l3.762-1.719a.555.555,0,0,1,.461,1.01l-3.762,1.718a4.881,4.881,0,0,0-2.79,3.644l-2.5,15.03a.555.555,0,0,1-.547.464" transform="translate(-160.207 -81.755)" fill="#231f20"/>
        <path id="Trazado_192008" data-name="Trazado 192008" d="M372.564,87.193a19.648,19.648,0,0,0-3.4-1.907c-.194-3.576-1.08-5.8-4.45-7.188a73.7,73.7,0,0,0-10.1-3.355c-3.095-.772-6.291-1.269-9.249-2.508A12.664,12.664,0,0,1,341.5,69.9c-.678-.648-1.481-2.342-2.5-1.152a14.87,14.87,0,0,0-2.912,5.322c-2.161,7.055,1.211,16.007,8.826,17.769A21.161,21.161,0,0,0,356.7,91.17a5.806,5.806,0,0,0,6.123,5c.036,1.952.187,3.928.187,5.874.1.545.438,1.154.993,1.174.611.023.972-.652,1.225-1.209a12.175,12.175,0,0,1,4.154-5.152c1.326-.855,3.241-1.149,4.348-2.422,1.7-1.952.859-4.912-.554-6.767a3.34,3.34,0,0,0-.607-.478" transform="translate(-149.222 -30.401)" fill="#ff8578"/>
        <path id="Trazado_192009" data-name="Trazado 192009" d="M282.343,289.757h29.072a2.188,2.188,0,1,0,0-4.377H282.343a2.113,2.113,0,0,0-2.113,2.113v.15a2.113,2.113,0,0,0,2.113,2.113" transform="translate(-124.66 -126.951)" fill="#231f20"/>
        <path id="Trazado_192010" data-name="Trazado 192010" d="M167.029,258.337h62.56a2.862,2.862,0,0,0,2.67-3.894l-14.626-37.862a2.863,2.863,0,0,0-2.67-1.831H152.4a2.863,2.863,0,0,0-2.67,3.894l14.626,37.862a2.863,2.863,0,0,0,2.67,1.831" transform="translate(-66.522 -95.532)" fill="#414042"/>
        <path id="Trazado_192011" data-name="Trazado 192011" d="M216.5,250.575a4.282,4.282,0,1,0,4.282-4.282,4.282,4.282,0,0,0-4.282,4.282" transform="translate(-96.311 -109.564)" fill="#5a595b"/>
        <path id="Trazado_192012" data-name="Trazado 192012" d="M306.158,289.974a.211.211,0,0,1-.211-.211v-.44a.3.3,0,0,0-.3-.3h-2.9a.211.211,0,0,1,0-.422h2.9a.725.725,0,0,1,.724.725v.44a.211.211,0,0,1-.211.211" transform="translate(-134.581 -128.383)" fill="#293241"/>
        <path id="Trazado_192013" data-name="Trazado 192013" d="M314.346,289.779a.211.211,0,0,1-.211-.211v-.439a.3.3,0,0,0-.3-.3h-2.9a.211.211,0,0,1,0-.421h2.9a.723.723,0,0,1,.722.723v.439a.21.21,0,0,1-.21.211" transform="translate(-138.228 -128.298)" fill="#293241"/>
        <path id="Trazado_192014" data-name="Trazado 192014" d="M34.445,277.133h13.8a2.487,2.487,0,0,0,2.488-2.488V258.863a1.86,1.86,0,0,0-1.86-1.86H33.818a1.861,1.861,0,0,0-1.861,1.86v15.782a2.487,2.487,0,0,0,2.488,2.488" transform="translate(-14.216 -114.328)" fill="#fff"/>
        <path id="Trazado_192015" data-name="Trazado 192015" d="M47.8,277.244H34a3.046,3.046,0,0,1-3.043-3.043V258.419A2.419,2.419,0,0,1,33.373,256H48.426a2.418,2.418,0,0,1,2.415,2.416V274.2a3.046,3.046,0,0,1-3.043,3.043m-14.426-20.13a1.307,1.307,0,0,0-1.306,1.306V274.2A1.934,1.934,0,0,0,34,276.133H47.8a1.934,1.934,0,0,0,1.932-1.932V258.419a1.307,1.307,0,0,0-1.305-1.306Z" transform="translate(-13.771 -113.883)" fill="#231f20"/>
        <path id="Trazado_192016" data-name="Trazado 192016" d="M43.726,228.116a8.824,8.824,0,0,1,4.46-5.682,17.969,17.969,0,0,1,7.128-1.968c-.514,1.849.5,3.726,1.118,5.542a9.922,9.922,0,0,1,.156,6.47,6.894,6.894,0,0,1-2.167,3.053,10.2,10.2,0,0,1-3.34,1.39,6.753,6.753,0,0,1-1.821.625,2.781,2.781,0,0,1-2.246-1.478,23.024,23.024,0,0,0-1.232-1.984,12.379,12.379,0,0,1-1.377-1.668,6.322,6.322,0,0,1-.679-4.3" transform="translate(-19.398 -98.074)" fill="#ffb6ae"/>
        <path id="Trazado_192017" data-name="Trazado 192017" d="M21.289,229.144c.229-1.954.913-3.823,1.319-5.749a20.517,20.517,0,0,0,.359-6.058c2.253,2.625,6.319,2.643,9.226,4.518a9.064,9.064,0,0,1,3.567,4.749,8.879,8.879,0,0,1-.107,6.406q-.058.138-.118.276l-.793,1.841c-.131.3-.3.639-.612.735a1.385,1.385,0,0,1-.44.027,15.257,15.257,0,0,0-3.067.615,15.012,15.012,0,0,1-2.918.133,6.861,6.861,0,0,1-5.033-1.94,7.053,7.053,0,0,1-1.382-5.555" transform="translate(-9.439 -96.682)" fill="#ffb6ae"/>
        <path id="Trazado_192018" data-name="Trazado 192018" d="M52.34,243.525H52.31a.556.556,0,0,1-.526-.583c.311-5.963,1.054-12.179,4.355-17.232a.555.555,0,0,1,.93.607C53.911,231.149,53.2,237.191,52.894,243a.555.555,0,0,1-.554.526" transform="translate(-23.036 -100.295)" fill="#231f20"/>
        <path id="Trazado_192019" data-name="Trazado 192019" d="M38.375,244.579a.556.556,0,0,1-.542-.436,31.062,31.062,0,0,0-8.544-15.364.555.555,0,0,1,.776-.795A32.186,32.186,0,0,1,38.918,243.9a.554.554,0,0,1-.543.674" transform="translate(-12.955 -101.349)" fill="#231f20"/>
        <path id="Trazado_192020" data-name="Trazado 192020" d="M271,293.367.555,293.358a.555.555,0,0,1,0-1.11l270.44.009a.555.555,0,1,1,0,1.11" transform="translate(0 -130.007)" fill="#231f20"/>
      </g>
    </g>
  </g>
</svg>
