<svg xmlns="http://www.w3.org/2000/svg" xmlns:xlink="http://www.w3.org/1999/xlink" width="294" height="190" viewBox="0 0 294 190">
  <defs>
    <clipPath id="clip-path">
      <rect id="Rect치ngulo_43128" data-name="Rect치ngulo 43128" width="261.785" height="167.877" fill="none"/>
    </clipPath>
  </defs>
  <g id="_35" data-name="35" transform="translate(-420 -3647.785)">
    <rect id="Rect치ngulo_43109" data-name="Rect치ngulo 43109" width="294" height="190" transform="translate(420 3647.785)" fill="none"/>
    <g id="Grupo_156497" data-name="Grupo 156497" transform="translate(436.107 3658.846)">
      <g id="Grupo_156496" data-name="Grupo 156496" clip-path="url(#clip-path)">
        <path id="Trazado_192021" data-name="Trazado 192021" d="M247.014,90.15c-4.222-3.741-8.252-7.637-11.156-12.476C228.39,65.23,227.6,49.7,223.384,36.085,212.135-.245,156.45-4.688,125.821,3.476,100.3,10.281,86.209,36.041,70.3,55.371c-18.625,22.624-56.336,14.944-52.6,53.79,2,20.81,12.849,43.736,27.958,58.186l55.363-.185,101.317-.339c17.161-.058,38.434,2.537,53.522-7.529,18.64-12.436,17.522-40.636,4.22-56.713-3.813-4.608-8.548-8.431-13.063-12.431" transform="translate(-8.189 0)" fill="#ffe7e4"/>
        <path id="Trazado_192022" data-name="Trazado 192022" d="M252.645,45.747H142.691a9.027,9.027,0,0,0-9.027,9.028v133.97H261.672V54.775a9.027,9.027,0,0,0-9.028-9.028" transform="translate(-62.763 -21.481)" fill="#f2f2f2"/>
        <path id="Trazado_192023" data-name="Trazado 192023" d="M253.108,45.747H142.228a8.564,8.564,0,0,0-8.564,8.564V64.663H261.672V54.311a8.564,8.564,0,0,0-8.564-8.564" transform="translate(-62.763 -21.481)" fill="#ffb6ae"/>
        <path id="Trazado_192024" data-name="Trazado 192024" d="M159.376,63.176a1.914,1.914,0,1,1-1.914-1.914,1.915,1.915,0,0,1,1.914,1.914" transform="translate(-73.038 -28.766)" fill="#fff"/>
        <path id="Trazado_192025" data-name="Trazado 192025" d="M172.1,63.176a1.914,1.914,0,1,1-1.914-1.914,1.915,1.915,0,0,1,1.914,1.914" transform="translate(-79.015 -28.766)" fill="#fff"/>
        <path id="Trazado_192026" data-name="Trazado 192026" d="M184.834,63.176a1.914,1.914,0,1,1-1.914-1.914,1.915,1.915,0,0,1,1.914,1.914" transform="translate(-84.992 -28.766)" fill="#fff"/>
        <path id="Trazado_192027" data-name="Trazado 192027" d="M249.827,159H159.717a9.573,9.573,0,0,1-9.573-9.573V112.013a9.573,9.573,0,0,1,9.573-9.573h90.109a9.573,9.573,0,0,1,9.573,9.573v37.416A9.573,9.573,0,0,1,249.827,159" transform="translate(-70.501 -48.102)" fill="#ffe7e4"/>
        <path id="Trazado_192028" data-name="Trazado 192028" d="M261.2,188.806a.53.53,0,0,1-.53-.53V54.305a8.507,8.507,0,0,0-8.5-8.5H142.221a8.507,8.507,0,0,0-8.5,8.5v133.97a.53.53,0,0,1-1.061,0V54.305a9.569,9.569,0,0,1,9.558-9.558H252.175a9.569,9.569,0,0,1,9.558,9.558v133.97a.53.53,0,0,1-.53.53" transform="translate(-62.293 -21.011)" fill="#231f20"/>
        <path id="Trazado_192029" data-name="Trazado 192029" d="M154.262,81.468H133.193a.53.53,0,1,1,0-1.061h21.069a.53.53,0,1,1,0,1.061" transform="translate(-62.293 -37.756)" fill="#231f20"/>
        <path id="Trazado_192030" data-name="Trazado 192030" d="M248.419,65.892a1.036,1.036,0,1,1-1.035-1.035,1.035,1.035,0,0,1,1.035,1.035" transform="translate(-115.675 -30.454)" fill="#ff8578"/>
        <path id="Trazado_192031" data-name="Trazado 192031" d="M265.986,44.428a1.489,1.489,0,1,1-1.49-1.489,1.489,1.489,0,0,1,1.49,1.489" transform="translate(-123.498 -20.162)" fill="#ff8578"/>
        <path id="Trazado_192032" data-name="Trazado 192032" d="M229.562,37.285a2.041,2.041,0,1,1-2.041-2.041,2.041,2.041,0,0,1,2.041,2.041" transform="translate(-105.876 -16.549)" fill="#ff8578"/>
        <path id="Trazado_192033" data-name="Trazado 192033" d="M192.319,76.369,192.3,60.693h-.251A15.9,15.9,0,1,0,207.995,76.62v-.251Z" transform="translate(-82.708 -28.499)" fill="#414042"/>
        <path id="Trazado_192034" data-name="Trazado 192034" d="M210.167,57.385V73.06h15.675a15.675,15.675,0,0,0-15.675-15.675" transform="translate(-98.686 -26.946)" fill="#ff8578"/>
        <path id="Trazado_192035" data-name="Trazado 192035" d="M269.956,75.5l-.079-15.94h-.251a16.053,16.053,0,1,0,12.09,26.7l.167-.188Z" transform="translate(-119.105 -27.968)" fill="#fff"/>
        <path id="Trazado_192036" data-name="Trazado 192036" d="M269.236,91.727a16.583,16.583,0,0,1-.082-33.165l.782,0,.081,16.234,12.146,10.771-.519.585a16.592,16.592,0,0,1-12.407,5.58m-.356-32.1A15.522,15.522,0,1,0,280.662,85.65l-11.7-10.38Z" transform="translate(-118.635 -27.496)" fill="#231f20"/>
        <path id="Trazado_192037" data-name="Trazado 192037" d="M302.074,62.2A15.794,15.794,0,0,0,288.42,54.35v15.8Z" transform="translate(-135.43 -25.52)" fill="#5a595b"/>
        <path id="Trazado_192038" data-name="Trazado 192038" d="M301.361,91.733a15.809,15.809,0,0,0,2.107-17.406L289.362,82.2Z" transform="translate(-135.872 -34.901)" fill="#231f20"/>
        <path id="Trazado_192039" data-name="Trazado 192039" d="M274.9,277.833h-27.94a7.3,7.3,0,0,1-7.3-7.3V242.594a7.3,7.3,0,0,1,7.3-7.3H274.9a7.3,7.3,0,0,1,7.3,7.3v27.941a7.3,7.3,0,0,1-7.3,7.3" transform="translate(-112.536 -110.486)" fill="#414042"/>
        <path id="Trazado_192040" data-name="Trazado 192040" d="M258.95,287.068h-1.97a2.91,2.91,0,0,1-2.91-2.91v-1.97a2.91,2.91,0,0,1,2.91-2.91h1.97a2.91,2.91,0,0,1,2.91,2.91v1.97a2.91,2.91,0,0,1-2.91,2.91" transform="translate(-119.301 -131.137)" fill="#ff8578"/>
        <path id="Trazado_192041" data-name="Trazado 192041" d="M277.3,282.482h-1.971a2.91,2.91,0,0,1-2.91-2.91v-7.15a2.91,2.91,0,0,1,2.91-2.909H277.3a2.91,2.91,0,0,1,2.91,2.909v7.15a2.91,2.91,0,0,1-2.91,2.91" transform="translate(-127.915 -126.552)" fill="#ff8578"/>
        <path id="Trazado_192042" data-name="Trazado 192042" d="M295.642,275.476h-1.97a2.91,2.91,0,0,1-2.91-2.91V257.5a2.91,2.91,0,0,1,2.91-2.91h1.97a2.91,2.91,0,0,1,2.91,2.91v15.064a2.91,2.91,0,0,1-2.91,2.91" transform="translate(-136.53 -119.546)" fill="#ff8578"/>
        <path id="Trazado_192043" data-name="Trazado 192043" d="M249.971,180.744a14.55,14.55,0,1,1-14.55-14.55,14.55,14.55,0,0,1,14.55,14.55" transform="translate(-103.712 -78.038)" fill="#414042"/>
        <path id="Trazado_192044" data-name="Trazado 192044" d="M240.2,194.3l-5.055-5.055,2.888-2.887,2.167,2.167,6.015-6.017L249.1,185.4Z" transform="translate(-110.414 -85.698)" fill="#fff"/>
        <path id="Trazado_192045" data-name="Trazado 192045" d="M195.669,286.659h21.5a5.534,5.534,0,0,0,5.534-5.534v-21.5a5.534,5.534,0,0,0-5.534-5.534h-21.5a5.534,5.534,0,0,0-5.534,5.534v21.5a5.534,5.534,0,0,0,5.534,5.534" transform="translate(-89.279 -119.312)" fill="#fff"/>
        <path id="Trazado_192046" data-name="Trazado 192046" d="M217.635,297.493H195.2a5.065,5.065,0,0,1-5.065-5.065V278.71c1.646-.491,3.378-1.534,5.108-1.544,2.819-.016,4.83,2.641,6.276,5.06s3.209,5.162,6.007,5.5c2.295.281,4.4-1.2,6.17-2.692a4.507,4.507,0,0,1,1.914-1.145c1.505-.3,2.853,1.035,3.521,2.417s1.011,2.97,2.066,4.085a4.033,4.033,0,0,0,1.5.989v1.041a5.065,5.065,0,0,1-5.065,5.065" transform="translate(-89.279 -130.146)" fill="#414042"/>
        <path id="Trazado_192047" data-name="Trazado 192047" d="M216.7,286.72H195.2a6.072,6.072,0,0,1-6.065-6.065v-21.5a6.072,6.072,0,0,1,6.065-6.065h21.5a6.071,6.071,0,0,1,6.065,6.065v21.5a6.071,6.071,0,0,1-6.065,6.065m-21.5-32.565a5.009,5.009,0,0,0-5,5v21.5a5.009,5.009,0,0,0,5,5h21.5a5.01,5.01,0,0,0,5-5v-21.5a5.009,5.009,0,0,0-5-5Z" transform="translate(-88.81 -118.842)" fill="#231f20"/>
        <path id="Trazado_192048" data-name="Trazado 192048" d="M41.62,81.777a2.737,2.737,0,1,0,2.737,2.737,2.737,2.737,0,0,0-2.737-2.737m0,4.3a1.563,1.563,0,1,1,1.563-1.563,1.563,1.563,0,0,1-1.563,1.563" transform="translate(-18.258 -38.399)" fill="#ffe7e4"/>
        <path id="Trazado_192049" data-name="Trazado 192049" d="M474.331,124.222a2.737,2.737,0,1,0,2.737,2.738,2.737,2.737,0,0,0-2.737-2.738m0,4.3a1.563,1.563,0,1,1,1.563-1.563,1.564,1.564,0,0,1-1.563,1.563" transform="translate(-221.441 -58.329)" fill="#ffe7e4"/>
        <path id="Trazado_192050" data-name="Trazado 192050" d="M27.881,288.8a2.737,2.737,0,1,0,2.737,2.737,2.737,2.737,0,0,0-2.737-2.737m0,4.3a1.563,1.563,0,1,1,1.564-1.564,1.563,1.563,0,0,1-1.564,1.564" transform="translate(-11.807 -135.61)" fill="#ffe7e4"/>
        <path id="Trazado_192051" data-name="Trazado 192051" d="M74.669,99.222A1.871,1.871,0,1,1,72.8,97.351a1.871,1.871,0,0,1,1.871,1.871" transform="translate(-33.304 -45.712)" fill="#ffe7e4"/>
        <path id="Trazado_192052" data-name="Trazado 192052" d="M3.743,162.79a1.871,1.871,0,1,1-1.871-1.871,1.871,1.871,0,0,1,1.871,1.871" transform="translate(0 -75.561)" fill="#ffe7e4"/>
        <path id="Trazado_192053" data-name="Trazado 192053" d="M444.64,50.281a1.871,1.871,0,1,1-1.871-1.871,1.871,1.871,0,0,1,1.871,1.871" transform="translate(-207.027 -22.731)" fill="#ffe7e4"/>
        <path id="Trazado_192054" data-name="Trazado 192054" d="M482.129,300.933a1.871,1.871,0,1,1-1.871-1.871,1.871,1.871,0,0,1,1.871,1.871" transform="translate(-224.63 -140.427)" fill="#ffe7e4"/>
        <path id="Trazado_192055" data-name="Trazado 192055" d="M71.45,42.566l-1.8-.98.98-1.8a.959.959,0,1,0-1.684-.918l-.98,1.8-1.8-.98a.959.959,0,0,0-.918,1.684l1.8.98-.98,1.8a.959.959,0,0,0,1.684.918l.98-1.8,1.8.98a.959.959,0,1,0,.918-1.684" transform="translate(-30.406 -18.017)" fill="#ffe7e4"/>
        <path id="Trazado_192056" data-name="Trazado 192056" d="M441.064,112.636l-1.8-.98.98-1.8a.959.959,0,1,0-1.684-.918l-.98,1.8-1.8-.98a.959.959,0,1,0-.918,1.684l1.8.98-.98,1.8a.959.959,0,1,0,1.684.918l.98-1.8,1.8.98a.959.959,0,1,0,.918-1.684" transform="translate(-203.961 -50.919)" fill="#ffe7e4"/>
        <path id="Trazado_192057" data-name="Trazado 192057" d="M210.561,139.3a13.691,13.691,0,0,0,3.186-6.646c.625-3.544,1.4-8.6,1.219-10.877-.092-1.127-1.436-1.679-1.9-.017l-2.192,7.6-2.707,3.02Z" transform="translate(-97.746 -56.682)" fill="#fff"/>
        <path id="Trazado_192058" data-name="Trazado 192058" d="M209.824,139.869l-2.8-8.076,2.835-3.162,2.158-7.485c.4-1.427,1.323-1.454,1.6-1.425a1.6,1.6,0,0,1,1.343,1.547c.187,2.3-.563,7.259-1.226,11.012a14.227,14.227,0,0,1-3.309,6.9Zm-1.59-7.833,1.983,5.725a13.162,13.162,0,0,0,2.473-5.666c.921-5.218,1.352-9.034,1.214-10.742-.029-.355-.243-.563-.388-.577s-.342.184-.475.66l-2.227,7.722Z" transform="translate(-97.211 -56.213)" fill="#231f20"/>
        <path id="Trazado_192059" data-name="Trazado 192059" d="M49.747,256.5,49,257.977a8.462,8.462,0,0,0-.907,3.811v2.093a4.833,4.833,0,0,0,1.563,3.558,4.094,4.094,0,0,0,2.768,1.078h9.467l.185-12.022Z" transform="translate(-22.582 -120.44)" fill="#fff"/>
        <path id="Trazado_192060" data-name="Trazado 192060" d="M61.944,268.578h-9.99a4.609,4.609,0,0,1-3.127-1.218,5.377,5.377,0,0,1-1.735-3.949v-2.093a9.035,9.035,0,0,1,.964-4.05l.748-1.481a.53.53,0,1,1,.947.477L49,257.746a7.977,7.977,0,0,0-.85,3.573v2.093a4.313,4.313,0,0,0,1.391,3.167,3.554,3.554,0,0,0,2.409.939H60.9l.177-11.5a.53.53,0,0,1,.53-.522h.008a.531.531,0,0,1,.522.539Z" transform="translate(-22.112 -119.97)" fill="#231f20"/>
        <path id="Trazado_192061" data-name="Trazado 192061" d="M61.493,210.961,49.14,209.455l-1.875-15.616a65.236,65.236,0,0,1,.058-16.028l2.739-21.5,18.1,2.306-6.327,30.965Z" transform="translate(-21.975 -73.399)" fill="#fff"/>
        <path id="Trazado_192062" data-name="Trazado 192062" d="M61.025,210.967h-.009a.531.531,0,0,1-.522-.539l.353-21.474,6.213-30.4-17.008-2.167-2.672,20.97a64.808,64.808,0,0,0-.057,15.9L49.2,208.867a.53.53,0,0,1-1.053.126L46.27,193.377a65.821,65.821,0,0,1,.058-16.158L49.134,155.2l19.194,2.446L61.9,189.118l-.342,21.326a.53.53,0,0,1-.53.522" transform="translate(-21.506 -72.874)" fill="#231f20"/>
        <path id="Trazado_192063" data-name="Trazado 192063" d="M93.272,111.921l1.839,1.642c3.809,4.831,13.249,3.741,14-2.364l.977.13-1.976-18.45H96.635Z" transform="translate(-43.797 -43.613)" fill="#fff"/>
        <path id="Trazado_192064" data-name="Trazado 192064" d="M101.336,116.652a9.129,9.129,0,0,1-7.12-3.193l-2.026-1.808,3.492-19.77h12.4l2.1,19.6-1.137-.152a6.684,6.684,0,0,1-5.036,4.964,9.939,9.939,0,0,1-2.67.363m-8-5.4,1.682,1.513a8.373,8.373,0,0,0,8.7,2.5,5.512,5.512,0,0,0,4.357-4.6l.065-.533.838.113-1.854-17.3H96.572Z" transform="translate(-43.289 -43.143)" fill="#231f20"/>
        <path id="Trazado_192065" data-name="Trazado 192065" d="M110.122,86.823l-14.358-.141-2.17-17.845a3.281,3.281,0,0,1,3.213-3.677l13.76-.185c.51-.006,1-.045,1.5-.088a1.215,1.215,0,0,1,.872.422,5.489,5.489,0,0,1,1.374,1.916,7.8,7.8,0,0,1,.591,3.835,19.456,19.456,0,0,0-.24,2.671,12.907,12.907,0,0,0,.19,1.424,21.263,21.263,0,0,1,.05,6.328,10.42,10.42,0,0,1-.4,2.365,4.648,4.648,0,0,1-4.381,2.974" transform="translate(-43.937 -30.467)" fill="#fff"/>
        <path id="Trazado_192066" data-name="Trazado 192066" d="M133.926,83.413c-2.16-3.147-2.06-5.206-2.06-5.206l-.743,6.3h2.23a.7.7,0,0,0,.573-1.1" transform="translate(-61.57 -36.723)" fill="#fff"/>
        <path id="Trazado_192067" data-name="Trazado 192067" d="M109.7,86.884h-.049a.53.53,0,0,1,.005-1.061h.044a4.12,4.12,0,0,0,3.843-2.635,5.866,5.866,0,0,0,.293-1.55c.023-.233.047-.466.081-.7a20.658,20.658,0,0,0,.2-2.559,1.133,1.133,0,0,1,1.136-1.126.168.168,0,0,0,.138-.263,14.253,14.253,0,0,1-1.641-3.091l-.04-.208c-.017-.135-.033-.27-.04-.406a10.374,10.374,0,0,1,.138-1.888c.039-.284.077-.57.1-.855A6.859,6.859,0,0,0,112.8,65.97a4.153,4.153,0,0,0-.675-.73c-.2-.178-.359-.306-.478-.292-.535.045-1.021.082-1.538.09l-13.76.185A2.751,2.751,0,0,0,93.653,68.3l1.968,17.767a.53.53,0,1,1-1.055.117L92.6,68.426a3.811,3.811,0,0,1,3.734-4.265l13.76-.185c.483-.006.949-.043,1.463-.086a1.706,1.706,0,0,1,1.266.551,5.222,5.222,0,0,1,.844.919,7.919,7.919,0,0,1,1.3,5.279c-.028.3-.068.6-.109.9a9.485,9.485,0,0,0-.129,1.7c.005.108.019.215.033.322l0,.03a13.275,13.275,0,0,0,1.5,2.8,1.229,1.229,0,0,1-1.012,1.924.079.079,0,0,0-.075.083,21.658,21.658,0,0,1-.213,2.691c-.031.219-.053.438-.074.656a6.77,6.77,0,0,1-.359,1.826,5.179,5.179,0,0,1-4.833,3.314" transform="translate(-43.468 -29.998)" fill="#231f20"/>
        <path id="Trazado_192068" data-name="Trazado 192068" d="M68.624,151.4c-3.147-2.715-12.871-3.682-18.162-2.314l2.33-18.437a13.6,13.6,0,0,1,11.786-11.786l8.188.062Z" transform="translate(-23.695 -55.813)" fill="#ff9d93"/>
        <path id="Trazado_192069" data-name="Trazado 192069" d="M114.225,176.862H70.159l-1.182-19.021a86.518,86.518,0,0,0-1.912-13.491l-2.392-10.719a5.363,5.363,0,0,1-.108-.687c-.637-7.2,6.547-13.521,13.837-14.044a5.238,5.238,0,0,1,1.768.186l3.441.95c.157.043.316.081.476.109a22.725,22.725,0,0,0,6.714.194l11.9-1.429a5.46,5.46,0,0,1,.843-.036,12.845,12.845,0,0,1,12.313,14.069c-.011.108-.019.216-.023.325Z" transform="translate(-30.298 -55.817)" fill="#ff9d93"/>
        <path id="Trazado_192070" data-name="Trazado 192070" d="M114.4,176.924H69.321L68.109,157.4A86.28,86.28,0,0,0,66.208,144l-2.392-10.719a.53.53,0,1,1,1.035-.231l2.393,10.719a87.432,87.432,0,0,1,1.923,13.574l1.151,18.524h43.056l1.589-43.084c0-.119.014-.239.025-.357a12.315,12.315,0,0,0-11.8-13.488,4.877,4.877,0,0,0-.76.032l-11.9,1.43a23.277,23.277,0,0,1-6.871-.2c-.176-.032-.352-.073-.524-.12l-3.441-.95a4.706,4.706,0,0,0-1.588-.168.53.53,0,1,1-.076-1.058,5.774,5.774,0,0,1,1.947.2l3.441.949c.142.039.284.073.428.1a22.177,22.177,0,0,0,6.558.189l11.9-1.429a6.017,6.017,0,0,1,.925-.04,13.376,13.376,0,0,1,12.822,14.651c-.01.1-.017.2-.021.294Z" transform="translate(-29.959 -55.347)" fill="#231f20"/>
        <path id="Trazado_192071" data-name="Trazado 192071" d="M71.124,228.2h0a86.11,86.11,0,0,0-3.615,40.211l.858,5.8H89.991l2.823-17.983,4.344,18.195h24.919L115.19,228.2Z" transform="translate(-31.263 -107.152)" fill="#414042"/>
        <path id="Trazado_192072" data-name="Trazado 192072" d="M122.23,274.478H96.277l-3.83-15.912-2.465,15.7H67.446l-.925-6.249a87.016,87.016,0,0,1,3.638-40.458l.122-.361h44.9Zm-25.117-1.061H121l-6.729-45.157H71.043a85.972,85.972,0,0,0-3.472,39.6l.791,5.343H89.075l2.638-16.8a.527.527,0,0,1,.144-.289l-.924-3.84a.53.53,0,1,1,1.031-.249Z" transform="translate(-30.801 -106.683)" fill="#231f20"/>
        <path id="Trazado_192073" data-name="Trazado 192073" d="M178.5,158.877l-11.637-4.916-2.37,9.189-3.328-5.765-15.856,9.154,11,17.236a9.648,9.648,0,0,0,17.553-3.1Z" transform="translate(-68.232 -72.294)" fill="#fff"/>
        <path id="Trazado_192074" data-name="Trazado 192074" d="M197.262,139.776l6.965-8.26a13.692,13.692,0,0,0,3.186-6.645c.625-3.545,1.4-8.6,1.219-10.877-.092-1.127-1.436-1.679-1.9-.018l-2.193,7.6-2.707,3.02a6.307,6.307,0,0,1-7.821,1.269l-2.062-2.4-3.54-8.27c-.763-1.388-2.329-1.325-2.1,1.252l.358,8.154c-2.592,4.652.3,6.055-.506,8.834l-.4,1.258Z" transform="translate(-87.132 -53.026)" fill="#fff"/>
        <path id="Trazado_192075" data-name="Trazado 192075" d="M196.8,139.838a.53.53,0,0,1-.405-.873l6.965-8.26a13.171,13.171,0,0,0,3.069-6.4c.921-5.221,1.352-9.036,1.213-10.742a.591.591,0,0,0-.388-.577c-.15-.023-.342.186-.475.66l-2.227,7.722-2.789,3.111a6.875,6.875,0,0,1-8.478,1.375l-.08-.045-2.207-2.609-3.54-8.27c-.252-.452-.6-.617-.747-.573-.186.057-.43.521-.337,1.57l.367,8.328-.073.131a6.143,6.143,0,0,0-.657,5.535,5.382,5.382,0,0,1,.2,3.19l-.4,1.269a.53.53,0,1,1-1.012-.318l.4-1.258a4.412,4.412,0,0,0-.2-2.593,7.152,7.152,0,0,1,.678-6.208L185.312,116c-.181-2.04.7-2.537,1.086-2.655a1.829,1.829,0,0,1,2.009,1.123l3.531,8.241,1.947,2.269a5.808,5.808,0,0,0,7.084-1.206l2.626-2.93,2.159-7.485c.4-1.426,1.322-1.454,1.6-1.426a1.6,1.6,0,0,1,1.343,1.547c.187,2.3-.563,7.258-1.226,11.012a14.219,14.219,0,0,1-3.31,6.9l-6.958,8.253a.53.53,0,0,1-.406.188" transform="translate(-86.666 -52.557)" fill="#231f20"/>
        <path id="Trazado_192076" data-name="Trazado 192076" d="M155.849,151.239a17.653,17.653,0,0,0-15.856,9.154l-12.619-21.856,15.856-9.154Z" transform="translate(-59.81 -60.753)" fill="#ff9d93"/>
        <path id="Trazado_192077" data-name="Trazado 192077" d="M157.513,155.556a.53.53,0,0,1-.342-.936,18.176,18.176,0,0,1,11.313-4.4l-12.147-21.039a.53.53,0,0,1,.919-.53l12.289,21.285a.9.9,0,0,1-.794,1.345h-.129a17.07,17.07,0,0,0-10.767,4.154.528.528,0,0,1-.342.126m11.113-5.094h0Z" transform="translate(-73.376 -60.282)" fill="#231f20"/>
        <path id="Trazado_192078" data-name="Trazado 192078" d="M94.41,112.094s7.621,4.188,14.485.793l5.035,3.071s-12.655,3.336-21.42-.213Z" transform="translate(-43.439 -52.635)" fill="#5a595b"/>
        <path id="Trazado_192079" data-name="Trazado 192079" d="M101.731,117.279a27.233,27.233,0,0,1-10.075-1.685l-.541-.219,2.419-4.649.475.26c.074.041,7.466,4.011,13.995.783l.262-.129,6.348,3.872-1.2.317a50.68,50.68,0,0,1-11.68,1.451M92.6,114.821c6.862,2.507,15.99.965,19.287.269l-3.677-2.243c-6.035,2.817-12.43.177-14.226-.685Z" transform="translate(-42.784 -51.992)" fill="#231f20"/>
        <path id="Trazado_192080" data-name="Trazado 192080" d="M139.038,169.456l2.985,31.16h7.19l.726-14.277s-7-12.857-10.9-16.883" transform="translate(-65.286 -79.569)" fill="#231f20"/>
        <path id="Trazado_192081" data-name="Trazado 192081" d="M107.935,52.323a21.063,21.063,0,0,0-3.659-.641,29.872,29.872,0,0,0-3.23-.167,14.057,14.057,0,0,0-2,.165c-5.075.809-12.027,3.237-12.869,9.11a13.025,13.025,0,0,0,1.095,7.489c.564,1.127,1.079,2.278,1.588,3.43.49,1.109,1.013,2.2,1.467,3.33a22.33,22.33,0,0,1,.848,3.366,2.59,2.59,0,0,0,.756,1.391,4.187,4.187,0,0,0,3.925.45,6.95,6.95,0,0,0,2.551-3.334c.985-2.363.357-5.121,1.127-7.562a13.714,13.714,0,0,1,1.19-2.516,3.812,3.812,0,0,1,2.594-2.072,6.4,6.4,0,0,0,2.12-1.523c.563-.5.7-.467,1.4-.258a6.6,6.6,0,0,0,4.929-.286,4.8,4.8,0,0,0,2.556-3.838,5.622,5.622,0,0,0-2.262-4.523,11.351,11.351,0,0,0-4.119-2.01" transform="translate(-40.4 -24.188)" fill="#414042"/>
        <path id="Trazado_192082" data-name="Trazado 192082" d="M110.818,81.118c1.163,2.062.841,4.448-.721,5.329s-3.77-.076-4.934-2.137-.841-4.447.721-5.328,3.77.076,4.934,2.137" transform="translate(-49.052 -36.932)" fill="#fff"/>
        <path id="Trazado_192083" data-name="Trazado 192083" d="M108.349,86.837A3.9,3.9,0,0,1,106.8,86.5a5.835,5.835,0,0,1-3.294-5.837,3.41,3.41,0,0,1,1.648-2.612,3.758,3.758,0,0,1,4.154.578.531.531,0,0,1-.652.838,2.725,2.725,0,0,0-2.981-.492,2.376,2.376,0,0,0-1.117,1.831,4.777,4.777,0,0,0,2.664,4.721,2.373,2.373,0,0,0,2.144-.01.531.531,0,0,1,.522.925,3.107,3.107,0,0,1-1.539.4" transform="translate(-48.582 -36.463)" fill="#231f20"/>
        <path id="Trazado_192084" data-name="Trazado 192084" d="M114.672,86.291a.775.775,0,0,0,.037-.151,5.092,5.092,0,0,0-.033-.756q-.023-.73-.047-1.461c-.032-.974-.195-1.475-.226-2.45-.056-1.739-.354-3.813-.3-5.55.022-.654.674-.643.832-.232a6.522,6.522,0,0,1,.205,1.907q.08,2.19.161,4.379a6.219,6.219,0,0,0,2,4.411,2.621,2.621,0,0,0,2.262.785,1.6,1.6,0,0,0,.983-.774,12.557,12.557,0,0,0,.535-1.694,2.263,2.263,0,0,1,.226-.44,1.362,1.362,0,0,1,.709-.515,4.39,4.39,0,0,1,2.137-.158,1.194,1.194,0,0,1,.821.449,2.432,2.432,0,0,1,.27,1.345,27.64,27.64,0,0,1-.489,5.225,5.851,5.851,0,0,1-.651,1.97,2.889,2.889,0,0,1-2.71,1.151,8.79,8.79,0,0,1-2.813-.321,18.761,18.761,0,0,1-2.732-1.079,4,4,0,0,1-1.038-.663,2.92,2.92,0,0,1-.669-1.046,4.858,4.858,0,0,1,.157-3.6c.092-.23.286-.484.371-.728" transform="translate(-53.467 -35.406)" fill="#414042"/>
        <path id="Trazado_192085" data-name="Trazado 192085" d="M128.609,77.756a.527.527,0,0,1-.322-.109,3.565,3.565,0,0,0-3.558-.3.53.53,0,1,1-.45-.96,4.626,4.626,0,0,1,4.655.417.53.53,0,0,1-.325.95" transform="translate(-58.213 -35.658)" fill="#231f20"/>
        <path id="Trazado_192086" data-name="Trazado 192086" d="M126.733,82.039a.886.886,0,1,0,.96-.964.97.97,0,0,0-.96.964" transform="translate(-59.506 -38.068)" fill="#231f20"/>
        <path id="Trazado_192087" data-name="Trazado 192087" d="M50.415,149.046a.845.845,0,0,1-.842-.954l2.272-17.98a14.124,14.124,0,0,1,12.245-12.246l.035,0,8.224.062a.53.53,0,0,1,0,1.061h0l-8.153-.061A13.062,13.062,0,0,0,52.9,130.244l-2.235,17.683a29.063,29.063,0,0,1,7.4-.388.531.531,0,0,1,.5.563.538.538,0,0,1-.563.5,27.266,27.266,0,0,0-7.392.427.87.87,0,0,1-.188.021" transform="translate(-23.274 -55.343)" fill="#231f20"/>
        <path id="Trazado_192088" data-name="Trazado 192088" d="M55.983,273.981a.539.539,0,0,1-.162-.025.531.531,0,0,1-.343-.668c1-3.1-.448-4.433-.51-4.489a.533.533,0,0,1-.049-.746.528.528,0,0,1,.742-.057c.084.072,2.053,1.806.827,5.618a.531.531,0,0,1-.5.368" transform="translate(-25.727 -125.78)" fill="#231f20"/>
        <path id="Trazado_192089" data-name="Trazado 192089" d="M61.983,273.981a.539.539,0,0,1-.162-.025.531.531,0,0,1-.343-.668c1-3.1-.448-4.433-.51-4.489a.533.533,0,0,1-.049-.746.527.527,0,0,1,.742-.057c.084.072,2.053,1.806.827,5.618a.531.531,0,0,1-.5.368" transform="translate(-28.544 -125.78)" fill="#231f20"/>
        <path id="Trazado_192090" data-name="Trazado 192090" d="M177.973,162.817a.772.772,0,0,1-.669-.387l-3.03-5.249a.531.531,0,0,1,.919-.53l2.679,4.641,2.045-7.932a.531.531,0,1,1,1.027.265l-2.221,8.612a.771.771,0,0,1-.645.573.8.8,0,0,1-.106.007" transform="translate(-81.798 -71.824)" fill="#231f20"/>
        <path id="Trazado_192091" data-name="Trazado 192091" d="M159.2,192.654a9.993,9.993,0,0,1-8.5-4.712l-16.289-23.966a.531.531,0,1,1,.877-.6l16.3,23.98a9.117,9.117,0,0,0,16.6-2.92l4.64-21.791a.53.53,0,1,1,1.038.221l-4.641,21.795a10.022,10.022,0,0,1-8.166,7.827,10.658,10.658,0,0,1-1.851.164" transform="translate(-63.071 -76.176)" fill="#231f20"/>
        <path id="Trazado_192092" data-name="Trazado 192092" d="M182.063,177.34a.556.556,0,0,1-.124-.014.531.531,0,0,1-.393-.639,2.4,2.4,0,0,0-.224-2.119.536.536,0,0,1,.039-.746.525.525,0,0,1,.738.023,3.353,3.353,0,0,1,.48,3.088.531.531,0,0,1-.516.407" transform="translate(-85.079 -81.554)" fill="#231f20"/>
        <path id="Trazado_192093" data-name="Trazado 192093" d="M188.529,153.054h-.047a.53.53,0,0,1,0-1.061h.043a2.379,2.379,0,0,0,1.976-.695.536.536,0,0,1,.735-.129.525.525,0,0,1,.143.724,3.337,3.337,0,0,1-2.855,1.161" transform="translate(-88.256 -70.939)" fill="#231f20"/>
        <path id="Trazado_192094" data-name="Trazado 192094" d="M138.569,251.9a.53.53,0,0,1-.227-1.01c9.111-4.292,6.826-12.627,6.724-12.979a.53.53,0,0,1,1.018-.3c.028.1,2.655,9.55-7.29,14.235a.521.521,0,0,1-.226.051" transform="translate(-64.817 -111.393)" fill="#231f20"/>
        <path id="Trazado_192095" data-name="Trazado 192095" d="M264.613,315.547H8.886a.53.53,0,0,1,0-1.061H264.613a.53.53,0,1,1,0,1.061" transform="translate(-3.924 -147.669)" fill="#231f20"/>
        <path id="Trazado_192096" data-name="Trazado 192096" d="M370.035,61.057a16.04,16.04,0,0,0-12.31-1.24c-4.117,1.474-3.389,5.892-2.111,8.994a45.224,45.224,0,0,1,2.183,6.767c1.619,6.807.172,13.218,6.1,18.246a16.551,16.551,0,0,0,9.158,4.117,10.6,10.6,0,0,0,9.108-3.618,10.172,10.172,0,0,0,2.046-5.235c.251-2.217-.611-4.228-.565-6.361.015-.716.428-1.3.373-2.026-.087-1.151-.988-2.56-1.443-3.614a54.023,54.023,0,0,0-3.716-7.308,24.18,24.18,0,0,0-8.827-8.722" transform="translate(-166.511 -27.748)" fill="#414042"/>
        <path id="Trazado_192097" data-name="Trazado 192097" d="M387.5,107.818H374.685l1.894-20.4H386.2Z" transform="translate(-175.937 -41.047)" fill="#fff"/>
        <path id="Trazado_192098" data-name="Trazado 192098" d="M387.554,107.879H373.588l1.992-21.463h10.6Zm-12.8-1.061h11.672l-1.234-19.341h-8.641Z" transform="translate(-175.421 -40.577)" fill="#231f20"/>
        <path id="Trazado_192099" data-name="Trazado 192099" d="M379.833,61.408l-14.631-.34a2.84,2.84,0,0,0-2.906,2.839v2.9a10.034,10.034,0,0,1-2.737,6.924c-.147.155-.287.291-.414.406a.374.374,0,0,0,.083.622l1.075.416V77.7a4.483,4.483,0,0,0,4.483,4.483h15.849l2.262-17.2a3.166,3.166,0,0,0-3.065-3.578" transform="translate(-168.579 -28.675)" fill="#fff"/>
        <path id="Trazado_192100" data-name="Trazado 192100" d="M380.632,82.246H364.318a5.02,5.02,0,0,1-5.014-5.014V75.065l-.736-.285a.9.9,0,0,1-.247-1.511c.119-.107.248-.233.385-.377a9.455,9.455,0,0,0,2.591-6.558v-2.9a3.37,3.37,0,0,1,3.448-3.369l14.63.341a3.7,3.7,0,0,1,3.579,4.177Zm-21.423-8.354,1.156.447v2.894a3.957,3.957,0,0,0,3.953,3.953H379.7l2.2-16.738a2.635,2.635,0,0,0-2.552-2.978l-14.631-.341a2.31,2.31,0,0,0-2.363,2.308v2.9a10.513,10.513,0,0,1-2.883,7.29q-.138.145-.266.268" transform="translate(-168.109 -28.205)" fill="#231f20"/>
        <path id="Trazado_192101" data-name="Trazado 192101" d="M376.122,184.094l6.231-.735-5.147-.381c-1.076-.149-1.291-1.268-.077-1.3l10.822-1.239,3.5-.379a1.232,1.232,0,0,0,.946-1.378c-.1-.7-.713-1.52-2.208-2.169l-.892-3,7.732,3.064a7.151,7.151,0,0,1,1.383.747l1.487,1.03,5.564-1.141-7.7-15.655c1.469-4.314,12.043-9.515,16.356-8.045l9.307,18.923h0l1.933,3.938a10.594,10.594,0,0,1-10.869,15.173l-14.381-1.482-1.131.433a6.847,6.847,0,0,1-1.841.426c-3.353.3-17.008-1.011-18.984-1.584-.8-.231-.944-1.17,0-1.226l6.708.119-7.773-.828c-.818-.148-1.016-1.137,0-1.2l6.558-.282-7.451-.5a.666.666,0,1,1-.071-1.33" transform="translate(-176.306 -71.962)" fill="#fff"/>
        <path id="Trazado_192102" data-name="Trazado 192102" d="M415.441,191.7a11.637,11.637,0,0,1-1.491-.1l-14.241-1.468-1.014.388a7.382,7.382,0,0,1-1.983.459c-3.413.3-17.173-1.022-19.179-1.6a1.314,1.314,0,0,1-1.03-1.334.987.987,0,0,1,.264-.562l-.206-.022A1.289,1.289,0,0,1,375.4,186.2a.99.99,0,0,1,.368-.708l-.077-.005a1.213,1.213,0,0,1-1.067-.622,1.246,1.246,0,0,1,.03-1.23,1.117,1.117,0,0,1,.973-.539l.845-.1a1.361,1.361,0,0,1-1.163-1.291c.024-.457.389-1,1.337-1.03l14.242-1.611a.7.7,0,0,0,.515-.775c-.1-.638-.787-1.28-1.895-1.761l-.227-.1-1.274-4.284,8.746,3.466a7.636,7.636,0,0,1,1.491.8l1.3.9,4.669-.958-7.5-15.237.071-.208c.865-2.539,4.379-5.021,7.38-6.5s7.111-2.746,9.65-1.88l.208.071.1.2,11.242,22.862a11.129,11.129,0,0,1-9.922,16.029m-15.875-2.645,14.507,1.495a10.063,10.063,0,0,0,10.339-14.412L413.271,153.48c-1.885-.512-5.232.216-8.636,1.89s-6.024,3.882-6.768,5.687l7.9,16.066-6.459,1.324-1.674-1.16a6.638,6.638,0,0,0-1.281-.692l-6.713-2.66.512,1.721c1.793.847,2.208,1.9,2.293,2.473a1.771,1.771,0,0,1-1.35,1.974l-.063.01-3.5.379-10.818,1.239a.931.931,0,0,0-.332.057.652.652,0,0,0,.422.2l5.113.378.023,1.056-6.27.739h-.039c-.062-.013-.072.015-.082.031a.183.183,0,0,0,0,.166c.025.046.086.07.183.072l7.475.5-.013,1.059-6.558.282a.585.585,0,0,0-.158.028.388.388,0,0,0,.23.117l7.734.823-.065,1.058-6.708-.118a.373.373,0,0,0-.1.02.437.437,0,0,0,.253.165c1.851.537,15.507,1.859,18.789,1.565a6.282,6.282,0,0,0,1.7-.393Z" transform="translate(-175.838 -71.493)" fill="#231f20"/>
        <path id="Trazado_192103" data-name="Trazado 192103" d="M381.444,219.621a18.794,18.794,0,0,1,2.093,1.749,25.889,25.889,0,0,1,7.9,21.69l-3.03,27.193-21.866-.208.412-22.314-9.526,22.658-21.8-.206,4.182-27.768a56.8,56.8,0,0,1,6.678-22.794Z" transform="translate(-157.596 -103.125)" fill="#414042"/>
        <path id="Trazado_192104" data-name="Trazado 192104" d="M356.887,270.45h0l-22.414-.212,4.273-28.373a56.88,56.88,0,0,1,6.736-22.967l.15-.278h35.437l.135.091a19.237,19.237,0,0,1,2.159,1.8,26.541,26.541,0,0,1,8.066,22.134l-3.083,27.669-22.88-.218.422-22.848a.543.543,0,0,1,.54-.521.531.531,0,0,1,.52.541l-.4,21.778,20.851.2,2.978-26.716a25.477,25.477,0,0,0-7.741-21.246,20.163,20.163,0,0,0-1.9-1.6h-34.47a55.9,55.9,0,0,0-6.467,22.3l-4.1,27.2,21.193.2a.53.53,0,0,1,0,1.061" transform="translate(-157.052 -102.655)" fill="#231f20"/>
        <path id="Trazado_192105" data-name="Trazado 192105" d="M351.632,118.9h32.6a9.114,9.114,0,0,1,8.571,5.084l7.771,16.026c-3.127-.38-11.322,5.569-11.322,5.569L385.4,172.322H350.444l-6.429-44.63a7.7,7.7,0,0,1,7.617-8.793" transform="translate(-161.498 -55.826)" fill="#ff8578"/>
        <path id="Trazado_192106" data-name="Trazado 192106" d="M325.061,141.533l17.5,9.5,9.379-17.044a9.954,9.954,0,1,0-17.5-9.5Z" transform="translate(-152.635 -56.01)" fill="#ff8578"/>
        <path id="Trazado_192107" data-name="Trazado 192107" d="M355.307,173.327l-3.774,6.847,2.479,17.709Z" transform="translate(-165.065 -81.387)" fill="#231f20"/>
        <path id="Trazado_192108" data-name="Trazado 192108" d="M299.155,139.194l.4-3.845a4.08,4.08,0,0,0-3.007-4.364l-1.824-.487.82,6.971Z" transform="translate(-138.39 -61.276)" fill="#fff"/>
        <path id="Trazado_192109" data-name="Trazado 192109" d="M299.058,139.365l-4.554-2.177-.945-8.036,2.579.688a4.588,4.588,0,0,1,3.4,4.931Zm-3.569-2.881,2.669,1.275.322-3.1a3.535,3.535,0,0,0-2.616-3.8l-1.069-.285Z" transform="translate(-137.843 -60.644)" fill="#231f20"/>
        <path id="Trazado_192110" data-name="Trazado 192110" d="M321.646,162.247c-1.327-4.48-11.943-10.243-16.423-8.917l-4.372,7.981-8.345-11.127c-4.48-1.327-11.421,1.9-12.748,6.381l11.556,23.958a11.439,11.439,0,0,0,19.789-.006l.19-.327h0Z" transform="translate(-131.363 -70.379)" fill="#fff"/>
        <path id="Trazado_192111" data-name="Trazado 192111" d="M300.737,192.2a11.85,11.85,0,0,1-10.351-5.96l-11.575-23.993a.531.531,0,0,1,.956-.461l11.556,23.957a10.788,10.788,0,0,0,9.415,5.4h0a10.8,10.8,0,0,0,9.433-5.437l.19-.327,12.157-20.627.913.539-12.342,20.947a11.85,11.85,0,0,1-10.352,5.966Z" transform="translate(-130.893 -75.825)" fill="#231f20"/>
        <path id="Trazado_192112" data-name="Trazado 192112" d="M311.736,162.085,302.9,150.3a.53.53,0,0,1,.849-.636l7.852,10.468,4.082-7.451.21-.063c3.029-.9,8.36,1.182,12.061,3.7a.531.531,0,0,1-.6.877c-3.9-2.651-8.538-4.172-10.957-3.614Z" transform="translate(-142.177 -70.176)" fill="#231f20"/>
        <path id="Trazado_192113" data-name="Trazado 192113" d="M288.235,128.853a17.615,17.615,0,0,0-3.657-7.722l-9.386-11.819c-1.19-1.621-2.989-.735-1.7,1.342l4.291,7.135a2.281,2.281,0,0,1,.08,2.2,1.963,1.963,0,0,0-.309-.114,1.209,1.209,0,0,0-1.325.4c-.263.408-.169.991-.49,1.356-.54.613-1.751.1-2.257.742-.33.419-.145,1.109-.524,1.485-.247.245-.644.257-.934.449a1.653,1.653,0,0,0-.543,1.353,12.877,12.877,0,0,0,.478,4.177l.411,1.778a9.81,9.81,0,0,0,3.492,5.5l12.747-6.382Z" transform="translate(-127.469 -50.935)" fill="#fff"/>
        <path id="Trazado_192114" data-name="Trazado 192114" d="M275.4,137.183a.528.528,0,0,1-.328-.114,10.375,10.375,0,0,1-3.681-5.8l-.411-1.778a13.266,13.266,0,0,1-.492-4.324,2.142,2.142,0,0,1,.78-1.768,2.249,2.249,0,0,1,.537-.241,1,1,0,0,0,.316-.142,1.031,1.031,0,0,0,.135-.469,1.963,1.963,0,0,1,.346-.967,1.922,1.922,0,0,1,1.514-.584c.329-.022.64-.042.762-.181a1.16,1.16,0,0,0,.156-.472,2.266,2.266,0,0,1,.286-.82,1.7,1.7,0,0,1,1.756-.663,1.738,1.738,0,0,0-.211-1.269l-4.291-7.136c-.878-1.411-.518-2.369.059-2.759.633-.43,1.7-.283,2.521.83l9.373,11.8a18.2,18.2,0,0,1,3.762,7.948l.378,1.887a.53.53,0,0,1-1.04.208l-.378-1.887A17.141,17.141,0,0,0,283.7,121l-9.391-11.826c-.43-.585-.9-.718-1.083-.6s-.2.6.252,1.328l4.295,7.142a2.8,2.8,0,0,1,.1,2.717l-.231.457-.465-.215a1.539,1.539,0,0,0-.226-.084.7.7,0,0,0-.74.179,1.444,1.444,0,0,0-.137.455,1.96,1.96,0,0,1-.4.964,2.007,2.007,0,0,1-1.488.538c-.33.022-.641.042-.752.182a1.18,1.18,0,0,0-.129.472,1.476,1.476,0,0,1-1.159,1.453,1.37,1.37,0,0,0-.293.122c-.179.117-.278.424-.3.937a12.279,12.279,0,0,0,.459,4l.418,1.8a9.308,9.308,0,0,0,3.3,5.2.53.53,0,0,1-.328.947" transform="translate(-127 -50.466)" fill="#231f20"/>
        <path id="Trazado_192115" data-name="Trazado 192115" d="M356.078,219.591l13.6.08,13.519.079,7.616.045a.264.264,0,0,0,0-.528l-13.57-.08-13.534-.08-7.635-.045a.264.264,0,0,0,0,.528" transform="translate(-167.08 -102.863)" fill="#fff"/>
        <path id="Trazado_192116" data-name="Trazado 192116" d="M366.54,91.586a.83.83,0,1,0,.184-1.109.8.8,0,0,0-.184,1.109" transform="translate(-172.041 -42.396)" fill="#ff5722"/>
        <path id="Trazado_192117" data-name="Trazado 192117" d="M365.8,91.553a.53.53,0,0,1-.024-1.06.968.968,0,0,0,.694-.246.663.663,0,0,0,.151-.431.535.535,0,0,1,.492-.562.52.52,0,0,1,.565.477,1.709,1.709,0,0,1-.4,1.206,1.959,1.959,0,0,1-1.451.616H365.8" transform="translate(-171.515 -41.909)" fill="#231f20"/>
        <path id="Trazado_192118" data-name="Trazado 192118" d="M318.456,179.916a.53.53,0,0,1-.448-.813,4.468,4.468,0,0,0,.635-4.256.531.531,0,0,1,.944-.485,5.482,5.482,0,0,1-.682,5.307.53.53,0,0,1-.449.248" transform="translate(-149.285 -81.74)" fill="#231f20"/>
        <path id="Trazado_192119" data-name="Trazado 192119" d="M433.829,200.418a.53.53,0,0,1-.476-.294,2.943,2.943,0,0,0-2.155-1.817.531.531,0,0,1,.078-1.059,3.962,3.962,0,0,1,3.027,2.4.53.53,0,0,1-.239.711.522.522,0,0,1-.236.056" transform="translate(-202.245 -92.619)" fill="#231f20"/>
        <path id="Trazado_192120" data-name="Trazado 192120" d="M369.9,74.438a.527.527,0,0,1-.323-.11,3.566,3.566,0,0,0-3.557-.3.53.53,0,1,1-.45-.961,4.628,4.628,0,0,1,4.655.417.53.53,0,0,1-.325.95" transform="translate(-171.513 -34.1)" fill="#231f20"/>
        <path id="Trazado_192121" data-name="Trazado 192121" d="M368.025,78.721a.886.886,0,1,0,.96-.964.969.969,0,0,0-.96.964" transform="translate(-172.807 -36.51)" fill="#231f20"/>
        <path id="Trazado_192122" data-name="Trazado 192122" d="M405.511,140.071a.53.53,0,0,1-.477-.3l-7.772-16.027a8.591,8.591,0,0,0-8.071-4.786H354.975a.53.53,0,1,1,0-1.061h34.173a9.656,9.656,0,0,1,9.067,5.381l7.772,16.029a.531.531,0,0,1-.477.762" transform="translate(-166.433 -55.356)" fill="#231f20"/>
        <path id="Trazado_192123" data-name="Trazado 192123" d="M388.959,191.8H353.083l-2.545-17.664a.53.53,0,1,1,1.05-.151L354,190.739H388.04l3.617-25.113a3.274,3.274,0,0,1,1.387-2.232,48.158,48.158,0,0,1,7.082-4.108.53.53,0,0,1,.423.973,47.068,47.068,0,0,0-6.906,4.011,2.21,2.21,0,0,0-.935,1.507Z" transform="translate(-164.595 -74.773)" fill="#231f20"/>
        <path id="Trazado_192124" data-name="Trazado 192124" d="M392.319,71.418c0-.017,0-.034,0-.051-.039-2.8.274-5.6.007-8.384C390.877,47.884,376.3,44,363.376,45.429a13.455,13.455,0,0,0-5.612,1.62c-3.6,2.208-3.829,5.554-1.853,9.044a5.653,5.653,0,0,0,3.984,2.987,6.737,6.737,0,0,0,2.954-.427,17.152,17.152,0,0,0,5.73-3.254c-1.469,1.264,3.126,6.7,3.567,7.681,2.637,5.86-4.091,11.741-6.244,16.788-2.976,6.977-2.99,15.4,1.2,21.964,4.761,7.464,14.777,10.392,23,7.4,6.583-2.4,8.952-10.1,8.334-16.464-.354-3.646-2.4-6.147-3.74-9.522a33.512,33.512,0,0,1-2.374-11.828" transform="translate(-166.539 -21.203)" fill="#414042"/>
        <path id="Trazado_192125" data-name="Trazado 192125" d="M385.524,76.442c-1.286,2.228-.961,4.823.726,5.8s4.1-.042,5.384-2.27.961-4.823-.726-5.8-4.1.042-5.384,2.27" transform="translate(-180.656 -34.655)" fill="#fff"/>
        <path id="Trazado_192126" data-name="Trazado 192126" d="M388.264,82.665a3.314,3.314,0,0,1-1.67-.437.531.531,0,1,1,.53-.919c1.43.826,3.521-.1,4.659-2.075s.9-4.247-.532-5.073c-1.242-.719-3.074-.081-4.263,1.479a.53.53,0,0,1-.844-.643c1.536-2.016,3.907-2.755,5.638-1.756,1.938,1.119,2.351,4.045.921,6.522a5.416,5.416,0,0,1-4.439,2.9" transform="translate(-181.267 -34.184)" fill="#231f20"/>
        <path id="Trazado_192127" data-name="Trazado 192127" d="M325.151,140.9a.531.531,0,0,1-.464-.786l9.379-17.044a10.516,10.516,0,0,1,6.664-5.165.53.53,0,0,1,.258,1.029A9.451,9.451,0,0,0,335,123.581l-9.381,17.046a.53.53,0,0,1-.465.275" transform="translate(-152.428 -55.356)" fill="#231f20"/>
        <path id="Trazado_192128" data-name="Trazado 192128" d="M376.263,286.872a.531.531,0,0,1-.479-.758c.111-.234,11.106-23.49,11.7-32.027a.537.537,0,0,1,.566-.492.531.531,0,0,1,.492.566c-.609,8.736-11.345,31.446-11.8,32.408a.531.531,0,0,1-.479.3" transform="translate(-176.428 -119.077)" fill="#231f20"/>
      </g>
    </g>
  </g>
</svg>
