<svg xmlns="http://www.w3.org/2000/svg" xmlns:xlink="http://www.w3.org/1999/xlink" width="294" height="194" viewBox="0 0 294 194">
  <defs>
    <clipPath id="clip-path">
      <rect id="Rectángulo_43117" data-name="Rectángulo 43117" width="267.344" height="162.891" fill="none"/>
    </clipPath>
  </defs>
  <g id="Grupo_156490" data-name="Grupo 156490" transform="translate(-420 -3647.5)">
    <rect id="Rectángulo_43109" data-name="Rectángulo 43109" width="294" height="194" transform="translate(420 3647.5)" fill="none"/>
    <g id="Grupo_156483" data-name="Grupo 156483" transform="translate(433.328 3663.054)">
      <g id="Grupo_156482" data-name="Grupo 156482" clip-path="url(#clip-path)">
        <path id="Trazado_191651" data-name="Trazado 191651" d="M263.95,116.223a61.91,61.91,0,0,0-1.543-15.075C258.182,83.4,244.848,69.673,230.29,59.54c-9.768-6.8-21.671-9.866-31.434-16.962-10.945-7.954-18.886-18.626-31.06-25.544-12.335-7.008-29.059-9.705-44.044-7.657-7.331,1-16.124,3.007-22.258,7.427-8.585,6.186-15.428,14.2-22.977,21.524-7.006,6.8-15.584,11.362-24.242,15.718C38.993,61.733,24.538,72.058,15.23,86.41c-7.64,11.78-8.262,25.532-3.686,38.577,2.946,8.4,7.985,15.795,13.424,22.763,2.664,3.413,11.169,17.79,15.7,17.61,20.821-.829,42.471.113,63.463.2l80.052.312c11.325.044,24.23,1.57,34.85-1.428,11.478-3.241,24.959-5.975,33.567-14.913,8.294-8.611,11.176-21.712,11.355-33.3" transform="translate(-3.928 -3.95)" fill="#ffe7e4"/>
        <path id="Trazado_191652" data-name="Trazado 191652" d="M413.347,137.446c-.82-1.728-2.731-3.451-3.958-4.919-1.872-2.241-4.48-3.716-7.028-5.143l-.374.2a22.3,22.3,0,0,0-1.47,12.053,13.388,13.388,0,0,0,6.92,9.628c2.711,1.3,5.914,1.473,8.444,3.1.652-8.362-.312-10.233-2.534-14.921" transform="translate(-181.478 -57.763)" fill="#ff968b"/>
        <path id="Trazado_191653" data-name="Trazado 191653" d="M445.6,90.279a1.209,1.209,0,0,0-.473-.637,1.077,1.077,0,0,0-.891.02c-4.45,1.815-10.1,8.234-12.392,12.383-2.885,5.226-1.963,11.549-1.283,17.563,2.222-3.507,8.434-5.261,11.593-8.17,5.608-5.163,6.468-14.162,3.445-21.16" transform="translate(-194.922 -40.608)" fill="#ff968b"/>
        <path id="Trazado_191654" data-name="Trazado 191654" d="M460.741,195.485a.581.581,0,0,0-.449-.149l-6.734-.242a23.754,23.754,0,0,0-5.813.268,21.155,21.155,0,0,0-10.681,6.564s7.229,2.881,10.868,3.423,7.732-.2,10.149-2.977a13.935,13.935,0,0,0,2.7-6.4.58.58,0,0,0-.042-.484" transform="translate(-198.187 -88.442)" fill="#ff968b"/>
        <path id="Trazado_191655" data-name="Trazado 191655" d="M427.783,201.92h-.007a.547.547,0,0,1-.539-.554l1.17-91.866A21.829,21.829,0,0,1,436,93.177l7.036-6.052a.547.547,0,0,1,.713.829l-7.036,6.052a20.738,20.738,0,0,0-7.214,15.508l-1.17,91.867a.546.546,0,0,1-.547.539" transform="translate(-193.73 -39.447)" fill="#231f20"/>
        <path id="Trazado_191656" data-name="Trazado 191656" d="M420.549,165.708h0a.546.546,0,0,1-.542-.551l.118-15.436a22.442,22.442,0,0,0-6.161-15.659l-4.271-4.518a.546.546,0,1,1,.794-.75l4.272,4.518a23.529,23.529,0,0,1,6.46,16.418l-.118,15.436a.546.546,0,0,1-.547.542" transform="translate(-185.705 -58.324)" fill="#231f20"/>
        <path id="Trazado_191657" data-name="Trazado 191657" d="M428.891,213.43h-.006a.547.547,0,0,1-.541-.553,18.48,18.48,0,0,1,16-18.22c4.847-.681,7.972-.8,9.555-.36a.547.547,0,0,1-.292,1.054c-.973-.271-3.343-.422-9.111.389a17.393,17.393,0,0,0-15.057,17.149.547.547,0,0,1-.547.541" transform="translate(-194.233 -87.987)" fill="#231f20"/>
        <path id="Trazado_191658" data-name="Trazado 191658" d="M417.983,188.9a18.793,18.793,0,0,0-2.675-3.326,16.325,16.325,0,0,0-4.751-3.477l-.253.136a15.079,15.079,0,0,0-.994,8.149,9.048,9.048,0,0,0,4.678,6.509c1.833.882,4,1,5.708,2.1.441-5.653-.21-6.918-1.713-10.087" transform="translate(-185.509 -82.571)" fill="#ff968b"/>
        <path id="Trazado_191659" data-name="Trazado 191659" d="M439.789,157.011a.817.817,0,0,0-.32-.431.727.727,0,0,0-.6.014c-3.008,1.226-6.829,5.566-8.378,8.372-1.95,3.533-1.326,7.807-.867,11.874,1.5-2.371,5.7-3.556,7.838-5.523,3.791-3.49,4.374-9.574,2.329-14.3" transform="translate(-194.598 -70.974)" fill="#ff968b"/>
        <path id="Trazado_191660" data-name="Trazado 191660" d="M450.022,228.135a.393.393,0,0,0-.3-.1l-4.553-.163a16.065,16.065,0,0,0-3.93.181,14.3,14.3,0,0,0-7.22,4.438,47.98,47.98,0,0,0,7.347,2.314c2.46.367,5.227-.138,6.861-2.012a9.424,9.424,0,0,0,1.826-4.33.39.39,0,0,0-.028-.327" transform="translate(-196.805 -103.312)" fill="#ff968b"/>
        <path id="Trazado_191661" data-name="Trazado 191661" d="M427.595,232.516h-.007a.547.547,0,0,1-.539-.554l.791-62.106a14.936,14.936,0,0,1,5.2-11.167l4.757-4.091a.546.546,0,0,1,.713.828l-4.757,4.092a13.841,13.841,0,0,0-4.816,10.352l-.791,62.107a.546.546,0,0,1-.547.539" transform="translate(-193.645 -70.042)" fill="#231f20"/>
        <path id="Trazado_191662" data-name="Trazado 191662" d="M422.7,208.035h0a.546.546,0,0,1-.542-.551l.08-10.435a15,15,0,0,0-4.117-10.463l-2.888-3.054a.547.547,0,1,1,.794-.751l2.888,3.055a16.088,16.088,0,0,1,4.416,11.222l-.08,10.435a.546.546,0,0,1-.547.542" transform="translate(-188.219 -82.804)" fill="#231f20"/>
        <path id="Trazado_191663" data-name="Trazado 191663" d="M428.344,240.3h-.006a.547.547,0,0,1-.541-.553,12.669,12.669,0,0,1,10.968-12.49c3.3-.463,5.438-.541,6.532-.239a.547.547,0,1,1-.291,1.054c-.642-.178-2.219-.275-6.088.268a11.584,11.584,0,0,0-10.027,11.42.547.547,0,0,1-.547.541" transform="translate(-193.985 -102.859)" fill="#231f20"/>
        <path id="Trazado_191664" data-name="Trazado 191664" d="M68.943,187.681a18.794,18.794,0,0,1,2.675-3.326,16.325,16.325,0,0,1,4.751-3.477l.253.136a15.079,15.079,0,0,1,.994,8.149,9.048,9.048,0,0,1-4.678,6.509c-1.833.882-4,1-5.708,2.1-.441-5.653.211-6.918,1.713-10.087" transform="translate(-30.424 -82.02)" fill="#ff968b"/>
        <path id="Trazado_191665" data-name="Trazado 191665" d="M46.246,155.794a.817.817,0,0,1,.32-.431.727.727,0,0,1,.6.014c3.008,1.226,6.829,5.566,8.378,8.372,1.95,3.533,1.326,7.807.867,11.874-1.5-2.371-5.7-3.556-7.838-5.523-3.791-3.49-4.373-9.574-2.329-14.3" transform="translate(-20.444 -70.422)" fill="#ff968b"/>
        <path id="Trazado_191666" data-name="Trazado 191666" d="M32.481,226.918a.393.393,0,0,1,.3-.1l4.552-.163a16.062,16.062,0,0,1,3.93.181,14.3,14.3,0,0,1,7.22,4.438,47.978,47.978,0,0,1-7.347,2.314c-2.46.367-5.227-.138-6.861-2.013a9.419,9.419,0,0,1-1.826-4.329.392.392,0,0,1,.028-.327" transform="translate(-14.706 -102.76)" fill="#ff968b"/>
        <path id="Trazado_191667" data-name="Trazado 191667" d="M58.568,231.3a.546.546,0,0,1-.547-.539l-.791-62.106A13.843,13.843,0,0,0,52.414,158.3l-4.757-4.092a.546.546,0,1,1,.713-.828l4.757,4.091a14.937,14.937,0,0,1,5.2,11.169l.791,62.1a.546.546,0,0,1-.539.554Z" transform="translate(-21.524 -69.491)" fill="#231f20"/>
        <path id="Trazado_191668" data-name="Trazado 191668" d="M66.278,206.818a.546.546,0,0,1-.547-.542l-.08-10.435a16.085,16.085,0,0,1,4.416-11.222l2.887-3.055a.546.546,0,1,1,.794.75l-2.887,3.055a15,15,0,0,0-4.117,10.463l.08,10.435a.546.546,0,0,1-.542.551Z" transform="translate(-29.77 -82.253)" fill="#231f20"/>
        <path id="Trazado_191669" data-name="Trazado 191669" d="M52.629,239.081a.547.547,0,0,1-.547-.541,11.582,11.582,0,0,0-10.027-11.42c-3.867-.544-5.444-.445-6.087-.268a.547.547,0,0,1-.292-1.054c1.094-.3,3.231-.225,6.532.239a12.668,12.668,0,0,1,10.967,12.49.547.547,0,0,1-.541.553Z" transform="translate(-15.996 -102.307)" fill="#231f20"/>
        <path id="Trazado_191670" data-name="Trazado 191670" d="M69.688,109.447c.911-1.921,3.036-3.837,4.4-5.468,2.081-2.491,4.98-4.131,7.812-5.717l.416.222a24.79,24.79,0,0,1,1.634,13.4c-.853,4.477-3.585,8.727-7.693,10.7-3.014,1.449-6.574,1.638-9.386,3.447-.725-9.3.346-11.375,2.817-16.587" transform="translate(-30.222 -44.557)" fill="#ff968b"/>
        <path id="Trazado_191671" data-name="Trazado 191671" d="M32.365,57.014a1.345,1.345,0,0,1,.526-.709,1.2,1.2,0,0,1,.991.023c4.946,2.017,11.229,9.153,13.775,13.766,3.207,5.809,2.182,12.838,1.426,19.524-2.47-3.9-9.375-5.848-12.888-9.082C29.962,74.8,29,64.792,32.365,57.014" transform="translate(-13.811 -25.487)" fill="#ff968b"/>
        <path id="Trazado_191672" data-name="Trazado 191672" d="M9.732,173.966a.647.647,0,0,1,.5-.166l7.486-.268a26.412,26.412,0,0,1,6.462.3,23.515,23.515,0,0,1,11.873,7.3s-8.036,3.2-12.081,3.806-8.594-.227-11.282-3.309a15.49,15.49,0,0,1-3-7.119.644.644,0,0,1,.046-.538" transform="translate(-4.376 -78.662)" fill="#ff968b"/>
        <path id="Trazado_191673" data-name="Trazado 191673" d="M52.921,181.11a.546.546,0,0,1-.547-.539l-1.3-102.122a23.119,23.119,0,0,0-8.04-17.287l-7.823-6.727a.547.547,0,0,1,.713-.829l7.823,6.728a24.211,24.211,0,0,1,8.42,18.1l1.3,102.121a.548.548,0,0,1-.54.554Z" transform="translate(-15.88 -24.248)" fill="#231f20"/>
        <path id="Trazado_191674" data-name="Trazado 191674" d="M65.6,140.854a.546.546,0,0,1-.547-.542l-.13-17.159a26.091,26.091,0,0,1,7.164-18.208l4.749-5.023a.546.546,0,0,1,.794.75l-4.749,5.023a25.006,25.006,0,0,0-6.865,17.449l.13,17.159a.546.546,0,0,1-.542.551Z" transform="translate(-29.438 -45.231)" fill="#231f20"/>
        <path id="Trazado_191675" data-name="Trazado 191675" d="M43.156,193.908a.547.547,0,0,1-.547-.541,19.4,19.4,0,0,0-16.791-19.123c-6.42-.9-9.065-.731-10.154-.431a.546.546,0,0,1-.291-1.053c1.727-.479,5.293-.344,10.6.4A20.481,20.481,0,0,1,43.7,193.355a.547.547,0,0,1-.541.553Z" transform="translate(-6.789 -78.211)" fill="#231f20"/>
        <path id="Trazado_191676" data-name="Trazado 191676" d="M253.439,193.48H126.657V78.491a9.827,9.827,0,0,1,9.828-9.828H243.61a9.828,9.828,0,0,1,9.828,9.828Z" transform="translate(-57.433 -31.135)" fill="#f2f2f2"/>
        <path id="Trazado_191677" data-name="Trazado 191677" d="M243.453,68.663H136.641a9.986,9.986,0,0,0-9.985,9.985v5.045H253.438V78.648a9.986,9.986,0,0,0-9.985-9.985" transform="translate(-57.432 -31.135)" fill="#ffb6ae"/>
        <path id="Trazado_191678" data-name="Trazado 191678" d="M152.584,81.941a1.691,1.691,0,1,1-1.692-1.692,1.692,1.692,0,0,1,1.692,1.692" transform="translate(-67.655 -36.389)" fill="#fff"/>
        <path id="Trazado_191679" data-name="Trazado 191679" d="M164.765,81.941a1.691,1.691,0,1,1-1.692-1.692,1.692,1.692,0,0,1,1.692,1.692" transform="translate(-73.179 -36.389)" fill="#fff"/>
        <path id="Trazado_191680" data-name="Trazado 191680" d="M176.945,81.941a1.691,1.691,0,1,1-1.692-1.692,1.692,1.692,0,0,1,1.692,1.692" transform="translate(-78.702 -36.389)" fill="#fff"/>
        <path id="Trazado_191681" data-name="Trazado 191681" d="M187.115,170.771H156.971a11.292,11.292,0,0,1-11.292-11.291V118.571a11.292,11.292,0,0,1,11.292-11.292h30.144a11.291,11.291,0,0,1,11.291,11.292v40.909a11.291,11.291,0,0,1-11.291,11.291" transform="translate(-66.058 -48.646)" fill="#ffcec9"/>
        <path id="Trazado_191682" data-name="Trazado 191682" d="M293.44,128.164H257.032a6.387,6.387,0,0,1-6.386-6.386v-8.112a6.386,6.386,0,0,1,6.386-6.386H293.44a6.386,6.386,0,0,1,6.386,6.386v8.112a6.387,6.387,0,0,1-6.386,6.386" transform="translate(-113.655 -48.646)" fill="#ffcec9"/>
        <path id="Trazado_191683" data-name="Trazado 191683" d="M293.44,191.614H257.032a6.387,6.387,0,0,1-6.386-6.386v-25.6a6.386,6.386,0,0,1,6.386-6.386H293.44a6.386,6.386,0,0,1,6.386,6.386v25.6a6.387,6.387,0,0,1-6.386,6.386" transform="translate(-113.655 -69.489)" fill="#ffcec9"/>
        <path id="Trazado_191684" data-name="Trazado 191684" d="M282.67,175.016H263.85a7.724,7.724,0,0,1-7.723-7.723V148.473a7.724,7.724,0,0,1,7.723-7.723H282.67a7.724,7.724,0,0,1,7.723,7.723v18.819a7.724,7.724,0,0,1-7.723,7.723" transform="translate(-116.141 -63.823)" fill="#414042"/>
        <path id="Trazado_191685" data-name="Trazado 191685" d="M289.56,167.787a4.769,4.769,0,0,0-4.769-4.769c-.122,0-.243.009-.363.019a7.3,7.3,0,0,0-14.5-.1,5.162,5.162,0,0,0-4.835,4.856h-.015c0,.05.007.1.008.149s-.008.1-.008.149a5.158,5.158,0,0,0,1.895,4,5.812,5.812,0,0,0,3.948,1.545h12.8a5.839,5.839,0,0,0,5.817-5.355,4.792,4.792,0,0,0,.025-.488" transform="translate(-120.199 -70.966)" fill="#ff8578"/>
        <path id="Trazado_191686" data-name="Trazado 191686" d="M186.468,26.226a1.342,1.342,0,1,1-1.342-1.342,1.342,1.342,0,0,1,1.342,1.342" transform="translate(-83.337 -11.284)" fill="#ff8578"/>
        <path id="Trazado_191687" data-name="Trazado 191687" d="M186.354,57.776a.671.671,0,1,1-.671-.671.671.671,0,0,1,.671.671" transform="translate(-83.894 -25.894)" fill="#ff8578"/>
        <path id="Trazado_191688" data-name="Trazado 191688" d="M159.057,39.932a.969.969,0,1,1-.968-.968.969.969,0,0,1,.968.968" transform="translate(-71.246 -17.668)" fill="#ff8578"/>
        <path id="Trazado_191689" data-name="Trazado 191689" d="M202.188,265.565a.956.956,0,1,1-.956-.956.956.956,0,0,1,.956.956" transform="translate(-90.815 -119.987)" fill="#ffcec9"/>
        <path id="Trazado_191690" data-name="Trazado 191690" d="M210.795,265.565a.956.956,0,1,1-.956-.956.956.956,0,0,1,.956.956" transform="translate(-94.718 -119.987)" fill="#ffcec9"/>
        <path id="Trazado_191691" data-name="Trazado 191691" d="M219.4,265.565a.956.956,0,1,1-.956-.956.956.956,0,0,1,.956.956" transform="translate(-98.62 -119.987)" fill="#ffcec9"/>
        <path id="Trazado_191692" data-name="Trazado 191692" d="M228.009,265.565a.956.956,0,1,1-.956-.956.956.956,0,0,1,.956.956" transform="translate(-102.523 -119.987)" fill="#ffcec9"/>
        <path id="Trazado_191693" data-name="Trazado 191693" d="M236.616,265.565a.956.956,0,1,1-.956-.956.956.956,0,0,1,.956.956" transform="translate(-106.426 -119.987)" fill="#ffcec9"/>
        <path id="Trazado_191694" data-name="Trazado 191694" d="M187.86,260.934a2.965,2.965,0,1,0,2.965,2.965,2.965,2.965,0,0,0-2.965-2.965m0,4.821a1.856,1.856,0,1,1,1.856-1.856,1.856,1.856,0,0,1-1.856,1.856" transform="translate(-83.841 -118.321)" fill="#ffcec9"/>
        <path id="Trazado_191695" data-name="Trazado 191695" d="M210.274,172.542H179.2a3.278,3.278,0,0,0-3.274,3.274v30.8a3.278,3.278,0,0,0,3.274,3.274h31.073a3.278,3.278,0,0,0,3.274-3.274v-30.8a3.278,3.278,0,0,0-3.274-3.274" transform="translate(-79.774 -78.239)" fill="#fff"/>
        <path id="Trazado_191696" data-name="Trazado 191696" d="M209.821,209.984H178.748a3.825,3.825,0,0,1-3.82-3.82v-30.8a3.825,3.825,0,0,1,3.82-3.82h31.072a3.825,3.825,0,0,1,3.821,3.82v30.8a3.825,3.825,0,0,1-3.821,3.82m-31.072-37.348a2.73,2.73,0,0,0-2.727,2.727v30.8a2.73,2.73,0,0,0,2.727,2.727h31.072a2.73,2.73,0,0,0,2.728-2.727v-30.8a2.73,2.73,0,0,0-2.728-2.727Z" transform="translate(-79.321 -77.786)" fill="#231f20"/>
        <path id="Trazado_191697" data-name="Trazado 191697" d="M182.861,192.357a2.352,2.352,0,0,0,.885-.145,1.839,1.839,0,0,0,.359-.579q.466-.992,1.19-2.754l2.7-6.613h1.121l3.448,8.192a9.961,9.961,0,0,0,.827,1.7,1.962,1.962,0,0,0,.965.2v.695q-1.244-.054-2.349-.054-1.319,0-2.509.054v-.695a4.831,4.831,0,0,0,1.048-.1.228.228,0,0,0,.141-.227,5.058,5.058,0,0,0-.32-.969l-.5-1.274q-.948-.023-2.116-.023-1.016,0-1.848.023l-.335.857q-.138.35-.336,1.043a1.032,1.032,0,0,0-.045.283.248.248,0,0,0,.148.243,5.108,5.108,0,0,0,1.071.145v.695q-.747-.054-1.859-.054-1.06,0-1.684.054Zm5-7.4-1.61,3.923q.7.039,1.549.038.885,0,1.694-.038Z" transform="translate(-82.918 -82.648)" fill="#ff8578"/>
        <path id="Trazado_191698" data-name="Trazado 191698" d="M212.138,195.216v.626l-.589-.023q-.466-.023-.933-.023-.719,0-1.361.046l-.077-.084.077-1.046-1.591,1.191a3.407,3.407,0,0,1-.754.1,1.61,1.61,0,0,1-1.249-.481,2,2,0,0,1-.442-1.4,1.907,1.907,0,0,1,.6-1.6,8.9,8.9,0,0,1,3.434-1.091,2.328,2.328,0,0,0-.312-1.31,1.511,1.511,0,0,0-1.293-.559,1.9,1.9,0,0,0-.422.05,2.076,2.076,0,0,0-.438.156l-.342.817-.526-.13.015-.343-.008-.336-.008-.3a10.624,10.624,0,0,1,1.678-.908,3.122,3.122,0,0,1,1.037-.137,3.4,3.4,0,0,1,1.465.272,1.792,1.792,0,0,1,.824.737,2.853,2.853,0,0,1,.26,1.361q0,.375-.031,1.338-.03.994-.031,1.6a6.937,6.937,0,0,0,.054,1.162.3.3,0,0,0,.149.191,3.123,3.123,0,0,0,.812.138m-2.883-3.135a4.5,4.5,0,0,0-1.741.631,1.136,1.136,0,0,0-.4.914,1.015,1.015,0,0,0,.259.735.871.871,0,0,0,.654.267,1.752,1.752,0,0,0,1.231-.68Z" transform="translate(-93.057 -85.439)" fill="#ff8578"/>
        <rect id="Rectángulo_43114" data-name="Rectángulo 43114" width="30.958" height="2.732" transform="translate(99.647 113.194)" fill="#ffcec9"/>
        <rect id="Rectángulo_43115" data-name="Rectángulo 43115" width="30.958" height="2.732" transform="translate(99.647 118.537)" fill="#ffcec9"/>
        <rect id="Rectángulo_43116" data-name="Rectángulo 43116" width="19.434" height="2.732" transform="translate(99.647 123.879)" fill="#ffcec9"/>
        <path id="Trazado_191699" data-name="Trazado 191699" d="M289.831,212.106h-34.1a2.623,2.623,0,0,0-2.62,2.62v29.154a2.623,2.623,0,0,0,2.62,2.619h34.1a2.622,2.622,0,0,0,2.62-2.619V214.726a2.623,2.623,0,0,0-2.62-2.62" transform="translate(-114.774 -96.179)" fill="#414042"/>
        <path id="Trazado_191700" data-name="Trazado 191700" d="M270.778,240.993v10.715a1.375,1.375,0,0,0,2.747,0V240.993a1.375,1.375,0,0,0-2.747,0" transform="translate(-122.784 -108.677)" fill="#ff8578"/>
        <path id="Trazado_191701" data-name="Trazado 191701" d="M286.587,240.993v10.715a1.375,1.375,0,0,0,2.748,0V240.993a1.375,1.375,0,0,0-2.748,0" transform="translate(-129.953 -108.677)" fill="#ff8578"/>
        <path id="Trazado_191702" data-name="Trazado 191702" d="M302.395,240.993v10.715a1.375,1.375,0,0,0,2.747,0V240.993a1.375,1.375,0,0,0-2.747,0" transform="translate(-137.121 -108.677)" fill="#ff8578"/>
        <path id="Trazado_191703" data-name="Trazado 191703" d="M289.831,212.106h-34.1a2.623,2.623,0,0,0-2.62,2.62v3.668h39.338v-3.668a2.623,2.623,0,0,0-2.62-2.62" transform="translate(-114.774 -96.179)" fill="#fff"/>
        <path id="Trazado_191704" data-name="Trazado 191704" d="M260.423,217.259a.722.722,0,1,1-.723-.722.722.722,0,0,1,.723.722" transform="translate(-117.434 -98.189)" fill="#ff8578"/>
        <path id="Trazado_191705" data-name="Trazado 191705" d="M265.718,217.259a.722.722,0,1,1-.722-.722.722.722,0,0,1,.722.722" transform="translate(-119.835 -98.189)" fill="#ff8578"/>
        <path id="Trazado_191706" data-name="Trazado 191706" d="M271.013,217.259a.722.722,0,1,1-.722-.722.722.722,0,0,1,.722.722" transform="translate(-122.236 -98.189)" fill="#ff8578"/>
        <path id="Trazado_191707" data-name="Trazado 191707" d="M128.188,15.62a2.7,2.7,0,1,1-2.7-2.7,2.7,2.7,0,0,1,2.7,2.7" transform="translate(-55.679 -5.859)" fill="#ffe7e4"/>
        <path id="Trazado_191708" data-name="Trazado 191708" d="M420.8,84.948a2.7,2.7,0,1,1-2.7-2.7,2.7,2.7,0,0,1,2.7,2.7" transform="translate(-188.362 -37.296)" fill="#ffe7e4"/>
        <path id="Trazado_191709" data-name="Trazado 191709" d="M61.042,45.218a2.7,2.7,0,1,0,2.7,2.7,2.7,2.7,0,0,0-2.7-2.7m0,4.241a1.542,1.542,0,1,1,1.542-1.542,1.542,1.542,0,0,1-1.542,1.542" transform="translate(-26.456 -20.504)" fill="#ffe7e4"/>
        <path id="Trazado_191710" data-name="Trazado 191710" d="M431.777,45.218a2.7,2.7,0,1,0,2.7,2.7,2.7,2.7,0,0,0-2.7-2.7m0,4.241a1.542,1.542,0,1,1,1.542-1.542,1.542,1.542,0,0,1-1.542,1.542" transform="translate(-194.566 -20.504)" fill="#ffe7e4"/>
        <path id="Trazado_191711" data-name="Trazado 191711" d="M90.495,66.335l-1.021-.557.557-1.021a.545.545,0,0,0-.957-.521l-.557,1.021L87.5,64.7a.545.545,0,1,0-.522.956l1.022.557-.557,1.022a.545.545,0,0,0,.957.522l.557-1.022,1.021.557a.545.545,0,0,0,.522-.957" transform="translate(-39.309 -28.999)" fill="#ffe7e4"/>
        <path id="Trazado_191712" data-name="Trazado 191712" d="M399.647,23.527l-1.021-.557.557-1.022a.545.545,0,0,0-.957-.521l-.557,1.021-1.021-.556a.545.545,0,1,0-.522.956l1.022.557-.557,1.021a.545.545,0,0,0,.957.522l.557-1.022,1.021.557a.545.545,0,0,0,.522-.957" transform="translate(-179.494 -9.587)" fill="#ffe7e4"/>
        <path id="Trazado_191713" data-name="Trazado 191713" d="M131.776,235.991a55.686,55.686,0,0,0-6.548-22.349H90.952a18.351,18.351,0,0,0-2.052,1.715,25.382,25.382,0,0,0-7.749,21.267l2.5,22.435h21.964l2.8-18.129,2.394,18.129h22.681Z" transform="translate(-36.726 -96.876)" fill="#414042"/>
        <path id="Trazado_191714" data-name="Trazado 191714" d="M133.631,259.152H109.882l-1.957-14.824-2.292,14.824H82.711L80.156,236.23a26.054,26.054,0,0,1,7.917-21.725,18.723,18.723,0,0,1,2.121-1.77l.139-.094H125.1l.155.287A55.878,55.878,0,0,1,131.87,235.5Zm-22.791-1.093h21.613l-1.675-22.482a54.769,54.769,0,0,0-6.33-21.843H90.676a19.868,19.868,0,0,0-1.852,1.565,24.954,24.954,0,0,0-7.581,20.81l2.445,21.949H104.7l3.315-21.435Z" transform="translate(-36.275 -96.422)" fill="#231f20"/>
        <path id="Trazado_191715" data-name="Trazado 191715" d="M163.937,117.548,162.1,135.332l-11.451.218a8.936,8.936,0,0,1-.219-17.871Z" transform="translate(-64.212 -53.302)" fill="#ff8578"/>
        <path id="Trazado_191716" data-name="Trazado 191716" d="M111.838,61.809c3.136-3,7.932-5.161,12.361-4.85,4.678.328,5.21,5.1,4.789,8.674-1.251,10.649,3.146,20.51-.45,31.061a18.159,18.159,0,0,1-3.878,6.861,9.557,9.557,0,0,1-7.056,3.112c-2.914-.118-5.517-1.9-7.547-3.991-7.611-7.852-7.727-19.381-4.812-29.3a25.949,25.949,0,0,1,6.593-11.572" transform="translate(-46.923 -25.815)" fill="#414042"/>
        <path id="Trazado_191717" data-name="Trazado 191717" d="M119.982,117.794H88.016a8.936,8.936,0,0,0-8.4,4.985l-7.62,15.714,11.1,5.461,3.777,26.221h34.276l6.3-43.761a7.545,7.545,0,0,0-7.468-8.621" transform="translate(-32.645 -53.41)" fill="#ff8578"/>
        <path id="Trazado_191718" data-name="Trazado 191718" d="M130.381,182.637H95.154l-3.845-26.69a.547.547,0,1,1,1.082-.156L96.1,181.544h33.325l5.021-37.01a.547.547,0,0,1,1.084.148Z" transform="translate(-41.402 -65.325)" fill="#231f20"/>
        <path id="Trazado_191719" data-name="Trazado 191719" d="M98.8,165.812l-2.714,26.075L92.3,165.665Z" transform="translate(-41.855 -75.121)" fill="#231f20"/>
        <path id="Trazado_191720" data-name="Trazado 191720" d="M129.914,199.857H110.338a1.681,1.681,0,0,1-1.611-2.16l7.6-25.547a2.673,2.673,0,0,1,2.562-1.911h19.576a1.681,1.681,0,0,1,1.611,2.16l-7.6,25.547a2.673,2.673,0,0,1-2.562,1.911" transform="translate(-49.27 -77.195)" fill="#5a595b"/>
        <path id="Trazado_191721" data-name="Trazado 191721" d="M109.581,198.456l7.6-25.548a2.673,2.673,0,0,1,2.562-1.91h19.577a1.677,1.677,0,0,1,.622.119,1.674,1.674,0,0,0-1.476-.878H118.89a2.673,2.673,0,0,0-2.562,1.911l-7.6,25.547a1.681,1.681,0,0,0,.989,2.041,1.666,1.666,0,0,1-.135-1.282" transform="translate(-49.27 -77.195)" fill="#828182"/>
        <path id="Trazado_191722" data-name="Trazado 191722" d="M140.277,193.476c-.775,1.493-2.328,2.222-3.469,1.629s-1.439-2.283-.664-3.775,2.329-2.222,3.47-1.63,1.438,2.283.663,3.776" transform="translate(-61.539 -85.926)" fill="#414042"/>
        <path id="Trazado_191723" data-name="Trazado 191723" d="M101.481,180.726l-6.11-.72,5.047-.373c1.055-.146,1.266-1.244.076-1.279l-10.611-1.215-3.43-.371a1.208,1.208,0,0,1-.927-1.351c.1-.685.7-1.49,2.165-2.127l.876-2.942-7.581,3a6.99,6.99,0,0,0-1.357.733l-1.458,1.01-5.456-1.119,7.552-15.35c-1.441-4.229-11.808-9.329-16.037-7.888L55.1,169.291h0l-1.9,3.861a10.387,10.387,0,0,0,10.657,14.877l14.1-1.453,1.11.425a6.694,6.694,0,0,0,1.8.418c3.287.293,16.676-.991,18.614-1.553.78-.226.926-1.147,0-1.2l-6.577.116,7.621-.812c.8-.145,1-1.114,0-1.174l-6.431-.276,7.306-.488a.653.653,0,1,0,.07-1.3" transform="translate(-23.636 -68.239)" fill="#fff"/>
        <path id="Trazado_191724" data-name="Trazado 191724" d="M112.92,105.2l16.11,14.3.935-14.29-3.13-15.172h-9.846Z" transform="translate(-51.204 -40.829)" fill="#fff"/>
        <path id="Trazado_191725" data-name="Trazado 191725" d="M129.658,138.851a.546.546,0,0,1-.547-.547v-3.274a4.833,4.833,0,0,0-1.619-3.608l-14.447-12.848a.546.546,0,1,1,.726-.817l14.447,12.848a5.923,5.923,0,0,1,1.987,4.424V138.3a.546.546,0,0,1-.547.547" transform="translate(-51.177 -53.335)" fill="#231f20"/>
        <path id="Trazado_191726" data-name="Trazado 191726" d="M111.069,184.456a.547.547,0,0,1-.04-1.091l6.351-.472a1.011,1.011,0,0,0,.149-.094.572.572,0,0,0-.049-.046L104.55,181.28a3.78,3.78,0,0,1-2.379-1.008,1.387,1.387,0,0,1-.267-1.117,3.2,3.2,0,0,1,1.69-2.14l.543-1.711-5.99,2.374-2.958,1.832-4.768-.978a1.24,1.24,0,0,1-.85-1.788l9.145-17.5a.547.547,0,0,1,.97.506l-9.145,17.5a.143.143,0,0,0,0,.131.14.14,0,0,0,.1.08l4.342.89,2.717-1.672,7.427-2.942.509.513-.124.336-1.023,3.226-.237.1a2.258,2.258,0,0,0-1.271,1.441.294.294,0,0,0,.057.255,2.79,2.79,0,0,0,1.62.588l13.21,1.5.1.062a1.337,1.337,0,0,1,.689,1.108c-.025.437-.327.793-.9,1.059l-.09.042-6.556.488-.041,0" transform="translate(-40.552 -72.076)" fill="#231f20"/>
        <path id="Trazado_191727" data-name="Trazado 191727" d="M141.712,124.751h-.036a.547.547,0,0,1-.51-.581l.8-12.274-1.349-6.544a.547.547,0,1,1,1.071-.221l1.379,6.689-.812,12.421a.547.547,0,0,1-.545.511" transform="translate(-63.759 -47.474)" fill="#231f20"/>
        <path id="Trazado_191728" data-name="Trazado 191728" d="M61.442,173.785a10.624,10.624,0,0,1-9.592-15.194l17.2-36.1a8.805,8.805,0,0,1,5.963-4.808.547.547,0,1,1,.25,1.064,7.718,7.718,0,0,0-5.226,4.214l-17.2,36.1a9.532,9.532,0,0,0,8.605,13.63h.442l15.577-1.556,2.327,1.072a3.946,3.946,0,0,0,2.129.331l16.811-2.086c.026-.015.052-.032.078-.049a2.005,2.005,0,0,0-.191-.073l-7.71.013h0a.547.547,0,0,1,0-1.093l7.877-.013.079.024c.277.084,1.12.342,1.172,1.04.05.666-.676,1.066-.9,1.173l-.081.039-.088.01-16.911,2.1a5.015,5.015,0,0,1-2.721-.422l-2.057-.948-15.336,1.529Z" transform="translate(-23.039 -53.357)" fill="#231f20"/>
        <path id="Trazado_191729" data-name="Trazado 191729" d="M87.289,155.551a.543.543,0,0,1-.36-.135c-6.537-5.714-12.939-4.518-13-4.506a.546.546,0,0,1-.217-1.071c.281-.058,6.977-1.334,13.94,4.754a.547.547,0,0,1-.36.958" transform="translate(-33.225 -67.877)" fill="#231f20"/>
        <path id="Trazado_191730" data-name="Trazado 191730" d="M79.039,195.025a.547.547,0,0,1-.445-.862,5.365,5.365,0,0,1,4.15-2.18.547.547,0,0,1,0,1.093h0a4.25,4.25,0,0,0-3.255,1.718.543.543,0,0,1-.446.231" transform="translate(-35.593 -87.055)" fill="#231f20"/>
        <path id="Trazado_191731" data-name="Trazado 191731" d="M128.012,211.265a.547.547,0,0,1-.064-1.089l5.61-.667a.9.9,0,0,0,.138-.122l-.017-.016-7.27-.355a.548.548,0,0,1-.519-.573.54.54,0,0,1,.573-.519l7.534.369.1.052a1.292,1.292,0,0,1,.715.986,1.342,1.342,0,0,1-.764,1.166l-.106.067-5.867.7a.526.526,0,0,1-.065,0" transform="translate(-57.084 -94.282)" fill="#231f20"/>
        <path id="Trazado_191732" data-name="Trazado 191732" d="M131.428,207.085a.547.547,0,0,1-.05-1.091l5.519-.513c.121-.12.132-.186.132-.186a.2.2,0,0,0-.055-.072l-4.833-.767a.546.546,0,0,1,.171-1.079l5.069.8.087.05a1.339,1.339,0,0,1,.65.981,1.438,1.438,0,0,1-.652,1.223l-.128.1-5.858.544-.051,0" transform="translate(-59.348 -92.218)" fill="#231f20"/>
        <path id="Trazado_191733" data-name="Trazado 191733" d="M85.812,240.606a.547.547,0,0,1-.1-1.083c7.728-1.519,9.638-10.4,10.008-12.728l-7.38-.48a.547.547,0,0,1,.072-1.091l8.527.556-.054.561c-.011.124-1.292,12.355-10.964,14.256a.533.533,0,0,1-.105.01" transform="translate(-38.664 -102.127)" fill="#231f20"/>
        <path id="Trazado_191734" data-name="Trazado 191734" d="M125.8,273.931a.5.5,0,0,1-.089-.008.545.545,0,0,1-.45-.627l4.266-25.99a.546.546,0,0,1,1.078.177l-4.267,25.99a.546.546,0,0,1-.538.458" transform="translate(-56.795 -111.933)" fill="#231f20"/>
        <path id="Trazado_191735" data-name="Trazado 191735" d="M120.491,87.745a2.947,2.947,0,1,1-3.564-2.162,2.947,2.947,0,0,1,3.564,2.162" transform="translate(-52.002 -38.769)" fill="#fff"/>
        <path id="Trazado_191736" data-name="Trazado 191736" d="M117.175,91.486a3.492,3.492,0,1,1,.831-.1,3.537,3.537,0,0,1-.831.1m0-5.9a2.4,2.4,0,0,0-2.335,2.972,2.4,2.4,0,1,0,4.663-1.141h0a2.4,2.4,0,0,0-2.328-1.83" transform="translate(-51.548 -38.315)" fill="#231f20"/>
        <path id="Trazado_191737" data-name="Trazado 191737" d="M117.061,69.477S118.819,89.064,132.5,86.9s2.222-25.188,2.222-25.188-11.9-8.384-17.656,7.76" transform="translate(-53.081 -26.999)" fill="#fff"/>
        <path id="Trazado_191738" data-name="Trazado 191738" d="M132.323,88.967c-4.742,0-8.56-2.723-11.124-7.977a.546.546,0,1,1,.982-.479c2.74,5.615,6.807,8.036,12.08,7.207a6.688,6.688,0,0,0,5.258-3.482c3.5-6.792-3.371-20.783-3.441-20.923a.547.547,0,0,1,.979-.487c.3.594,7.191,14.627,3.434,21.91a7.722,7.722,0,0,1-6.06,4.061,13.544,13.544,0,0,1-2.109.171" transform="translate(-54.932 -28.351)" fill="#231f20"/>
        <path id="Trazado_191739" data-name="Trazado 191739" d="M146.8,91.195a.547.547,0,0,1-.022-1.093l.838-.035-.634-1.681A.546.546,0,0,1,148,88l.822,2.18a.705.705,0,0,1-.631.956l-1.372.057H146.8m1-.631,0,.01Zm.349-.519h0Z" transform="translate(-66.319 -39.743)" fill="#231f20"/>
        <path id="Trazado_191740" data-name="Trazado 191740" d="M147.161,79.343a.546.546,0,0,1-.431-.88,3.347,3.347,0,0,1,3.19-1.131.547.547,0,1,1-.2,1.074,2.248,2.248,0,0,0-2.126.732.548.548,0,0,1-.428.205" transform="translate(-66.483 -35.037)" fill="#231f20"/>
        <path id="Trazado_191741" data-name="Trazado 191741" d="M131.317,84.791a.546.546,0,0,1-.444-.865,3.357,3.357,0,0,1,3.142-1.259.547.547,0,0,1-.161,1.082,2.234,2.234,0,0,0-2.093.814.546.546,0,0,1-.444.228" transform="translate(-59.298 -37.468)" fill="#231f20"/>
        <path id="Trazado_191742" data-name="Trazado 191742" d="M151.577,82.6a.605.605,0,1,1-.8-.475.662.662,0,0,1,.8.475" transform="translate(-68.201 -37.226)" fill="#231f20"/>
        <path id="Trazado_191743" data-name="Trazado 191743" d="M136.787,88.118a.606.606,0,1,1-.8-.476.663.663,0,0,1,.8.476" transform="translate(-61.494 -39.729)" fill="#231f20"/>
        <path id="Trazado_191744" data-name="Trazado 191744" d="M142.723,98.565a3.114,3.114,0,0,1-3.072-1.993.546.546,0,0,1,1.043-.324c.06.178.641,1.69,3.115,1.078a.547.547,0,0,1,.263,1.061,5.657,5.657,0,0,1-1.35.177" transform="translate(-63.314 -43.47)" fill="#231f20"/>
        <path id="Trazado_191745" data-name="Trazado 191745" d="M127.721,49.816a7.224,7.224,0,0,0-2.978.64,14.139,14.139,0,0,0-3.718-1.076C111.011,47.9,98.493,50.946,95.98,62.16a28.943,28.943,0,0,0,.512,12.768c1.067,4.624,2.034,9.4-2.551,12.475,3.613.071,8.715.254,12.2-.927a5.487,5.487,0,0,0,3.57-5.359,29.413,29.413,0,0,0-1-5.954,22.868,22.868,0,0,1-.409-3.829,8.376,8.376,0,0,1,.4-3.238,4.339,4.339,0,0,1,1.621-1.7c1.566-1.188,3.677-1.4,5.087-2.757a4.78,4.78,0,0,0,1.35-3.073,1.951,1.951,0,0,0,.965,1.3,12.922,12.922,0,0,0,5.177,1.8,16.179,16.179,0,0,0,3.343.51,7.255,7.255,0,1,0,1.473-14.36" transform="translate(-42.597 -22.234)" fill="#414042"/>
        <path id="Trazado_191746" data-name="Trazado 191746" d="M207.478,46.795l-1.184,1.283-.022-.031,2.263-2.452c1.038-1.352-.019-3.378-1.87-2.246l.651-.706c1.1-1.429-.145-3.611-2.192-2.023l-1.591,1.724c.878-1.423-.344-3.374-2.311-1.85l-5.491,5.949-5.79,5.459a1.175,1.175,0,0,1-1.877-.372l-2.495-5.535c-.429-1.3-2.375-1.225-2.239.593l.869,6.767a6.268,6.268,0,0,0,.738,2.193l.676,1.281a6.915,6.915,0,0,1,.75,4.07,12.957,12.957,0,0,0,.025,2.875l-.008,15.952a2.369,2.369,0,0,1-2.274,2.4l-8.463.339c-3,3.251-2.543,14.682.708,17.683l12.2-.489a13.622,13.622,0,0,0,13.065-14.154l-.888-22.154a15.333,15.333,0,0,0,0-2.022,6.5,6.5,0,0,1,1.734-4.75l.071-.077.025.022,7.118-7.711c1.1-1.429-.145-3.611-2.192-2.023" transform="translate(-78.733 -18.11)" fill="#fff"/>
        <path id="Trazado_191747" data-name="Trazado 191747" d="M173.71,100.242a.546.546,0,0,1-.019-1.093l14.384-.489a13.075,13.075,0,0,0,12.537-13.586l-.888-22.194,0-.04a14.024,14.024,0,0,0,0-1.936,7.1,7.1,0,0,1,1.88-5.15l.442-.471.021.02,6.749-7.312a1.176,1.176,0,0,0,.013-1.48c-.3-.3-.839-.216-1.434.232l-1.606,1.741-.651-.906.281-.359,2.263-2.452a1.188,1.188,0,0,0,.04-1.451c-.356-.4-.919-.144-1.223.042L203.156,45.4l3.306-3.585a1.176,1.176,0,0,0,.014-1.48c-.306-.3-.838-.218-1.435.232l-1.559,1.689-.866-.657a1.142,1.142,0,0,0-.067-1.413c-.312-.28-.824-.186-1.409.255l-5.46,5.915-5.817,5.486a1.721,1.721,0,0,1-2.75-.545L184.6,45.709a.669.669,0,0,0-.744-.5c-.306.061-.467.391-.43.883l.867,6.739a5.757,5.757,0,0,0,.679,2.008l.675,1.282c.7,1.324.826,6.592.838,7.188l-.007,15.963a2.9,2.9,0,0,1-2.8,2.95l-8.227.33c-1.457,1.8-2.094,6.175-1.518,10.563a.546.546,0,0,1-1.083.143c-.527-4.009-.145-9.354,1.941-11.613l.153-.166,8.689-.348a1.812,1.812,0,0,0,1.751-1.849l.007-15.961c-.044-2.141-.276-5.864-.712-6.69L184,55.346a6.8,6.8,0,0,1-.8-2.378l-.87-6.768a1.7,1.7,0,0,1,3.291-.862l2.485,5.511a.627.627,0,0,0,1,.2l5.791-5.459,5.531-5.983c1.545-1.2,2.569-.48,2.845-.231a1.9,1.9,0,0,1,.55.9l.507-.538c1.277-.989,2.34-.737,2.91-.169a2.212,2.212,0,0,1,.336,2.487,1.719,1.719,0,0,1,.95.538,2.26,2.26,0,0,1,.128,2.674,1.714,1.714,0,0,1,.939.477,2.281,2.281,0,0,1,.051,2.958l-7.518,8.149-.014-.014a6,6,0,0,0-1.3,4.02,15.817,15.817,0,0,1,0,2.065l.885,22.116a14.167,14.167,0,0,1-13.589,14.722l-14.387.489h-.019" transform="translate(-78.281 -17.654)" fill="#231f20"/>
        <path id="Trazado_191748" data-name="Trazado 191748" d="M143.652,117.78a.547.547,0,0,1,0-1.093l19.5-.138h0a.547.547,0,0,1,0,1.093l-19.5.138Z" transform="translate(-64.891 -52.849)" fill="#231f20"/>
        <path id="Trazado_191749" data-name="Trazado 191749" d="M221.542,47.763a.547.547,0,0,1-.378-.941l3.468-3.332a.546.546,0,0,1,.757.788l-3.469,3.332a.544.544,0,0,1-.378.152" transform="translate(-100.21 -19.652)" fill="#231f20"/>
        <path id="Trazado_191750" data-name="Trazado 191750" d="M229.138,56.332a.547.547,0,0,1-.378-.941l2.784-2.676a.546.546,0,1,1,.758.788l-2.785,2.676a.546.546,0,0,1-.379.152" transform="translate(-103.655 -23.835)" fill="#231f20"/>
        <path id="Trazado_191751" data-name="Trazado 191751" d="M224.655,50.925a.547.547,0,0,1-.377-.943l4.9-4.653a.546.546,0,1,1,.753.792l-4.9,4.654a.543.543,0,0,1-.376.15" transform="translate(-101.622 -20.486)" fill="#231f20"/>
        <path id="Trazado_191752" data-name="Trazado 191752" d="M210.349,68.425a.537.537,0,0,1-.215-.044.546.546,0,0,1-.287-.718c1.8-4.213.119-6.878.046-6.99a.546.546,0,0,1,.912-.6c.086.13,2.093,3.24.047,8.023a.547.547,0,0,1-.5.331" transform="translate(-95.135 -27.129)" fill="#231f20"/>
        <path id="Trazado_191753" data-name="Trazado 191753" d="M221.323,59.956a.527.527,0,0,1-.066,0,.546.546,0,0,1-.478-.608c.442-3.671-4.3-5.576-4.343-5.594a.547.547,0,0,1,.4-1.019c.228.089,5.575,2.23,5.032,6.743a.547.547,0,0,1-.542.482" transform="translate(-97.986 -23.894)" fill="#231f20"/>
        <path id="Trazado_191754" data-name="Trazado 191754" d="M197.915,122.308h0a.546.546,0,0,1-.545-.548A9.969,9.969,0,0,0,195.12,116a.547.547,0,0,1,.825-.718,10.922,10.922,0,0,1,2.517,6.476.546.546,0,0,1-.547.545" transform="translate(-88.416 -52.192)" fill="#231f20"/>
        <path id="Trazado_191755" data-name="Trazado 191755" d="M140.4,96.866s-1.086,3.217,1.105,3.7c2.355.524,2.663-2.258,2.663-2.258a4.115,4.115,0,0,1-3.768-1.445" transform="translate(-63.544 -43.924)" fill="#231f20"/>
        <path id="Trazado_191756" data-name="Trazado 191756" d="M243.494,10.039h.394V4.46A4.464,4.464,0,0,0,239.427,0H206.512a4.464,4.464,0,0,0-4.46,4.459V34.628a4.465,4.465,0,0,0,4.46,4.46h32.915a4.465,4.465,0,0,0,4.46-4.46V26.743h-.394a8.352,8.352,0,0,1,0-16.7" transform="translate(-91.621 0)" fill="#414042"/>
        <path id="Trazado_191757" data-name="Trazado 191757" d="M285.7,4.839V9.972a8.746,8.746,0,1,0,0,17.492V34.9a4.118,4.118,0,0,0,4.118,4.118h32.812a4.118,4.118,0,0,0,4.118-4.118V4.839A4.118,4.118,0,0,0,322.634.721H289.822A4.118,4.118,0,0,0,285.7,4.839" transform="translate(-125.587 -0.327)" fill="#ff8578"/>
        <path id="Trazado_191758" data-name="Trazado 191758" d="M363.089,270.32h24.933c.151-5.476.3-9.721.3-9.721l1.236-7.036a50.239,50.239,0,0,0,.627-5.064l.753-10.378H359.164Z" transform="translate(-162.863 -107.976)" fill="#414042"/>
        <path id="Trazado_191759" data-name="Trazado 191759" d="M388.042,270.414H362.093l-4.058-33.292h32.973l-.795,10.963a51.071,51.071,0,0,1-.633,5.12l-1.23,7c-.015.434-.151,4.507-.293,9.679Zm-24.981-1.093h23.918c.145-5.219.28-9.193.28-9.193l.008-.076,1.236-7.036a50.032,50.032,0,0,0,.621-5.01l.709-9.791H359.269Z" transform="translate(-162.351 -107.523)" fill="#231f20"/>
        <path id="Trazado_191760" data-name="Trazado 191760" d="M347.833,102.491a6.352,6.352,0,0,1-3.262-4.009l-10.29-28.4a5.071,5.071,0,0,1,1.919-4.075,16.974,16.974,0,0,0,1.838-1.575c1.238-1.429,1.319-3.495,1.336-5.386a2.852,2.852,0,0,0-.158-1.188.976.976,0,0,0-.936-.629,9,9,0,0,1-1.551,3.964c-1.961,2.39-5.74,2.582-8.574,2.989-3.4.49-3.84-.372-7.086.933a2.357,2.357,0,0,0-.989.63c-.62.761-.216,1.9.271,2.751a3.992,3.992,0,0,1,.829,1.93,5.536,5.536,0,0,0,.116,1.493l7.611,31.588a20.869,20.869,0,0,0,11.913,14.226l12.647,5.7,8.822-13.836Z" transform="translate(-144.997 -25.949)" fill="#fff"/>
        <path id="Trazado_191761" data-name="Trazado 191761" d="M353.218,123.673,340.14,117.78a21.532,21.532,0,0,1-12.22-14.6L320.309,71.6a5.944,5.944,0,0,1-.131-1.64,2.486,2.486,0,0,0-.508-1.222c-.084-.136-.168-.275-.25-.418-1.008-1.768-.676-2.807-.22-3.367a2.854,2.854,0,0,1,1.209-.792,9.271,9.271,0,0,1,4.343-.807,16.435,16.435,0,0,0,2.868-.16c.348-.05.709-.1,1.081-.145,2.608-.337,5.564-.719,7.149-2.65a8.516,8.516,0,0,0,1.439-3.73l.08-.384.39-.046a1.519,1.519,0,0,1,1.5.95,3.361,3.361,0,0,1,.2,1.414c-.019,2.153-.146,4.212-1.469,5.739a8.465,8.465,0,0,1-1.264,1.124c-.213.166-.426.33-.63.507a4.573,4.573,0,0,0-1.737,3.546l10.265,28.328a5.848,5.848,0,0,0,2.992,3.706l15,7.374Zm-28.98-59.235a8.1,8.1,0,0,0-3.421.733,1.919,1.919,0,0,0-.769.468c-.459.563,0,1.579.321,2.135.076.133.155.262.233.389a3.315,3.315,0,0,1,.667,1.83,4.92,4.92,0,0,0,.1,1.346l7.611,31.588a20.431,20.431,0,0,0,11.6,13.853l12.221,5.506,8.239-12.922-13.914-6.839a6.909,6.909,0,0,1-3.543-4.353l-10.3-28.422-.007-.071a5.553,5.553,0,0,1,2.105-4.536c.218-.189.447-.367.676-.544a7.565,7.565,0,0,0,1.107-.977c1.08-1.246,1.185-3.091,1.2-5.032a2.46,2.46,0,0,0-.111-.964.544.544,0,0,0-.044-.08,8.318,8.318,0,0,1-1.521,3.542c-1.86,2.267-5.183,2.7-7.854,3.042-.366.046-.722.092-1.064.142a17.421,17.421,0,0,1-3.041.171c-.171,0-.336-.005-.5-.005" transform="translate(-144.542 -25.496)" fill="#231f20"/>
        <path id="Trazado_191762" data-name="Trazado 191762" d="M378.4,115.974l-13.119,9.034,2.04-21.971H378.4Z" transform="translate(-165.635 -46.722)" fill="#fff"/>
        <path id="Trazado_191763" data-name="Trazado 191763" d="M364.085,125.667l2.194-23.63H378.4v13.77Zm3.19-22.537-1.886,20.311,11.92-8.208v-12.1Zm10.581,12.39h0Z" transform="translate(-165.094 -46.269)" fill="#231f20"/>
        <path id="Trazado_191764" data-name="Trazado 191764" d="M361.015,96.046q.753.28,1.521.516a12.668,12.668,0,0,0,15.7-7.774l2.114-5.864a3.167,3.167,0,0,0-2.232-4.152c-4.239-.3-14.779-5.6-17.391-1.985-1.835,2.432.168,5.768-.755,8.441-2.212,3.339-4.442,9.388,1.038,10.818" transform="translate(-162.151 -34.25)" fill="#fff"/>
        <path id="Trazado_191765" data-name="Trazado 191765" d="M356.491,93.3a.549.549,0,0,0,.158.922l2.2.882.677-5.685Z" transform="translate(-161.566 -40.545)" fill="#fff"/>
        <path id="Trazado_191766" data-name="Trazado 191766" d="M365.122,97.051a12.807,12.807,0,0,1-5.436-1.217c-3.473-1.623-4.536-4.284-3.164-7.915-.518-.2-1.1-.485-1.229-1.039a1.056,1.056,0,0,1,.332-1l1.66-2.13a5.081,5.081,0,0,0,1.081-3.4c-.128-2.441-.021-4.848,1.619-5.92,1.588-1.039,4.208-.584,8.238,1.429L376,77.4a3.726,3.726,0,0,1,3.811,4.971l-2.061,5.714a13.62,13.62,0,0,1-7.572,7.943,13.156,13.156,0,0,1-5.059,1.025M356.4,86.65a3.841,3.841,0,0,0,.748.338c.117.043.221.081.3.116l.5.216-.217.5c-1.463,3.394-.719,5.559,2.41,7.022a11.769,11.769,0,0,0,9.612.173,12.526,12.526,0,0,0,6.964-7.3L378.786,82a2.616,2.616,0,0,0-.384-2.483,2.671,2.671,0,0,0-2.389-1.023l-.075.006L367.8,76.875c-3.585-1.8-6.013-2.311-7.216-1.524-1.178.77-1.237,2.833-1.126,4.948a6.178,6.178,0,0,1-1.311,4.126l-1.694,2.169-.049.056" transform="translate(-161.096 -33.509)" fill="#231f20"/>
        <path id="Trazado_191767" data-name="Trazado 191767" d="M333.052,270.32H359.4l1.471-10.717c6.026-3.4,8.8-9.552,9.4-16.444l.439-5.038H332.929Z" transform="translate(-150.967 -107.976)" fill="#414042"/>
        <path id="Trazado_191768" data-name="Trazado 191768" d="M359.419,270.414H332.055l-.125-32.743a.546.546,0,0,1,.544-.549h0a.546.546,0,0,1,.547.544l.121,31.655h25.322l1.443-10.513.236-.133c6.716-3.788,8.668-10.8,9.123-16.015a.546.546,0,0,1,1.089.1c-.676,7.744-3.937,13.524-9.438,16.736Z" transform="translate(-150.514 -107.523)" fill="#231f20"/>
        <path id="Trazado_191769" data-name="Trazado 191769" d="M379.446,183.69l-1.9-26.49,2.675-19.914c.6-6.838-4.177-13.136-11.535-15.255-5.521-1.59-12.024,2-18.978,3.151-10.106,1.67-13.5,8.189-14.219,17.279l-2.557,42.453c-.009.083.678.557,2.89.385h42.129a1.5,1.5,0,0,0,1.5-1.61" transform="translate(-150.967 -55.154)" fill="#ffcec9"/>
        <path id="Trazado_191770" data-name="Trazado 191770" d="M334.453,185.431a3.556,3.556,0,0,1-2.352-.552l-.179-.186.009-.295,2.553-42.423c.853-10.767,5.379-16.249,14.675-17.785a59.328,59.328,0,0,0,6.947-1.733c4.372-1.282,8.5-2.491,12.272-1.405,7.646,2.2,12.551,8.711,11.928,15.828l-2.67,19.883,1.914,26.652a1.844,1.844,0,0,1-1.84,1.976H335.363c-.329.026-.632.038-.91.038m-1.431-.987,0,.05a.4.4,0,0,0,0-.05m.016-.277a6.05,6.05,0,0,0,2.282.133l42.39,0a.751.751,0,0,0,.75-.805l-1.922-26.765,2.682-19.969c.573-6.565-4.008-12.6-11.145-14.658-3.466-1-7.447.169-11.662,1.4a60.135,60.135,0,0,1-7.076,1.762c-8.713,1.44-12.958,6.616-13.763,16.783Z" transform="translate(-150.51 -54.7)" fill="#231f20"/>
        <path id="Trazado_191771" data-name="Trazado 191771" d="M280.793,82.946l15.974,21.112a7.1,7.1,0,0,0,4.36,2.535c4.364.935,6.924,2.956,17.4,1.433,4.586-.667,2.7,18.338,2.7,18.338L298.8,124.321a19.446,19.446,0,0,1-14.886-8.8l-15.495-25.58Z" transform="translate(-121.714 -37.612)" fill="#fff"/>
        <path id="Trazado_191772" data-name="Trazado 191772" d="M273.9,65.837c-4.172-3.012-2-11.708-6.808-12.563-2.185,1.5,1.02,6.037-.739,8.419a12.035,12.035,0,0,1-3.1,1.552h-7.346c-1.365,6.14,2.786,8.393,6.65,13.072a8.98,8.98,0,0,0,4.85,4.126c2.676-2.725,5.364-5.491,8.047-8.227-.156-2.209-.346-4.525-1.556-6.38" transform="translate(-115.921 -24.157)" fill="#fff"/>
        <path id="Trazado_191773" data-name="Trazado 191773" d="M262.106,76.384a.547.547,0,0,1-.422-.2c-.836-1.013-1.682-1.906-2.5-2.769-2.893-3.055-5.391-5.694-4.263-10.77l.1-.428H262.8a13.255,13.255,0,0,0,2.712-1.408c.643-.97.359-2.459.084-3.9-.337-1.766-.686-3.593.731-4.566l.185-.127.22.04c2.926.521,3.572,3.529,4.2,6.438.441,2.058.9,4.187,2.112,5.562a7.959,7.959,0,0,1,2.045,4.647l.005.069a.546.546,0,1,1-1.09.078L274,69a6.884,6.884,0,0,0-1.776-4.019c-1.4-1.59-1.89-3.86-2.362-6.056-.577-2.687-1.077-5.021-3.082-5.54-.579.577-.425,1.666-.108,3.321.312,1.633.664,3.483-.333,4.834l-.06.081-.085.055c-.263.168-2.589,1.637-3.391,1.637h-6.9c-.779,4.225,1.272,6.391,4.077,9.353.83.877,1.689,1.784,2.549,2.825a.547.547,0,0,1-.421.895" transform="translate(-115.469 -23.677)" fill="#231f20"/>
        <path id="Trazado_191774" data-name="Trazado 191774" d="M336.271,159.743l17.373,1.444-18.983,25.285Z" transform="translate(-151.752 -72.436)" fill="#231f20"/>
        <path id="Trazado_191775" data-name="Trazado 191775" d="M364.663,86.24a.544.544,0,0,1-.45-.236A.812.812,0,0,0,363,85.81a.547.547,0,1,1-.6-.917,1.913,1.913,0,0,1,2.706.494.546.546,0,0,1-.451.853" transform="translate(-164.221 -38.331)" fill="#231f20"/>
        <path id="Trazado_191776" data-name="Trazado 191776" d="M363.3,90.531c-.077.439.046.827.275.867s.476-.284.553-.723-.046-.827-.275-.867-.476.284-.553.723" transform="translate(-164.727 -40.722)" fill="#231f20"/>
        <path id="Trazado_191777" data-name="Trazado 191777" d="M363.069,58.64a6.945,6.945,0,0,1,4.791,3.8,5.213,5.213,0,0,1,7.875,3.23c.165.021.329.048.494.084a5.6,5.6,0,0,1,4.383,4.981,5.984,5.984,0,0,1-1.736,11.4l-.1.131c-1.235,1.616-2.338,3.371-3.587,4.952-.318.4-1.975,2.726-2.2,1.157a17.01,17.01,0,0,1-.071-4.406c.142-1.193.759-2.523.872-3.689q-.159-.171-.3-.353a12.515,12.515,0,0,1-1.581-.022,1.889,1.889,0,0,1-1.208-.455,2.141,2.141,0,0,1-.218-1.943,9.844,9.844,0,0,0,.467-1.88,6.123,6.123,0,0,1-7.727-3.341l-.069-.06a6.962,6.962,0,1,1-.084-13.584" transform="translate(-160.802 -26.517)" fill="#414042"/>
        <path id="Trazado_191778" data-name="Trazado 191778" d="M381.075,95.316c-1.539,1.689-1.75,4-.469,5.169s3.564.741,5.1-.948,1.75-4,.47-5.169-3.564-.741-5.1.948" transform="translate(-172.206 -42.493)" fill="#fff"/>
        <path id="Trazado_191779" data-name="Trazado 191779" d="M384.892,100.755a.547.547,0,0,1-.253-1.031,4.683,4.683,0,0,0,1.3-1.008c1.334-1.464,1.56-3.436.506-4.4a2.253,2.253,0,0,0-1.986-.463,4.306,4.306,0,0,0-2.345,1.376.547.547,0,1,1-.808-.737,5.405,5.405,0,0,1,2.954-1.715,3.336,3.336,0,0,1,2.922.73c1.5,1.367,1.305,4.032-.434,5.942a5.77,5.77,0,0,1-1.6,1.241.545.545,0,0,1-.252.062" transform="translate(-172.837 -42.04)" fill="#231f20"/>
        <path id="Trazado_191780" data-name="Trazado 191780" d="M328.179,132.724l-.046,0-29.833-2.5a20.1,20.1,0,0,1-15.3-9.044L267.5,95.581a.547.547,0,1,1,.935-.567l15.494,25.58a19,19,0,0,0,14.459,8.535l29.839,2.5a.546.546,0,0,1-.045,1.091" transform="translate(-121.26 -42.965)" fill="#231f20"/>
        <path id="Trazado_191781" data-name="Trazado 191781" d="M331.414,119.832H331.4a.547.547,0,0,1-.536-.557c.089-4.618-.246-8.007-.97-9.8-.6-1.489-1.258-1.388-1.475-1.36-8.335,1.211-11.705.221-14.963-.739-.879-.259-1.709-.5-2.631-.7a7.708,7.708,0,0,1-4.7-2.759l-15.96-21.092a.547.547,0,0,1,.872-.66l15.973,21.112a6.514,6.514,0,0,0,4.04,2.331c.961.206,1.85.467,2.71.72,3.146.925,6.4,1.882,14.5.706.786-.115,1.884.145,2.646,2.033.789,1.957,1.142,5.4,1.049,10.231a.547.547,0,0,1-.547.536" transform="translate(-131.528 -37.159)" fill="#231f20"/>
        <path id="Trazado_191782" data-name="Trazado 191782" d="M319.378,128.579a.546.546,0,0,1-.547-.547,7,7,0,0,1,1.609-4.475.547.547,0,0,1,.806.739,6,6,0,0,0-1.322,3.736.546.546,0,0,1-.547.547" transform="translate(-144.574 -55.947)" fill="#231f20"/>
        <path id="Trazado_191783" data-name="Trazado 191783" d="M359.007,103.636a3.222,3.222,0,0,1-2.007-.691.546.546,0,0,1,.714-.827,2.346,2.346,0,0,0,2.779-.049.546.546,0,1,1,.576.929,3.874,3.874,0,0,1-2.063.639" transform="translate(-161.797 -46.246)" fill="#231f20"/>
        <path id="Trazado_191784" data-name="Trazado 191784" d="M266.8,297.121.547,297.112a.547.547,0,0,1,0-1.093l266.251.009a.547.547,0,0,1,0,1.093" transform="translate(0 -134.23)" fill="#231f20"/>
      </g>
    </g>
  </g>
</svg>
