<svg xmlns="http://www.w3.org/2000/svg" xmlns:xlink="http://www.w3.org/1999/xlink" width="124" height="124" viewBox="0 0 124 124">
  <defs>
    <filter id="Elipse_4917" x="0" y="0" width="124" height="124" filterUnits="userSpaceOnUse">
      <feOffset dx="5" dy="5" input="SourceAlpha"/>
      <feGaussianBlur stdDeviation="12.5" result="blur"/>
      <feFlood flood-opacity="0.012"/>
      <feComposite operator="in" in2="blur"/>
      <feComposite in="SourceGraphic"/>
    </filter>
  </defs>
  <g id="Grupo_157501" data-name="Grupo 157501" transform="translate(22.923 22.755)">
    <g id="Grupo_156520" data-name="Grupo 156520" transform="translate(0 0)">
      <circle id="Elipse_4916" data-name="Elipse 4916" cx="34.5" cy="34.5" r="34.5" transform="translate(-0.423 -0.255)" fill="#bac1f3"/>
      <g transform="matrix(1, 0, 0, 1, -22.92, -22.75)" filter="url(#Elipse_4917)">
        <circle id="Elipse_4917-2" data-name="Elipse 4917" cx="24.5" cy="24.5" r="24.5" transform="translate(32.5 32.5)" fill="#fff"/>
      </g>
    </g>
    <path id="Trazado_197319" data-name="Trazado 197319" d="M20.66,13.189a6.789,6.789,0,0,1-1.294,4.443A4.471,4.471,0,0,1,15.719,19.2a4.5,4.5,0,0,1-3.672-1.572,6.779,6.779,0,0,1-1.3-4.434v-2.6a6.789,6.789,0,0,1,1.294-4.443A4.483,4.483,0,0,1,15.7,4.586a4.484,4.484,0,0,1,3.662,1.572,6.8,6.8,0,0,1,1.3,4.443Zm-3.291-3.018a5.071,5.071,0,0,0-.4-2.29,1.338,1.338,0,0,0-1.27-.757,1.307,1.307,0,0,0-1.235.7,4.777,4.777,0,0,0-.415,2.129V13.59a5.109,5.109,0,0,0,.4,2.329,1.343,1.343,0,0,0,1.27.737,1.325,1.325,0,0,0,1.24-.718,4.878,4.878,0,0,0,.41-2.251Zm13.691,3.271h1.445v2.539H31.061V19H27.77V15.982h-5.5l-.2-2.012,5.693-9.16V4.781h3.291Zm-5.85,0H27.77V9.068l-.205.332Z" transform="translate(13.577 21.744)" fill="#12263f"/>
  </g>
</svg>
