<svg xmlns="http://www.w3.org/2000/svg" xmlns:xlink="http://www.w3.org/1999/xlink" width="478.475" height="316.009" viewBox="0 0 478.475 316.009">
  <defs>
    <linearGradient id="linear-gradient" x1="0.5" x2="0.5" y2="1.285" gradientUnits="objectBoundingBox">
      <stop offset="0" stop-color="#fed981"/>
      <stop offset="0.522" stop-color="#ff8578"/>
      <stop offset="1" stop-color="#5263e2"/>
    </linearGradient>
    <clipPath id="clip-path">
      <rect id="Rectángulo_38524" data-name="Rectángulo 38524" width="415.453" height="315.07" fill="none"/>
    </clipPath>
    <clipPath id="clip-path-2">
      <rect id="Rectángulo_43449" data-name="Rectángulo 43449" width="403.302" height="293.077" fill="none"/>
    </clipPath>
    <clipPath id="clip-path-4">
      <rect id="Rectángulo_43445" data-name="Rectángulo 43445" width="2.938" height="1.89" fill="none"/>
    </clipPath>
    <clipPath id="clip-path-5">
      <rect id="Rectángulo_43446" data-name="Rectángulo 43446" width="3.03" height="1.923" fill="none"/>
    </clipPath>
    <clipPath id="clip-path-6">
      <rect id="Rectángulo_43447" data-name="Rectángulo 43447" width="3.155" height="2.113" fill="none"/>
    </clipPath>
  </defs>
  <g id="Grupo_157682" data-name="Grupo 157682" transform="translate(-915 -177.837)">
    <g id="Grupo_152991" data-name="Grupo 152991" transform="translate(879.037 -58.073)">
      <path id="Trazado_160111" data-name="Trazado 160111" d="M99.994,504.606H498.51c11.156-62.975,11.719-129.17-14.933-187.307-7.922-17.28-18.411-33.792-33.192-45.745-11.756-9.507-25.883-15.823-40.527-19.583-38.607-9.913-81.483-1.62-113.609,21.973-17.36,12.749-30.077,31.736-46.866,45.569-23.613,19.457-42.85,13.534-71.119,10.293-27.168-3.115-59.729-6.19-84.064,8.966-26.358,16.416-36.7,50.96-33.093,81.8S85.289,477.257,99.994,504.606Z" transform="translate(-24.448 -11)" fill="#fff"/>
      <path id="Trazado_160112" data-name="Trazado 160112" d="M99.994,504.606H498.51c11.156-62.975,11.719-129.17-14.933-187.307-7.922-17.28-18.411-33.792-33.192-45.745-11.756-9.507-25.883-15.823-40.527-19.583-38.607-9.913-81.483-1.62-113.609,21.973-17.36,12.749-30.077,31.736-46.866,45.569-23.613,19.457-42.85,13.534-71.119,10.293-27.168-3.115-59.729-6.19-84.064,8.966-26.358,16.416-36.7,50.96-33.093,81.8S85.289,477.257,99.994,504.606Z" transform="translate(8.689 -1.654)" fill="#fff"/>
      <path id="Trazado_160067" data-name="Trazado 160067" d="M99.994,504.606H498.51c11.156-62.975,11.719-129.17-14.933-187.307-7.922-17.28-18.411-33.792-33.192-45.745-11.756-9.507-25.883-15.823-40.527-19.583-38.607-9.913-81.483-1.62-113.609,21.973-17.36,12.749-30.077,31.736-46.866,45.569-23.613,19.457-42.85,13.534-71.119,10.293-27.168-3.115-59.729-6.19-84.064,8.966-26.358,16.416-36.7,50.96-33.093,81.8S85.289,477.257,99.994,504.606Z" transform="translate(-3.675 -1.653)" fill="url(#linear-gradient)"/>
    </g>
    <g id="Grupo_145046" data-name="Grupo 145046" transform="translate(915 178.776)">
      <g id="Grupo_145045" data-name="Grupo 145045" clip-path="url(#clip-path)">
        <path id="Trazado_149904" data-name="Trazado 149904" d="M32.977,85.132H6.046a6.046,6.046,0,1,1,0-12.091H32.977a6.046,6.046,0,0,1,0,12.091" fill="#f45742"/>
        <path id="Trazado_149905" data-name="Trazado 149905" d="M265.083,309.268a5.8,5.8,0,1,1-5.8-5.8,5.8,5.8,0,0,1,5.8,5.8" fill="#a797fc"/>
        <path id="Trazado_149906" data-name="Trazado 149906" d="M50.381,17.56A17.56,17.56,0,1,1,32.821,0a17.56,17.56,0,0,1,17.56,17.56" fill="#43a99b"/>
        <path id="Trazado_149907" data-name="Trazado 149907" d="M409.606,79.086h-47.6a5.847,5.847,0,1,1,0-11.693h47.6a5.847,5.847,0,0,1,0,11.693" transform="translate(100 67)" fill="#fff3cd"/>
      </g>
    </g>
    <g id="Grupo_157667" data-name="Grupo 157667" transform="translate(968.031 177.837)">
      <g id="Grupo_157473" data-name="Grupo 157473" clip-path="url(#clip-path-2)">
        <g id="Grupo_157472" data-name="Grupo 157472">
          <g id="Grupo_157471" data-name="Grupo 157471" clip-path="url(#clip-path-2)">
            <path id="Trazado_196919" data-name="Trazado 196919" d="M404.771,288.5V146.846H321.558V288.5a7.275,7.275,0,0,0,7.275,7.275H397.5a7.275,7.275,0,0,0,7.275-7.275" transform="translate(-92.266 -42.135)" fill="#fff"/>
            <rect id="Rectángulo_43442" data-name="Rectángulo 43442" width="12.683" height="28.188" transform="translate(264.623 154.82)" fill="#43a99b"/>
            <path id="Trazado_196920" data-name="Trazado 196920" d="M382.484,241.492q.664.036,1.3.056v10.708H371.106V241.519a96.2,96.2,0,0,1,11.378-.027" transform="translate(-106.483 -69.248)" fill="#358477"/>
            <rect id="Rectángulo_43443" data-name="Rectángulo 43443" width="12.683" height="13.088" transform="translate(243.894 169.921)" fill="#43a99b"/>
            <path id="Trazado_196921" data-name="Trazado 196921" d="M342.035,246.9a46.227,46.227,0,0,1,12.683-3.967v9.785H342.035Z" transform="translate(-98.141 -69.704)" fill="#358477"/>
            <rect id="Rectángulo_43444" data-name="Rectángulo 43444" width="12.683" height="44.425" transform="translate(285.353 138.584)" fill="#43a99b"/>
            <path id="Trazado_196922" data-name="Trazado 196922" d="M412.86,231.532v17.91H400.177v-11.2c6.213-1.058,10.1-3.654,12.683-6.714" transform="translate(-114.824 -66.434)" fill="#358477"/>
            <path id="Trazado_196923" data-name="Trazado 196923" d="M395.221,165.013l-11.542,2.475,3.1,3.041-17.671,18.016-6.2-6.083-21.929,22.357a2.163,2.163,0,1,0,3.089,3.03l18.9-19.267,6.2,6.082,20.7-21.1,3.1,3.041Z" transform="translate(-97.66 -47.348)" fill="#a4a3ff"/>
            <path id="Trazado_196924" data-name="Trazado 196924" d="M363.268,269.367H333.9a1.676,1.676,0,0,0-1.69,1.565,1.645,1.645,0,0,0,1.643,1.724h29.415a1.645,1.645,0,1,0,0-3.289" transform="translate(-95.321 -77.29)" fill="#c9daf4"/>
            <path id="Trazado_196925" data-name="Trazado 196925" d="M364.913,280.894a1.645,1.645,0,0,0-1.645-1.645H333.853a1.645,1.645,0,1,0,0,3.29h29.415a1.645,1.645,0,0,0,1.645-1.645" transform="translate(-95.322 -80.126)" fill="#c9daf4"/>
            <path id="Trazado_196926" data-name="Trazado 196926" d="M364.913,290.777a1.645,1.645,0,0,0-1.645-1.645H333.853a1.645,1.645,0,1,0,0,3.29h29.415a1.645,1.645,0,0,0,1.645-1.645" transform="translate(-95.322 -82.962)" fill="#c9daf4"/>
            <path id="Trazado_196927" data-name="Trazado 196927" d="M363.268,299.015H333.9a1.676,1.676,0,0,0-1.69,1.565,1.645,1.645,0,0,0,1.643,1.724h29.415a1.645,1.645,0,1,0,0-3.289" transform="translate(-95.321 -85.797)" fill="#c9daf4"/>
            <path id="Trazado_196928" data-name="Trazado 196928" d="M363.268,308.9H333.9a1.676,1.676,0,0,0-1.69,1.565,1.645,1.645,0,0,0,1.643,1.724h29.415a1.645,1.645,0,1,0,0-3.289" transform="translate(-95.321 -88.633)" fill="#c9daf4"/>
            <path id="Trazado_196929" data-name="Trazado 196929" d="M398.175,336.9H334.359a2.174,2.174,0,0,1-2.173-2.173v-9.2a2.173,2.173,0,0,1,2.173-2.173h63.815a2.173,2.173,0,0,1,2.173,2.173v9.2a2.174,2.174,0,0,1-2.173,2.173" transform="translate(-95.315 -92.782)" fill="#c9daf4"/>
            <path id="Trazado_196930" data-name="Trazado 196930" d="M416.778,286.8a15.843,15.843,0,1,1-30.459-6.123l14.617,6.123-.751-15.822c.246-.016.5-.02.751-.02A15.842,15.842,0,0,1,416.778,286.8" transform="translate(-110.496 -77.748)" fill="#a4a3ff"/>
            <path id="Trazado_196931" data-name="Trazado 196931" d="M398.672,267.484a15.858,15.858,0,0,0-13.865,9.7l14.616,6.122Z" transform="translate(-110.414 -76.75)" fill="#ff8578"/>
            <path id="Trazado_196932" data-name="Trazado 196932" d="M337.511,173.687l0,1.274-1.619,0,0-1.216a6.755,6.755,0,0,1-2.947-.81l.877-1.972a5.5,5.5,0,0,0,2.649.741c.769,0,1.045-.158,1.045-.434,0-1.01-4.441-.205-4.434-3.2,0-1.3.947-2.385,2.83-2.644l0-1.251,1.618,0,0,1.228a5.989,5.989,0,0,1,2.328.671l-.82,1.961a4.961,4.961,0,0,0-2.236-.6c-.792,0-1.045.227-1.045.5,0,.964,4.441.171,4.434,3.132,0,1.24-.9,2.317-2.68,2.622" transform="translate(-95.533 -47.106)" fill="#c9daf4"/>
            <path id="Trazado_196933" data-name="Trazado 196933" d="M367.45,165.762h-19.5a1.675,1.675,0,0,0-1.689,1.565,1.645,1.645,0,0,0,1.643,1.724H367.45a1.645,1.645,0,1,0,0-3.289" transform="translate(-99.353 -47.563)" fill="#c9daf4"/>
            <path id="Trazado_196934" data-name="Trazado 196934" d="M367.45,174.985h-19.5a1.675,1.675,0,0,0-1.689,1.565,1.645,1.645,0,0,0,1.643,1.724H367.45a1.645,1.645,0,1,0,0-3.289" transform="translate(-99.353 -50.209)" fill="#c9daf4"/>
            <path id="Trazado_196935" data-name="Trazado 196935" d="M404.771,141.832v8.355H321.558v-8.355a4.1,4.1,0,0,1,4.1-4.1h75a4.1,4.1,0,0,1,4.1,4.1" transform="translate(-92.266 -39.519)" fill="#a4a3ff"/>
            <path id="Trazado_196936" data-name="Trazado 196936" d="M411.251,145.941A2.249,2.249,0,1,1,409,143.692a2.248,2.248,0,0,1,2.248,2.249" transform="translate(-116.711 -41.23)" fill="#8585e0"/>
            <path id="Trazado_196937" data-name="Trazado 196937" d="M421.472,145.941a2.249,2.249,0,1,1-2.248-2.249,2.248,2.248,0,0,1,2.248,2.249" transform="translate(-119.644 -41.23)" fill="#ff8578"/>
            <path id="Trazado_196938" data-name="Trazado 196938" d="M431.259,145.941a2.249,2.249,0,1,1-2.249-2.249,2.248,2.248,0,0,1,2.249,2.249" transform="translate(-122.452 -41.23)" fill="#12263f"/>
            <path id="Trazado_196939" data-name="Trazado 196939" d="M117.034,84.96V8.41H47.87V84.96A6.142,6.142,0,0,0,54.012,91.1h56.878a6.142,6.142,0,0,0,6.143-6.142" transform="translate(-13.736 -2.413)" fill="#fff"/>
            <path id="Trazado_196940" data-name="Trazado 196940" d="M69.37,106.239H64.944a1.893,1.893,0,0,1-1.893-1.892V88.288A1.893,1.893,0,0,1,64.944,86.4H69.37a1.893,1.893,0,0,1,1.893,1.892v16.058a1.893,1.893,0,0,1-1.893,1.893" transform="translate(-18.091 -24.79)" fill="#a4a3ff"/>
            <path id="Trazado_196941" data-name="Trazado 196941" d="M71.262,101.341v7.932a1.22,1.22,0,0,1-1.219,1.219H64.269a1.22,1.22,0,0,1-1.219-1.219v-6.867c1.465-.854,3.959-1.465,8.212-1.065" transform="translate(-18.091 -29.042)" fill="#8585e0"/>
            <path id="Trazado_196942" data-name="Trazado 196942" d="M86.356,100.569H81.93a1.893,1.893,0,0,1-1.893-1.893V68.525a1.893,1.893,0,0,1,1.893-1.892h4.426a1.893,1.893,0,0,1,1.893,1.892v30.15a1.893,1.893,0,0,1-1.893,1.893" transform="translate(-22.965 -19.119)" fill="#ff8578"/>
            <path id="Trazado_196943" data-name="Trazado 196943" d="M88.249,101.855v7.6a1.22,1.22,0,0,1-1.219,1.219H81.256a1.22,1.22,0,0,1-1.219-1.219v-7.41a27.163,27.163,0,0,0,8.212-.191" transform="translate(-22.965 -29.226)" fill="#c45755"/>
            <path id="Trazado_196944" data-name="Trazado 196944" d="M105.166,96.384H100.74a1.893,1.893,0,0,1-1.893-1.892V53.942a1.893,1.893,0,0,1,1.893-1.893h4.426a1.893,1.893,0,0,1,1.893,1.893V94.491a1.893,1.893,0,0,1-1.893,1.893" transform="translate(-28.363 -14.935)" fill="#a4a3ff"/>
            <path id="Trazado_196945" data-name="Trazado 196945" d="M98.847,97.678a37.733,37.733,0,0,0,8.212-4.96v14.117a1.22,1.22,0,0,1-1.219,1.219h-5.774a1.22,1.22,0,0,1-1.219-1.219Z" transform="translate(-28.363 -26.604)" fill="#fff"/>
            <path id="Trazado_196946" data-name="Trazado 196946" d="M98.847,97.678a37.733,37.733,0,0,0,8.212-4.96v14.117a1.22,1.22,0,0,1-1.219,1.219h-5.774a1.22,1.22,0,0,1-1.219-1.219Z" transform="translate(-28.363 -26.604)" fill="#8585e0"/>
            <path id="Trazado_196947" data-name="Trazado 196947" d="M124.266,91.473h-5.774a1.219,1.219,0,0,1-1.219-1.219v-54.1a1.219,1.219,0,0,1,1.219-1.219h5.774a1.22,1.22,0,0,1,1.219,1.219v54.1a1.22,1.22,0,0,1-1.219,1.219" transform="translate(-33.65 -10.024)" fill="#ff8578"/>
            <path id="Trazado_196948" data-name="Trazado 196948" d="M125.485,87.43v17.449a1.219,1.219,0,0,1-1.219,1.219h-5.774a1.22,1.22,0,0,1-1.219-1.219V86.907c2.822-1.746,5.745-.983,8.212.523" transform="translate(-33.65 -24.648)" fill="#c45755"/>
            <path id="Trazado_196949" data-name="Trazado 196949" d="M97.791,27.888l-7.584,1.627,2.037,2L80.632,43.35l-4.075-4-14.41,14.69a1.422,1.422,0,1,0,2.03,1.992L76.6,43.374l4.074,4L94.274,33.5l2.037,2Z" transform="translate(-17.715 -8.002)" fill="#43a99b"/>
            <path id="Trazado_196950" data-name="Trazado 196950" d="M117.034,3.411v9.46H47.87V3.411A3.412,3.412,0,0,1,51.282,0h62.34a3.412,3.412,0,0,1,3.412,3.411" transform="translate(-13.736)" fill="#a4a3ff"/>
            <path id="Trazado_196951" data-name="Trazado 196951" d="M119.568,7.25A2.249,2.249,0,1,1,117.32,5a2.248,2.248,0,0,1,2.248,2.248" transform="translate(-33.018 -1.435)" fill="#8585e0"/>
            <path id="Trazado_196952" data-name="Trazado 196952" d="M129.789,7.25A2.249,2.249,0,1,1,127.541,5a2.248,2.248,0,0,1,2.248,2.248" transform="translate(-35.95 -1.435)" fill="#ff8578"/>
            <path id="Trazado_196953" data-name="Trazado 196953" d="M139.576,7.25A2.249,2.249,0,1,1,137.328,5a2.248,2.248,0,0,1,2.248,2.248" transform="translate(-38.759 -1.435)" fill="#12263f"/>
            <path id="Trazado_196954" data-name="Trazado 196954" d="M309.61,122.388a13.053,13.053,0,0,1-6.36-1.572c-3.054-1.67-7.8-5.619-17.448-21.464-4.977-8.173-8.94-15.705-9.107-16.022a7.705,7.705,0,1,1,13.645-7.163c.056.106,3.813,7.244,8.424,14.84,6.713,11.062,10.168,14.767,11.4,15.885,1.125-.255,4.15-1.292,9.88-5.519a96.236,96.236,0,0,0,8.055-6.692,7.705,7.705,0,0,1,10.618,11.168,108.919,108.919,0,0,1-11.272,9.182,50.443,50.443,0,0,1-10.377,5.809,20.775,20.775,0,0,1-7.459,1.548m1.087-15.062h0" transform="translate(-79.14 -20.671)" fill="#fed981"/>
            <path id="Trazado_196955" data-name="Trazado 196955" d="M348.839,111.809a1.014,1.014,0,1,0,1.328-.538,1.013,1.013,0,0,0-1.328.538" transform="translate(-100.07 -31.904)" fill="#ddad3d"/>
            <path id="Trazado_196956" data-name="Trazado 196956" d="M354.634,118.608a10.2,10.2,0,0,1-8.818-4.775,15.122,15.122,0,0,1-2.176-5.277.433.433,0,0,1,.854-.146,14.518,14.518,0,0,0,2.059,4.967,9.332,9.332,0,0,0,9.039,4.328.433.433,0,0,1,.066.864c-.351.027-.693.04-1.024.04" transform="translate(-98.6 -31.003)" fill="#ddad3d"/>
            <path id="Trazado_196957" data-name="Trazado 196957" d="M352.486,118.927a.433.433,0,0,1-.233-.8,12.118,12.118,0,0,0,3.631-3.985.433.433,0,0,1,.765.405,12.789,12.789,0,0,1-3.93,4.309.428.428,0,0,1-.233.068" transform="translate(-101.016 -32.686)" fill="#ddad3d"/>
            <path id="Trazado_196958" data-name="Trazado 196958" d="M323.655,106.37h44.3a2.053,2.053,0,0,0,0-4.106h-44.3a2.053,2.053,0,1,0,0,4.106" transform="translate(-92.278 -29.343)" fill="#e8e8e8"/>
            <path id="Trazado_196959" data-name="Trazado 196959" d="M339.283,98.331h33.549a2.026,2.026,0,0,0,1.843-1.183l9.172-20.028A2.028,2.028,0,0,0,382,74.249h-33.55a2.027,2.027,0,0,0-1.843,1.183L337.44,95.461a2.027,2.027,0,0,0,1.843,2.871" transform="translate(-96.769 -21.305)" fill="#f6f6f6"/>
            <path id="Trazado_196960" data-name="Trazado 196960" d="M368.484,89.963A2.913,2.913,0,1,0,371.4,87.05a2.913,2.913,0,0,0-2.913,2.913" transform="translate(-105.73 -24.978)" fill="#a4a3ff"/>
            <path id="Trazado_196961" data-name="Trazado 196961" d="M352.293,108a5.268,5.268,0,0,0,5.1,2,10.636,10.636,0,0,0,3.08-1c.752-.382,1.679-1.064,2.335-.993,1.627.178,2.22-.946,2.633-1.05a2.905,2.905,0,0,0,1.593.276,5.418,5.418,0,0,0,1.961-.624h0c1.619-.019,3.031.041,3.487-.276.912-.634,1.8-6.86.245-7.117-2.059-.34-1.013,4.251-2.892,5.119,0,0,1.414-5.8-.9-6.231-1.581-.292-1.834,5.494-3.515,6.543,0,0,1.593-5.377-.116-6.239s-1.7,5.62-3.449,5.787c-.356.033,1.415-4.591-.634-4.84s-.9,5.276-6.959,5.151c-2.454-.05-3.449,1.5-1.971,3.5" transform="translate(-100.886 -28.145)" fill="#ff8c64"/>
            <path id="Trazado_196962" data-name="Trazado 196962" d="M317.884,127.182a.433.433,0,0,1-.368-.661,48.579,48.579,0,0,1,4.381-5.281.433.433,0,0,1,.63.594,48.965,48.965,0,0,0-4.274,5.143.433.433,0,0,1-.369.205" transform="translate(-91.087 -34.749)" fill="#ddad3d"/>
            <path id="Trazado_196963" data-name="Trazado 196963" d="M316.377,124.588a.433.433,0,0,1-.187-.824,17.077,17.077,0,0,1,4.654-1.525.433.433,0,1,1,.038.865,16.69,16.69,0,0,0-4.318,1.441.428.428,0,0,1-.187.043" transform="translate(-90.655 -35.074)" fill="#ddad3d"/>
            <path id="Trazado_196964" data-name="Trazado 196964" d="M205.857,371.608l-.752,10.581,10.863.205.6-9.926Z" transform="translate(-58.851 -106.627)" fill="#ff8c64"/>
            <path id="Trazado_196965" data-name="Trazado 196965" d="M249.18,196.354l-.651,1.753-21.17,57.005c0,23.553-10.647,66.039-10.647,66.039l-12.758-.607,3.5-66.434.048-.911c.021-.082.041-.165.063-.248,3.272-13.086,10.081-45.774,14.714-61.539q.195-.667.377-1.287c.738-2.508,1.306-4.435,1.646-5.587.232-.784.357-1.208.357-1.208l3.579,1.9,1.028.545Z" transform="translate(-58.521 -52.604)" fill="#12263f"/>
            <path id="Trazado_196966" data-name="Trazado 196966" d="M215.631,281.013a13.433,13.433,0,0,1-4.981.9,17.338,17.338,0,0,1-1.788-.1l.047-.911c.022-.082.041-.165.063-.248a16.385,16.385,0,0,0,1.7.092,12.238,12.238,0,0,0,4.529-.811.576.576,0,1,1,.425,1.071" transform="translate(-59.93 -80.313)" fill="#564c54"/>
            <path id="Trazado_196967" data-name="Trazado 196967" d="M215.23,397.088c0,.084,0,.166,0,.247-.008.374-.024.711-.04,1-.038.635-.084,1.026-.084,1.026H194.015a11.626,11.626,0,0,1-.024-2.026,10.539,10.539,0,0,1,3.766-7.807c3.986-3.083,2.447-2.439,3.264-3.844.093-.156.81-2.543.886-2.708.685-1.459,1.316-2.148,5.094-2.148,5.011,0,5.451,2.431,5.987,3.711a24.032,24.032,0,0,1,.834,2.976c.126.533.252,1.1.377,1.681.309,1.453.6,2.971.794,4.181a21.828,21.828,0,0,1,.237,3.71" transform="translate(-55.654 -109.272)" fill="#43a99b"/>
            <path id="Trazado_196968" data-name="Trazado 196968" d="M222.712,399.771c0,.084,0,.166,0,.247-.008.374-.024.711-.04,1a5.888,5.888,0,0,1-2.191-2.84c-1.3-3.553.7-7.818.786-8l.042.02c.126.533.252,1.1.377,1.681a9.589,9.589,0,0,0-.262,5.955,4.9,4.9,0,0,0,1.293,1.936" transform="translate(-63.136 -111.955)" fill="#4ed1bb"/>
            <path id="Trazado_196969" data-name="Trazado 196969" d="M215.225,403.976c-.028,1.2-.124,2.026-.124,2.026H194.015a11.631,11.631,0,0,1-.024-2.026Z" transform="translate(-55.654 -115.914)" fill="#4ed1bb"/>
            <path id="Trazado_196970" data-name="Trazado 196970" d="M210.892,389.418a.614.614,0,0,1-.151-.019,10.426,10.426,0,0,0-4.888-.1.6.6,0,1,1-.321-1.159,11.557,11.557,0,0,1,5.511.1.6.6,0,0,1-.15,1.184" transform="translate(-58.847 -111.289)" fill="#4ed1bb"/>
            <path id="Trazado_196971" data-name="Trazado 196971" d="M211.377,386.011a.617.617,0,0,1-.151-.019,10.425,10.425,0,0,0-4.888-.1.6.6,0,0,1-.321-1.159,11.568,11.568,0,0,1,5.511.1.6.6,0,0,1-.15,1.184" transform="translate(-58.986 -110.311)" fill="#4ed1bb"/>
            <path id="Trazado_196972" data-name="Trazado 196972" d="M209.627,392.089a.611.611,0,0,1-.151-.019,10.536,10.536,0,0,0-4.89-.1.6.6,0,0,1-.319-1.159,11.567,11.567,0,0,1,5.511.1.6.6,0,0,1-.15,1.184" transform="translate(-58.485 -112.055)" fill="#4ed1bb"/>
            <path id="Trazado_196973" data-name="Trazado 196973" d="M208.141,395.127a.612.612,0,0,1-.151-.019,10.524,10.524,0,0,0-4.89-.1.6.6,0,0,1-.319-1.159,11.568,11.568,0,0,1,5.511.1.6.6,0,0,1-.15,1.184" transform="translate(-58.058 -112.927)" fill="#4ed1bb"/>
            <path id="Trazado_196974" data-name="Trazado 196974" d="M219.744,327.265a.577.577,0,0,1-.567-.691c.056-.277,5.6-27.8,7.115-36.264,1.512-8.428,2.148-30.547,2.154-30.77a.6.6,0,0,1,.051-.22c3.6-8.043,20.049-53.051,20.215-53.5a.577.577,0,0,1,1.083.4c-.165.452-16.494,45.12-20.2,53.476-.052,1.743-.7,22.631-2.169,30.827-1.521,8.476-7.064,36.011-7.119,36.288a.576.576,0,0,1-.564.463" transform="translate(-62.886 -58.947)" fill="#564c54"/>
            <path id="Trazado_196975" data-name="Trazado 196975" d="M269.021,371.608l.19,10.6,9.92.188.056-9.969Z" transform="translate(-77.191 -106.627)" fill="#ff8c64"/>
            <path id="Trazado_196976" data-name="Trazado 196976" d="M301.366,400.2l-35.4-.379a4.944,4.944,0,0,1-.444-1.971c-.19-3,.816-7.765,1.316-10.773.061-.352.113-.68.153-.976a10.454,10.454,0,0,0,.119-1.229,1.805,1.805,0,0,1,2.2-2.014c3.545,3.551,7.657-1.673,10.007.08,0,0,1.013.742,3.8,3.3s7.545,4.278,11.6,6.024c5.229,2.252,6.695,4.461,6.969,5.975a2.767,2.767,0,0,1-.312,1.963" transform="translate(-76.181 -109.771)" fill="#43a99b"/>
            <path id="Trazado_196977" data-name="Trazado 196977" d="M301.376,406.349l-35.4-.379a4.943,4.943,0,0,1-.444-1.971l36.153.386a2.767,2.767,0,0,1-.312,1.963" transform="translate(-76.191 -115.921)" fill="#4ed1bb"/>
            <path id="Trazado_196978" data-name="Trazado 196978" d="M270.12,401.281l-1.052-.011a7.769,7.769,0,0,0,1.964-5.647,9.985,9.985,0,0,0-3.652-7.124c.061-.351.113-.68.154-.976a10.846,10.846,0,0,1,4.34,8.067,8.591,8.591,0,0,1-1.755,5.692" transform="translate(-76.72 -111.193)" fill="#4ed1bb"/>
            <path id="Trazado_196979" data-name="Trazado 196979" d="M289.095,389.953a.583.583,0,0,1-.128-1.151l2.217-.526a.583.583,0,1,1,.269,1.135l-2.217.526a.6.6,0,0,1-.141.016" transform="translate(-82.785 -111.405)" fill="#4ed1bb"/>
            <path id="Trazado_196980" data-name="Trazado 196980" d="M285.7,387.239a.583.583,0,0,1-.128-1.151l2.217-.526a.583.583,0,1,1,.269,1.135l-2.217.526a.6.6,0,0,1-.141.016" transform="translate(-81.81 -110.626)" fill="#4ed1bb"/>
            <path id="Trazado_196981" data-name="Trazado 196981" d="M292.177,391.788a.583.583,0,0,1-.128-1.151l2.217-.526a.583.583,0,1,1,.269,1.135l-2.217.526a.6.6,0,0,1-.141.016" transform="translate(-83.67 -111.932)" fill="#4ed1bb"/>
            <path id="Trazado_196982" data-name="Trazado 196982" d="M295.259,393.554a.583.583,0,0,1-.128-1.151l2.217-.526a.583.583,0,1,1,.269,1.135l-2.217.526a.6.6,0,0,1-.141.016" transform="translate(-84.554 -112.438)" fill="#4ed1bb"/>
            <path id="Trazado_196983" data-name="Trazado 196983" d="M298.623,395.193a.583.583,0,0,1-.128-1.151l2.217-.526a.583.583,0,1,1,.269,1.135l-2.217.526a.6.6,0,0,1-.141.016" transform="translate(-85.519 -112.909)" fill="#4ed1bb"/>
            <path id="Trazado_196984" data-name="Trazado 196984" d="M302.276,396.6a.583.583,0,0,1-.128-1.151l2.218-.526a.583.583,0,0,1,.268,1.135l-2.216.526a.607.607,0,0,1-.141.016" transform="translate(-86.567 -113.312)" fill="#4ed1bb"/>
            <path id="Trazado_196985" data-name="Trazado 196985" d="M282.8,184.762c-4.058,2.709-13.3,4.914-22.659,5.96-12.063,1.349-24.318.779-25.9-3.1q-.267-.658-.49-1.374a.276.276,0,0,0-.011-.041q-.163-.526-.3-1.081c-.165-.661-.3-1.346-.422-2.047-.069-.409-.132-.824-.186-1.241a66.315,66.315,0,0,1-.106-13.486l45.77-9.606s4.517,13.063,5.23,20.756c.04.422.066.829.081,1.217.077,2.013-.193,3.5-1.005,4.047" transform="translate(-66.689 -45.549)" fill="#12263f"/>
            <path id="Trazado_196986" data-name="Trazado 196986" d="M293.608,190.871c0,.359-.006.714-.01,1.071,0,.841-.015,1.679-.023,2.514-.005.434-.01.865-.016,1.3,0,.061,0,.118,0,.176,0,.4-.006.8-.011,1.192-.312,25.921-1.222,49.611-3.088,66.61v.008l-.207,1.165-10.439,58.787-13.436-1.135s.488-46.548,3.446-57.171l-.054-65.157-.005-9.379,18.107,1.9,1.129-.371.665-.217,1.105-.362Z" transform="translate(-76.432 -54.761)" fill="#12263f"/>
            <path id="Trazado_196987" data-name="Trazado 196987" d="M296.384,292.2v.009l-.207,1.164q-.314.015-.623.015a17.838,17.838,0,0,1-8.24-2.259.577.577,0,0,1,.59-.992,16.675,16.675,0,0,0,8.481,2.063" transform="translate(-82.359 -83.226)" fill="#564c54"/>
            <path id="Trazado_196988" data-name="Trazado 196988" d="M269.879,322.757a.438.438,0,0,0,.068,0,.561.561,0,0,0,.557-.565c-.312-39.246,4.606-54.8,4.655-54.951a.534.534,0,0,0,.028-.183l-.981-62.249a.562.562,0,1,0-1.123.018l.98,62.159c-.411,1.356-4.983,17.325-4.681,55.215a.563.563,0,0,0,.5.553" transform="translate(-77.29 -58.609)" fill="#564c54"/>
            <path id="Trazado_196989" data-name="Trazado 196989" d="M300.469,183.863a1.282,1.282,0,0,1-.125-.036,10.8,10.8,0,0,1-2.389-1.16c-.2-.13-.4-.265-.592-.406a13.346,13.346,0,0,1-1.984-1.793,22.909,22.909,0,0,1-4.864-10.091.561.561,0,0,1,1.1-.205c.014.069,1.144,5.936,4.841,9.8a11.781,11.781,0,0,0,1.808,1.559c.1.066.195.132.293.2a10.009,10.009,0,0,0,1.828.923c.039.421.066.829.081,1.216" transform="translate(-83.356 -48.696)" fill="#564c54"/>
            <path id="Trazado_196990" data-name="Trazado 196990" d="M276.56,190.318a.46.46,0,0,1-.442.473h0a.46.46,0,0,1-.489-.429c-.083-1.693-.182-3.426-.291-5.157q-.029-.457-.059-.914c-.368-5.657-.836-11.211-1.188-15.132-.029-.317-.056-.625-.084-.92-.078-.86-.15-1.624-.21-2.27.31-.048.62-.1.927-.15.061.646.133,1.416.212,2.286.028.3.054.6.083.92.349,3.887.814,9.392,1.182,15.014.021.31.041.623.062.933.113,1.793.216,3.592.3,5.344" transform="translate(-78.56 -47.58)" fill="#564c54"/>
            <path id="Trazado_196991" data-name="Trazado 196991" d="M276.363,184.572a12.227,12.227,0,0,1-1.635.626,9.506,9.506,0,0,1-.924.233,6.8,6.8,0,0,1-.886.116,3.229,3.229,0,0,1-1.569-.247,1.914,1.914,0,0,1-1.065-1.429c-.34-1.745-1.055-8.951-1.535-14.048-.031-.313-.059-.619-.088-.916-.076-.815-.144-1.557-.2-2.187.309-.037.62-.075.931-.115.059.633.127,1.384.205,2.21.028.3.056.6.086.916.482,5.085,1.194,12.28,1.524,13.972a1,1,0,0,0,.564.789,3.306,3.306,0,0,0,1.977.026c.314-.068.628-.157.921-.251a11.253,11.253,0,0,0,1.284-.5.474.474,0,0,1,.626.2.446.446,0,0,1-.213.605" transform="translate(-77.03 -47.804)" fill="#564c54"/>
            <path id="Trazado_196992" data-name="Trazado 196992" d="M239.262,178.117a24.807,24.807,0,0,1-2.623,5.956,13.62,13.62,0,0,1-4.378,4.6c-.215.13-.434.25-.66.361a8.027,8.027,0,0,1-1.951.675l.377-1.287a6.89,6.89,0,0,0,1.067-.424,8.178,8.178,0,0,0,.972-.568,12.909,12.909,0,0,0,3.544-3.9,24.349,24.349,0,0,0,2.536-5.712.578.578,0,0,1,1.115.3" transform="translate(-65.895 -50.899)" fill="#564c54"/>
            <path id="Trazado_196993" data-name="Trazado 196993" d="M279.664,142c-.013.011-.024.024-.037.034a25.476,25.476,0,0,1-3.216,2.521l-.113.074q-.571.381-1.172.737c-.322.2-.65.389-.985.57-.174.1-.351.2-.528.29-.335.18-.679.357-1.028.528a46.012,46.012,0,0,1-9.2,3.343c-.3.079-.61.153-.922.222-.222.053-.446.1-.67.153-.307.068-.615.132-.927.193-.367.077-.739.145-1.112.211-.307.058-.612.108-.924.159-.19.031-.38.061-.57.087-.309.047-.618.092-.929.132a54.467,54.467,0,0,1-9.5.431c-.438-.019-.879-.043-1.32-.074-.673-.045-1.349-.1-2.023-.177q-.649-.067-1.3-.158c-.068-.009-.137-.016-.205-.026-.026,0-.056-.009-.082-.011-.357-.051-.708-.1-1.062-.161a46.926,46.926,0,0,1-5.653-1.276q-.277-.079-.554-.166c-.378-.113-.756-.235-1.13-.362q-1.573-.527-3.105-1.183c-.267-.111-.533-.23-.8-.346-.159-.074-.319-.145-.478-.22s-.338-.161-.5-.242c-.029-.014-.061-.026-.09-.043-1.932-5.281-4.058-24.131-4.628-29.766q-.17-1.684-.28-3.367c-.2-3.058-.264-6.126-.235-9.247.024-2.4.1-4.824.216-7.3.016-.309.029-.618.045-.93q.083-1.7.188-3.438c.016-.264.032-.528.048-.8,0-.061.005-.124.011-.188,0-.047.005-.095.008-.143.056-.906.111-1.819.172-2.74q.145-2.333.306-4.745.083-1.315.169-2.656c.357-5.642,1.555-10.086,3.554-13.094a11.558,11.558,0,0,1,1.666-2,9.187,9.187,0,0,1,1.394-1.091,8.7,8.7,0,0,1,3.361-1.267,25.578,25.578,0,0,0,3.076-.679q.258-.072.507-.15c.526-.161,1.017-.335,1.479-.512.535-.206,1.027-.42,1.473-.631.071-.032.14-.066.208-.1.122-.061.238-.116.354-.177l.016-.008c.315-.161.607-.32.874-.471a19.588,19.588,0,0,0,1.73-1.093c.245-.177.372-.28.372-.28h13.208c.106.15.208.3.317.436l.021.029c.171.222.348.431.531.629a9.232,9.232,0,0,0,1.077,1,10.13,10.13,0,0,0,1.51,1c.216.122.436.232.657.338.169.085.343.161.518.238s.359.15.543.222c.431.169.869.319,1.307.462a.04.04,0,0,1,.014,0c2.722.866,5.481,1.312,7.343,2.881a5.716,5.716,0,0,1,.895.94h0a6.936,6.936,0,0,1,1.291,3.818c.1,2.926-1.149,7.782-1.651,15.782-.166,2.6-.25,5.523-.187,8.824.016.84.04,1.7.079,2.585.009.265.021.531.035.8.024.546.055,1.1.09,1.666v0c.034.565.073,1.141.116,1.724.079,1.088.18,2.213.294,3.364q.15,1.517.343,3.113.2,1.632.444,3.351c.652,4.557,2.112,13.6,3.649,21.2.243,1.2.486,2.356.732,3.457.024.116.048.23.074.343.272,1.225.544,2.371.808,3.406" transform="translate(-64.38 -17.326)" fill="#fed981"/>
            <path id="Trazado_196994" data-name="Trazado 196994" d="M260.472,93.3a.432.432,0,0,1-.347-.175L240.279,66.449a.433.433,0,0,1,.7-.517l19.35,26.008L268.788,66.5a.433.433,0,1,1,.821.273L260.883,93a.432.432,0,0,1-.342.29.369.369,0,0,1-.068.006" transform="translate(-68.919 -18.868)" fill="#ddad3d"/>
            <path id="Trazado_196995" data-name="Trazado 196995" d="M261.317,110.625a16.587,16.587,0,0,1-7.129-1.8,30.36,30.36,0,0,1-7.469-5.239.33.33,0,0,1-.015-.439.271.271,0,0,1,.4-.017,29.708,29.708,0,0,0,7.324,5.133c5.59,2.678,10.4,2.3,14.3-1.13a.272.272,0,0,1,.4.046.33.33,0,0,1-.042.437,11.5,11.5,0,0,1-7.675,3.013h-.1" transform="translate(-70.766 -29.566)" fill="#ddad3d"/>
            <path id="Trazado_196996" data-name="Trazado 196996" d="M269.432,154.437a20.909,20.909,0,0,1-3.573-.316,29.762,29.762,0,0,1-9.288-3.444,44.569,44.569,0,0,1-9.149-6.813.33.33,0,0,1-.012-.44.27.27,0,0,1,.4-.013,44.017,44.017,0,0,0,9.031,6.719c4.889,2.717,12.215,5.331,19.355,2.347a.28.28,0,0,1,.37.179.319.319,0,0,1-.165.4,17.936,17.936,0,0,1-6.972,1.378" transform="translate(-70.967 -41.125)" fill="#ddad3d"/>
            <path id="Trazado_196997" data-name="Trazado 196997" d="M251.008,39.189s.668,5.568-2.578,3.711c-2.389-1.367-1.114-3.115-3.6-4.616-1.013-.613-3.873-1.519-3.664-4.474s1.963-3.529.513-4.581-4.108-3.8-.831-7.38-1.207-6.142,3.346-8.575,6.982-.85,10.6-3.6,7.24-4.081,10.146-2.913c3.974,1.6,1.685,9.9-1.219,10.639s-12.717,21.785-12.717,21.785" transform="translate(-68.659 -1.82)" fill="#12263f"/>
            <path id="Trazado_196998" data-name="Trazado 196998" d="M265.944,53.438l.468,3.272a10.249,10.249,0,0,1-1.043.976c-5.193,4.224-11.926.877-11.926.877l-1.622-11.344L264.26,52.7Z" transform="translate(-72.256 -13.549)" fill="#ff8c64"/>
            <path id="Trazado_196999" data-name="Trazado 196999" d="M267.63,55.318l.468,3.272a10.245,10.245,0,0,1-1.043.976c-5.111-1.223-9.358-5.8-9.358-5.8l8.248.805Z" transform="translate(-73.942 -15.429)" fill="#12263f"/>
            <path id="Trazado_197000" data-name="Trazado 197000" d="M274.455,34.293s1.545-2.461,2.909-.416,1.191,6.6-1.741,6.281Z" transform="translate(-78.75 -9.487)" fill="#c44b41"/>
            <path id="Trazado_197001" data-name="Trazado 197001" d="M273.853,20.1a2.33,2.33,0,0,1,1.69,3.046c-.578,2.589-.411,3.073.138,4.524s-.477,2.848-.935,2.762-6.2-10.63-.893-10.331" transform="translate(-77.935 -5.765)" fill="#12263f"/>
            <path id="Trazado_197002" data-name="Trazado 197002" d="M270.059,37.427s.977,6.763-6.062,7.753c-6.994.987-12.544-3.823-12.829-4.042l-.009-.006-.28-1.41L249.428,32.4l-.776-3.913s-1.908-6.975,4.656-9.234c4.8-1.651,9.537-1.493,12.238.746.087.072.173.147.254.225a6.125,6.125,0,0,1,1.8,3.118l1.231,7.053.3,1.728Z" transform="translate(-71.272 -5.207)" fill="#ff8c64"/>
            <path id="Trazado_197003" data-name="Trazado 197003" d="M257.811,29.564h0a1.607,1.607,0,0,0,2.194.511,8.96,8.96,0,0,1,1.518-.75,1.477,1.477,0,0,0,.846-1.972s-3.319.168-4.559,2.211" transform="translate(-73.975 -7.849)" fill="#12263f"/>
            <path id="Trazado_197004" data-name="Trazado 197004" d="M273.64,27.489h0a1.607,1.607,0,0,1-1.964,1.105,8.874,8.874,0,0,0-1.667-.3,1.477,1.477,0,0,1-1.366-1.656s3.233-.769,5,.846" transform="translate(-77.079 -7.592)" fill="#12263f"/>
            <path id="Trazado_197005" data-name="Trazado 197005" d="M265.8,20.223c-1.159-.233-1.905.245-3.517,1.246-2.33,1.448-5.25.862-7.887-.043s-3.861,1.053-2.859,2.08,1.043,1.968.323,3.563,2.062,1.89.743,3.249a1.534,1.534,0,0,0-.066,1.925,1.023,1.023,0,0,1-.948,1.5,5.736,5.736,0,0,1-2.161-1.346l-.776-3.913s-1.908-6.974,4.656-9.233c4.8-1.651,9.537-1.494,12.238.745.087.072.173.147.254.225" transform="translate(-71.272 -5.207)" fill="#12263f"/>
            <path id="Trazado_197006" data-name="Trazado 197006" d="M262.534,38.13c.071.493-.887,1.037-2.138,1.216s-2.323-.076-2.393-.568.887-1.037,2.138-1.215,2.323.075,2.393.568" transform="translate(-74.029 -10.761)" fill="#c44b41"/>
            <g id="Grupo_157464" data-name="Grupo 157464" transform="translate(194.922 25.186)" opacity="0.8">
              <g id="Grupo_157463" data-name="Grupo 157463">
                <g id="Grupo_157462" data-name="Grupo 157462" clip-path="url(#clip-path-4)">
                  <path id="Trazado_197007" data-name="Trazado 197007" d="M276.3,37.049c-.172.042-.354.077-.542.1-1.251.179-2.322-.076-2.392-.568s.887-1.037,2.137-1.216c.169-.024.335-.04.5-.048Z" transform="translate(-273.358 -35.321)" fill="#c44b41"/>
                </g>
              </g>
            </g>
            <path id="Trazado_197008" data-name="Trazado 197008" d="M263.835,34.042c.1.677-.132,1.269-.511,1.323s-.763-.451-.86-1.127.132-1.269.51-1.323.764.45.861,1.127" transform="translate(-75.303 -9.443)" fill="#12263f"/>
            <path id="Trazado_197009" data-name="Trazado 197009" d="M273.22,32.7c.1.677-.132,1.269-.511,1.323s-.763-.451-.86-1.127.132-1.269.51-1.323.764.45.861,1.127" transform="translate(-77.996 -9.058)" fill="#12263f"/>
            <path id="Trazado_197010" data-name="Trazado 197010" d="M268.367,36.181a2.4,2.4,0,0,0,2.057-1.52.281.281,0,0,0-.036-.239c-1.464-2.168-2.951-4.4-2.966-4.422a.281.281,0,0,0-.468.312c.014.022,1.447,2.171,2.884,4.3a1.929,1.929,0,0,1-1.551,1.011.281.281,0,0,0,.08.557" transform="translate(-76.585 -8.572)" fill="#12263f"/>
            <path id="Trazado_197011" data-name="Trazado 197011" d="M269.2,42.29a4.324,4.324,0,0,0,2.413-1.2.281.281,0,1,0-.388-.407c-2.75,2.623-6.467-.3-6.5-.331a.281.281,0,1,0-.352.439,7.253,7.253,0,0,0,4.83,1.5" transform="translate(-75.826 -11.56)" fill="#12263f"/>
            <path id="Trazado_197012" data-name="Trazado 197012" d="M253.98,46.1c-.021.079-.617,2.272-1.81,3.06l-.008-.006-.28-1.411a4.908,4.908,0,0,0,2.1-1.643" transform="translate(-72.273 -13.228)" fill="#12263f"/>
            <path id="Trazado_197013" data-name="Trazado 197013" d="M250.113,39.165s-3.224-3.246-4.8-.108c-1.3,2.586,2.667,8.274,5.6,5.713Z" transform="translate(-70.317 -10.815)" fill="#ff8c64"/>
            <path id="Trazado_197014" data-name="Trazado 197014" d="M251.016,44.5l.03-.006a.282.282,0,0,0,.2-.342,5.264,5.264,0,0,0-3.649-3.769.281.281,0,0,0-.133.547,4.694,4.694,0,0,1,3.237,3.361.281.281,0,0,0,.312.208" transform="translate(-70.945 -11.585)" fill="#12263f"/>
            <path id="Trazado_197015" data-name="Trazado 197015" d="M248.421,43.744a.279.279,0,0,0,.166-.087c.214-.231.879-.818,1.376-.764a.281.281,0,1,0,.061-.559c-.866-.094-1.752.834-1.85.941a.281.281,0,0,0,.247.469" transform="translate(-71.188 -12.145)" fill="#12263f"/>
            <path id="Trazado_197016" data-name="Trazado 197016" d="M245.9,63,261.43,85.773l7.016-22.743s-.811-3.346-3.734-3.346a12.928,12.928,0,0,1-5.718,3.356s-5.694-1.229-7.69-4.226c0,0-4.1.784-5.406,4.185" transform="translate(-70.557 -16.876)" fill="#fff"/>
            <path id="Trazado_197017" data-name="Trazado 197017" d="M255.135,74.251a.433.433,0,0,1-.346-.693l6.4-8.514a.433.433,0,0,1,.645-.053l6.87,6.547a.433.433,0,0,1-.6.626l-6.518-6.212-6.1,8.125a.434.434,0,0,1-.347.173" transform="translate(-73.083 -18.614)" fill="#c9daf4"/>
            <path id="Trazado_197018" data-name="Trazado 197018" d="M260.485,70.018l3.388,4.025,3.051-4.154-3.669-3.523Z" transform="translate(-74.742 -19.042)" fill="#12263f"/>
            <path id="Trazado_197019" data-name="Trazado 197019" d="M262.83,74.644l-.777,9.787,4.012,5.884,2.4-7.78-2.987-7.688Z" transform="translate(-75.192 -21.418)" fill="#12263f"/>
            <path id="Trazado_197020" data-name="Trazado 197020" d="M171.916,56.888s-3.812,5.034-8.391,3.88c-3.7-.934-5.126-5.712-5.539-7.515-.1-.432-.139-.692-.139-.692a6.375,6.375,0,0,1-.619-.3c-.849-.462-2.275-1.438-2.316-2.8-.057-1.944,3.567-1.339,3.567-1.339s-.836-2.248.1-3.065,3.157.1,3.157.1-1.5-2.688-.055-3.579c2.177-1.338,3.411,2.049,3.537,2.266-.059-.25-2.586-10.8-.675-10.5,1.668.265,4.337,9.01,5.034,11.393.111.377.172.595.172.595s.128-.021.346-.043c1.035-.108,4.1-.239,4.94,1.8,1.012,2.462-3.119,9.8-3.119,9.8" transform="translate(-44.449 -9.566)" fill="#ff8c64"/>
            <path id="Trazado_197021" data-name="Trazado 197021" d="M162.83,56.01a3.854,3.854,0,0,1,.7,2.32,1.137,1.137,0,0,1-.643.916,2.163,2.163,0,0,1-.968.143,11.9,11.9,0,0,1-3-.657c-.1-.432-.139-.692-.139-.692a6.247,6.247,0,0,1-.62-.3.36.36,0,0,1,.2.02c1.266.49,3.528,1.15,4.212.827a.423.423,0,0,0,.232-.362,4.367,4.367,0,0,0-1.5-2.934.364.364,0,0,1,.416-.591c.789.434,3.05,1.454,4.045.985.145-.068.155-.141.16-.18a1.233,1.233,0,0,0-.253-.7,8.967,8.967,0,0,0-1.53-1.723.355.355,0,0,1-.113-.188.359.359,0,0,1,.078-.326.366.366,0,0,1,.516-.034,9.869,9.869,0,0,1,1.552,1.707,3.112,3.112,0,0,1,.424.86,1.252,1.252,0,0,1,.049.511.945.945,0,0,1-.571.737,4.632,4.632,0,0,1-3.252-.336" transform="translate(-45.381 -15.047)" fill="#c44b41"/>
            <path id="Trazado_197022" data-name="Trazado 197022" d="M170.478,52.137a.356.356,0,0,0-.216.346,2.353,2.353,0,0,1-.168,1.16.418.418,0,0,1-.343.258,1.444,1.444,0,0,1-.624-.139,10.684,10.684,0,0,1-2.145-1.346.356.356,0,0,0,.113.188,8.948,8.948,0,0,1,1.53,1.723c.078.037.158.071.234.1a2.762,2.762,0,0,0,.693.193,1.271,1.271,0,0,0,.265,0,1.132,1.132,0,0,0,.918-.638,3.037,3.037,0,0,0,.258-1.549.356.356,0,0,0-.5-.307l-.011,0" transform="translate(-47.913 -14.95)" fill="#c44b41"/>
            <path id="Trazado_197023" data-name="Trazado 197023" d="M177.554,54.7a11.907,11.907,0,0,1-2.864.3,4.1,4.1,0,0,1-2.1-.538,1.816,1.816,0,0,1-.818-1.275c-.3-1.91,1.522-3.24,2.634-3.862.111.376.171.594.171.594s.128-.021.346-.043c-.938.5-2.673,1.651-2.432,3.2a1.1,1.1,0,0,0,.5.781c1.073.719,3.531.339,4.387.133a.361.361,0,0,1,.439.267.365.365,0,0,1-.268.439" transform="translate(-49.278 -14.154)" fill="#c44b41"/>
            <path id="Trazado_197024" data-name="Trazado 197024" d="M170.172,64.484a.365.365,0,0,1-.161-.685,3.276,3.276,0,0,0,1.764-2.153c.554-2.346-1.453-5.23-1.473-5.259a.364.364,0,1,1,.6-.42c.091.129,2.215,3.185,1.587,5.846a3.975,3.975,0,0,1-2.129,2.628.363.363,0,0,1-.184.043" transform="translate(-48.727 -16.014)" fill="#c44b41"/>
            <path id="Trazado_197025" data-name="Trazado 197025" d="M224.2,79.413l-.479.762c-.138.212-.277.426-.412.626s-.272.405-.409.6-.272.4-.409.587c-.547.775-1.111,1.515-1.683,2.248-1.139,1.465-2.351,2.852-3.6,4.207a68.751,68.751,0,0,1-8.171,7.487l-1.116.842c-.37.284-.75.555-1.132.824s-.758.545-1.148.806l-1.171.779c-1.583,1.01-3.2,1.985-4.882,2.854-1.669.893-3.406,1.681-5.164,2.419-1.778.7-3.575,1.373-5.423,1.9-.461.133-.922.273-1.385.4l-1.4.35-.7.173-.175.043-.214.044-.235.044c-.315.058-.63.108-.948.148a12.708,12.708,0,0,1-3.943-.2c-.318-.065-.613-.149-.919-.235-.15-.043-.3-.089-.451-.136s-.28-.1-.419-.153c-.275-.1-.556-.216-.821-.334q-.373-.175-.742-.367c-.121-.063-.251-.129-.359-.193l-.329-.2c-.215-.132-.439-.27-.641-.406s-.384-.272-.573-.411c-.094-.069-.191-.14-.28-.21l-.252-.206a18.759,18.759,0,0,1-3.066-3.252,26.186,26.186,0,0,1-1.924-2.985c-.533-.961-.991-1.892-1.408-2.809a54.313,54.313,0,0,1-2.064-5.362q-.431-1.316-.807-2.614c-.25-.868-.48-1.73-.7-2.591-.436-1.723-.811-3.436-1.162-5.143s-.635-3.416-.9-5.126c-.126-.856-.246-1.712-.358-2.573l-.153-1.3L161.6,70.1l-.071-.707,14.509-2.311.567,2.183q.289,1.127.6,2.255c.4,1.505.826,3,1.263,4.481s.89,2.944,1.37,4.373.976,2.829,1.5,4.171,1.079,2.62,1.655,3.751c.284.568.576,1.1.859,1.56a10.652,10.652,0,0,0,.777,1.127c.214.27.386.4.309.317a.1.1,0,0,0-.016-.009l-.031-.029a.372.372,0,0,0-.073-.051c-.032-.022-.078-.058-.118-.082-.021-.013-.044-.024-.066-.036s-.057-.036-.086-.051a1.392,1.392,0,0,0-.192-.092,2.159,2.159,0,0,0-.247-.108l-.133-.043c-.051-.02-.1-.039-.155-.054-.106-.035-.206-.051-.323-.08A4.419,4.419,0,0,0,182,90.59a2.589,2.589,0,0,0-.341.044l-.085.019-.041.011-.02,0c-.012,0-.008,0,0,0l.124-.032.492-.128.987-.252c.327-.092.651-.2.978-.293,1.306-.383,2.588-.861,3.866-1.358,1.263-.54,2.531-1.081,3.762-1.728.622-.305,1.229-.651,1.843-.982.309-.162.605-.352.908-.526s.608-.347.9-.541c1.2-.729,2.375-1.523,3.533-2.347.569-.427,1.147-.843,1.7-1.291.568-.432,1.122-.888,1.679-1.341,1.107-.914,2.168-1.889,3.219-2.876s2.053-2.027,3.031-3.07c.484-.523.958-1.056,1.41-1.583q.173-.2.337-.392c.111-.131.22-.26.324-.388l.306-.374.14-.169.057-.068.026-.031c.008-.009,0,0,0,0l0,.012Z" transform="translate(-46.347 -19.248)" fill="#fed981"/>
            <path id="Trazado_197026" data-name="Trazado 197026" d="M172.193,72.881a1.014,1.014,0,1,0,1.328-.538,1.013,1.013,0,0,0-1.328.538" transform="translate(-49.385 -20.734)" fill="#ddad3d"/>
            <path id="Trazado_197027" data-name="Trazado 197027" d="M187.068,105.825a.433.433,0,0,1-.322-.722,29.976,29.976,0,0,0,3.86-5.906.433.433,0,1,1,.779.377,30.3,30.3,0,0,1-3.995,6.107.43.43,0,0,1-.322.144" transform="translate(-53.552 -28.393)" fill="#ddad3d"/>
            <path id="Trazado_197028" data-name="Trazado 197028" d="M192.509,104.47h-.01a.433.433,0,0,1-.423-.443,35.532,35.532,0,0,0-.111-4.128.433.433,0,0,1,.851-.159,35.153,35.153,0,0,1,.125,4.307.433.433,0,0,1-.433.423" transform="translate(-55.079 -28.517)" fill="#ddad3d"/>
            <path id="Trazado_197029" data-name="Trazado 197029" d="M162.967,80.018a.433.433,0,0,1-.134-.844c5.023-1.638,15.092-3.054,15.193-3.068a.433.433,0,0,1,.12.858c-.1.014-10.095,1.419-15.045,3.033a.439.439,0,0,1-.134.021" transform="translate(-46.636 -21.836)" fill="#ddad3d"/>
            <path id="Trazado_197030" data-name="Trazado 197030" d="M168.832,76.884a.433.433,0,0,1-.423-.343l-1.42-6.686a.433.433,0,1,1,.846-.18l1.42,6.686a.434.434,0,0,1-.333.513.444.444,0,0,1-.091.009" transform="translate(-47.912 -19.894)" fill="#ddad3d"/>
            <path id="Trazado_197031" data-name="Trazado 197031" d="M225.246,107.031a.433.433,0,0,1-.236-.8c.065-.043,6.572-4.284,9.4-7.408a.433.433,0,1,1,.642.58c-2.9,3.209-9.3,7.377-9.571,7.554a.433.433,0,0,1-.235.07" transform="translate(-64.506 -28.316)" fill="#ddad3d"/>
            <path id="Trazado_197032" data-name="Trazado 197032" d="M234.49,103.127a.433.433,0,0,1-.053-.863l3.517-.434a.433.433,0,1,1,.106.859l-3.517.434a.449.449,0,0,1-.053,0" transform="translate(-67.159 -29.218)" fill="#ddad3d"/>
            <path id="Trazado_197033" data-name="Trazado 197033" d="M494.628,41.014s4.936-8.277,18.886-3.306,4.67,23.388,8.3,32.068-.091,9.035-7.275,9.651-21.619,1.032-24.982-2.915c-3.474-4.079.379-24.206,5.068-35.5" transform="translate(-140.087 -10.364)" fill="#12263f"/>
            <path id="Trazado_197034" data-name="Trazado 197034" d="M420.532,121.9s-1.751,5.636-6.142,6.076c-3.547.354-6.321-3.391-7.258-4.845-.223-.348-.342-.564-.342-.564a5.874,5.874,0,0,1-.64-.068c-.893-.136-2.457-.541-2.926-1.728-.668-1.691,2.71-2.311,2.71-2.311s-1.449-1.709-.884-2.726c.555-1,2.807-.911,2.807-.911s-2.174-1.886-1.185-3.128c1.487-1.868,3.649.717,3.828.868-.131-.2-5.705-8.672-3.929-9.012,1.549-.3,6.674,6.541,8.044,8.414.218.3.34.468.34.468s.105-.059.29-.148c.875-.424,3.531-1.515,4.914.011,1.671,1.843.372,9.6.372,9.6" transform="translate(-115.674 -29.711)" fill="#ff8c64"/>
            <path id="Trazado_197035" data-name="Trazado 197035" d="M410.92,124.449a3.606,3.606,0,0,1,1.348,1.818,1.065,1.065,0,0,1-.275,1.01,2.009,2.009,0,0,1-.805.434,11.1,11.1,0,0,1-2.842.375c-.225-.348-.342-.563-.342-.563a5.688,5.688,0,0,1-.641-.068.341.341,0,0,1,.185-.046c1.268.029,3.466-.111,3.965-.612a.393.393,0,0,0,.089-.391,4.077,4.077,0,0,0-2.246-2.1.34.34,0,0,1,.178-.652c.831.131,3.143.309,3.868-.419.105-.106.092-.173.083-.208a1.144,1.144,0,0,0-.446-.538,8.368,8.368,0,0,0-1.892-1.028.342.342,0,0,1-.193-.441.342.342,0,0,1,.442-.194,9.269,9.269,0,0,1,1.906,1.007,2.93,2.93,0,0,1,.646.622,1.17,1.17,0,0,1,.2.433.885.885,0,0,1-.267.829,4.332,4.332,0,0,1-2.965.738" transform="translate(-116.886 -34.661)" fill="#c44b41"/>
            <path id="Trazado_197036" data-name="Trazado 197036" d="M415.774,118.945a.334.334,0,0,0-.081.372,2.193,2.193,0,0,1,.221,1.074.388.388,0,0,1-.22.336,1.335,1.335,0,0,1-.592.076,9.984,9.984,0,0,1-2.313-.5.334.334,0,0,0,.159.129,8.386,8.386,0,0,1,1.892,1.028c.081.009.161.013.238.016a2.592,2.592,0,0,0,.67-.051,1.267,1.267,0,0,0,.234-.081,1.06,1.06,0,0,0,.6-.853,2.84,2.84,0,0,0-.265-1.443.333.333,0,0,0-.539-.111l-.009.008" transform="translate(-118.443 -34.1)" fill="#c44b41"/>
            <path id="Trazado_197037" data-name="Trazado 197037" d="M423.147,119.081a11.21,11.21,0,0,1-2.421,1.177,3.827,3.827,0,0,1-2.016.194,1.7,1.7,0,0,1-1.124-.859c-.868-1.585.308-3.332,1.087-4.233.218.3.34.468.34.468s.105-.059.29-.148c-.666.739-1.826,2.3-1.121,3.585a1.025,1.025,0,0,0,.69.526c1.172.291,3.212-.824,3.9-1.278a.34.34,0,0,1,.376.568" transform="translate(-119.732 -33.101)" fill="#c44b41"/>
            <path id="Trazado_197038" data-name="Trazado 197038" d="M419.574,130.261a.341.341,0,0,1-.359-.551,3.063,3.063,0,0,0,.866-2.453c-.259-2.238-2.939-4.136-2.966-4.154a.341.341,0,1,1,.39-.558c.12.084,2.959,2.095,3.253,4.634a3.716,3.716,0,0,1-1.035,2.986.34.34,0,0,1-.148.1" transform="translate(-119.642 -35.144)" fill="#c44b41"/>
            <path id="Trazado_197039" data-name="Trazado 197039" d="M462.179,94.219l-3.455,8.743q-.778,2.195-1.576,4.375t-1.593,4.343c-.543,1.437-1.078,2.87-1.627,4.284s-1.112,2.809-1.681,4.164-1.142,2.683-1.716,3.864c-.284.586-.572,1.136-.813,1.564l-.163.282-.067.114a.221.221,0,0,0-.02.05.82.82,0,0,0-.036.123c-.01.06.012.091-.012.145s-.1.13-.286.21a5.37,5.37,0,0,1-2.123.232,17.078,17.078,0,0,1-3.36-.55,36.936,36.936,0,0,1-3.786-1.2,69.6,69.6,0,0,1-7.839-3.608c-2.618-1.38-4.539-2.5-7.084-4.089a11.4,11.4,0,0,1-7.352,8.278,92.121,92.121,0,0,0,7.806,6.346,71.6,71.6,0,0,0,8.795,5.506,45.608,45.608,0,0,0,5.036,2.283,32.1,32.1,0,0,0,5.862,1.634,22.425,22.425,0,0,0,3.439.332,18.959,18.959,0,0,0,3.88-.329,16.436,16.436,0,0,0,4.165-1.393,15.808,15.808,0,0,0,3.808-2.64,16.789,16.789,0,0,0,1.538-1.649l.335-.426.274-.371c.1-.128.17-.238.255-.357s.169-.238.241-.347c.612-.9,1.111-1.727,1.579-2.532.928-1.6,1.719-3.127,2.481-4.646s1.452-3.024,2.136-4.525,1.345-2.995,1.975-4.5,1.257-3,1.863-4.5,1.189-3,1.769-4.508,1.137-3.013,1.686-4.527l.813-2.277.4-1.147c.134-.388.26-.759.4-1.172Z" transform="translate(-119.821 -27.035)" fill="#43a99b"/>
            <path id="Trazado_197040" data-name="Trazado 197040" d="M423.728,139.369a.436.436,0,0,1-.114-.857c6.141-1.666,6.152-8.354,6.152-8.421a.437.437,0,0,1,.432-.44h0a.436.436,0,0,1,.436.432c0,.074-.013,7.431-6.795,9.271a.428.428,0,0,1-.115.016" transform="translate(-121.457 -37.201)" fill="#1c8072"/>
            <path id="Trazado_197041" data-name="Trazado 197041" d="M426.16,139.679a.429.429,0,0,1-.276-.1l-4.02-3.3a.436.436,0,0,1,.553-.674l4.02,3.3a.436.436,0,0,1-.277.773" transform="translate(-121.001 -38.883)" fill="#1c8072"/>
            <path id="Trazado_197042" data-name="Trazado 197042" d="M428.934,132.965a.756.756,0,1,1-.756-.756.756.756,0,0,1,.756.756" transform="translate(-122.642 -37.935)" fill="#1c8072"/>
            <path id="Trazado_197043" data-name="Trazado 197043" d="M465.455,143.51a.435.435,0,0,1-.349-.173,18.817,18.817,0,0,0-3.131-3.264.436.436,0,1,1,.507-.71,19.38,19.38,0,0,1,3.322,3.45.436.436,0,0,1-.349.7" transform="translate(-132.504 -39.965)" fill="#1c8072"/>
            <path id="Trazado_197044" data-name="Trazado 197044" d="M462.6,144.069a.438.438,0,0,1-.426-.531,7.994,7.994,0,0,0,.006-3.274.436.436,0,1,1,.839-.24,8.761,8.761,0,0,1,.006,3.7.436.436,0,0,1-.425.342" transform="translate(-132.609 -40.087)" fill="#1c8072"/>
            <path id="Trazado_197045" data-name="Trazado 197045" d="M524.963,375.323l.752,10.581-10.863.205-.6-9.927Z" transform="translate(-147.557 -107.693)" fill="#ff8c64"/>
            <path id="Trazado_197046" data-name="Trazado 197046" d="M511.643,400.8c0,.084,0,.166,0,.247.008.374.024.711.04,1,.038.635.084,1.026.084,1.026h21.086a11.6,11.6,0,0,0,.024-2.026,10.532,10.532,0,0,0-3.766-7.807c-3.986-3.083-2.447-2.439-3.264-3.844-.092-.156-.81-2.543-.886-2.707-.685-1.459-1.316-2.148-5.094-2.148-5.011,0-5.451,2.431-5.987,3.711a24.038,24.038,0,0,0-.834,2.976c-.126.533-.252,1.1-.376,1.681-.309,1.453-.6,2.971-.794,4.181a21.913,21.913,0,0,0-.237,3.71" transform="translate(-146.807 -110.338)" fill="#12263f"/>
            <path id="Trazado_197047" data-name="Trazado 197047" d="M511.644,403.486c0,.084,0,.166,0,.247.008.374.024.711.04,1a5.888,5.888,0,0,0,2.191-2.84c1.3-3.553-.7-7.818-.786-8l-.042.02c-.126.533-.252,1.1-.376,1.681a9.591,9.591,0,0,1,.262,5.955,4.9,4.9,0,0,1-1.293,1.936" transform="translate(-146.808 -113.021)" fill="#4ed1bb"/>
            <path id="Trazado_197048" data-name="Trazado 197048" d="M511.649,407.691c.028,1.2.124,2.026.124,2.026h21.086a11.625,11.625,0,0,0,.024-2.026Z" transform="translate(-146.809 -116.98)" fill="#4ed1bb"/>
            <path id="Trazado_197049" data-name="Trazado 197049" d="M521.964,393.133a.618.618,0,0,0,.151-.019,10.426,10.426,0,0,1,4.888-.1.6.6,0,0,0,.321-1.159,11.557,11.557,0,0,0-5.511.1.6.6,0,0,0,.15,1.184" transform="translate(-149.597 -112.355)" fill="#4ed1bb"/>
            <path id="Trazado_197050" data-name="Trazado 197050" d="M521.478,389.726a.613.613,0,0,0,.151-.019,10.426,10.426,0,0,1,4.888-.1.6.6,0,0,0,.321-1.159,11.568,11.568,0,0,0-5.511.1.6.6,0,0,0,.15,1.184" transform="translate(-149.457 -111.377)" fill="#4ed1bb"/>
            <path id="Trazado_197051" data-name="Trazado 197051" d="M523.229,395.8a.612.612,0,0,0,.151-.019,10.534,10.534,0,0,1,4.89-.1.6.6,0,0,0,.319-1.16,11.568,11.568,0,0,0-5.51.1.6.6,0,0,0,.15,1.184" transform="translate(-149.96 -113.121)" fill="#4ed1bb"/>
            <path id="Trazado_197052" data-name="Trazado 197052" d="M524.715,398.842a.616.616,0,0,0,.151-.019,10.523,10.523,0,0,1,4.89-.1.6.6,0,0,0,.319-1.159,11.566,11.566,0,0,0-5.511.1.6.6,0,0,0,.15,1.184" transform="translate(-150.386 -113.993)" fill="#4ed1bb"/>
            <path id="Trazado_197053" data-name="Trazado 197053" d="M457.32,375.323l-.19,10.6-9.92.188-.056-9.969Z" transform="translate(-128.304 -107.693)" fill="#ff8c64"/>
            <path id="Trazado_197054" data-name="Trazado 197054" d="M414.488,403.913l35.4-.379a4.933,4.933,0,0,0,.443-1.971c.19-3-.816-7.765-1.316-10.773-.061-.352-.113-.68-.154-.976a10.475,10.475,0,0,1-.119-1.229,1.8,1.8,0,0,0-2.2-2.014c-3.544,3.55-7.657-1.674-10.006.079,0,0-1.013.742-3.8,3.3s-7.545,4.278-11.6,6.024c-5.228,2.252-6.694,4.461-6.969,5.975a2.762,2.762,0,0,0,.312,1.963" transform="translate(-118.826 -110.837)" fill="#12263f"/>
            <path id="Trazado_197055" data-name="Trazado 197055" d="M414.488,410.064l35.4-.379a4.934,4.934,0,0,0,.443-1.971l-36.152.387a2.763,2.763,0,0,0,.312,1.963" transform="translate(-118.826 -116.987)" fill="#4ed1bb"/>
            <path id="Trazado_197056" data-name="Trazado 197056" d="M458.5,405l1.052-.011a7.77,7.77,0,0,1-1.964-5.648,9.985,9.985,0,0,1,3.652-7.124c-.061-.351-.113-.68-.154-.976a10.846,10.846,0,0,0-4.34,8.067A8.591,8.591,0,0,0,458.5,405" transform="translate(-131.054 -112.259)" fill="#4ed1bb"/>
            <path id="Trazado_197057" data-name="Trazado 197057" d="M439.974,393.668a.583.583,0,0,0,.128-1.151l-2.217-.526a.583.583,0,1,0-.269,1.135l2.217.526a.6.6,0,0,0,.141.016" transform="translate(-125.438 -112.471)" fill="#4ed1bb"/>
            <path id="Trazado_197058" data-name="Trazado 197058" d="M443.374,390.954a.583.583,0,0,0,.128-1.151l-2.217-.526a.583.583,0,1,0-.269,1.135l2.217.526a.6.6,0,0,0,.141.016" transform="translate(-126.413 -111.692)" fill="#4ed1bb"/>
            <path id="Trazado_197059" data-name="Trazado 197059" d="M436.893,395.5a.583.583,0,0,0,.128-1.151l-2.217-.526a.583.583,0,1,0-.269,1.135l2.217.526a.6.6,0,0,0,.141.016" transform="translate(-124.554 -112.998)" fill="#4ed1bb"/>
            <path id="Trazado_197060" data-name="Trazado 197060" d="M433.81,397.269a.583.583,0,0,0,.128-1.151l-2.217-.526a.583.583,0,1,0-.269,1.135l2.217.525a.564.564,0,0,0,.141.016" transform="translate(-123.669 -113.504)" fill="#4ed1bb"/>
            <path id="Trazado_197061" data-name="Trazado 197061" d="M430.446,398.908a.583.583,0,0,0,.128-1.151l-2.217-.526a.583.583,0,1,0-.269,1.135l2.217.526a.6.6,0,0,0,.141.016" transform="translate(-122.704 -113.975)" fill="#4ed1bb"/>
            <path id="Trazado_197062" data-name="Trazado 197062" d="M426.794,400.314a.583.583,0,0,0,.128-1.151l-2.217-.526a.583.583,0,1,0-.269,1.135l2.217.526a.6.6,0,0,0,.141.016" transform="translate(-121.656 -114.378)" fill="#4ed1bb"/>
            <path id="Trazado_197063" data-name="Trazado 197063" d="M467.7,198.586c8.071,4.647,27.587,7.041,40.318,1.984,4.671-1.855,5.488-2.995,5.135-11.38-.013-.312-.027-.624-.043-.934-.034-.66-.077-1.318-.124-1.972-.023-.316-.049-.632-.074-.943-.1-1.171-.209-2.318-.332-3.421l-.1-.9a51.067,51.067,0,0,0-1.185-6.368c-.078-.308-.155-.6-.229-.875-.451-1.674-.817-2.678-.817-2.678a53.1,53.1,0,0,1-6.292.61c-.3.012-.6.024-.9.031-11.01.29-22.213-2.2-27.4-3.553-.314-.081-.6-.158-.871-.231-1.349-.362-2.111-.6-2.111-.6s-.476.834-1.145,2.208c-.123.255-.252.527-.387.816a45.726,45.726,0,0,0-3.173,8.995c-.011.041-.02.085-.029.126q-.1.444-.193.893c-.013.06-.025.119-.038.18-.527,2.491-1.007,5.106-1.333,7.6h0c-.043.321-.081.64-.119.956-.637,5.482-.732,8.194,1.453,9.451" transform="translate(-133.67 -48.02)" fill="#ff8578"/>
            <path id="Trazado_197064" data-name="Trazado 197064" d="M468.448,180.814c.02-.009.04-.02.059-.031a12.708,12.708,0,0,0,4.33-4.041c.168-.244.332-.5.494-.758h0a27.752,27.752,0,0,0,3.061-7.558c-.314-.081-.6-.159-.871-.231a26.565,26.565,0,0,1-3.007,7.391c-.16.262-.33.514-.5.758a12.069,12.069,0,0,1-3.307,3.271c-.011.041-.02.084-.029.126q-.1.443-.193.893c-.013.059-.025.119-.038.18" transform="translate(-134.413 -48.261)" fill="#c45755"/>
            <path id="Trazado_197065" data-name="Trazado 197065" d="M518.024,173.488a25.2,25.2,0,0,0,2.1,8.017c.138.287.279.565.431.834a12.148,12.148,0,0,0,3.123,3.759,9.718,9.718,0,0,0,4.279,1.937c-.024-.316-.049-.631-.074-.943a8.81,8.81,0,0,1-3.665-1.718,11.122,11.122,0,0,1-2.73-3.215c-.155-.267-.305-.543-.446-.828a23.848,23.848,0,0,1-2.118-7.874c-.3.013-.6.024-.9.031" transform="translate(-148.639 -49.771)" fill="#c45755"/>
            <path id="Trazado_197066" data-name="Trazado 197066" d="M473.263,171.267c.622.275,1.291.559,2.006.848.276.112.56.225.85.337a60.315,60.315,0,0,0,15.471,3.895c.225.021.451.045.677.065a84.507,84.507,0,0,0,15.222-.155c.319-.031.635-.06.945-.094,1.887-.193,3.579-.415,4.988-.624-.078-.309-.156-.6-.23-.875-1.445.212-3.185.44-5.126.635-.307.029-.617.06-.931.088a81.914,81.914,0,0,1-15.453.063,59.455,59.455,0,0,1-15.124-3.792h0c-.289-.112-.568-.224-.842-.336-.737-.3-1.425-.59-2.064-.871-.123.254-.252.526-.386.815" transform="translate(-135.795 -48.908)" fill="#c45755"/>
            <path id="Trazado_197067" data-name="Trazado 197067" d="M464.529,301.358c-2.525,9.069-5.234,18.878-7.228,26.112H444.59l6.932-64.947.116-1.093.265-2.477c.532-23.351,3.486-45.353,8.367-62.394l21.644,10.078c-1.04,25.673-8.468,39.122-14.236,56.149,0,0,3.57,15.765-3.15,38.573" transform="translate(-127.568 -56.399)" fill="#ff8578"/>
            <path id="Trazado_197068" data-name="Trazado 197068" d="M445.5,375.49a.436.436,0,0,1-.006-.872l12.522-.178h.006a.436.436,0,0,1,.006.872l-12.523.177Z" transform="translate(-127.704 -107.439)" fill="#c45755"/>
            <path id="Trazado_197069" data-name="Trazado 197069" d="M454.311,288.59a16.47,16.47,0,0,0,2.874.263,13.29,13.29,0,0,0,3.214-.38.541.541,0,0,0-.26-1.05,13.539,13.539,0,0,1-5.713.074Z" transform="translate(-130.357 -82.467)" fill="#c45755"/>
            <path id="Trazado_197070" data-name="Trazado 197070" d="M466.733,306.039c-1.726,7.076-4.079,16.331-6.067,24.075h-.932c2-7.785,4.38-17.146,6.122-24.289,3.58-14.676,2.406-38.118,2.394-38.354a.436.436,0,0,1,.048-.225,143.2,143.2,0,0,0,14.022-48.417.451.451,0,0,1,.9.064,144.259,144.259,0,0,1-14.064,48.653c.087,1.847,1.054,24.236-2.424,38.495" transform="translate(-131.913 -62.669)" fill="#c45755"/>
            <path id="Trazado_197071" data-name="Trazado 197071" d="M522.262,262.891q-.06,1.91-.128,3.864l-1.014,61.121H509.062c-1.413-8.464-3.523-21.091-5.568-33.312-3.63-21.7.248-29.974.248-29.974s-4.732-42.74-5.081-53.832l23.91-12.781s5.555,19.175-.275,63.757c-.011.384-.021.77-.034,1.157" transform="translate(-143.083 -56.806)" fill="#ff8578"/>
            <path id="Trazado_197072" data-name="Trazado 197072" d="M505.9,290.579c.525,3.521,3.558,24.638,5.672,39.328h-.917c-2.157-14.678-5.246-35.671-5.769-39.177-1.334-8.951,1.406-20.332,1.7-21.494l-6.173-50.971a.513.513,0,0,1,1.018-.123l6.184,51.066a.517.517,0,0,1-.012.19c-.031.118-3.068,11.995-1.7,21.181" transform="translate(-143.584 -62.463)" fill="#c45755"/>
            <path id="Trazado_197073" data-name="Trazado 197073" d="M524.722,374.823H512.674a.436.436,0,1,1,0-.872h12.048a.436.436,0,0,1,0,.872" transform="translate(-146.978 -107.299)" fill="#c45755"/>
            <path id="Trazado_197074" data-name="Trazado 197074" d="M520.306,288.886a13.313,13.313,0,0,0,3.217.382,17.548,17.548,0,0,0,4.832-.722q.019-.579.035-1.156a14.869,14.869,0,0,1-7.822.446.541.541,0,0,0-.261,1.05" transform="translate(-149.176 -82.462)" fill="#c45755"/>
            <path id="Trazado_197075" data-name="Trazado 197075" d="M495.381,201.956a.452.452,0,0,1-.5.394h0a.451.451,0,0,1-.394-.5c.2-1.681.393-3.4.575-5.126q.049-.455.1-.91c.585-5.63,1.059-11.176,1.372-15.094.025-.317.051-.625.073-.92.068-.86.126-1.623.175-2.27.3,0,.606.005.906,0-.048.646-.108,1.416-.177,2.285-.022.3-.048.6-.072.919-.312,3.885-.78,9.382-1.36,14.979-.031.309-.064.619-.095.928-.19,1.785-.389,3.572-.6,5.312" transform="translate(-141.884 -50.939)" fill="#c45755"/>
            <path id="Trazado_197076" data-name="Trazado 197076" d="M496.625,196.253a11.448,11.448,0,0,1-1.656.349,8.866,8.866,0,0,1-.917.078,6.161,6.161,0,0,1-.86-.031,3.022,3.022,0,0,1-1.451-.5,1.914,1.914,0,0,1-.775-1.581c-.035-1.774.477-8.987.863-14.084.023-.314.046-.62.068-.916.063-.816.12-1.557.17-2.187.3.014.6.028.9.038-.049.634-.108,1.384-.17,2.211q-.033.443-.071.916c-.382,5.085-.895,12.287-.861,14.006a1.008,1.008,0,0,0,.405.87,3.087,3.087,0,0,0,1.875.349c.31-.016.623-.052.916-.1a10.5,10.5,0,0,0,1.3-.286.451.451,0,1,1,.259.864" transform="translate(-140.874 -50.897)" fill="#c45755"/>
            <path id="Trazado_197077" data-name="Trazado 197077" d="M511.882,167.36,509.1,179.027c-6.95-.555-15.175-1.561-21.368-4.763,0,0-8.252,2.775-12.436,1.48l3.063-8.385Z" transform="translate(-136.378 -48.021)" fill="#fff"/>
            <path id="Trazado_197078" data-name="Trazado 197078" d="M469.327,152.553c8.013-.054,12.829-1.092,17.2-4.672,8.2,8.519,28.452,8.845,28.452,8.845-2.027-6.543-2.687-18.109-2.687-18.109a61.187,61.187,0,0,1,1-7.529c2-5.771,4.337-9.906,6.416-15.868.135-.386.272-.77.411-1.157.089-.251.183-.5.275-.753.684-1.865,1.418-3.724,2.188-5.514,3.354-7.813,3.894-16.619-4.171-19.309-.587-.194-1.165-.381-1.727-.559-3.815-1.206-6.995-2-7.879-2.213l-.244-.059-16.932,1.4-1.612.133c-2.364.265-4.872.2-6.458.546-1.394.307-2.237.232-3.657.652-3.337.986-3.242,5.474-4.279,11.048-.017.1-.036.193-.052.291-.008.03-.014.064-.021.094-.18.948-.4,1.885-.643,2.813-.274,1.038-.578,2.061-.9,3.059-1.952,6.124-4.305,8.935-3.9,12.789.366,3.49,3.925,8.249,4.872,9.264.217.233.345.358.345.358,0,.017,0,.036-.006.054-.013.138-.031.285-.05.439-.072.588-.175,1.287-.3,2.078-1.4,14.136-5.63,21.875-5.63,21.875" transform="translate(-134.666 -24.578)" fill="#43a99b"/>
            <path id="Trazado_197079" data-name="Trazado 197079" d="M474.155,131.777a.435.435,0,0,1-.316-.136c-.209-.22-5.1-5.439-3.4-10.2.474-1.323,1.025-2.66,1.608-4.074,1.772-4.3,3.779-9.166,4.295-15.482a.436.436,0,0,1,.869.071c-.526,6.452-2.562,11.388-4.358,15.743-.58,1.405-1.127,2.732-1.594,4.036-1.523,4.256,3.16,9.258,3.207,9.308a.436.436,0,0,1-.316.737" transform="translate(-134.883 -29.118)" fill="#1c8072"/>
            <path id="Trazado_197080" data-name="Trazado 197080" d="M495.743,117.487a.951.951,0,1,0,.951-.951.951.951,0,0,0-.951.951" transform="translate(-142.245 -33.438)" fill="#1c8072"/>
            <path id="Trazado_197081" data-name="Trazado 197081" d="M493.761,129.293a.951.951,0,1,0,.951-.951.951.951,0,0,0-.951.951" transform="translate(-141.677 -36.826)" fill="#1c8072"/>
            <path id="Trazado_197082" data-name="Trazado 197082" d="M492.569,141.293a.951.951,0,1,0,.951-.951.951.951,0,0,0-.951.951" transform="translate(-141.335 -40.269)" fill="#1c8072"/>
            <path id="Trazado_197083" data-name="Trazado 197083" d="M492.056,153.637a.951.951,0,1,0,.951-.951.951.951,0,0,0-.951.951" transform="translate(-141.187 -43.811)" fill="#1c8072"/>
            <path id="Trazado_197084" data-name="Trazado 197084" d="M492.116,166.477a.951.951,0,1,0,.951-.951.951.951,0,0,0-.951.951" transform="translate(-141.205 -47.495)" fill="#1c8072"/>
            <path id="Trazado_197085" data-name="Trazado 197085" d="M500.81,87.567a22.058,22.058,0,0,0-6.255.352l.279,9.66,2.2.472-1.851,1.822,2.22,6.481s3.034-10.784,3.409-18.786" transform="translate(-141.904 -25.103)" fill="#1c8072"/>
            <path id="Trazado_197086" data-name="Trazado 197086" d="M516.943,85.657l6.728,1.84-7.9,10.5-5.923-.473,2.077,4.53-13.379,3.773s15.495-14.714,16.734-20.034Z" transform="translate(-143.05 -24.578)" fill="#1c8072"/>
            <path id="Trazado_197087" data-name="Trazado 197087" d="M515.771,86.76s-3.865,8.229-17.225,19.385a105.9,105.9,0,0,1,3.4-18.182s7.863,2.739,13.821-1.2" transform="translate(-143.05 -24.894)" fill="#fff"/>
            <path id="Trazado_197088" data-name="Trazado 197088" d="M493.678,120.7c4.4,0,13.379-6.3,13.759-6.571a.361.361,0,0,0-.417-.59c-.091.064-9.171,6.438-13.343,6.438-3.992,0-4.877-4.36-4.885-4.4a.361.361,0,0,0-.709.137c.01.05,1.013,4.991,5.595,4.991" transform="translate(-140.046 -32.559)" fill="#1c8072"/>
            <path id="Trazado_197089" data-name="Trazado 197089" d="M503.244,87.358l-.181,2.28c-.337,4.251,2.685,5.456,7.086,3.2,3.476-1.779,6.428-4.437,6.911-6.082Z" transform="translate(-144.338 -24.894)" fill="#ff8c64"/>
            <path id="Trazado_197090" data-name="Trazado 197090" d="M502.146,147.219a.391.391,0,0,1-.34.2.38.38,0,0,1-.193-.051,22.549,22.549,0,0,0-14.183-2.1,24.433,24.433,0,0,1-9.9.11c.019-.155.037-.3.051-.44,0-.019,0-.037.006-.054,0,0-.129-.126-.346-.358a23.293,23.293,0,0,0,10.036-.025A22.917,22.917,0,0,1,502,146.686a.389.389,0,0,1,.145.533" transform="translate(-136.937 -41.346)" fill="#1c8072"/>
            <path id="Trazado_197091" data-name="Trazado 197091" d="M495.541,62.4s-2-2.367-3.135,0-.262,7.156,2.787,6.372Z" transform="translate(-141.151 -17.604)" fill="#c44b41"/>
            <path id="Trazado_197092" data-name="Trazado 197092" d="M503.675,78.462l-.266,6.444s3.488,5.3,13.758-1.524c-1-2.453-1.8-5.891-1.015-8.394a12.614,12.614,0,0,0-1.982,1,6.954,6.954,0,0,1-.819.355c-2.567,1.077-6.428,2.373-9.677,2.121" transform="translate(-144.445 -21.517)" fill="#ff8c64"/>
            <path id="Trazado_197093" data-name="Trazado 197093" d="M503.731,78.863l-.126,3.055c2.792-.622,7.813-2.144,10.622-5.531-.255.114-.528.232-.818.355-2.567,1.077-6.428,2.373-9.677,2.121" transform="translate(-144.501 -21.918)" fill="#12263f"/>
            <path id="Trazado_197094" data-name="Trazado 197094" d="M495.36,67.144c5.483,5.672,17.653-1.1,18.044-1.318l.009-.006q.169-.762.305-1.51a39.742,39.742,0,0,0,.394-11.86,8.981,8.981,0,0,0-5.826-8.929c-3.827-1.394-7.259.288-9.321.924-3.113.96-5.071,4.984-5.089,10.715-.021,7.035.123,10.575,1.483,11.983" transform="translate(-141.71 -12.333)" fill="#ff8c64"/>
            <path id="Trazado_197095" data-name="Trazado 197095" d="M497.5,52.75s1.138.113.738,1.155-2.683-.106-4.315,1.815c0,0-.695-2.5,3.577-2.971" transform="translate(-141.71 -15.136)" fill="#12263f"/>
            <path id="Trazado_197096" data-name="Trazado 197096" d="M505.854,52.75s-1.138.113-.738,1.155,2.683-.106,4.315,1.815c0,0,.695-2.5-3.578-2.971" transform="translate(-144.91 -15.136)" fill="#12263f"/>
            <path id="Trazado_197097" data-name="Trazado 197097" d="M506.7,63.771c0,.531,1.093.961,2.442.961s2.442-.431,2.442-.961-1.093-.961-2.442-.961-2.442.431-2.442.961" transform="translate(-145.389 -18.022)" fill="#c44b41"/>
            <g id="Grupo_157467" data-name="Grupo 157467" transform="translate(351.36 44.787)" opacity="0.8">
              <g id="Grupo_157466" data-name="Grupo 157466">
                <g id="Grupo_157465" data-name="Grupo 157465" clip-path="url(#clip-path-5)">
                  <path id="Trazado_197098" data-name="Trazado 197098" d="M492.745,64.7a5.806,5.806,0,0,0,.588.029c1.348,0,2.442-.431,2.442-.962s-1.094-.961-2.442-.961c-.183,0-.36.008-.531.024Z" transform="translate(-492.745 -62.809)" fill="#c44b41"/>
                </g>
              </g>
            </g>
            <path id="Trazado_197099" data-name="Trazado 197099" d="M506.074,59.529c0,.729.331,1.32.739,1.32s.739-.59.739-1.32-.331-1.32-.739-1.32-.739.591-.739,1.32" transform="translate(-145.21 -16.702)" fill="#12263f"/>
            <path id="Trazado_197100" data-name="Trazado 197100" d="M495.958,59.529c0,.729.331,1.32.739,1.32s.739-.59.739-1.32-.331-1.32-.739-1.32-.739.591-.739,1.32" transform="translate(-142.307 -16.702)" fill="#12263f"/>
            <path id="Trazado_197101" data-name="Trazado 197101" d="M499.831,69.064A3.521,3.521,0,0,1,497.3,68a.3.3,0,1,1,.419-.429c2.193,2.143,5.116-.21,5.24-.312a.3.3,0,0,1,.382.463,6.352,6.352,0,0,1-3.505,1.336" transform="translate(-142.665 -19.281)" fill="#12263f"/>
            <path id="Trazado_197102" data-name="Trazado 197102" d="M500.18,62.417a2.652,2.652,0,0,1-.606-.063.3.3,0,0,1-.208-.389l1.109-3.18a.3.3,0,0,1,.567.2l-.988,2.831a2.36,2.36,0,0,0,1.229-.265.3.3,0,1,1,.284.528,2.919,2.919,0,0,1-1.386.34" transform="translate(-143.28 -16.809)" fill="#12263f"/>
            <path id="Trazado_197103" data-name="Trazado 197103" d="M517.935,70.871c.035.081.993,2.3,2.372,2.958h0l.007-.008c.113-.507.214-1.011.305-1.509a5.581,5.581,0,0,1-2.687-1.443" transform="translate(-148.613 -20.335)" fill="#12263f"/>
            <path id="Trazado_197104" data-name="Trazado 197104" d="M519.809,62.958s2.915-3.916,5.051-.839c1.761,2.536-1.567,9.144-5.051,6.88Z" transform="translate(-149.151 -17.486)" fill="#ff8c64"/>
            <path id="Trazado_197105" data-name="Trazado 197105" d="M523.451,70.081a.74.74,0,1,1-.74-.739.74.74,0,0,1,.74.739" transform="translate(-149.771 -19.897)" fill="#fff"/>
            <path id="Trazado_197106" data-name="Trazado 197106" d="M520.247,68.622l-.033,0a.3.3,0,0,1-.266-.33,5.614,5.614,0,0,1,3.286-4.532.3.3,0,0,1,.222.557,5.011,5.011,0,0,0-2.912,4.04.3.3,0,0,1-.3.267" transform="translate(-149.19 -18.288)" fill="#12263f"/>
            <path id="Trazado_197107" data-name="Trazado 197107" d="M523.435,67.52a.3.3,0,0,1-.189-.067c-.261-.212-1.052-.731-1.569-.6a.3.3,0,0,1-.149-.581,2.884,2.884,0,0,1,2.1.714.3.3,0,0,1-.19.533" transform="translate(-149.579 -19.005)" fill="#12263f"/>
            <path id="Trazado_197108" data-name="Trazado 197108" d="M514.041,47.219s-3.99,3.639-5.67,2.74,1.034-4.2,1.034-4.2-5.913,3.2-8.183,2.171,1.8-3.791,1.8-3.791-4.513,4.015-7.082,3.777,0-3.477,0-3.477-2.35,4.544-3.9,4.153.531-6.913,5.67-9.133,18.22-1.82,16.329,7.76" transform="translate(-141.039 -11.003)" fill="#12263f"/>
            <path id="Trazado_197109" data-name="Trazado 197109" d="M518.044,52.173s-1.313,8.325.784,8.363,4.209-3.2,2.7-9.745Z" transform="translate(-148.528 -14.574)" fill="#12263f"/>
            <path id="Trazado_197110" data-name="Trazado 197110" d="M488.278,60.471l3.88.135v.538h-.008l-3.891-.135a.27.27,0,0,1-.26-.279.263.263,0,0,1,.279-.26" transform="translate(-140.023 -17.351)" fill="#fff"/>
            <path id="Trazado_197111" data-name="Trazado 197111" d="M502.371,58.422a4.548,4.548,0,1,1,4.548,4.548,4.553,4.553,0,0,1-4.548-4.548m.538,0a4.01,4.01,0,1,0,4.009-4.01,4.014,4.014,0,0,0-4.009,4.01" transform="translate(-144.147 -15.458)" fill="#fff"/>
            <path id="Trazado_197112" data-name="Trazado 197112" d="M487.308,58.422a4.548,4.548,0,1,1,4.548,4.548,4.553,4.553,0,0,1-4.548-4.548m.538,0a4.01,4.01,0,1,0,4.01-4.01,4.015,4.015,0,0,0-4.01,4.01" transform="translate(-139.825 -15.458)" fill="#fff"/>
            <path id="Trazado_197113" data-name="Trazado 197113" d="M520.239,60.654a.269.269,0,0,0,.252-.365c-1.2-3.133-5.968-1.529-6.015-1.512a.269.269,0,1,0,.175.509c.043-.015,4.325-1.452,5.337,1.2a.269.269,0,0,0,.252.173" transform="translate(-147.568 -16.743)" fill="#fff"/>
            <path id="Trazado_197114" data-name="Trazado 197114" d="M499.534,58.867a.271.271,0,0,0,.191-.08c.747-.757,1.878-.115,1.889-.108a.269.269,0,0,0,.27-.466,2.136,2.136,0,0,0-2.543.2.27.27,0,0,0,0,.381.268.268,0,0,0,.19.078" transform="translate(-143.256 -16.608)" fill="#fff"/>
            <path id="Trazado_197115" data-name="Trazado 197115" d="M524.925,231.479a1.309,1.309,0,0,1-1.177-1.877l2.788-5.777-18.11-8.741-2.788,5.777a1.308,1.308,0,1,1-2.356-1.137l3.356-6.955a1.308,1.308,0,0,1,1.747-.61l20.466,9.877a1.309,1.309,0,0,1,.61,1.747l-3.356,6.955a1.309,1.309,0,0,1-1.179.74" transform="translate(-144.371 -60.839)" fill="#564c54"/>
            <path id="Trazado_197116" data-name="Trazado 197116" d="M512.983,216.812,527.04,223.6a.681.681,0,0,0,.911-.317L529,221.112a.681.681,0,0,0-.317-.91l-14.059-6.785a.68.68,0,0,0-.91.317l-1.045,2.167a.68.68,0,0,0,.317.91" transform="translate(-147.081 -61.217)" fill="#a4a3ff"/>
            <path id="Trazado_197117" data-name="Trazado 197117" d="M461.253,251.62,507.621,274a2.686,2.686,0,0,0,3.587-1.251l15.462-32.036a2.688,2.688,0,0,0-1.252-3.588l-46.367-22.378A2.686,2.686,0,0,0,475.463,216L460,248.032a2.687,2.687,0,0,0,1.252,3.587" transform="translate(-131.913 -61.54)" fill="#12263f"/>
            <path id="Trazado_197118" data-name="Trazado 197118" d="M500.275,253.008a4.849,4.849,0,1,0,6.071-3.189,4.849,4.849,0,0,0-6.071,3.189" transform="translate(-143.483 -71.618)" fill="#564c54"/>
            <path id="Trazado_197119" data-name="Trazado 197119" d="M522.335,204.091s-4.914,1.994-6.794,4.211a3.039,3.039,0,0,0-.134,4.107s-3.145,4.443-2.561,6.089a1.865,1.865,0,0,0,2.269,1.186s-.151,1.256.555,1.78,2.332-.147,2.332-.147-.093,2.2.779,2.6,2.3-.608,2.3-.608.806,2.471,2.214,1.833c3.24-1.467,9.232-13.739,9.232-13.739s-5.467-5.509-10.2-7.315" transform="translate(-147.132 -58.561)" fill="#ff8c64"/>
            <path id="Trazado_197120" data-name="Trazado 197120" d="M516.6,214.06a.349.349,0,0,1-.247-.6c1.588-1.588,3.374-3.534,3.391-3.554a.349.349,0,1,1,.514.471c-.018.02-1.813,1.977-3.412,3.576a.35.35,0,0,1-.247.1" transform="translate(-148.129 -60.198)" fill="#c44b41"/>
            <path id="Trazado_197121" data-name="Trazado 197121" d="M539.513,94.759l.267.39.219.327.413.632c.268.416.527.829.781,1.24.506.824.988,1.649,1.458,2.477q1.407,2.485,2.659,5.026c.841,1.7,1.618,3.421,2.355,5.168s1.421,3.52,2.049,5.32,1.2,3.624,1.72,5.474.96,3.729,1.337,5.632a66.937,66.937,0,0,1,1.31,11.677c.019.993.02,1.987-.011,2.985l-.023.751c-.021.406-.048.826-.093,1.179-.039.382-.095.7-.148,1.047l-.09.477c-.031.158-.061.318-.095.463a31.521,31.521,0,0,1-.911,3.247c-.333,1-.687,1.933-1.053,2.844-.73,1.819-1.519,3.531-2.329,5.2s-1.646,3.3-2.509,4.9-1.741,3.181-2.634,4.743-1.811,3.1-2.736,4.637-1.875,3.046-2.831,4.556l-1.446,2.259-.739,1.125-.761,1.143-10.136-6.23,1.207-2.233,1.216-2.268q1.209-2.274,2.375-4.567t2.3-4.58q1.132-2.29,2.195-4.585c.7-1.529,1.393-3.052,2.029-4.569s1.226-3.023,1.738-4.478c.253-.726.483-1.44.674-2.115a17.193,17.193,0,0,0,.424-1.83c.014-.068.019-.125.026-.183l.023-.169c0-.091.021-.2.017-.256a.963.963,0,0,0,0-.13l0-.562c0-.752-.034-1.509-.077-2.266a62.788,62.788,0,0,0-4.134-18.193,88.282,88.282,0,0,0-3.9-8.8c-.726-1.435-1.493-2.852-2.295-4.234-.4-.691-.811-1.372-1.224-2.039-.205-.334-.413-.663-.618-.982l-.305-.468-.249-.37Z" transform="translate(-150.794 -27.19)" fill="#43a99b"/>
            <path id="Trazado_197122" data-name="Trazado 197122" d="M532.2,204.9a1,1,0,1,0,1.189-.76,1,1,0,0,0-1.189.76" transform="translate(-152.7 -58.569)" fill="#564c54"/>
            <path id="Trazado_197123" data-name="Trazado 197123" d="M539.563,204.622a.434.434,0,0,1-.25-.079,102.451,102.451,0,0,0-9.981-6.045.436.436,0,0,1,.4-.773,103.466,103.466,0,0,1,10.077,6.1.436.436,0,0,1-.251.793" transform="translate(-151.816 -56.719)" fill="#564c54"/>
            <path id="Trazado_197124" data-name="Trazado 197124" d="M528.022,204.419a.437.437,0,0,1-.381-.65l2.572-4.59a.436.436,0,0,1,.762.426L528.4,204.2a.437.437,0,0,1-.381.223" transform="translate(-151.382 -57.087)" fill="#564c54"/>
            <path id="Trazado_197125" data-name="Trazado 197125" d="M534.8,123.355a.437.437,0,0,1-.407-.279c-.04-.1-4.087-10.512-8.254-15.474a.436.436,0,0,1,.667-.561c4.261,5.073,8.233,15.288,8.4,15.72a.436.436,0,0,1-.406.593" transform="translate(-150.937 -30.669)" fill="#1c8072"/>
            <path id="Trazado_197126" data-name="Trazado 197126" d="M528.081,111.489a.443.443,0,0,1-.134-.021l-3.521-1.134a.436.436,0,1,1,.268-.83l3.52,1.135a.436.436,0,0,1-.133.851" transform="translate(-150.389 -31.414)" fill="#1c8072"/>
            <path id="Trazado_197127" data-name="Trazado 197127" d="M551.513,162.024a.431.431,0,0,1-.153-.028,16.894,16.894,0,0,0-5.324-.815.436.436,0,1,1,0-.872,17.413,17.413,0,0,1,5.63.871.436.436,0,0,1-.153.844" transform="translate(-156.551 -45.998)" fill="#1c8072"/>
            <path id="Trazado_197128" data-name="Trazado 197128" d="M546.035,160.5a.436.436,0,0,1-.21-.819c1.347-.735,3.741-1.679,3.843-1.718a.436.436,0,0,1,.319.811c-.024.009-2.446.963-3.744,1.672a.434.434,0,0,1-.209.053" transform="translate(-156.551 -45.316)" fill="#1c8072"/>
            <path id="Trazado_197129" data-name="Trazado 197129" d="M72.14,193.736l-.024.424-.024.55c-.012.379-.021.767-.026,1.158-.016.783-.013,1.584,0,2.385.027,1.607.106,3.229.227,4.852a90.722,90.722,0,0,0,1.217,9.712c.3,1.605.623,3.205.99,4.795s.789,3.164,1.251,4.725c.107.393.233.779.352,1.169s.235.779.364,1.164c.26.77.506,1.546.789,2.306.14.382.271.767.416,1.145l.439,1.134.11.284.055.142.014.035c0,.011.013.033,0,.014l-.024-.053c-.04-.076-.062-.123-.095-.173a.939.939,0,0,0-.063-.095c-.073-.091-.045-.031.029.063a7.279,7.279,0,0,0,1.025.951c.475.379,1.041.778,1.648,1.173,1.22.791,2.6,1.57,4.03,2.321s2.93,1.471,4.455,2.168,3.078,1.38,4.652,2.038c3.147,1.316,6.361,2.57,9.6,3.773q2.43.908,4.882,1.773l2.452.852,1.222.421,1.2.4-3.211,11.227-1.349-.343-1.317-.344c-.875-.233-1.746-.474-2.616-.717q-2.61-.731-5.207-1.51c-3.462-1.05-6.914-2.169-10.36-3.411s-6.89-2.589-10.366-4.2a59.129,59.129,0,0,1-5.28-2.756c-.9-.535-1.806-1.114-2.746-1.8a21.468,21.468,0,0,1-2.951-2.551,14.207,14.207,0,0,1-1.6-2.023c-.133-.2-.271-.435-.4-.664-.135-.247-.263-.488-.391-.767l-.138-.307-.072-.165-.143-.329-.572-1.317c-.189-.44-.363-.885-.545-1.327-.369-.884-.7-1.781-1.039-2.674-.171-.446-.323-.9-.485-1.348s-.323-.9-.468-1.354l-.446-1.36c-.146-.454-.28-.912-.42-1.368-.285-.911-.529-1.832-.789-2.75-.491-1.841-.941-3.692-1.326-5.557a105.5,105.5,0,0,1-1.691-11.295q-.255-2.853-.335-5.742c-.026-.965-.041-1.934-.032-2.919.006-.493.018-.99.035-1.494l.033-.775.022-.406.034-.493Z" transform="translate(-16.355 -55.237)" fill="#ff8578"/>
            <path id="Trazado_197130" data-name="Trazado 197130" d="M79.756,247.577a.433.433,0,0,1-.257-.781,36.42,36.42,0,0,1,4.652-2.919.433.433,0,0,1,.392.772,36.193,36.193,0,0,0-4.529,2.843.433.433,0,0,1-.257.085" transform="translate(-22.76 -69.963)" fill="#c45755"/>
            <path id="Trazado_197131" data-name="Trazado 197131" d="M81.548,244.615a.433.433,0,0,1-.032-.864c.017,0,1.714-.128,3.143-.128a.433.433,0,1,1,0,.866c-1.4,0-3.061.123-3.078.125h-.033" transform="translate(-23.275 -69.904)" fill="#c45755"/>
            <path id="Trazado_197132" data-name="Trazado 197132" d="M121.551,275.862a.432.432,0,0,1-.415-.556l3.916-13.17a.433.433,0,0,1,.83.247l-3.917,13.17a.433.433,0,0,1-.414.309" transform="translate(-34.753 -75.127)" fill="#c9daf4"/>
            <path id="Trazado_197133" data-name="Trazado 197133" d="M129.4,277.9a.417.417,0,0,1-.13-.021l-6.02-1.9a.433.433,0,1,1,.261-.826l6.02,1.9a.433.433,0,0,1-.131.846" transform="translate(-35.278 -78.945)" fill="#c9daf4"/>
            <path id="Trazado_197134" data-name="Trazado 197134" d="M129.771,272.109a1,1,0,1,1-1.181-.778,1,1,0,0,1,1.181.778" transform="translate(-36.668 -77.848)" fill="#c9daf4"/>
            <path id="Trazado_197135" data-name="Trazado 197135" d="M69.342,362.055h-51.1a2.005,2.005,0,1,1,0-4h51.1a2.005,2.005,0,1,1,0,4" transform="translate(-4.614 -102.739)" fill="#8585e0"/>
            <path id="Trazado_197136" data-name="Trazado 197136" d="M72.29,379.038a2.116,2.116,0,0,1-2.143-1.733l-9.056-62.446h-37.9L14.278,377.3a2.139,2.139,0,0,1-2.429,1.721,2.035,2.035,0,0,1-1.863-2.243L19.149,312.6a2.115,2.115,0,0,1,2.146-1.738H62.984a2.115,2.115,0,0,1,2.146,1.734l9.308,64.179a2.034,2.034,0,0,1-1.858,2.247,2.364,2.364,0,0,1-.29.018" transform="translate(-2.86 -89.196)" fill="#a4a3ff"/>
            <path id="Trazado_197137" data-name="Trazado 197137" d="M48.051,283.95H20.975c-8.578,0-17.764-4.694-19.081-13.17A160.762,160.762,0,0,1,.189,238.4a39.435,39.435,0,0,1,14.952-29.054s5.409,23.57-1.393,56.1c2.6,12.361,34.3,18.507,34.3,18.507" transform="translate(0 -60.067)" fill="#a4a3ff"/>
            <path id="Trazado_197138" data-name="Trazado 197138" d="M166.489,367.57l4.722,9.5-9.967,4.323-4.33-8.951Z" transform="translate(-45.024 -105.468)" fill="#ff8c64"/>
            <path id="Trazado_197139" data-name="Trazado 197139" d="M165.134,396.207c.032.078.065.153.1.227.15.343.293.648.417.909.277.573.468.917.468.917l19.5-8.025a11.589,11.589,0,0,0-.749-1.883,10.535,10.535,0,0,0-6.453-5.785c-4.86-1.333-3.192-1.325-4.482-2.312-.145-.11-1.716-2.044-1.85-2.167-1.189-1.088-2.035-1.485-5.529-.048-4.634,1.907-4.116,4.323-4.123,5.711a23.908,23.908,0,0,0,.362,3.07c.086.54.186,1.115.292,1.7.267,1.461.578,2.974.857,4.169a21.942,21.942,0,0,0,1.193,3.52" transform="translate(-46.603 -108.205)" fill="#43a99b"/>
            <path id="Trazado_197140" data-name="Trazado 197140" d="M165.285,400.1c.032.078.065.153.1.227.15.343.293.648.417.909a5.883,5.883,0,0,0,.946-3.46c-.146-3.783-3.624-6.963-3.771-7.1l-.031.035c.086.54.186,1.115.292,1.7a9.593,9.593,0,0,1,2.509,5.406,4.893,4.893,0,0,1-.458,2.282" transform="translate(-46.754 -112.099)" fill="#4ed1bb"/>
            <path id="Trazado_197141" data-name="Trazado 197141" d="M166.364,400.958c.483,1.1.886,1.826.886,1.826l19.5-8.025a11.6,11.6,0,0,0-.749-1.882Z" transform="translate(-47.735 -112.73)" fill="#4ed1bb"/>
            <path id="Trazado_197142" data-name="Trazado 197142" d="M170.491,386.011a.623.623,0,0,0,.133-.076,10.423,10.423,0,0,1,4.482-1.953.6.6,0,0,0-.144-1.194,11.557,11.557,0,0,0-5.06,2.185.6.6,0,0,0,.59,1.038" transform="translate(-48.682 -109.834)" fill="#4ed1bb"/>
            <path id="Trazado_197143" data-name="Trazado 197143" d="M168.745,383.046a.615.615,0,0,0,.133-.076,10.421,10.421,0,0,1,4.482-1.953.6.6,0,0,0-.145-1.194,11.552,11.552,0,0,0-5.06,2.185.6.6,0,0,0,.59,1.038" transform="translate(-48.181 -108.983)" fill="#4ed1bb"/>
            <path id="Trazado_197144" data-name="Trazado 197144" d="M172.677,388a.613.613,0,0,0,.133-.076,10.541,10.541,0,0,1,4.483-1.954.6.6,0,0,0-.146-1.194,11.566,11.566,0,0,0-5.059,2.186.6.6,0,0,0,.59,1.037" transform="translate(-49.309 -110.404)" fill="#4ed1bb"/>
            <path id="Trazado_197145" data-name="Trazado 197145" d="M175.207,390.243a.618.618,0,0,0,.133-.076,10.54,10.54,0,0,1,4.483-1.954.6.6,0,0,0-.146-1.194,11.568,11.568,0,0,0-5.06,2.186.6.6,0,0,0,.59,1.038" transform="translate(-50.035 -111.048)" fill="#4ed1bb"/>
            <path id="Trazado_197146" data-name="Trazado 197146" d="M110.067,368.842l.19,10.6,9.92.187.056-9.969Z" transform="translate(-31.582 -105.833)" fill="#ff8c64"/>
            <path id="Trazado_197147" data-name="Trazado 197147" d="M142.412,397.432l-35.4-.379a4.945,4.945,0,0,1-.444-1.971c-.19-3,.816-7.765,1.316-10.773.061-.352.113-.68.153-.976a10.461,10.461,0,0,0,.119-1.229,1.806,1.806,0,0,1,2.2-2.014c3.545,3.551,7.657-1.673,10.006.08,0,0,1.013.742,3.8,3.3s7.544,4.278,11.6,6.024c5.229,2.252,6.695,4.461,6.97,5.975a2.767,2.767,0,0,1-.312,1.963" transform="translate(-30.572 -108.977)" fill="#43a99b"/>
            <path id="Trazado_197148" data-name="Trazado 197148" d="M142.422,403.583l-35.4-.379a4.944,4.944,0,0,1-.444-1.971l36.153.386a2.767,2.767,0,0,1-.312,1.963" transform="translate(-30.581 -115.127)" fill="#4ed1bb"/>
            <path id="Trazado_197149" data-name="Trazado 197149" d="M111.166,398.515l-1.052-.011a7.77,7.77,0,0,0,1.964-5.647,9.985,9.985,0,0,0-3.652-7.124c.061-.351.113-.68.154-.976a10.846,10.846,0,0,1,4.34,8.067,8.591,8.591,0,0,1-1.755,5.692" transform="translate(-31.111 -110.399)" fill="#4ed1bb"/>
            <path id="Trazado_197150" data-name="Trazado 197150" d="M130.141,387.186a.583.583,0,0,1-.128-1.151l2.217-.526a.583.583,0,1,1,.269,1.135l-2.217.526a.6.6,0,0,1-.141.016" transform="translate(-37.176 -110.611)" fill="#4ed1bb"/>
            <path id="Trazado_197151" data-name="Trazado 197151" d="M126.742,384.473a.583.583,0,0,1-.128-1.151l2.217-.526a.583.583,0,1,1,.269,1.135l-2.217.526a.6.6,0,0,1-.141.016" transform="translate(-36.201 -109.833)" fill="#4ed1bb"/>
            <path id="Trazado_197152" data-name="Trazado 197152" d="M133.223,389.022a.583.583,0,0,1-.128-1.151l2.217-.526a.583.583,0,1,1,.269,1.135l-2.217.526a.6.6,0,0,1-.141.016" transform="translate(-38.061 -111.138)" fill="#4ed1bb"/>
            <path id="Trazado_197153" data-name="Trazado 197153" d="M136.3,390.788a.583.583,0,0,1-.128-1.151l2.217-.526a.583.583,0,1,1,.269,1.135l-2.217.525a.567.567,0,0,1-.141.016" transform="translate(-38.945 -111.645)" fill="#4ed1bb"/>
            <path id="Trazado_197154" data-name="Trazado 197154" d="M139.669,392.426a.583.583,0,0,1-.128-1.151l2.217-.526a.583.583,0,1,1,.269,1.135l-2.217.526a.6.6,0,0,1-.141.016" transform="translate(-39.91 -112.115)" fill="#4ed1bb"/>
            <path id="Trazado_197155" data-name="Trazado 197155" d="M143.321,393.832a.583.583,0,0,1-.128-1.151l2.217-.526a.583.583,0,1,1,.269,1.135l-2.217.526a.6.6,0,0,1-.141.016" transform="translate(-40.958 -112.518)" fill="#4ed1bb"/>
            <path id="Trazado_197156" data-name="Trazado 197156" d="M109.755,275.541c-3-2.953-50.776-15.031-66.491-10.642-1.8,3.465,20.015,17.723,25.645,25.845,20.659,3.376,32.189,10.325,32.189,10.325s7.325,16.927,11.677,23.14,12.647,23.456,12.647,23.456l11.663-5.541s-19.162-58.543-27.329-66.583" transform="translate(-12.384 -75.736)" fill="#12263f"/>
            <path id="Trazado_197157" data-name="Trazado 197157" d="M154.348,369.589a.433.433,0,0,1-.172-.83l11.706-5.066a.433.433,0,0,1,.344.794l-11.706,5.066a.434.434,0,0,1-.172.036" transform="translate(-44.163 -104.346)" fill="#564c54"/>
            <path id="Trazado_197158" data-name="Trazado 197158" d="M149.332,352.785a.433.433,0,0,1-.4-.257c-.036-.079-.953-2.076-7.674-13.084C133.941,327.452,126.6,310.172,126.523,310a.433.433,0,0,1,.8-.338c.073.173,7.393,17.394,14.681,29.331,6.795,11.129,7.692,13.1,7.727,13.184a.433.433,0,0,1-.22.571.438.438,0,0,1-.175.037" transform="translate(-36.294 -88.777)" fill="#564c54"/>
            <path id="Trazado_197159" data-name="Trazado 197159" d="M18.667,259.827S2.393,295.607,47.094,298.22c20.175,1.179,29.813-1.951,29.813-1.951s.486,17.844,1.425,25.372,3.738,20.951,3.738,20.951H94.164s4.846-55.009-4.909-61.025-26.669-10.533-50.75-12.843c0,0-16.291-7.176-19.838-8.9" transform="translate(-4.527 -74.553)" fill="#12263f"/>
            <path id="Trazado_197160" data-name="Trazado 197160" d="M85.012,337.514a.433.433,0,0,1-.424-.347c-1.744-8.635-2.33-19.383-2.8-28.019-.39-7.161-.759-13.925-1.679-14.738-.745-.658-3.839-.145-7.756.506-7.79,1.293-19.564,3.248-32.548.227-7.072-1.646-12.271-5.081-15.453-10.21-5.487-8.847-2.986-19.815-2.96-19.924a.433.433,0,0,1,.843.2c-.025.106-2.442,10.738,2.857,19.275C28.148,289.4,33.164,292.708,40,294.3c12.816,2.981,24.487,1.044,32.211-.238,4.625-.767,7.417-1.231,8.471-.3,1.138,1.006,1.458,5.952,1.969,15.339.469,8.608,1.053,19.321,2.785,27.894a.434.434,0,0,1-.339.511.45.45,0,0,1-.086.009" transform="translate(-5.969 -75.944)" fill="#564c54"/>
            <path id="Trazado_197161" data-name="Trazado 197161" d="M120.444,366.359h-.009l-13.448-.289a.433.433,0,0,1-.424-.442.428.428,0,0,1,.442-.424l13.448.289a.433.433,0,0,1-.009.866" transform="translate(-30.576 -104.789)" fill="#564c54"/>
            <path id="Trazado_197162" data-name="Trazado 197162" d="M65.358,282.329h46.429a.82.82,0,0,0,.821-.82v-4.624a.82.82,0,0,0-.82-.82H65.358a.82.82,0,0,0-.82.82v4.624a.82.82,0,0,0,.82.82" transform="translate(-18.518 -79.212)" fill="#8585e0"/>
            <path id="Trazado_197163" data-name="Trazado 197163" d="M128.648,268.47a3.994,3.994,0,0,0,3.859-2.963l8.99-33.666a3.24,3.24,0,0,0-3.13-4.077H116.844a3.24,3.24,0,0,0-3.12,2.364l-10.77,38.342Z" transform="translate(-29.541 -65.353)" fill="#a4a3ff"/>
            <path id="Trazado_197164" data-name="Trazado 197164" d="M112.768,230.128l-10.68,38.026H99.628l10.68-38.026a3.244,3.244,0,0,1,3.121-2.366h2.459a3.245,3.245,0,0,0-3.121,2.366" transform="translate(-28.587 -65.353)" fill="#8585e0"/>
            <path id="Trazado_197165" data-name="Trazado 197165" d="M126.541,255.532a2.946,2.946,0,0,0,2.942,3.828,5.111,5.111,0,0,0,4.714-3.828,2.946,2.946,0,0,0-2.942-3.828,5.11,5.11,0,0,0-4.714,3.828" transform="translate(-36.28 -72.222)" fill="#8585e0"/>
            <path id="Trazado_197166" data-name="Trazado 197166" d="M63.338,217.736c-.021.039-.035.071-.056.11a11.146,11.146,0,0,1-.719,1.208,20.809,20.809,0,0,1-4.737,4.775c-.248.187-.394.28-.394.28a.439.439,0,0,1,0,.049c-.011.132-.022.265-.036.411a18.642,18.642,0,0,0-.081,1.982c.188,8.656.362,10.133.405,13.8-13.946,13.575-37.818-1.4-38.8-3.61.457-8.643.457-8.643.792-17.029a92.741,92.741,0,0,0-1.288-16.543c-.038-.248-.076-.5-.12-.745-.305-1.85-.653-3.7-1.047-5.491-1.726-7.837.272-14.192,5.071-16.328,1.63-.726,6.292-1.184,8.323-1.214.548-.009,1.086-.012,1.6-.014,2.853.006,5.062.124,5.062.124l13.17,2.685c1.27.4,2.407.786,3.421,1.185.891.34,1.689.69,2.4,1.046,6.366,3.157,5.936,6.743,5.927,13.356a49.208,49.208,0,0,0,.362,5.594c.074.574.15,1.141.226,1.708.739,5.4,1.786,10.115.528,12.658" transform="translate(-4.774 -51.47)" fill="#ff8578"/>
            <path id="Trazado_197167" data-name="Trazado 197167" d="M57.055,197.828a.942.942,0,1,1-.942-.942.942.942,0,0,1,.942.942" transform="translate(-15.83 -56.493)" fill="#c45755"/>
            <path id="Trazado_197168" data-name="Trazado 197168" d="M57.57,203.415a.942.942,0,1,1-.942-.942.942.942,0,0,1,.942.942" transform="translate(-15.978 -58.096)" fill="#c45755"/>
            <path id="Trazado_197169" data-name="Trazado 197169" d="M41.441,179.465s-6.761-.779-6.867,3.206,7.512,9.378,13.95,7.64c0,0-7.448-5.16-7.084-10.846" transform="translate(-9.92 -51.477)" fill="#fff"/>
            <path id="Trazado_197170" data-name="Trazado 197170" d="M62.121,183.218s7.637,1.438,7.224,5.69-7.68,5.534-11.2,2.674c0,0,3.385-2.251,3.979-8.364" transform="translate(-16.683 -52.571)" fill="#fff"/>
            <path id="Trazado_197171" data-name="Trazado 197171" d="M58.1,181.611l-.432,4.762a4.711,4.711,0,0,1-7.877,3.04c-3.355-3.065-6.154-6.907-5.613-9.922Z" transform="translate(-12.657 -51.502)" fill="#ff8c64"/>
            <path id="Trazado_197172" data-name="Trazado 197172" d="M64.52,240.681c0,.014,0,.029,0,.049-.011.133-.023.265-.036.411a22.889,22.889,0,0,1-9.145-1.846,21.2,21.2,0,0,0-13.506-.561.364.364,0,0,1-.466-.23.366.366,0,0,1,.224-.467,21.618,21.618,0,0,1,14.027.575,21.815,21.815,0,0,0,9.3,1.791c-.247.186-.393.279-.393.279" transform="translate(-11.862 -68.042)" fill="#c45755"/>
            <path id="Trazado_197173" data-name="Trazado 197173" d="M56.966,209.773c-4.406-.841-12.191-8.869-12.519-9.21a.368.368,0,1,1,.53-.511c.079.081,7.951,8.2,12.128,9,4,.764,5.716-3.433,5.733-3.475a.368.368,0,1,1,.685.272c-.019.048-1.969,4.8-6.556,3.927" transform="translate(-12.724 -57.369)" fill="#c45755"/>
            <path id="Trazado_197174" data-name="Trazado 197174" d="M74.169,249.41a.432.432,0,0,1-.429-.384c-.4-3.479-.5-9.54-.5-9.6a.435.435,0,0,1,.247-.4,12.535,12.535,0,0,0,5.69-6.185.433.433,0,0,1,.809.31,13.181,13.181,0,0,1-5.874,6.528c.025,1.212.146,6.227.492,9.248a.433.433,0,0,1-.381.479.4.4,0,0,1-.05,0" transform="translate(-21.014 -66.73)" fill="#c45755"/>
            <path id="Trazado_197175" data-name="Trazado 197175" d="M55.769,127.133a8.3,8.3,0,1,1-.041-1.433,8.307,8.307,0,0,1,.041,1.433" transform="translate(-11.238 -33.959)" fill="#12263f"/>
            <path id="Trazado_197176" data-name="Trazado 197176" d="M56.719,130.028a8.308,8.308,0,0,1-14.244,5.327c2.159-2.8,7.126-7.857,14.2-6.76a8.253,8.253,0,0,1,.041,1.433" transform="translate(-12.188 -36.854)" fill="#ff8578"/>
            <path id="Trazado_197177" data-name="Trazado 197177" d="M79.513,145.64s2.138,6.548-1.39,9.031l-.2-8.958Z" transform="translate(-22.36 -41.789)" fill="#12263f"/>
            <path id="Trazado_197178" data-name="Trazado 197178" d="M64.742,134.1s-8.2-8.287-18.143-1.656c-10.116,6.746-9.213,24.3-.237,26.55,0,0,15.148-12.864,18.38-24.895" transform="translate(-11.282 -37.264)" fill="#12263f"/>
            <path id="Trazado_197179" data-name="Trazado 197179" d="M74.236,159.618s2.452-1.982,3.132.6-1.1,7.2-4,5.834Z" transform="translate(-21.052 -45.591)" fill="#c44b41"/>
            <path id="Trazado_197180" data-name="Trazado 197180" d="M58.919,173.333l-.964,6.489s-4.794,5-13.751-3.777c2.358-1.8,3.22-5.912,2.912-8.562a12.908,12.908,0,0,1,1.791,1.373,6.891,6.891,0,0,0,.749.511c2.359,1.567,5.968,3.6,9.263,3.966" transform="translate(-12.684 -48.056)" fill="#ff8c64"/>
            <path id="Trazado_197181" data-name="Trazado 197181" d="M60.811,173.885l-.457,3.076c-2.67-1.154-7.4-3.633-9.555-7.553.232.163.483.334.749.511,2.359,1.567,5.968,3.6,9.263,3.966" transform="translate(-14.576 -48.609)" fill="#12263f"/>
            <path id="Trazado_197182" data-name="Trazado 197182" d="M66.122,163.354c-5.86,5.481-17.483-4.166-17.832-4.46l-.009-.008q-.024-.794-.016-1.567A40.418,40.418,0,0,1,50.134,145.4a9.134,9.134,0,0,1,7.524-7.808c4.09-.662,7.2,1.673,9.137,2.7,2.926,1.553,4.115,5.946,3.039,11.676-1.321,7.032-2.091,9.873-3.712,11.389" transform="translate(-13.849 -39.445)" fill="#ff8c64"/>
            <path id="Trazado_197183" data-name="Trazado 197183" d="M65.946,148.132s1.115.329.517,1.295-2.66-.618-4.658.99c0,0-.216-2.632,4.141-2.285" transform="translate(-17.733 -42.495)" fill="#12263f"/>
            <path id="Trazado_197184" data-name="Trazado 197184" d="M74.442,149.524s-1.158-.1-.958,1.013,2.7.406,3.965,2.637c0,0,1.172-2.367-3.007-3.65" transform="translate(-21.079 -42.903)" fill="#12263f"/>
            <path id="Trazado_197185" data-name="Trazado 197185" d="M62.958,158.827c-.1.531-1.276.752-2.623.494s-2.357-.9-2.256-1.426,1.276-.752,2.623-.494,2.357.9,2.256,1.426" transform="translate(-16.663 -45.133)" fill="#c44b41"/>
            <g id="Grupo_157470" data-name="Grupo 157470" transform="translate(53.201 114.412)" opacity="0.8">
              <g id="Grupo_157469" data-name="Grupo 157469">
                <g id="Grupo_157468" data-name="Grupo 157468" clip-path="url(#clip-path-6)">
                  <path id="Trazado_197186" data-name="Trazado 197186" d="M77.465,162.564c-.192-.017-.391-.046-.593-.084-1.346-.257-2.357-.9-2.255-1.426s1.276-.752,2.623-.495c.182.034.358.077.526.125Z" transform="translate(-74.609 -160.451)" fill="#c44b41"/>
                </g>
              </g>
            </g>
            <path id="Trazado_197187" data-name="Trazado 197187" d="M51.225,164.006c-.051.075-1.433,2.113-2.934,2.5h0l-.006-.009q-.024-.793-.016-1.566a5.675,5.675,0,0,0,2.959-.928" transform="translate(-13.849 -47.059)" fill="#12263f"/>
            <path id="Trazado_197188" data-name="Trazado 197188" d="M49.562,155.487s-2.165-4.468-4.886-1.8c-2.243,2.2-.179,9.435,3.733,7.837Z" transform="translate(-12.554 -43.854)" fill="#ff8c64"/>
            <path id="Trazado_197189" data-name="Trazado 197189" d="M48.187,164.4a.926.926,0,1,1-.736-1.083.926.926,0,0,1,.736,1.083" transform="translate(-13.3 -46.855)" fill="#fff"/>
            <path id="Trazado_197190" data-name="Trazado 197190" d="M49.024,161.055a.3.3,0,0,1-.247-.324,5.1,5.1,0,0,0-2.138-4.591.305.305,0,0,1,.329-.514,5.71,5.71,0,0,1,2.418,5.154.3.3,0,0,1-.328.28l-.034,0" transform="translate(-13.342 -44.641)" fill="#12263f"/>
            <path id="Trazado_197191" data-name="Trazado 197191" d="M46.505,159.554a.305.305,0,0,1-.088-.568,2.939,2.939,0,0,1,2.23-.313.3.3,0,1,1-.26.552,2.389,2.389,0,0,0-1.682.3.3.3,0,0,1-.2.031" transform="translate(-13.273 -45.491)" fill="#12263f"/>
            <path id="Trazado_197192" data-name="Trazado 197192" d="M65.718,154.879c-.139.728-.583,1.256-.99,1.178s-.625-.732-.486-1.46.583-1.256.99-1.178.625.731.486,1.46" transform="translate(-18.421 -44.019)" fill="#12263f"/>
            <path id="Trazado_197193" data-name="Trazado 197193" d="M75.824,156.81c-.139.728-.583,1.256-.99,1.178s-.625-.732-.486-1.46.583-1.256.99-1.178.625.732.486,1.46" transform="translate(-21.321 -44.573)" fill="#12263f"/>
            <path id="Trazado_197194" data-name="Trazado 197194" d="M68.315,165.2a6.452,6.452,0,0,1-3.247-2,.3.3,0,1,1,.469-.389c.107.128,2.576,3.033,5.175,1.311a.305.305,0,0,1,.337.508,3.579,3.579,0,0,1-2.735.574" transform="translate(-18.65 -46.682)" fill="#12263f"/>
            <path id="Trazado_197195" data-name="Trazado 197195" d="M51.093,140.027s3.292,4.4,5.142,3.819S56,139.453,56,139.453s5.3,4.328,7.761,3.731-1.077-4.132-1.077-4.132,3.741,4.873,6.354,5.126.664-3.474.664-3.474,1.48,4.988,3.1,4.894.789-7.008-3.923-10.206-17.855-5.3-17.794,4.636" transform="translate(-14.66 -38.087)" fill="#12263f"/>
            <path id="Trazado_197196" data-name="Trazado 197196" d="M54.114,144.24s.4,8.643-2.174,9.124c-3.049.57-3.2-6.26-1.087-11.656Z" transform="translate(-14.184 -40.661)" fill="#12263f"/>
            <path id="Trazado_197197" data-name="Trazado 197197" d="M70.562,158.838a2.982,2.982,0,0,1-1.321-.6.305.305,0,0,1,.385-.474,2.4,2.4,0,0,0,1.177.5l-.447-3.017a.3.3,0,1,1,.6-.09l.5,3.388a.3.3,0,0,1-.282.349,2.649,2.649,0,0,1-.618-.052" transform="translate(-19.835 -44.444)" fill="#12263f"/>
            <path id="Trazado_197198" data-name="Trazado 197198" d="M83.008,268.053s10.093-.279,13.5,2.367l-1.892,6.735s-5.555-1.632-7.139-1.236-2.271,3.136-7.813,2.084Z" transform="translate(-22.859 -76.911)" fill="#ff8c64"/>
            <path id="Trazado_197199" data-name="Trazado 197199" d="M31.012,192.059l-.152.354-.2.5c-.137.344-.272.7-.4,1.065-.269.725-.526,1.472-.765,2.227-.482,1.512-.9,3.059-1.253,4.619a54.373,54.373,0,0,0-1.363,9.437c-.045.788-.066,1.575-.073,2.36s0,1.568.031,2.348.079,1.558.15,2.332.161,1.544.271,2.309.241,1.526.385,2.283.319,1.506.513,2.249.4,1.482.64,2.211c.114.367.24.728.367,1.09l.047.136.019.055-.023-.055c-.038-.08-.06-.129-.091-.18a.582.582,0,0,0-.1-.141c-.018-.014.03.076.145.21a6.406,6.406,0,0,0,.47.491,16.442,16.442,0,0,0,1.487,1.222,44.481,44.481,0,0,0,3.928,2.529c2.847,1.653,5.952,3.185,9.106,4.658s6.4,2.866,9.671,4.214q2.45,1.017,4.926,1.99l2.475.96,1.235.475,1.208.456-3.6,11.108-1.367-.4-1.333-.4q-1.328-.406-2.648-.829-2.641-.841-5.268-1.733c-3.5-1.2-6.989-2.476-10.468-3.88s-6.948-2.923-10.451-4.742a54.37,54.37,0,0,1-5.323-3.135,30.482,30.482,0,0,1-2.788-2.116c-.48-.415-.97-.87-1.474-1.4a15.4,15.4,0,0,1-1.552-1.9,13.1,13.1,0,0,1-.783-1.309c-.128-.256-.252-.508-.372-.8l-.088-.212-.041-.1-.072-.182c-.191-.484-.381-.97-.558-1.461-.362-.978-.685-1.969-.988-2.965s-.568-2-.814-3.012-.459-2.026-.639-3.046a59.551,59.551,0,0,1-.884-12.283A69.195,69.195,0,0,1,13.605,197.6q.637-2.961,1.525-5.87c.3-.972.618-1.94.968-2.915.178-.486.363-.975.56-1.471.1-.248.2-.5.309-.757l.169-.4.093-.212.128-.282Z" transform="translate(-3.478 -53.283)" fill="#ff8578"/>
            <path id="Trazado_197200" data-name="Trazado 197200" d="M28.866,247a.433.433,0,0,1-.245-.789,44.049,44.049,0,0,1,5.883-3.226.433.433,0,0,1,.354.79,44.049,44.049,0,0,0-5.747,3.149.432.432,0,0,1-.245.076" transform="translate(-8.158 -69.71)" fill="#c45755"/>
            <path id="Trazado_197201" data-name="Trazado 197201" d="M30.8,244.186a.433.433,0,0,1-.042-.864c.1-.01,2.442-.239,4.251-.226a.433.433,0,0,1,.429.436.439.439,0,0,1-.436.429c-1.761-.013-4.135.22-4.159.222l-.043,0" transform="translate(-8.713 -69.753)" fill="#c45755"/>
            <path id="Trazado_197202" data-name="Trazado 197202" d="M61.407,245.09a.427.427,0,0,1-.183-.041c-15-6.987-24.713-13.549-25.146-14.164a.43.43,0,0,1-.071-.166c-.188-.962-4.573-23.654-1.7-31.895a.433.433,0,1,1,.818.285c-2.685,7.712,1.355,29.445,1.711,31.317.978.853,10.436,7.169,24.757,13.838a.433.433,0,0,1-.183.826" transform="translate(-9.565 -56.966)" fill="#c45755"/>
            <path id="Trazado_197203" data-name="Trazado 197203" d="M34.359,203.756a.433.433,0,0,1-.309-.736l1.87-1.907a.433.433,0,0,1,.618.606l-1.871,1.907a.431.431,0,0,1-.309.13" transform="translate(-9.734 -57.669)" fill="#c45755"/>
            <path id="Trazado_197204" data-name="Trazado 197204" d="M69.981,276.362a.421.421,0,0,1-.138-.023.433.433,0,0,1-.272-.548l3.635-10.821a.433.433,0,1,1,.821.275l-3.636,10.822a.432.432,0,0,1-.41.3" transform="translate(-19.956 -75.944)" fill="#c45755"/>
            <path id="Trazado_197205" data-name="Trazado 197205" d="M77.461,279.169a.429.429,0,0,1-.145-.025l-5.951-2.113a.433.433,0,0,1,.29-.816l5.949,2.113a.433.433,0,0,1-.144.841" transform="translate(-20.395 -79.248)" fill="#c45755"/>
            <path id="Trazado_197206" data-name="Trazado 197206" d="M78.009,273.4a1,1,0,1,1-1.153-.819,1,1,0,0,1,1.153.819" transform="translate(-21.813 -78.208)" fill="#c45755"/>
          </g>
        </g>
      </g>
    </g>
  </g>
</svg>
