<svg id="logo" xmlns="http://www.w3.org/2000/svg" width="285" height="79.108" viewBox="0 0 285 79.108">
  <g id="Grupo_1" data-name="Grupo 1" transform="translate(75.039 3.553)">
    <path id="Trazado_1" data-name="Trazado 1" d="M354.959,114.654a6.176,6.176,0,0,0,0-2.011,1.064,1.064,0,0,0-.685-.795l.582-4.765H363.8l-2.667,21.779a3.5,3.5,0,0,0,.044,1.551,1.171,1.171,0,0,0,.728.729l-.59,4.773h-8.59l.174-1.457a10.31,10.31,0,0,1-2.7,1.216,10.71,10.71,0,0,1-2.914.408c-2.085,0-3.5-.531-4.27-1.581s-1-2.871-.678-5.457l.809-6.608q.547-4.525,2.1-6.209a6.141,6.141,0,0,1,4.736-1.682,10.156,10.156,0,0,1,2.433.305,11.838,11.838,0,0,1,2.426.882Zm-1.895,15.5,1.21-9.69a2.511,2.511,0,0,0-.664-.262,3.412,3.412,0,0,0-.619-.1,1.709,1.709,0,0,0-1.392.533,5.278,5.278,0,0,0-.664,2.382l-.567,4.62a4.01,4.01,0,0,0,.138,2.186,1.4,1.4,0,0,0,1.34.583,2.41,2.41,0,0,0,.583-.065,4.449,4.449,0,0,0,.634-.2m-21.931,5.734-.044-1.814A7.155,7.155,0,0,1,328.6,135.7a9.02,9.02,0,0,1-3.206.509,5.12,5.12,0,0,1-4.146-1.588,5.629,5.629,0,0,1-.991-4.489q.583-4.764,11.659-7.876l.546-.146.051-.393a3.489,3.489,0,0,0-.146-1.872,1.064,1.064,0,0,0-1.064-.613,1.414,1.414,0,0,0-1.216.613,3.92,3.92,0,0,0-.6,1.872l-.051.393h-7.286l.613-5a14.557,14.557,0,0,1,4.487-2.063,19.96,19.96,0,0,1,5.5-.728c2.914,0,5.005.619,6.2,1.85s1.618,3.221,1.283,5.946l-.787,6.471a4.363,4.363,0,0,0,0,1.7,1.215,1.215,0,0,0,.662.816l-.582,4.765Zm.365-5.828.408-3.33a11.8,11.8,0,0,0-2.878,1.37,1.9,1.9,0,0,0-.729,1.261,1.58,1.58,0,0,0,.2,1.13,1.088,1.088,0,0,0,.918.386,2.9,2.9,0,0,0,1.049-.2,3.939,3.939,0,0,0,1-.612m-19.833-15.389a6.113,6.113,0,0,0,0-2.011,1.057,1.057,0,0,0-.678-.795l.583-4.765h8.912l-2.667,21.779a3.479,3.479,0,0,0,.051,1.551,1.173,1.173,0,0,0,.729.729l-.583,4.773h-8.6l.174-1.457a10.226,10.226,0,0,1-2.7,1.216,10.7,10.7,0,0,1-2.914.408c-2.077,0-3.5-.531-4.27-1.581s-.991-2.871-.677-5.457l.808-6.608q.553-4.525,2.106-6.209a6.141,6.141,0,0,1,4.736-1.682,10.043,10.043,0,0,1,2.426.305,12.083,12.083,0,0,1,2.434.882Zm-1.894,15.5,1.165-9.69a2.457,2.457,0,0,0-.655-.262,3.6,3.6,0,0,0-.627-.1,1.691,1.691,0,0,0-1.385.533,5.182,5.182,0,0,0-.67,2.382l-.561,4.62a3.941,3.941,0,0,0,.138,2.186,1.384,1.384,0,0,0,1.333.583,2.308,2.308,0,0,0,.583-.065,4.532,4.532,0,0,0,.64-.2m-11.54-19.964a3.275,3.275,0,0,1-1.458,2.325,5.232,5.232,0,0,1-3.14.933,4.255,4.255,0,0,1-2.914-.933,2.5,2.5,0,0,1-.874-2.31,3.266,3.266,0,0,1,1.457-2.288,5.22,5.22,0,0,1,3.14-.94,4.305,4.305,0,0,1,2.914.94,2.511,2.511,0,0,1,.918,2.316m-2.186,18.151a5.814,5.814,0,0,0,0,1.895,1.267,1.267,0,0,0,.6.889l-.583,4.765h-9.9l.582-4.765a1.461,1.461,0,0,0,.882-.808,5.483,5.483,0,0,0,.481-1.859l.853-6.739a3.665,3.665,0,0,0,0-1.524,1.275,1.275,0,0,0-.729-.728l.583-4.765h8.955ZM266.4,133.511l.677-5.538h7.476l-.073.933a3.332,3.332,0,0,0,.139,1.865,1.173,1.173,0,0,0,1.115.54,1.751,1.751,0,0,0,1.216-.452,1.791,1.791,0,0,0,.576-1.18q.2-1.625-3.862-2.587t-5.1-2.237a5.034,5.034,0,0,1-.816-3.935A6.677,6.677,0,0,1,270.469,116a11.265,11.265,0,0,1,6.557-1.632,17.893,17.893,0,0,1,5.151.729,12.144,12.144,0,0,1,4.081,2.061l-.612,5h-7.359l.124-1.042a2.242,2.242,0,0,0-.219-1.494,1.169,1.169,0,0,0-1.078-.531,1.781,1.781,0,0,0-1.18.466,1.721,1.721,0,0,0-.613,1.13c-.109.925,1,1.654,3.345,2.185h.043c2.856.649,4.714,1.458,5.559,2.339a4.9,4.9,0,0,1,.94,4.1,7.212,7.212,0,0,1-2.783,5.276q-2.347,1.69-6.871,1.691a17.549,17.549,0,0,1-5.057-.729,12.522,12.522,0,0,1-4.072-2.055m-4.765-5.144a5.671,5.671,0,0,0,0,1.945,1.122,1.122,0,0,0,.728.838l-.582,4.765h-10l.591-4.765a1.455,1.455,0,0,0,.874-.808,5.463,5.463,0,0,0,.488-1.859l.823-6.724a3.649,3.649,0,0,0-.043-1.516,1.246,1.246,0,0,0-.729-.728l.583-4.765h8.43l-.2,1.661a6.076,6.076,0,0,1,1.749-1.6,3.927,3.927,0,0,1,1.967-.51,2.662,2.662,0,0,1,.43.044,2.609,2.609,0,0,1,.517.094l-.816,7.148h-.853a3.152,3.152,0,0,0-2.455.984,5.461,5.461,0,0,0-1.137,3.009Zm-22.041.524a3.7,3.7,0,0,0,.11,1.96,1.128,1.128,0,0,0,1.13.561,1.457,1.457,0,0,0,1.253-.567,4.186,4.186,0,0,0,.612-1.954l.065-.567h7.855L250,133.54a11.979,11.979,0,0,1-4.314,2.011,23.1,23.1,0,0,1-5.894.729q-4.9,0-6.689-1.72t-1.282-5.989l.787-6.434q.531-4.328,2.776-6.026t7.556-1.691q5.224,0,7.089,1.836t1.3,6.434l-.518,4.255h-10.93Zm.875-7.132-.11.728h3.1l.1-.772a3.467,3.467,0,0,0-.125-1.923,1.141,1.141,0,0,0-1.121-.554,1.456,1.456,0,0,0-1.261.567,4.118,4.118,0,0,0-.591,1.909M215.2,135.857l-2.42-14.113a5.881,5.881,0,0,0-.429-1.589,1.466,1.466,0,0,0-.634-.685l.575-4.728h9.772l-.583,4.728a.8.8,0,0,0-.481.328,1.555,1.555,0,0,0-.226.671,3.431,3.431,0,0,0,0,.466v.576l.576,7.644,2.411-7.644c.058-.226.117-.43.161-.6.027-.119.05-.241.066-.363a1.191,1.191,0,0,0-.073-.729.843.843,0,0,0-.488-.386L224,114.7h8.576l-.583,4.729a1.723,1.723,0,0,0-.728.627,7.162,7.162,0,0,0-.729,1.261l-6.077,14.536Zm-4.182-25.67a3.275,3.275,0,0,1-1.458,2.325,5.231,5.231,0,0,1-3.14.932,4.286,4.286,0,0,1-2.914-.932,2.539,2.539,0,0,1-.911-2.325,3.316,3.316,0,0,1,1.457-2.317,5.238,5.238,0,0,1,3.148-.939,4.272,4.272,0,0,1,2.915.939,2.492,2.492,0,0,1,.917,2.317m-2.127,18.15a6.062,6.062,0,0,0,0,1.895,1.3,1.3,0,0,0,.6.889l-.582,4.765h-9.931l.582-4.765a1.458,1.458,0,0,0,.882-.808,5.665,5.665,0,0,0,.488-1.858l.823-6.711a3.8,3.8,0,0,0-.043-1.524,1.263,1.263,0,0,0-.729-.728l.583-4.765h8.947Zm-22.718,0a5.625,5.625,0,0,0,0,1.872,1.282,1.282,0,0,0,.619.911l-.583,4.765h-9.9l.583-4.765a1.456,1.456,0,0,0,.881-.808,5.478,5.478,0,0,0,.481-1.858l.823-6.711a3.633,3.633,0,0,0-.058-1.531,1.25,1.25,0,0,0-.728-.728l.582-4.765h8.613l-.174,1.457a10.124,10.124,0,0,1,2.725-1.253,10.339,10.339,0,0,1,2.914-.415c2.061,0,3.49.525,4.27,1.581s1.012,2.82.728,5.312l-.859,6.981a6.752,6.752,0,0,0-.044,2.011,1.035,1.035,0,0,0,.641.728l-.582,4.765h-8.446a17,17,0,0,1,0-2.645q.1-1.6.591-5.639l.568-4.62a4.142,4.142,0,0,0-.131-2.237,1.379,1.379,0,0,0-1.3-.591,3.338,3.338,0,0,0-.561.058,4.707,4.707,0,0,0-.728.211Zm-18.354-13.574a5.24,5.24,0,0,0,0-1.843,1.188,1.188,0,0,0-.686-.787l.619-5.05h10.274l-.619,5.05a1.931,1.931,0,0,0-.932.867,5.378,5.378,0,0,0-.46,1.792l-1.238,10.15a38.172,38.172,0,0,1-.816,4.809,9.061,9.061,0,0,1-1.057,2.441,8.657,8.657,0,0,1-3.9,3.257,15.478,15.478,0,0,1-6.07,1.057,13.212,13.212,0,0,1-5.18-.918,6.389,6.389,0,0,1-3.119-2.658,6.067,6.067,0,0,1-.765-2.362,17.206,17.206,0,0,1,.153-3.722l.219-1.537,1.289-10.544a3.93,3.93,0,0,0-.1-1.762,1.581,1.581,0,0,0-.875-.875l.619-5.05h11.025l-.619,5.027a1.766,1.766,0,0,0-.875.795,5.756,5.756,0,0,0-.445,1.859l-1.551,12.677a4.061,4.061,0,0,0,.138,2.186,1.319,1.319,0,0,0,1.3.634,1.691,1.691,0,0,0,1.457-.649,4.667,4.667,0,0,0,.671-2.186Z" transform="translate(-153.843 -106.925)" fill="#0252a6"/>
  </g>
  <g id="Grupo_2" data-name="Grupo 2" transform="translate(121.046 34.671)">
    <path id="Trazado_2" data-name="Trazado 2" d="M355.8,156a5.178,5.178,0,0,0,0,1.741,1,1,0,0,0,.627.728l-.525,4.277h-8.889l.518-4.277a1.287,1.287,0,0,0,.793-.728,4.977,4.977,0,0,0,.43-1.668l.729-6.026a3.389,3.389,0,0,0-.037-1.356,1.154,1.154,0,0,0-.655-.649l.524-4.269h7.571l-.182,1.457a5.393,5.393,0,0,1,1.566-1.457,3.522,3.522,0,0,1,1.764-.46,2.93,2.93,0,0,1,.386,0,4.455,4.455,0,0,1,.46.088l-.765,6.55h-.765a2.828,2.828,0,0,0-2.186.881,4.926,4.926,0,0,0-1.02,2.7Zm-19.673.509a3.362,3.362,0,0,0,.1,1.756,1.019,1.019,0,0,0,1.012.5,1.326,1.326,0,0,0,1.122-.51,3.721,3.721,0,0,0,.546-1.749l.058-.509h7.047l-.576,4.685a10.779,10.779,0,0,1-3.869,1.807,20.839,20.839,0,0,1-5.282.619q-4.373,0-6-1.545c-1.079-1.027-1.458-2.82-1.144-5.362l.728-5.771q.482-3.883,2.485-5.4t6.776-1.523c3.125,0,5.239.554,6.353,1.647s1.508,3.017,1.173,5.77l-.466,3.811h-9.843Zm.787-6.4-.088.728H339.6l.088-.728a3.169,3.169,0,0,0-.109-1.726,1.034,1.034,0,0,0-1.006-.5,1.31,1.31,0,0,0-1.13.509,3.644,3.644,0,0,0-.531,1.713m-15.927-6.34a5.754,5.754,0,0,0,0-1.807.941.941,0,0,0-.613-.728l.525-4.277h8.014l-2.39,19.549a3.254,3.254,0,0,0,.044,1.392,1.1,1.1,0,0,0,.663.619l-.524,4.285h-7.717l.153-1.3a9.217,9.217,0,0,1-2.411,1.1,9.672,9.672,0,0,1-2.631.365c-1.865,0-3.14-.481-3.832-1.421s-.889-2.572-.6-4.9l.728-5.923c.329-2.7.955-4.554,1.88-5.553a5.532,5.532,0,0,1,4.249-1.515,9.178,9.178,0,0,1,2.185.277,11,11,0,0,1,2.186.787ZM319.3,157.622l1.078-8.684a2.47,2.47,0,0,0-.59-.241,3.6,3.6,0,0,0-.561-.088,1.537,1.537,0,0,0-1.246.481,4.608,4.608,0,0,0-.591,2.135l-.51,4.139A3.5,3.5,0,0,0,317,157.33a1.238,1.238,0,0,0,1.2.533,2.725,2.725,0,0,0,.524-.058,4.348,4.348,0,0,0,.576-.183M297.44,156a5.25,5.25,0,0,0,0,1.676,1.144,1.144,0,0,0,.561.816l-.525,4.277h-8.86l.524-4.277a1.281,1.281,0,0,0,.787-.729,4.968,4.968,0,0,0,.438-1.668l.728-6.026a3.134,3.134,0,0,0-.036-1.355,1.116,1.116,0,0,0-.649-.649l.518-4.27h7.723l-.16,1.29a9.1,9.1,0,0,1,2.441-1.122,9.286,9.286,0,0,1,2.594-.379c1.85,0,3.133.481,3.825,1.421s.918,2.529.641,4.758l-.765,6.258a5.889,5.889,0,0,0-.044,1.807.946.946,0,0,0,.576.656l-.518,4.277H299.7a17.478,17.478,0,0,1,0-2.375c.058-.955.241-2.637.533-5.057l.509-4.139a3.635,3.635,0,0,0-.124-2,1.2,1.2,0,0,0-1.158-.524,2.363,2.363,0,0,0-.5.051,3.459,3.459,0,0,0-.649.182Zm-17.932,6.769v-1.632a6.408,6.408,0,0,1-2.237,1.457,8.092,8.092,0,0,1-2.871.46,4.6,4.6,0,0,1-3.716-1.458,5.116,5.116,0,0,1-.889-4.021q.525-4.27,10.463-7.06l.488-.131.044-.357a3.131,3.131,0,0,0-.124-1.676.969.969,0,0,0-.955-.546,1.268,1.268,0,0,0-1.093.546,3.647,3.647,0,0,0-.539,1.676l-.044.357h-6.557l.546-4.474a13.252,13.252,0,0,1,4.015-1.786,18.173,18.173,0,0,1,4.932-.655q3.95,0,5.553,1.661t1.151,5.326l-.728,5.828a3.929,3.929,0,0,0,0,1.531,1.124,1.124,0,0,0,.6.728l-.524,4.277Zm.335-5.21.365-2.987a11.028,11.028,0,0,0-2.594,1.21,1.683,1.683,0,0,0-.619,1.13,1.35,1.35,0,0,0,.183,1.012.973.973,0,0,0,.816.342,2.485,2.485,0,0,0,.939-.182,3.584,3.584,0,0,0,.9-.546M267.581,162.7a15.923,15.923,0,0,1-1.771.3,14.258,14.258,0,0,1-1.764.1c-2.185,0-3.642-.46-4.444-1.384s-1.034-2.572-.729-4.926l1.057-8.648h-.859l.531-4.372h.86l.444-3.642,7.337-1.982-.685,5.6h2.354l-.533,4.371h-2.353l-.8,6.558c-.211,1.749-.174,2.819.1,3.227a2.185,2.185,0,0,0,1.785.641ZM245.947,156a5.3,5.3,0,0,0,0,1.676,1.169,1.169,0,0,0,.561.816l-.517,4.277h-8.86l.517-4.277a1.29,1.29,0,0,0,.795-.729,4.988,4.988,0,0,0,.43-1.668l.728-6.026a3.361,3.361,0,0,0,0-1.355,1.151,1.151,0,0,0-.655-.649l.524-4.27h7.694l-.153,1.29a9.1,9.1,0,0,1,2.412-1.115,9.288,9.288,0,0,1,2.594-.379c1.85,0,3.133.481,3.825,1.421s.911,2.528.641,4.758l-.729,6.258a5.855,5.855,0,0,0-.043,1.807.93.93,0,0,0,.575.656l-.524,4.277H248.2a15.117,15.117,0,0,1,0-2.375q.087-1.458.533-5.057l.5-4.139a3.633,3.633,0,0,0-.116-2,1.218,1.218,0,0,0-1.165-.525,2.514,2.514,0,0,0-.5.052,3.387,3.387,0,0,0-.641.182Zm-17.931,6.769-.036-1.632a6.418,6.418,0,0,1-2.237,1.457,8.1,8.1,0,0,1-2.871.46,4.585,4.585,0,0,1-3.716-1.458,5.051,5.051,0,0,1-.9-4.021q.525-4.27,10.463-7.06l.5-.131.043-.357a3.2,3.2,0,0,0-.124-1.676.968.968,0,0,0-.962-.546,1.291,1.291,0,0,0-1.094.546,3.656,3.656,0,0,0-.532,1.676l-.043.357H219.95l.547-4.474a13.124,13.124,0,0,1,4.051-1.786,18.174,18.174,0,0,1,4.932-.655c2.637,0,4.481.554,5.553,1.661s1.457,2.914,1.158,5.326l-.729,5.828a4.055,4.055,0,0,0,0,1.531,1.1,1.1,0,0,0,.591.728l-.473,4.227Zm.328-5.21.365-2.987a11.058,11.058,0,0,0-2.6,1.21,1.692,1.692,0,0,0-.627,1.13,1.391,1.391,0,0,0,.183,1.012.983.983,0,0,0,.823.342,2.485,2.485,0,0,0,.939-.182,3.674,3.674,0,0,0,.9-.546m-30.938,2.914.867-7.09h7.825l-.175,1.421a4.523,4.523,0,0,0,.088,2.259,1.218,1.218,0,0,0,1.21.59,1.652,1.652,0,0,0,1.3-.59,3,3,0,0,0,.641-1.662c.168-1.333-.976-2.382-3.417-3.133l-1.064-.342c-2.637-.866-4.313-1.814-5.013-2.834a6.519,6.519,0,0,1-.685-4.5q.517-4.233,3.017-6.208t7.285-1.99a17.506,17.506,0,0,1,5.057.729,14.153,14.153,0,0,1,4.285,2.142l-.787,6.419h-7.563l.138-1.173a3.259,3.259,0,0,0-.189-1.895,1.2,1.2,0,0,0-1.144-.648,1.749,1.749,0,0,0-1.282.451,2.243,2.243,0,0,0-.568,1.363q-.219,1.726,3.643,2.863l.488.152c2.849.86,4.626,1.859,5.347,2.988s.926,2.914.634,5.275a8.822,8.822,0,0,1-3.111,6.194q-2.595,2.018-7.447,2.018a18.635,18.635,0,0,1-5.385-.729,10.632,10.632,0,0,1-3.949-2.061" transform="translate(-197.385 -136.375)" fill="#0252a6"/>
  </g>
  <g id="Grupo_3" data-name="Grupo 3" transform="translate(236.868 64.673)">
    <path id="Trazado_3" data-name="Trazado 3" d="M339.94,177.7l.728-3.828h4.2l-.153.805a3.122,3.122,0,0,0-.069,1.216.744.744,0,0,0,.651.3,1.017,1.017,0,0,0,.7-.3,1.9,1.9,0,0,0,.429-.909c.154-.71-.454-1.284-1.713-1.713a2.94,2.94,0,0,1-.523-.18,4.534,4.534,0,0,1-2.57-1.533,3.289,3.289,0,0,1-.205-2.389,5.139,5.139,0,0,1,1.842-3.3,6.306,6.306,0,0,1,3.947-1.087,9.657,9.657,0,0,1,2.647.359,7.4,7.4,0,0,1,2.244,1.208l-.659,3.426h-4.078l.129-.574a2.232,2.232,0,0,0,0-1.037.636.636,0,0,0-.609-.351.787.787,0,0,0-.624.231,1.473,1.473,0,0,0-.352.753c-.128.626.48,1.156,1.782,1.508.1,0,.206.1.257.1a4.653,4.653,0,0,1,2.741,1.559,4.439,4.439,0,0,1,.154,2.843,5.139,5.139,0,0,1-1.892,3.3,6.843,6.843,0,0,1-4.077,1.087,12.156,12.156,0,0,1-2.869-.359,5.231,5.231,0,0,1-2.013-1.131m-11.39,1.2.48-2.441a1.228,1.228,0,0,0,.479-.4,2.572,2.572,0,0,0,.3-.857l1.208-6.363a2.333,2.333,0,0,0,.052-.909.752.752,0,0,0-.325-.453l.48-2.39h10.345l-.856,4.583h-3.974l.068-.36a1.325,1.325,0,0,0-.068-1.027,1.141,1.141,0,0,0-.857-.248h-.351l-.48,2.441h2.664l-.506,2.664H334.6l-.532,2.818h.351a1.6,1.6,0,0,0,1.011-.3,3.071,3.071,0,0,0,.505-1.259,1.649,1.649,0,0,1,.052-.3.556.556,0,0,1,.042-.231h3.982l-.985,5.036Zm-6.116-3.015h.454a1.355,1.355,0,0,0,.959-.283,2.018,2.018,0,0,0,.47-1.1l1.02-5.062a1.811,1.811,0,0,0,0-1.028,1.176,1.176,0,0,0-.908-.274h-.429ZM317.1,178.9l.453-2.441a.918.918,0,0,0,.454-.4,2.752,2.752,0,0,0,.3-.857l1.233-6.415a6.843,6.843,0,0,0,.077-.857,1.058,1.058,0,0,0-.325-.453l.48-2.39h5.258c2.142,0,3.521.352,4.128,1s.78,1.97.4,3.854l-.779,4.155a6.127,6.127,0,0,1-1.867,3.776,7.992,7.992,0,0,1-4.556,1.028Zm-2.818-10.167a3.943,3.943,0,0,0,.077-.856.735.735,0,0,0-.334-.4l.453-2.39h4.959l-.453,2.39a1.077,1.077,0,0,0-.5.453,2.568,2.568,0,0,0-.309.857l-.924,4.856a20.48,20.48,0,0,1-.531,2.261,4.648,4.648,0,0,1-.634,1.216,4.178,4.178,0,0,1-1.986,1.559,7.752,7.752,0,0,1-2.947.505,6.519,6.519,0,0,1-2.415-.4,2.822,2.822,0,0,1-1.456-1.31A2.994,2.994,0,0,1,307,176.36a10.7,10.7,0,0,1,.231-1.832l.119-.7.985-5.036a1.955,1.955,0,0,0,0-.857.979.979,0,0,0-.4-.453l.453-2.39H313.7l-.454,2.39a1.092,1.092,0,0,0-.48.377,6.8,6.8,0,0,0-.274.933l-1.157,6.064a2.382,2.382,0,0,0,0,1.037.6.6,0,0,0,.6.3.855.855,0,0,0,.736-.282,2.372,2.372,0,0,0,.428-1.053Z" transform="translate(-307 -164.77)" fill="#0252a6"/>
  </g>
  <g id="Grupo_4" data-name="Grupo 4" transform="translate(72.507 65.118)">
    <path id="Trazado_4" data-name="Trazado 4" d="M310.4,166l-158.956.288.086-.809,158.99-.288Z" transform="translate(-151.447 -165.19)" fill="#0252a6"/>
  </g>
  <g id="Grupo_5" data-name="Grupo 5" transform="translate(7.286 6.612)">
    <path id="Trazado_5" data-name="Trazado 5" d="M139.715,109.82c7.012,44.3-24.45,59.292-24.45,59.292s-31.5-14.991-24.54-59.292Z" transform="translate(-89.721 -109.82)" fill="#0252a6"/>
  </g>
  <g id="Grupo_6" data-name="Grupo 6" transform="translate(9.363 9.03)">
    <path id="Trazado_6" data-name="Trazado 6" d="M137.607,112.108c6.442,40.678-22.461,54.456-22.461,54.456S86.213,152.8,92.611,112.108Z" transform="translate(-91.687 -112.108)" fill="#fff"/>
  </g>
  <g id="Grupo_7" data-name="Grupo 7" transform="translate(10.325 10.154)">
    <path id="Trazado_7" data-name="Trazado 7" d="M136.638,113.172c6.169,39.021-21.543,52.222-21.543,52.222s-27.75-13.2-21.611-52.222Z" transform="translate(-92.597 -113.172)" fill="#dba888"/>
  </g>
  <g id="Grupo_8" data-name="Grupo 8" transform="translate(10.188 10.006)">
    <path id="Trazado_8" data-name="Trazado 8" d="M115.1,165.567l-.063-.031a40.561,40.561,0,0,1-13.162-11.523c-5.647-7.484-11.711-20.648-8.531-40.856l.019-.125h43.408l.02.125c3.194,20.208-2.853,33.372-8.487,40.856a40.48,40.48,0,0,1-13.14,11.523ZM93.618,113.328c-3.118,20.027,2.89,33.073,8.486,40.5a40.551,40.551,0,0,0,13,11.414,40.5,40.5,0,0,0,12.975-11.414c5.584-7.423,11.574-20.469,8.442-40.5Z" transform="translate(-92.468 -113.032)" fill="#0252a6"/>
  </g>
  <g id="Grupo_9" data-name="Grupo 9" transform="translate(10.097 56.35)">
    <path id="Trazado_9" data-name="Trazado 9" d="M99.058,156.892c-1.967.133-3.927.266-5.71.436-1.072.133-1.361.57-.311.784s4.867.74,5.177.74a2.56,2.56,0,0,1,1.567.57Z" transform="translate(-92.381 -156.892)" fill="#0252a6"/>
  </g>
  <g id="Grupo_10" data-name="Grupo 10" transform="translate(9.941 56.194)">
    <path id="Trazado_10" data-name="Trazado 10" d="M99.79,159.585a.156.156,0,0,1-.1-.036,2.418,2.418,0,0,0-1.473-.534c-.352,0-4.194-.536-5.2-.744-.527-.107-.79-.282-.781-.522.015-.376.7-.518,1.1-.567,1.809-.173,3.8-.307,5.718-.437a.161.161,0,0,1,.16.113l.724,2.529a.152.152,0,0,1-.063.171A.147.147,0,0,1,99.79,159.585Zm-7.246-1.818c.006,0,.08.109.533.2,1.05.213,4.854.736,5.146.736a2.739,2.739,0,0,1,1.3.355l-.572-2c-1.881.128-3.819.26-5.58.428-.567.071-.805.218-.827.276Z" transform="translate(-92.234 -156.745)" fill="#0252a6"/>
  </g>
  <g id="Grupo_11" data-name="Grupo 11" transform="translate(0.154 48.243)">
    <path id="Trazado_11" data-name="Trazado 11" d="M115.6,156.816c3.7,0,14.126.229,21.743.947,1.072.133,1.331.57.288.74s-4.844.74-5.132.784c-2.33.281-1.99,1.25.1,1.331a115.5,115.5,0,0,1,12.906,1.648l-3.854-4.437,6.6-2.833c-6.021-1.2-7.115-.895-7.115-.895l1.095-1.827c.444-.584.629-1.346-.414-1.575-7.04-1.561-21.485-1.479-26.218-1.479s-19.155-.044-26.2,1.479c-1.043.229-.858.991-.414,1.575l1.095,1.879s-1.124-.3-7.115.895l6.6,2.833-3.876,4.437a116.4,116.4,0,0,1,12.929-1.648c2.092-.081,2.432-1.05.1-1.331-.288,0-4.112-.592-5.177-.784s-.74-.643.311-.74c7.588-.74,18.031-.947,21.722-.947" transform="translate(-82.971 -149.219)" fill="#fff"/>
  </g>
  <g id="Grupo_12" data-name="Grupo 12" transform="translate(0 48.088)">
    <path id="Trazado_12" data-name="Trazado 12" d="M85.7,162.483a.158.158,0,0,1-.135-.079.157.157,0,0,1,.019-.179l3.735-4.276-6.4-2.749a.155.155,0,0,1,.031-.295,34.006,34.006,0,0,1,6.857-.928l-.941-1.615a1.384,1.384,0,0,1-.328-1.209,1.045,1.045,0,0,1,.842-.6c6.874-1.488,20.657-1.479,25.839-1.484h1.066c5.146,0,18.828-.012,25.578,1.484a1.045,1.045,0,0,1,.842.6,1.4,1.4,0,0,1-.338,1.224l-.927,1.548a34.269,34.269,0,0,1,6.854.927.156.156,0,0,1,.124.136.154.154,0,0,1-.093.159l-6.4,2.75,3.714,4.276a.156.156,0,0,1,.018.18.16.16,0,0,1-.164.075A115.729,115.729,0,0,0,132.6,160.78c-1.127-.043-1.842-.34-1.86-.773s.6-.729,1.748-.865l.575-.088c1.21-.182,3.727-.562,4.552-.7.465-.075.534-.184.534-.185a1.622,1.622,0,0,0-.816-.247c-7.585-.713-17.913-.944-21.725-.944-3.869,0-14.271.243-21.728,1-.57.052-.8.2-.827.251h0a1.13,1.13,0,0,0,.528.181c1.142.206,4.894.781,5.149.781,1.162.139,1.784.447,1.767.869s-.732.73-1.863.773a116.663,116.663,0,0,0-12.907,1.647A.131.131,0,0,1,85.7,162.483Zm-2.2-7.371,6.136,2.635a.16.16,0,0,1,.091.109.155.155,0,0,1-.035.136l-3.583,4.1a116.911,116.911,0,0,1,12.507-1.571c1.164-.045,1.565-.347,1.57-.477,0-.1-.259-.4-1.474-.546h0c-.306,0-4.193-.607-5.185-.785-.53-.1-.794-.265-.783-.5.012-.278.426-.481,1.107-.543,7.468-.754,17.883-1,21.758-1,3.817,0,14.158.231,21.758.947.33.041,1.084.176,1.091.562,0,.236-.262.4-.792.486-.827.134-3.345.515-4.555.7l-.579.088c-1.22.146-1.483.45-1.479.545.005.13.407.431,1.566.477a116.475,116.475,0,0,1,12.491,1.571l-3.563-4.1a.158.158,0,0,1-.034-.137.156.156,0,0,1,.09-.108l6.136-2.635c-5.416-1.051-6.508-.81-6.552-.8a.156.156,0,0,1-.173-.229l1.095-1.827a1.1,1.1,0,0,0,.3-.942c-.071-.192-.279-.328-.618-.4-6.716-1.489-20.376-1.471-25.509-1.476h-1.067c-5.177,0-18.931,0-25.772,1.476-.338.074-.546.209-.617.4a1.075,1.075,0,0,0,.294.928l1.105,1.893a.157.157,0,0,1-.011.173.15.15,0,0,1-.164.055C90.009,154.3,88.9,154.059,83.5,155.112Z" transform="translate(-82.825 -149.073)" fill="#0252a6"/>
  </g>
  <g id="Grupo_13" data-name="Grupo 13" transform="translate(48.103 56.35)">
    <path id="Trazado_13" data-name="Trazado 13" d="M129.06,156.892c1.99.133,3.927.266,5.731.436,1.072.133,1.331.57.288.784s-4.844.74-5.132.74a2.65,2.65,0,0,0-1.6.57Z" transform="translate(-128.35 -156.892)" fill="#0252a6"/>
  </g>
  <g id="Grupo_14" data-name="Grupo 14" transform="translate(47.947 56.194)">
    <path id="Trazado_14" data-name="Trazado 14" d="M128.358,159.585a.153.153,0,0,1-.087-.027.155.155,0,0,1-.063-.171l.71-2.528a.171.171,0,0,1,.161-.113c2,.134,3.95.268,5.735.436.4.051,1.077.189,1.091.563.01.242-.256.419-.786.527-1.051.218-4.869.745-5.164.745a2.506,2.506,0,0,0-1.5.534A.147.147,0,0,1,128.358,159.585Zm.825-2.522-.562,2a2.81,2.81,0,0,1,1.331-.36c.24,0,4.028-.517,5.1-.738.482-.1.54-.218.54-.219-.013-.023-.2-.183-.816-.26C133.04,157.326,131.14,157.194,129.184,157.063Z" transform="translate(-128.203 -156.745)" fill="#0252a6"/>
  </g>
  <g id="Grupo_15" data-name="Grupo 15" transform="translate(55.468 52.97)">
    <path id="Trazado_15" data-name="Trazado 15" d="M138.28,153.693l-2.959,4.29Z" transform="translate(-135.321 -153.693)" fill="#fff"/>
  </g>
  <g id="Grupo_16" data-name="Grupo 16" transform="translate(55.313 52.814)">
    <path id="Trazado_16" data-name="Trazado 16" d="M135.329,158.147a.149.149,0,0,1-.088-.027.155.155,0,0,1-.068-.128.159.159,0,0,1,.027-.088l2.959-4.29a.155.155,0,0,1,.283.088.149.149,0,0,1-.027.088l-2.959,4.29A.153.153,0,0,1,135.329,158.147Z" transform="translate(-135.174 -153.546)" fill="#0252a6"/>
  </g>
  <g id="Grupo_17" data-name="Grupo 17" transform="translate(7.114 52.97)">
    <path id="Trazado_17" data-name="Trazado 17" d="M89.558,153.693l3.01,4.29Z" transform="translate(-89.558 -153.693)" fill="#fff"/>
  </g>
  <g id="Grupo_18" data-name="Grupo 18" transform="translate(6.959 52.814)">
    <path id="Trazado_18" data-name="Trazado 18" d="M92.577,158.147a.152.152,0,0,1-.127-.067l-3.01-4.29a.15.15,0,0,1-.029-.089.155.155,0,0,1,.067-.127.153.153,0,0,1,.216.038l3.01,4.29a.153.153,0,0,1-.038.216A.148.148,0,0,1,92.577,158.147Z" transform="translate(-89.411 -153.546)" fill="#0252a6"/>
  </g>
  <g id="Grupo_19" data-name="Grupo 19" transform="translate(8.509 49.941)">
    <path id="Trazado_19" data-name="Trazado 19" d="M134.673,155.216c0,.207-.059.259-.207.266s-.126,0-.133.067,0,.074.141.089l.592.059c.318.044.687.118.968.163.133,0,.133,0,.185-.414s.052-.547,0-.547-.059,0-.111.17c-.155.444-.3.629-.739.562a.349.349,0,0,1-.385-.429l.133-1.183c0-.059,0-.074.266-.044s.324.141.361.436c0,.133,0,.178.067.185s.052,0,.059-.074a3.985,3.985,0,0,1,.037-.525c.037-.17.052-.311.067-.429s0-.111,0-.118a2.277,2.277,0,0,0-.118.214c-.118.214-.178.222-.48.177s-.207-.044-.2-.126l.126-1.191c0-.089.044-.118.317-.081.414.059.57.244.651.74,0,.133,0,.148.067.155s.059,0,.118-.636c0-.222,0-.229-.081-.244a6.02,6.02,0,0,1-.8-.089c-.465-.089-.605-.111-.739-.126s-.126,0-.126.052.059.059.17.111.089.074.074.192Zm-2.389-.34c0,.185-.067.266-.2.274s-.155,0-.163.067,0,.074.081.081.185,0,.348,0l.51.081c.814.1,1.28-.533,1.383-1.657s-.362-1.76-1.124-1.856a1.816,1.816,0,0,0-.74,0c-.148,0-.163,0-.17.081s0,.044.081.059c.185,0,.244.059.229.215Zm.562-2.6c0-.2.074-.281.311-.259.481.059.836.533.74,1.746s-.459,1.568-1.006,1.479c-.229,0-.288-.2-.266-.414Zm-1.132,0c0-.177.052-.266.155-.274s.17,0,.17-.074,0-.067-.067-.067h-.3a2.128,2.128,0,0,1-.325-.059.06.06,0,0,0-.067.052v.007c0,.052.059.081.148.1s.163.111.141.422l-.155,2v.074a4.754,4.754,0,0,1-.362-.932l-.614-1.612c-.044-.133-.052-.244-.126-.252h-.1l-.325-.044s-.1,0-.111.052.037.067.155.1.1.118.089.311l-.192,2.522c0,.163-.044.274-.133.3s-.207,0-.215.081a.06.06,0,0,0,.052.059h.377a2.108,2.108,0,0,1,.333.059c.044,0,.074,0,.074-.052s-.1-.074-.237-.118-.126-.222-.089-.74l.148-1.916c0-.1,0-.118.044-.111a10.035,10.035,0,0,1,.57,1.479c.607,1.6.592,1.657.651,1.664s.052,0,.059-.155Zm-3.062.059s.052,0,.059.111c.118.74.2,1.087.192,1.154s0,.044-.34,0-.288,0-.281-.067.044-.178.288-1.05c.044-.148.052-.178.081-.17m.207,1.442c.081,0,.1.052.141.281.081.488.111.651.111.7a.158.158,0,0,1-.148.133c-.081,0-.126,0-.126.059s0,.067.074.067h.34a.64.64,0,0,1,.288.044c.1.044.1,0,.1,0a.461.461,0,0,0-.141-.1.334.334,0,0,1-.1-.222c-.259-1.435-.385-2.123-.555-3.1,0-.1,0-.133-.074-.133s-.067.044-.1.155c-.3,1.006-.592,2.115-.91,3-.052.148-.192.067-.2.17s0,.067.052.067a1.121,1.121,0,0,1,.266,0,.594.594,0,0,1,.288.044c.081.044.081,0,.089-.052s-.059-.067-.148-.089a.148.148,0,0,1-.133-.162h0a5.325,5.325,0,0,1,.163-.651c.074-.259.1-.274.177-.266Zm-1.731-2.152c0-.067,0-.074.266-.052.5,0,.325.8.459.814s.074-.074.118-.422a4.183,4.183,0,0,0,.052-.473c0-.118,0-.155-.052-.155s0,.148-.266.126l-1.391-.111c-.118,0-.081-.155-.17-.163s-.067.037-.126.407c-.038.168-.068.339-.089.51,0,.111,0,.126.044.126s.178-.74.606-.74c.229,0,.237,0,.237.1l-.17,2.781c0,.207-.044.274-.163.274s-.2,0-.2.074,0,.067.089.074a2.373,2.373,0,0,1,.407,0,1.938,1.938,0,0,1,.407.052c.059,0,.1,0,.1-.059s-.1-.067-.229-.1-.111-.1-.1-.281Zm-1.627.074c0-.178,0-.266.148-.281s.163,0,.17-.081,0-.059-.074-.067-.185,0-.3,0-.274-.044-.325-.044a.058.058,0,0,0-.066.052v.007c0,.059.059.074.155.1s.163.111.148.414l-.1,2.012v.074l-.392-.91-.614-1.538c-.052-.133-.067-.237-.133-.244H123.7s-.111,0-.111.059,0,.067.155.1.111.118.1.311l-.133,2.5c0,.163,0,.274-.126.311s-.207,0-.207.081,0,.059.044.059h.385a1.476,1.476,0,0,1,.333.044c.044,0,.074,0,.074-.052s-.111-.074-.237-.111-.141-.214-.118-.74l.089-1.923c0-.1,0-.118.037-.111a11.792,11.792,0,0,1,.621,1.479c.651,1.568.643,1.627.74,1.635s.052,0,.059-.155Zm-3.1.237s.044,0,.059.111c.141.74.229,1.08.229,1.146s0,.044-.34,0-.288,0-.288-.044a4.776,4.776,0,0,1,.259-1.065c.044-.155.044-.178.081-.178m.244,1.435c.089,0,.1.044.148.274a6.275,6.275,0,0,1,.133.74c0,.1-.059.133-.126.126s-.126,0-.126.067a.066.066,0,0,0,.067.067h.74a.664.664,0,0,0-.141-.1c-.067-.03-.089-.118-.111-.214-.3-1.428-.444-2.108-.651-3.077,0-.1,0-.133-.074-.133s-.067.052-.1.163c-.281,1.021-.54,2.219-.836,3.077-.044.148-.185.074-.192.178a.06.06,0,0,0,.051.067h0a1.018,1.018,0,0,1,.266,0l.3.037c.052,0,.074,0,.081-.059s-.059-.059-.155-.081a.155.155,0,0,1-.133-.155c.039-.222.088-.442.148-.658.067-.266.089-.281.163-.274Zm-1.265.207c0-1.095-1.243-.969-1.228-1.938a.5.5,0,0,1,.459-.51c.207,0,.377.17.488.651,0,.118,0,.2.081.207s.044,0,.052-.3v-.518a.947.947,0,0,0-.525-.177.807.807,0,0,0-.821.791v.007c0,1.013,1.243.976,1.228,1.938,0,.407-.229.74-.54.74s-.488-.288-.621-.932c0-.059,0-.089-.067-.089s-.067,0-.074.392,0,.547.081.6a1,1,0,0,0,.555.148.917.917,0,0,0,.936-.9.737.737,0,0,0,0-.108M117,153.9c0,.207,0,.274-.185.3s-.118,0-.118.081.044.074.148.074h1.567c.133,0,.141,0,.141-.429,0-.54,0-.555-.037-.555s-.059,0-.1.185c-.111.466-.222.666-.68.666-.295,0-.428-.118-.428-.377v-1.183c0-.059,0-.074.265-.074s.34.089.407.377c.037.133.052.178.081.178s.052,0,.052-.081v-1.072s-.037,0-.1.229-.148.237-.459.237-.213,0-.213-.1v-1.176c0-.089,0-.126.31-.126.414,0,.592.163.74.606,0,.126,0,.141.081.141s.052,0,.052-.643c0-.222,0-.229-.111-.229h-1.537c-.118,0-.118,0-.118.067s.067.052.185.081.089.059.089.185Zm-2.382,0c0,.185-.044.274-.185.3s-.148,0-.148.089,0,.067.089.067h.858c.821,0,1.22-.68,1.22-1.812s-.518-1.709-1.28-1.709a2.089,2.089,0,0,0-.74.1c-.141.059-.155.059-.155.1s0,.044.081.052c.192,0,.251,0,.251.192Zm.3-2.648c0-.207.052-.288.288-.288.488,0,.888.422.888,1.642s-.318,1.612-.865,1.612c-.229,0-.311-.163-.311-.377Zm-3.617,2.648c0,.185-.044.274-.185.3s-.148,0-.148.089,0,.067.089.067h.858c.821,0,1.22-.68,1.22-1.812s-.518-1.709-1.287-1.709a2.042,2.042,0,0,0-.74.1c-.141.059-.155.059-.155.1s0,.044.081.052c.185,0,.251,0,.251.192Zm.311-2.648c0-.207.052-.288.288-.288.488,0,.888.422.888,1.642s-.318,1.612-.865,1.612c-.229,0-.311-.163-.311-.377Zm-1.775.54s.052,0,.074.1c.163.74.274,1.065.274,1.132s0,.044-.34.052-.288,0-.288,0a6.83,6.83,0,0,1,.214-1.08c0-.155,0-.178.067-.178m.318,1.413c.081,0,.1.044.155.266s.124.422.17.636c0,.111-.052.133-.118.133s-.126,0-.126.074.044.059.081.059h.629c.1,0,.1,0,.1-.052s-.081-.059-.148-.081a.311.311,0,0,1-.118-.215c-.362-1.4-.54-2.071-.791-3.025,0-.1-.037-.133-.081-.133s-.059.059-.089.17c-.229,1.035-.436,2.219-.688,3.121-.044.148-.185.089-.185.192s0,.059.052.059a1.4,1.4,0,0,1,.266,0h.288c.052,0,.081,0,.081-.059s-.059-.059-.155-.074a.143.143,0,0,1-.133-.148,3.723,3.723,0,0,1,.111-.666c.052-.266.074-.281.155-.281Zm-3.092.9c0,.185,0,.266-.17.3s-.148,0-.148.1,0,.067.089.067h.858c.828,0,1.206-.74,1.169-1.856s-.6-1.76-1.339-1.731a1.945,1.945,0,0,0-.74.17c-.141.059-.155.059-.155.1s0,.044.089.052c.185,0,.251,0,.251.177Zm.237-2.663c0-.207,0-.3.274-.3.488,0,.9.392.939,1.605s-.266,1.627-.814,1.649c-.237,0-.318-.148-.318-.37Zm-1.257,0c0-.1,0-.185.126-.207s.222,0,.214-.1,0-.067-.1-.059a1.738,1.738,0,0,0-.407.044,1.159,1.159,0,0,1-.392,0c-.118,0-.1,0-.1.074s.044.052.207.074.133,0,.141.185l.126,2.692c0,.192,0,.222-.148.266s-.17,0-.163.1,0,.059.089.059a1.82,1.82,0,0,1,.392-.052h.4c.044,0,.1,0,.1-.052s-.1-.081-.2-.1-.155-.118-.163-.274Zm-.836,2.219c-.067-1.035-1.317-.836-1.383-1.775a.5.5,0,0,1,.422-.547c.215,0,.392.141.533.606,0,.118,0,.2.089.2s.044,0,0-.3c0-.451,0-.488-.052-.518a.963.963,0,0,0-.473-.185.836.836,0,0,0-.777.865c.052,1.006,1.3.873,1.346,1.834,0,.407-.185.74-.5.74s-.5-.207-.651-.865c0-.059,0-.081-.074-.081s-.067,0-.044.4,0,.54.111.584a.979.979,0,0,0,.562.1.94.94,0,0,0,.882-.993c0-.03-.005-.058-.01-.087m-3.5-1.908c0-.178,0-.244.281-.266.4,0,.643.192.673.74a.739.739,0,0,1-.635.83l-.053.005h-.192Zm.089,1.479c0-.074,0-.1.17-.111s.244.052.333.251c.525,1.183.547,1.339.629,1.339l.251-.044h.229c.052,0,.074,0,.067-.067s-.067,0-.222-.074a5.639,5.639,0,0,1-.74-1.4c-.067-.133-.126-.118-.126-.148s.089,0,.266-.133a.843.843,0,0,0-.6-1.531c-.178,0-.355.052-.555.067a2.761,2.761,0,0,1-.355,0c-.118,0-.1,0-.1.074s.1.044.215.067.133.1.141.288l.155,2.559c0,.185,0,.259-.1.3s-.229.052-.222.111,0,.059.111.052a3.78,3.78,0,0,1,.422-.059,2.464,2.464,0,0,1,.414,0c.067,0,.089,0,.081-.067s-.074-.044-.222-.081-.155-.118-.163-.251Zm-2.4,1.435c0,.207,0,.266-.163.311s-.118.044-.111.089.052.074.148.059.348-.052.591-.081.7-.044.976-.074c.133,0,.133,0,.1-.444s-.037-.547-.081-.547-.052,0-.081.2c-.074.466-.17.68-.629.74-.288,0-.428-.074-.443-.333l-.111-1.206c0-.059,0-.074.258-.1s.34.059.436.34c.044.126.059.17.1.163s.044,0,.044-.089-.044-.348-.059-.525a4.259,4.259,0,0,1,0-.436c0-.126,0-.1-.044-.1s0,.037-.081.237-.133.259-.444.288-.206,0-.213-.074l-.1-1.176c0-.1,0-.126.295-.155.414-.044.6.1.74.533.052.118.052.133.1.133s.044-.044,0-.651c0-.222,0-.229-.126-.222s-.333.059-.8.1a5.2,5.2,0,0,0-.74.052c-.126.052-.118.037-.118.074s.074.052.192.067.1.052.1.17Zm-2-2.5a.133.133,0,0,1,.074-.141c.155-.052.185-.052.178-.111a.059.059,0,0,0-.059-.059h-.007a3.771,3.771,0,0,1-.407.044,2.417,2.417,0,0,1-.3,0A.08.08,0,0,0,96.8,152l.133.067c.133.067.178.407.836,2.322a7.136,7.136,0,0,0,.311.947c.059,0,.081-.052.126-.429.1-.806.281-2.071.377-2.648.052-.3.059-.318.1-.37s.126,0,.118-.1,0-.059-.081-.052a.448.448,0,0,0-.215.044,1.248,1.248,0,0,1-.251,0,.081.081,0,0,0-.074.088h0c0,.059.044.052.148.059s.118.044.126.133a9.765,9.765,0,0,1-.2,1.642c-.1.651-.1.74-.126.74s-.052-.067-.473-1.309a7.412,7.412,0,0,1-.318-.991m-.917.222c0-.1,0-.185.118-.215s.214,0,.207-.1-.044-.067-.111-.059l-.4.074h-.392c-.118,0-.1.044-.1.074s.052.059.207.067.141,0,.155.178l.244,2.685c0,.185,0,.215-.133.274s-.17.044-.163.111.044.059.1.052a2.565,2.565,0,0,1,.392-.074,2.8,2.8,0,0,1,.4,0c.081,0,.1,0,.1-.067s-.1-.067-.2-.074-.163-.111-.177-.266Zm-1.22.244c0-.185,0-.274.1-.311s.155-.044.148-.111,0-.059-.081-.052c-.093.024-.187.044-.281.059a2.18,2.18,0,0,1-.333,0,.066.066,0,0,0-.059.073h0c0,.052.074.059.17.059s.178.074.207.377l.215,2v.074a4.7,4.7,0,0,1-.525-.821l-.836-1.383c-.067-.126-.1-.222-.17-.222h-.1l-.325.037s-.1,0-.1.081.044.059.17.059.118.1.141.288l.266,2.515c0,.163,0,.274-.074.325s-.2.059-.192.126,0,.052.059.052a2.53,2.53,0,0,1,.377-.074,1.592,1.592,0,0,1,.333,0c.037,0,.067,0,.067-.067s-.118-.044-.259-.059-.163-.185-.222-.74l-.207-1.9v-.126a10.128,10.128,0,0,1,.836,1.339c.88,1.413.88,1.479.932,1.479s.052,0,0-.163Zm-2.382.414c0-.3,0-.355.089-.392s.155-.044.148-.1,0-.074-.067-.067a1.071,1.071,0,0,0-.318.067c-.207.067-.214,0-.274,0a.081.081,0,0,0-.081.081h0c0,.067.044.067.141.059s.2.067.237.4l.2,1.864c.074.673-.215.969-.54,1.013s-.577-.1-.629-.577l-.244-2.219c0-.318.059-.325.163-.362s.141-.044.141-.1-.044-.052-.118-.037a3.651,3.651,0,0,1-.377.074,1.1,1.1,0,0,1-.318,0c-.126,0-.089,0-.081.059s0,.052.214.074c.037,0,.037.067.052.207l.244,2.263a.74.74,0,0,0,.917.74c.481-.067.791-.407.688-1.346Z" transform="translate(-90.878 -150.827)" fill="#0252a6"/>
  </g>
  <g id="Grupo_20" data-name="Grupo 20" transform="translate(54.083 51.588)">
    <path id="Trazado_20" data-name="Trazado 20" d="M134.988,152.835c0-.177.059-.237.325-.2.392.052.592.325.533.836a.688.688,0,0,1-.692.684.832.832,0,0,1-.114-.011c-.185,0-.192-.044-.185-.081Zm-.163,1.479c0-.074,0-.089.178-.074s.237.1.288.318c.318,1.28.311,1.435.392,1.479s.17,0,.259,0a1.612,1.612,0,0,1,.222.052c.052,0,.074,0,.081-.052s-.067,0-.207-.118a6.317,6.317,0,0,1-.5-1.538c-.044-.148-.1-.141-.1-.17s.089,0,.281-.074a.739.739,0,0,0,.481-.666.864.864,0,0,0-.77-.951l-.036,0a1.845,1.845,0,0,1-.555-.059,1.371,1.371,0,0,0-.348-.067c-.118-.015-.1,0-.111.052s.1.067.2.111.111.126.089.318l-.274,2.544c0,.185-.052.251-.148.266s-.229,0-.237.067,0,.059.1.067a3.119,3.119,0,0,1,.422,0,3.79,3.79,0,0,1,.407.081c.059,0,.089,0,.089-.052s-.059-.059-.2-.126-.141-.148-.126-.281Z" transform="translate(-134.01 -152.386)" fill="#0252a6"/>
  </g>
  <g id="Grupo_21" data-name="Grupo 21" transform="translate(8.364)">
    <path id="Trazado_21" data-name="Trazado 21" d="M90.741,108.828H139.6l-1.908-5.266H92.649Z" transform="translate(-90.741 -103.562)" fill="#0252a6"/>
  </g>
  <g id="Grupo_22" data-name="Grupo 22" transform="translate(9.972 1.158)">
    <path id="Trazado_22" data-name="Trazado 22" d="M109.02,107.639h-.05a.773.773,0,0,1-.4-.117.714.714,0,0,1-.28-.362,1.9,1.9,0,0,1-.093-.37v-1.226a1.8,1.8,0,0,0-.1-.557.119.119,0,0,0-.109-.069h0l-.206,0,.2-.2h.191l.207.042.189-.041h.237v.219l-.074.011a.2.2,0,0,0-.087.035.064.064,0,0,0-.025.041,1.575,1.575,0,0,0,0,.282v1.281a1.53,1.53,0,0,0,.07.351.658.658,0,0,0,.162.245.39.39,0,0,0,.218.067h.024a.383.383,0,0,0,.36-.243,2.717,2.717,0,0,0,.12-1v-.434a1.763,1.763,0,0,0-.05-.549.114.114,0,0,0-.107-.076h-.088v-.23l.257,0,.124.037.148-.04h.219v.232l-.088,0a.091.091,0,0,0-.1.064,2.1,2.1,0,0,0-.038.556v.47a2.615,2.615,0,0,1-.207,1.174A.681.681,0,0,1,109.02,107.639Zm-.025-.171a.593.593,0,0,0,.238-.047.544.544,0,0,1-.166.017h-.006a.549.549,0,0,1-.32-.1.83.83,0,0,1-.216-.321,1.735,1.735,0,0,1-.078-.4v-1.279a1.706,1.706,0,0,1,0-.312.259.259,0,0,1,.033-.091l-.1.022-.13-.027.008.02a1.965,1.965,0,0,1,.11.616v1.214a1.794,1.794,0,0,0,.085.326.543.543,0,0,0,.211.276A.63.63,0,0,0,108.995,107.468Zm.666-2.524a.322.322,0,0,1,.024.055c.008.033.016.064.021.1q.009-.055.022-.111a.208.208,0,0,1,.017-.038l-.038.011Zm11.354,2.68h-.085v-.31l.109.032a.211.211,0,0,0,.069.005.063.063,0,0,0,.007-.031,1.154,1.154,0,0,0,0-.209.871.871,0,0,0-.044-.219c-.014-.048-.029-.1-.042-.155l-.05-.194H120.5l-.026.108c-.051.178-.079.313-.1.431a1.5,1.5,0,0,0,0,.206.109.109,0,0,0,.01.057.111.111,0,0,0,.056-.005l.113-.038v.278h-.566a.67.67,0,0,1-.138,0l-.079-.005v-.259l.108.031a.091.091,0,0,0,.05.005.134.134,0,0,0,.005-.051v-.019l.007-.018a8.189,8.189,0,0,0,.321-1.01l.044-.171.388-1.387h.211l.017.063.349,1.332c.117.435.2.739.236.88a2.126,2.126,0,0,0,.093.284.187.187,0,0,0,.145.1l.076.008v.22h-.441l-.173.042Zm.1-1.228.078.3c.012.055.026.1.039.15a.915.915,0,0,1,.052.257,1.212,1.212,0,0,1,0,.223.2.2,0,0,1-.027.109l.094-.022.144,0a.368.368,0,0,1-.059-.085,2.461,2.461,0,0,1-.1-.313c-.037-.141-.117-.444-.236-.878l-.309-1.18-.007.028.052.245a4.419,4.419,0,0,0,.138.523l.161.645Zm-1.021.913a.338.338,0,0,1-.016.1h.139a.254.254,0,0,1-.021-.123,1.368,1.368,0,0,1,0-.228c0-.023.008-.044.014-.069C120.175,107.1,120.136,107.2,120.1,107.308Zm.481-1.082h.337l-.107-.428c-.022-.068-.044-.139-.064-.214-.018.067-.034.132-.052.2s-.036.141-.055.212S120.6,106.147,120.576,106.226Zm-2.423,1.4a.824.824,0,0,1-.726-.436,1.817,1.817,0,0,1-.277-1.034,1.787,1.787,0,0,1,.28-1.026.821.821,0,0,1,1.449,0,1.858,1.858,0,0,1,.268,1.025,1.9,1.9,0,0,1-.272,1.035A.821.821,0,0,1,118.153,107.623Zm-.006-2.663a.43.43,0,0,0-.372.291,2.554,2.554,0,0,0,0,1.8.392.392,0,0,0,.759.006,2.166,2.166,0,0,0,.166-.9,2.114,2.114,0,0,0-.164-.9A.45.45,0,0,0,118.147,104.96Zm.487.118a.557.557,0,0,1,.057.115,2.717,2.717,0,0,1,0,1.926.524.524,0,0,1-.06.125.615.615,0,0,0,.1-.138,1.72,1.72,0,0,0,.249-.948v-.006a1.673,1.673,0,0,0-.247-.936A.64.64,0,0,0,118.634,105.079Zm-.971.007a.7.7,0,0,0-.087.126,1.632,1.632,0,0,0-.256.94,1.661,1.661,0,0,0,.254.949.662.662,0,0,0,.1.139.633.633,0,0,1-.059-.127,2.721,2.721,0,0,1,0-1.925A.687.687,0,0,1,117.663,105.086Zm-4.288,2.537h-.086v-.31l.109.032a.2.2,0,0,0,.07.005.065.065,0,0,0,.006-.032V107.1a.842.842,0,0,0-.044-.21c-.014-.048-.029-.1-.041-.155l-.044-.194h-.484l-.033.111c-.042.179-.073.319-.094.428a1.5,1.5,0,0,0,0,.206.123.123,0,0,0,.008.057.115.115,0,0,0,.057-.005l.112-.038v.278h-.784v-.264l.109.031a.154.154,0,0,0,.076,0,.144.144,0,0,0,.046-.054,8.121,8.121,0,0,0,.318-1l.044-.171.318-1.424h.216l.017.063.348,1.332c.051.186.093.351.129.487.046.179.081.31.106.389a2.2,2.2,0,0,0,.1.288.111.111,0,0,0,.048.056.185.185,0,0,0,.1.04l.076.008v.22h-.44l-.173.042Zm.08-1.25h.024l.075.325c.012.052.025.1.039.147a.954.954,0,0,1,.052.257v.215a.239.239,0,0,1-.03.117l.1-.022.139,0a.3.3,0,0,1-.059-.091,2.536,2.536,0,0,1-.1-.306c-.023-.077-.059-.21-.107-.392-.035-.136-.078-.3-.129-.486l-.3-1.162-.012.053.051.2a4.676,4.676,0,0,1,.113.543Zm-.968,1.037h.1a.241.241,0,0,1-.02-.123.349.349,0,0,1,0-.048l-.048.123A.427.427,0,0,1,112.488,107.409Zm.448-1.183h.309l-.107-.428c-.01-.071-.022-.142-.036-.211-.017.065-.034.13-.051.2s-.037.142-.056.216S112.955,106.148,112.936,106.226Zm-10.374,1.4h-.085v-.31l.109.032a.188.188,0,0,0,.069.005.067.067,0,0,0,.007-.032,1.141,1.141,0,0,0,0-.208l-.157-.568h-.483l-.027.108c-.052.181-.08.317-.1.431a1.514,1.514,0,0,0-.036.22.072.072,0,0,0,.01.042.136.136,0,0,0,.058-.005l.111-.034v.275h-.784v-.264l.109.031a.161.161,0,0,0,.087,0,.158.158,0,0,0,.033-.048,8.067,8.067,0,0,0,.321-1.008l.044-.171.388-1.424h.211l.018.063.348,1.332c.117.435.2.739.236.88.027.1.06.192.08.247l.015.042a.189.189,0,0,0,.143.091l.076.008v.22h-.441l-.172.042Zm.079-1.228.188.684a1.287,1.287,0,0,1,0,.246.211.211,0,0,1-.03.109l.1-.022.144,0a.368.368,0,0,1-.059-.085l-.019-.05c-.02-.057-.055-.151-.083-.262-.037-.142-.118-.445-.237-.879l-.244-.936-.022.072-.012.039,0,.005a2.974,2.974,0,0,0,.146.429l.166.652Zm-1.03,1.014h.1a.253.253,0,0,1-.021-.123c0-.027.005-.053.008-.08-.019.053-.039.1-.059.155A.34.34,0,0,1,101.611,107.409Zm.511-1.183h.339l-.108-.428a1.9,1.9,0,0,1-.073-.184c-.015.056-.029.113-.042.17s-.038.142-.057.216S102.142,106.148,102.122,106.226Zm.158-1.065h.109l-.054-.2Zm-1.246,2.462h-.217l-.024-.043c-.341-.605-.591-1.039-.782-1.359-.135-.224-.26-.43-.375-.616v1.216a2.717,2.717,0,0,0,0,.371.153.153,0,0,0,.045.083.138.138,0,0,0,.088.031h0l.087,0v.275l-.256,0-.151-.042H99.09v-.164l.079-.02a.116.116,0,0,0,.107-.094,4,4,0,0,0,.08-.8v-.9A1.514,1.514,0,0,0,99.3,105a.137.137,0,0,0-.115-.057h-.011l-.2.016.18-.223h.295l.093-.036h.077l.025.031a3.508,3.508,0,0,1,.485.757c.229.4.442.764.652,1.1v-1.277a.88.88,0,0,0-.081-.3.1.1,0,0,0-.036-.047.129.129,0,0,0-.071-.031l-.078-.006v-.193l.232,0,.141.038.155-.04h.2v.218l-.073.012a.166.166,0,0,0-.069.026.2.2,0,0,0-.029.089,4.53,4.53,0,0,0-.037.5v1.788a.317.317,0,0,0,0,.054Zm-1.618-.258.069,0,.068.018a.313.313,0,0,1-.086-.175l0-.04-.022.118A.317.317,0,0,1,99.417,107.365Zm.064-2.337.143.232c.155.251.333.54.533.874.179.3.4.689.708,1.226v-.331l-.068-.1c-.264-.4-.526-.854-.816-1.358a3.414,3.414,0,0,0-.433-.689l-.078.029h-.032a.23.23,0,0,1,.019.032C99.466,104.969,99.474,105,99.482,105.028Zm1.377-.08h0a.932.932,0,0,1,.044.111.35.35,0,0,1,.033-.115l-.044.013Zm21.979,2.662h-.027a1.959,1.959,0,0,1-.518-.085l-.011,0h-.427v-.175l.09,0a.132.132,0,0,0,.117-.069,2.289,2.289,0,0,0,.037-.552V105.6a2.161,2.161,0,0,0-.043-.574.123.123,0,0,0-.114-.059l-.087,0v-.231h.247l.2.041a1.288,1.288,0,0,1,.216-.048,1.149,1.149,0,0,1,.241,0,1.039,1.039,0,0,1,.864.394,1.7,1.7,0,0,1,.3,1.063,1.59,1.59,0,0,1-.3,1.021A.961.961,0,0,1,122.837,107.609Zm-.627-.259.144.016.008,0a.253.253,0,0,1-.026-.075,1.551,1.551,0,0,1,0-.288l-.007-2.056-.022.005-.113-.024a.283.283,0,0,1,.023.043,2.322,2.322,0,0,1,.053.632v1.111a2.44,2.44,0,0,1-.047.611Zm.539.015h.023a.562.562,0,0,0,.484-.27,1.484,1.484,0,0,0,.2-.838,1.733,1.733,0,0,0-.211-.94.655.655,0,0,0-.547-.3h-.2l.007,1.994a1.412,1.412,0,0,0,0,.259.09.09,0,0,0,.052.055A.493.493,0,0,0,122.75,107.365Zm.33-2.419a.831.831,0,0,1,.307.283,1.89,1.89,0,0,1,.236,1.027,1.649,1.649,0,0,1-.219.925c-.013.021-.027.042-.041.061a.845.845,0,0,0,.12-.132,1.437,1.437,0,0,0,.265-.921,1.546,1.546,0,0,0-.266-.963A.859.859,0,0,0,123.079,104.946Zm-16.42,2.663h-.024a1.946,1.946,0,0,1-.466-.067l-.005.007h-.485v-.214l.092.007a.1.1,0,0,0,.108-.066,1.876,1.876,0,0,0,.045-.554V105.6a1.785,1.785,0,0,0-.049-.6.114.114,0,0,0-.1-.061h0l-.089,0v-.2h.241l.2.041a1.2,1.2,0,0,1,.223-.048,1.149,1.149,0,0,1,.241,0,1.013,1.013,0,0,1,.857.394,1.663,1.663,0,0,1,.307,1.063,1.643,1.643,0,0,1-.3,1.02A.975.975,0,0,1,106.659,107.609Zm-.646-.23h.06l.025-.036.06.018.032.01a.312.312,0,0,1-.029-.07l0-.021v-2.335l-.015,0-.022.006-.093-.02.005.014a1.92,1.92,0,0,1,.057.659v1.108a1.991,1.991,0,0,1-.055.614A.266.266,0,0,1,106.014,107.379Zm.317-.112a.109.109,0,0,0,.055.062.486.486,0,0,0,.189.036.589.589,0,0,0,.516-.272,1.559,1.559,0,0,0,.187-.837,1.733,1.733,0,0,0-.211-.94.655.655,0,0,0-.547-.3h-.188Zm.582-2.315a.81.81,0,0,1,.3.278,1.89,1.89,0,0,1,.236,1.027,1.729,1.729,0,0,1-.21.924c-.01.015-.019.03-.03.043a.858.858,0,0,0,.1-.113,1.475,1.475,0,0,0,.264-.922,1.5,1.5,0,0,0-.272-.96A.856.856,0,0,0,106.913,104.952Zm27.843,2.648a.822.822,0,0,1-.726-.435,1.892,1.892,0,0,1-.268-1.034,1.836,1.836,0,0,1,.272-1.025.822.822,0,0,1,1.45,0,1.8,1.8,0,0,1,.277,1.038,1.845,1.845,0,0,1-.28,1.023A.817.817,0,0,1,134.756,107.6Zm-.005-2.639a.447.447,0,0,0-.373.292,2.075,2.075,0,0,0-.165.9,1.984,1.984,0,0,0,.17.9.387.387,0,0,0,.751.008,2.557,2.557,0,0,0,0-1.8A.442.442,0,0,0,134.751,104.96Zm-.419.04a.675.675,0,0,0-.15.189,1.676,1.676,0,0,0-.249.94,1.728,1.728,0,0,0,.247.951.639.639,0,0,0,.082.12.558.558,0,0,1-.037-.089,2.126,2.126,0,0,1-.182-.962,2.22,2.22,0,0,1,.176-.962A.631.631,0,0,1,134.331,105Zm.857.006a.62.62,0,0,1,.107.187,2.719,2.719,0,0,1,0,1.927.414.414,0,0,1-.023.06.7.7,0,0,0,.063-.1,1.69,1.69,0,0,0,.257-.929h0v-.022a1.629,1.629,0,0,0-.254-.938A.72.72,0,0,0,135.188,105.007Zm-23.845,2.588a.958.958,0,0,1-.775-.4,2.079,2.079,0,0,1,.005-2.1.945.945,0,0,1,.789-.424h.024a1.388,1.388,0,0,1,.378.061l.021.011.075.051.005-.019h.194v.218a.736.736,0,0,1,0,.118v.528h-.277l0-.088a.837.837,0,0,0-.127-.484.365.365,0,0,0-.3-.138h0a.52.52,0,0,0-.466.286,1.7,1.7,0,0,0-.184.881,1.83,1.83,0,0,0,.191.914.539.539,0,0,0,.483.3c.012.005.021,0,.032,0a.407.407,0,0,0,.288-.116.646.646,0,0,0,.13-.372l0-.081h.213l.005.078a1.2,1.2,0,0,1,0,.174v.36l-.032.025a.872.872,0,0,1-.286.156,1.089,1.089,0,0,1-.34.056Zm.541-.363a.806.806,0,0,1-.055.078v0l.056-.037Zm-1.17-2.038a1.91,1.91,0,0,0-.005,1.907.808.808,0,0,0,.163.166.694.694,0,0,1-.125-.179,1.976,1.976,0,0,1-.209-.989A1.871,1.871,0,0,1,110.715,105.193Zm1.064-.248c.007.01.016.018.023.029a1.064,1.064,0,0,1,.09.181V105.1a.7.7,0,0,0,0-.1v-.011h-.046Zm-13.746,2.65a.977.977,0,0,1-.79-.406,1.711,1.711,0,0,1-.291-1.038,1.8,1.8,0,0,1,.287-1.07.955.955,0,0,1,.789-.416h.024a1.238,1.238,0,0,1,.372.063l.167.052.187,0,0,.229-.033.1v.1a1.1,1.1,0,0,1,0,.145.4.4,0,0,1,0,.072.97.97,0,0,1,0,.136l-.005.079h-.264l0-.088a.838.838,0,0,0-.128-.484.345.345,0,0,0-.28-.138c-.007,0-.007.007-.022,0a.518.518,0,0,0-.466.286,1.827,1.827,0,0,0-.176.889,1.686,1.686,0,0,0,.2.911.569.569,0,0,0,.5.3.81.81,0,0,0,.175,0,.138.138,0,0,0,.044-.023v-.007a.761.761,0,0,0,0-.149v-.313a.788.788,0,0,0-.014-.328.2.2,0,0,0-.127-.054l-.081,0v-.2l.272,0,.185.054.169-.041h.218v.216l-.087,0h0a.08.08,0,0,0-.07.042,1.045,1.045,0,0,0-.027.354v.293l.048-.013,0,.211-.04.024a1.327,1.327,0,0,1-.363.158,1.14,1.14,0,0,1-.344.054Zm.444-1.145a.933.933,0,0,1,.02.393v.29a.771.771,0,0,1,0,.156.116.116,0,0,1,0,.041c.034-.014.067-.03.1-.045l0-.014a.49.49,0,0,1,0-.136v-.261a1.183,1.183,0,0,1,.039-.419l-.073.019Zm-1.008-1.38a.775.775,0,0,0-.088.106,1.631,1.631,0,0,0-.259.976,1.549,1.549,0,0,0,.259.94.8.8,0,0,0,.255.226.739.739,0,0,1-.179-.22,1.851,1.851,0,0,1-.224-.992,2,2,0,0,1,.193-.965A.611.611,0,0,1,97.469,105.069Zm.966-.16a.614.614,0,0,1,.054.063,1.067,1.067,0,0,1,.083.162l0-.072.033-.112-.035,0Zm39.118,2.676a.84.84,0,0,1-.115-.007l-.022-.006a.515.515,0,0,1-.186-.133.95.95,0,0,1-.162-.242c-.053-.116-.125-.277-.2-.5a.69.69,0,0,1-.046-.124.666.666,0,0,0-.063-.139l-.139.079v.237a2.018,2.018,0,0,0,.05.564.153.153,0,0,0,.118.06l.083,0v.2h-.895v-.262l.106.027a.1.1,0,0,0,.119-.067,1.741,1.741,0,0,0,.049-.555v-1.145a1.729,1.729,0,0,0-.05-.577.113.113,0,0,0-.1-.062h0l-.088,0v-.2l.255,0,.144.038a1.362,1.362,0,0,1,.18-.053h.2a.335.335,0,0,1,.045,0,.639.639,0,0,1,.468.206.785.785,0,0,1,.186.566,1,1,0,0,1-.1.437.821.821,0,0,1-.24.28,5.357,5.357,0,0,0,.408.944c.056.1.147.217.25.217h.086v.206h-.234A.63.63,0,0,1,137.553,107.586Zm-.081-.174c.021,0,.042,0,.063,0a.879.879,0,0,1-.13-.174A5.532,5.532,0,0,1,137,106.3l-.092.052a.807.807,0,0,1,.077.172.584.584,0,0,0,.041.108c.079.222.148.378.2.489a.775.775,0,0,0,.134.2A.352.352,0,0,0,137.472,107.412Zm-1.152,0h.206c-.006-.012-.013-.022-.018-.034a2.115,2.115,0,0,1-.061-.626v-.531h.014l.008-1.284-.032.013-.025.01-.055-.014,0,.005a1.842,1.842,0,0,1,.057.636v1.132a1.94,1.94,0,0,1-.054.607A.318.318,0,0,1,136.32,107.409Zm.3-1.022v.078l.08-.078Zm.2-.136.014.011.017-.017Zm-.18-.166h.1a.261.261,0,0,0,.232-.111.758.758,0,0,0,.081-.4.838.838,0,0,0-.1-.437.281.281,0,0,0-.24-.134h-.067Zm.323-1.175a.475.475,0,0,1,.136.143,1,1,0,0,1,.124.52.906.906,0,0,1-.068.406.67.67,0,0,0,.086-.123.829.829,0,0,0,.078-.367.619.619,0,0,0-.143-.448A.468.468,0,0,0,136.956,104.911Zm-10.112,2.674a.871.871,0,0,1-.09-.005.69.69,0,0,1-.174,0h-.236v-.237h.085a.246.246,0,0,0,.07-.005l.006-.022a1.022,1.022,0,0,0,.075-.377v-.272a.8.8,0,0,0,0-.133v-.777c-.09.28-.176.558-.262.838-.09.3-.161.547-.212.731l-.071.246h-.171l-.019-.059c-.114-.363-.228-.713-.349-1.083l-.014-.04c-.073-.225-.147-.439-.218-.644v1.149a1.072,1.072,0,0,0,.048.4.118.118,0,0,0,.1.038l.1-.016v.259l-.248,0-.152-.042h-.376v-.191h.083a.144.144,0,0,0,.073-.022.206.206,0,0,0-.005-.1l0-.023v-.533a4.17,4.17,0,0,1,.039-.757,1.2,1.2,0,0,0,.005-.341c0-.049-.006-.093-.006-.13v-.074a.974.974,0,0,0,.012-.348.15.15,0,0,0-.113-.041l-.092.007v-.244h.354l.106-.033a.118.118,0,0,1,.109.006l.021.011.012.02a.473.473,0,0,1,.063.161c.072.222.144.437.212.645.048.146.1.286.141.425.08.248.161.467.239.674.064-.2.134-.418.209-.657l.188-.593c.061-.212.1-.346.13-.426.006-.15.1-.239.188-.239h.044l.011-.035v.035h.386v.228h-.086a.255.255,0,0,0-.072.005.932.932,0,0,0-.036.368v1.236a3.221,3.221,0,0,0,.058.723.085.085,0,0,0,.082.066h0l.088,0v.224h-.241A.578.578,0,0,1,126.844,107.585Zm-.091-.176h.012a.4.4,0,0,0,.106,0,.281.281,0,0,1-.037-.086,3.478,3.478,0,0,1-.061-.762v-1.225a1.087,1.087,0,0,1,.041-.417l.008-.023h-.072v1.624a.851.851,0,0,1,0,.147v.266a1.2,1.2,0,0,1-.087.44c0,.013-.008.025-.013.036a.3.3,0,0,0,.092,0Zm-1.7-.043.107.007,0-.008a1.23,1.23,0,0,1-.061-.475v-1a.471.471,0,0,1-.008.054,4.153,4.153,0,0,0-.036.724v.521A.377.377,0,0,1,125.053,107.365Zm.088-2.468.118.326c.123.343.254.71.385,1.112l.014.04c.1.3.193.594.287.89.012-.041.024-.085.037-.131l-.1-.268c-.1-.258-.2-.524-.3-.839-.045-.141-.091-.28-.139-.425-.069-.208-.141-.425-.214-.655a.5.5,0,0,0-.021-.07Zm-.048.438-.008.048,0,.055c0,.034,0,.073.006.115v-.218Zm-.033-.427.016.019.016.036v.01l0-.064Zm.186-.044-.011,0Zm-30.815,2.72c-.031,0-.063,0-.1-.005a.905.905,0,0,1-.17,0h-.128v-.253l.1.017a.079.079,0,0,0,.072-.036,1.379,1.379,0,0,0,.027-.365v-1.274c-.122.314-.238.632-.329.933-.055.181-.1.343-.144.486-.054.185-.1.332-.131.433l-.019.058h-.168l-.019-.059c-.054-.173-.11-.342-.166-.511-.065-.2-.132-.4-.2-.614-.07-.227-.15-.449-.229-.665,0,.184-.014.36-.034.525a2.516,2.516,0,0,0-.006.5c0,.055.006.1.006.146a1.177,1.177,0,0,0,.041.406.11.11,0,0,0,.1.035l.1-.012v.248l-.255,0-.156-.055h-.367v-.168l.083-.01a.118.118,0,0,0,.082-.035.209.209,0,0,0,.042-.114v-.527a4.17,4.17,0,0,1,.039-.757,1.238,1.238,0,0,0,.005-.341c0-.049-.007-.093-.007-.13l.005-.1a.891.891,0,0,0,.049-.323.147.147,0,0,0-.11-.038l-.081.007-.029-.244h.365l.1-.03a.121.121,0,0,1,.133.013l.019.021a.521.521,0,0,1,.063.161c.123.381.241.729.359,1.068l.089.259c.051.146.1.281.145.412.064-.2.133-.416.208-.653l.188-.593c.061-.212.1-.347.13-.426a.227.227,0,0,1,.173-.239.176.176,0,0,1,.085,0h.333v.228h-.085a.267.267,0,0,0-.073.005,1.172,1.172,0,0,0-.035.37v1.234a3.776,3.776,0,0,0,.057.725.084.084,0,0,0,.082.063h0l.087,0v.224h-.247A.709.709,0,0,1,94.431,107.584Zm-.089-.173a.564.564,0,0,0,.118,0,.241.241,0,0,1-.036-.085c-.008-.05-.017-.1-.023-.149a1.609,1.609,0,0,1-.033.187A.309.309,0,0,1,94.342,107.41Zm-1.741-.06.083.008a1.354,1.354,0,0,1-.043-.2v.043A.432.432,0,0,1,92.6,107.35Zm.118-2.442.116.322c.038.106.076.21.115.315.094.256.192.522.278.8.063.208.13.41.2.611.035.109.071.217.106.327.018-.06.038-.127.059-.2l-.056-.148c-.077-.2-.149-.412-.229-.646l-.09-.259c-.118-.341-.238-.689-.363-1.081a.353.353,0,0,0-.02-.069Zm1.606-.007a.157.157,0,0,0-.021.078l-.005.036c-.015.041-.035.1-.06.19l.005-.015.118-.292-.006,0Zm.082,0v.012l.005-.012Zm39.1,2.677h-.895v-.241l.09,0h.005a.12.12,0,0,0,.111-.073,2.038,2.038,0,0,0,.038-.531v-1.16a2.127,2.127,0,0,0-.042-.58.136.136,0,0,0-.114-.059l-.088,0v-.2h.256l.192.042.189-.041h.258v.233l-.088,0h0a.117.117,0,0,0-.107.073,1.563,1.563,0,0,0-.045.509v1.182a1.667,1.667,0,0,0,.05.548.1.1,0,0,0,.1.061l.093-.009Zm-.581-.169h.265a.307.307,0,0,1-.042-.08,1.805,1.805,0,0,1-.055-.6v-1.17a1.71,1.71,0,0,1,.055-.57.332.332,0,0,1,.03-.058l-.118.025-.089-.019,0,.01a2.292,2.292,0,0,1,.052.638v1.15a2.171,2.171,0,0,1-.047.587A.333.333,0,0,1,132.929,107.409Zm-16.03.169h-.888v-.257l.1.021a.1.1,0,0,0,.116-.067,1.621,1.621,0,0,0,0-.529v-1.17a1.717,1.717,0,0,0,0-.583.138.138,0,0,0-.1-.056l-.044,0-.153-.2h.335l.2.042.182-.04.259,0v.228h-.083a.129.129,0,0,0-.116.076,1.9,1.9,0,0,0-.037.507v1.181a2.053,2.053,0,0,0,.042.553.118.118,0,0,0,.107.057l.088,0Zm-.55-.169h.239a.288.288,0,0,1-.044-.076,2.216,2.216,0,0,1-.051-.607v-1.171a2.05,2.05,0,0,1,.046-.565.3.3,0,0,1,.035-.062l-.114.025-.073-.015,0,.01a1.856,1.856,0,0,1,.005.643v1.14a1.778,1.778,0,0,1,0,.584A.308.308,0,0,1,116.349,107.409Zm-1.047.169h-.262l-.214-.042-.206.041h-.279v-.224l.08,0a.383.383,0,0,0,.137-.036.078.078,0,0,0,.029-.047.631.631,0,0,0,0-.184v-2.065h-.04c-.169,0-.314,0-.341.048-.01.015-.019.029-.027.044s0,.057,0,.086c0,.072,0,.135,0,.2l.005.09h-.247l0-.081a.723.723,0,0,1,.072-.335c0-.026,0-.053,0-.078v-.332h.214v.062a1.32,1.32,0,0,0,.181,0h.962a1.138,1.138,0,0,0,.189,0v-.06h.215l.007.076a.714.714,0,0,1,0,.134v.34a1.529,1.529,0,0,1,0,.2l0,.079h-.224V105.4a.39.39,0,0,0-.387-.382h-.094v2.052a.967.967,0,0,0,0,.207.1.1,0,0,0,.03.033.2.2,0,0,0,.1,0l.107-.027Zm-.477-.216.108.021a.238.238,0,0,1-.035-.076,1.054,1.054,0,0,1,0-.244v-2.178h-.141v2.185a.78.78,0,0,1,0,.227.238.238,0,0,1-.034.086Zm.538-2.476a.56.56,0,0,1,.184.118.69.69,0,0,1,.058.067v-.186h-.011A1.2,1.2,0,0,1,115.363,104.887Zm.222-.17h0Zm-18.618,2.861h-.432l-.2-.015h-.249v-.256l.113.038a.148.148,0,0,0,.06.006.059.059,0,0,0,0-.044l-.006-.019v-.018a1.208,1.208,0,0,0-.045-.442c-.011-.041-.022-.085-.033-.13l-.08-.157h-.5l-.068.27c-.026.107-.048.194-.062.268a1.222,1.222,0,0,0,0,.206v.017l-.005.017-.005.024a.122.122,0,0,0,.039-.007l.111-.035v.276H94.83v-.269l.112.037a.128.128,0,0,0,.072,0,.166.166,0,0,0,.049-.056,9.026,9.026,0,0,0,.311-1l.478-1.6h.21l.017.063.348,1.332c.111.435.191.739.235.876a2.427,2.427,0,0,0,.094.288.1.1,0,0,0,.043.054.168.168,0,0,0,.093.042l.077.007Zm-.543-.179.228.01a.277.277,0,0,1-.058-.1,2.526,2.526,0,0,1-.1-.3c-.043-.138-.124-.435-.238-.88l-.307-1.182-.063.211h.1l-.027.106-.008.032,0,.009a2.935,2.935,0,0,0,.148.435l.165.652h-.053l.124.246c.017.063.029.106.038.145a1.092,1.092,0,0,1,.052.279,1.205,1.205,0,0,1,0,.2A.227.227,0,0,1,96.424,107.4Zm-1.237.01H95.3a.277.277,0,0,1,0-.125c0-.05,0-.1,0-.151-.026.076-.054.152-.082.227A.457.457,0,0,1,95.187,107.409Zm.507-1.183h.355l-.107-.428a1.812,1.812,0,0,1-.075-.187c-.016.058-.032.116-.05.176s-.029.091-.044.136A1.659,1.659,0,0,0,95.694,106.226Zm9.546,1.339a.508.508,0,0,1-.1-.011H104.6a1.158,1.158,0,0,1-.269-.044h-.284a.157.157,0,0,1-.044,0l.006-.169h.031a.117.117,0,0,0,.092-.068,2.5,2.5,0,0,0,.037-.6V106.6a.3.3,0,0,1,0-.076v-.731a.924.924,0,0,1,0-.153,2.4,2.4,0,0,0-.057-.641.124.124,0,0,0-.107-.059h-.006l-.089,0v-.2l.262,0,.149.039a1.576,1.576,0,0,1,.283-.041,4.042,4.042,0,0,1,.424,0,.528.528,0,0,1,.2,0,.157.157,0,0,1,.107.131.179.179,0,0,1-.022.135c0,.05,0,.1,0,.148v.31h-.227l.005-.09a.486.486,0,0,0-.076-.288.667.667,0,0,0-.246-.021h-.2v.9h.188a.484.484,0,0,0,.237-.031.193.193,0,0,0,.041-.111l0-.08h.2l.005.078a.916.916,0,0,1,0,.152.876.876,0,0,1,0,.149v.156a1.08,1.08,0,0,1,0,.154l-.005.078h-.217v-.085c0-.05,0-.11-.012-.117a.349.349,0,0,0-.217-.042h-.229v.522a1.423,1.423,0,0,0,.038.455.52.52,0,0,0,.165.022.575.575,0,0,0,.39-.089.653.653,0,0,0,.117-.348l0-.081h.213l.005.079c0,.087,0,.174,0,.262a1.61,1.61,0,0,1-.051.2c0,.017,0,.035,0,.051a.172.172,0,0,1,0,.057.179.179,0,0,1-.072.142l-.033.015A.52.52,0,0,1,105.239,107.565Zm-.124-.179h.042a.323.323,0,0,0,.112.006l0-.054a.253.253,0,0,0,0-.04l-.007.005A.726.726,0,0,1,105.116,107.386Zm-.836-.044.08,0a1.047,1.047,0,0,0,.136.03.124.124,0,0,1-.058-.089,1.553,1.553,0,0,1-.045-.508v-1.841l-.057.014-.021,0-.049-.012,0,0a2.587,2.587,0,0,1,.066.7.991.991,0,0,0,0,.137v.746a.253.253,0,0,0,0,.057v.076a2.678,2.678,0,0,1-.045.66Zm.7-1.232a.589.589,0,0,1,.09.036v-.035l0-.034h0A.713.713,0,0,1,104.984,106.11Zm.01-1.2a.24.24,0,0,1,.138.066l0-.023.026-.027-.006-.016v0a.593.593,0,0,0-.117.007Zm23.723,2.658a.458.458,0,0,1-.094-.01h-.544a1.062,1.062,0,0,1-.264-.044h-.157a.8.8,0,0,1-.151,0h-.021l.016-.169h.014a.1.1,0,0,0,.093-.063,2.077,2.077,0,0,0,.046-.609v-1.033a1.961,1.961,0,0,0-.035-.64.138.138,0,0,0-.106-.059l-.088,0v-.2h.232l.179.042a1.157,1.157,0,0,1,.312-.026,2.847,2.847,0,0,1,.425,0,.467.467,0,0,1,.2,0l.069.013v.13a.1.1,0,0,1,0,.049.341.341,0,0,1,0,.057,1.408,1.408,0,0,1,0,.165.586.586,0,0,1,0,.123v.187h-.226l.005-.09a.479.479,0,0,0-.068-.275.332.332,0,0,0-.26-.051h-.213v.9h.189a.565.565,0,0,0,.244-.032.163.163,0,0,0,.033-.1l0-.088h.21l.006.078a.918.918,0,0,1,0,.152.877.877,0,0,1,0,.149.588.588,0,0,1,0,.167.711.711,0,0,1,0,.144l-.006.078h-.226l.012-.1a.164.164,0,0,0-.03-.115.346.346,0,0,0-.2-.034h-.222v.522a1.385,1.385,0,0,0,.038.454.51.51,0,0,0,.172.023.561.561,0,0,0,.37-.09.65.65,0,0,0,.137-.351l.1-1.251.069,1.253a2.17,2.17,0,0,1,0,.262.515.515,0,0,1-.045.216c0,.013,0,.026,0,.039v.051a.167.167,0,0,1-.091.161A.593.593,0,0,1,128.716,107.564Zm-.1-.178h.019a.424.424,0,0,0,.112.006l0-.046v-.03A.685.685,0,0,1,128.621,107.386Zm-.795-.044.024,0a.943.943,0,0,0,.174.036.123.123,0,0,1-.069-.1,1.585,1.585,0,0,1-.044-.508l-.008-1.836-.053.011-.019,0-.055-.014,0,.007a2.088,2.088,0,0,1,.043.7v1.019a2.141,2.141,0,0,1-.054.664l-.005.013Zm.67-1.232a.624.624,0,0,1,.092.038l0-.025,0-.042A.758.758,0,0,1,128.5,106.11Zm.05-1.19a.521.521,0,0,1,.115.066l.005,0a.2.2,0,0,0,0-.037l0-.016,0-.016,0-.006a.226.226,0,0,0-.085.007Zm3.652,2.637a.439.439,0,0,1-.093-.011l-.543,0a1.205,1.205,0,0,1-.257-.044h-.235a.24.24,0,0,1-.1.006l-.076-.007v-.162l.145-.007a.105.105,0,0,0,.054-.055,2.075,2.075,0,0,0,.047-.609v-.138a.572.572,0,0,0,0-.094v-.549c0-.037,0-.067,0-.1v-.153a2.359,2.359,0,0,0-.05-.64.131.131,0,0,0-.111-.059h0l-.088,0v-.2h.248l.2.042.182-.04.266,0v.235l-.089-.005a.113.113,0,0,0-.111.069,1.951,1.951,0,0,0-.044.516v1.232a1.145,1.145,0,0,0,.045.454.445.445,0,0,0,.158.023.566.566,0,0,0,.368-.089.643.643,0,0,0,.124-.349l.005-.08h.212l0,.079a2.02,2.02,0,0,1,0,.254.926.926,0,0,1-.042.211.571.571,0,0,1,0,.1.155.155,0,0,1-.091.147A.536.536,0,0,1,132.2,107.557Zm-.1-.179h.031a.331.331,0,0,0,.144,0v-.01h-.02a.367.367,0,0,0,0-.083v-.005l0,0-.018.017A.786.786,0,0,1,132.093,107.379Zm-.836-.044.085,0a.92.92,0,0,0,.134.031.121.121,0,0,1-.051-.08,1.276,1.276,0,0,1-.052-.512v-1.219a2.081,2.081,0,0,1,.055-.575.287.287,0,0,1,.027-.054l-.115.026-.09-.019,0,.01a2.519,2.519,0,0,1,.059.7v.143a.634.634,0,0,1,0,.11v.534a.493.493,0,0,1,0,.112v.125a2.141,2.141,0,0,1-.054.664Zm-.725.223a.616.616,0,0,1-.1-.01h-.544a.772.772,0,0,1-.286-.032l-.15,0a1.112,1.112,0,0,1-.168,0l-.08,0v-.175l.094,0a.119.119,0,0,0,.1-.062,2.076,2.076,0,0,0,.046-.609v-1.033a1.956,1.956,0,0,0-.063-.637.114.114,0,0,0-.1-.062h0l-.089,0v-.2h.241l.206.042.182-.04.267,0v.235l-.09-.005a.116.116,0,0,0-.11.069,1.616,1.616,0,0,0-.045.514v1.234a1.382,1.382,0,0,0,.038.454.476.476,0,0,0,.165.023.537.537,0,0,0,.368-.088.649.649,0,0,0,.116-.349l0-.081h.216l0,.08a2.477,2.477,0,0,1,0,.251,1.388,1.388,0,0,1-.052.217v.241l-.068.015A.618.618,0,0,1,130.533,107.557Zm-.141-.179h.06a.575.575,0,0,0,.077.008V107.3l-.005,0A.709.709,0,0,1,130.392,107.379Zm-.768-.029a1.3,1.3,0,0,0,.151.024.124.124,0,0,1-.058-.088,1.534,1.534,0,0,1-.044-.509v-1.221a1.787,1.787,0,0,1,.055-.577.4.4,0,0,1,.027-.052l-.115.026-.1-.02.005.015a2.109,2.109,0,0,1,.073.694v1.023a2.141,2.141,0,0,1-.054.664l-.008.021Z" transform="translate(-92.263 -104.658)" fill="#fff"/>
  </g>
  <g id="Grupo_23" data-name="Grupo 23" transform="translate(10.058 1.228)">
    <path id="Trazado_23" data-name="Trazado 23" d="M136.541,106.159h.185a.325.325,0,0,0,.3-.155.735.735,0,0,0,.1-.444.862.862,0,0,0-.111-.473.348.348,0,0,0-.318-.177h-.141v.592Zm.5,0a5.749,5.749,0,0,0,.436,1.035c.1.17.215.259.325.259h0v.059h-.148a.525.525,0,0,1-.207,0,.547.547,0,0,1-.155-.1,1.421,1.421,0,0,1-.148-.222q-.111-.239-.2-.488a1.233,1.233,0,0,1-.044-.118c-.059-.17-.126-.259-.192-.259h-.185v.444a2.176,2.176,0,0,0,.052.584.209.209,0,0,0,.2.126v.059h-.155l-.207-.044-.2.044h-.155v-.111a.207.207,0,0,0,.222-.126,1.861,1.861,0,0,0,.052-.592v-1.132a1.709,1.709,0,0,0-.052-.6.184.184,0,0,0-.192-.126v-.037h.141l.178.044a1.1,1.1,0,0,1,.192-.052.774.774,0,0,1,.185,0,.543.543,0,0,1,.451.178.678.678,0,0,1,.163.5.876.876,0,0,1-.089.407.741.741,0,0,1-.251.3m-1.376,0a1.71,1.71,0,0,1-.259.991.739.739,0,0,1-1.3,0,2.012,2.012,0,0,1,0-1.975.738.738,0,0,1,1.3,0,1.716,1.716,0,0,1,.259.984m-.923,1.25c.192,0,.34-.118.459-.355a2.078,2.078,0,0,0,.17-.932,2.044,2.044,0,0,0-.17-.925.48.48,0,0,0-.917,0,2.658,2.658,0,0,0,0,1.871.532.532,0,0,0,.459.348m-2.056-2.626h.163l.2.037.2-.037h.163v.067a.191.191,0,0,0-.192.118,1.636,1.636,0,0,0-.052.555v1.176a1.754,1.754,0,0,0,.052.57.2.2,0,0,0,.192.126v.059h-.163l-.2-.044-.2.044H132.7v-.059a.21.21,0,0,0,.192-.126,1.814,1.814,0,0,0,.052-.57v-1.154a1.76,1.76,0,0,0-.052-.6.185.185,0,0,0-.192-.126Zm-1.723,0h.163l.2.037.2-.037h.163v.059a.2.2,0,0,0-.192.126,1.62,1.62,0,0,0-.052.547v1.235a1.343,1.343,0,0,0,.044.481c0,.052.111.074.244.074a.662.662,0,0,0,.429-.1.745.745,0,0,0,.148-.414h.052a2.5,2.5,0,0,1,0,.251,1.762,1.762,0,0,1-.044.207h0a.426.426,0,0,1,0,.1.091.091,0,0,1-.044.089.384.384,0,0,1-.163,0h-.207a2.486,2.486,0,0,1-.355,0,1.185,1.185,0,0,1-.244-.044l-.163.037a.654.654,0,0,1-.17,0v-.037a.194.194,0,0,0,.192-.118,2.2,2.2,0,0,0,.052-.643v-1.028a2.09,2.09,0,0,0-.059-.658.192.192,0,0,0-.192-.118Zm-1.7,0a1.268,1.268,0,0,1,.155,0l.207.037.2-.037H130v.059a.213.213,0,0,0-.2.126,1.985,1.985,0,0,0-.044.547v1.235a1.366,1.366,0,0,0,.044.481c0,.052.111.074.244.074a.662.662,0,0,0,.429-.1.742.742,0,0,0,.141-.414h.052v.251a1.793,1.793,0,0,1-.052.207h0v.1a.108.108,0,0,1,0,.089.42.42,0,0,1-.17,0h-.207a2.384,2.384,0,0,1-.348,0,1.034,1.034,0,0,1-.266-.044l-.17.037a.6.6,0,0,1-.163,0v-.037a.2.2,0,0,0,.192-.118,2.484,2.484,0,0,0,.052-.643v-1.028a2.38,2.38,0,0,0-.067-.658.192.192,0,0,0-.192-.118Zm-1.768,0h.148l.17.044a1.463,1.463,0,0,1,.318-.03h.414a.839.839,0,0,1,.192,0,.059.059,0,0,1,0,.059.1.1,0,0,1,0,.044v.059a1.392,1.392,0,0,1,0,.163v.229h-.052a.69.69,0,0,0-.089-.333.43.43,0,0,0-.34-.074h-.281v1.065h.274c.155,0,.251,0,.288-.052a.222.222,0,0,0,.074-.178h.044v.148a1.15,1.15,0,0,1,0,.148.546.546,0,0,1,0,.155,1.15,1.15,0,0,1,0,.148h-.052a.273.273,0,0,0-.059-.192.485.485,0,0,0-.266-.052h-.3v.614a1.367,1.367,0,0,0,.044.481c0,.052.111.074.251.074a.662.662,0,0,0,.429-.1.826.826,0,0,0,.148-.414h.015a1.25,1.25,0,0,1,0,.251l-.044.207v.1a.1.1,0,0,1-.037.089.422.422,0,0,1-.163,0h-.207a2.842,2.842,0,0,1-.355,0,1.342,1.342,0,0,1-.259-.044l-.163.037a.6.6,0,0,1-.163,0v-.037a.2.2,0,0,0,.192-.118,2.485,2.485,0,0,0,.052-.643v-1.028a2.373,2.373,0,0,0-.037-.658.192.192,0,0,0-.192-.118Zm-2.7,0h.281a.4.4,0,0,1,.118-.044.054.054,0,0,1,.044,0,.238.238,0,0,0,.052.133c.126.392.244.74.355,1.08s.222.629.325.9c.133-.4.288-.9.473-1.479.059-.207.1-.355.133-.436v.007a.159.159,0,0,1,.111-.17h.355v.067a.161.161,0,0,0-.155.067,1.044,1.044,0,0,0-.037.392v1.228a3.41,3.41,0,0,0,.059.74.17.17,0,0,0,.17.133h0v.059h-.658v-.067a.148.148,0,0,0,.206-.037.135.135,0,0,0,.023-.052,1.144,1.144,0,0,0,0-.407v-.274a1.046,1.046,0,0,1,0-.141v-1.3c-.155.488-.3.939-.422,1.346s-.215.74-.266.917h-.052c-.118-.37-.237-.74-.362-1.117s-.251-.74-.385-1.117v1.642a1.057,1.057,0,0,0,.052.436.217.217,0,0,0,.192.1v.059h-.141l-.163-.044-.148.037h-.155v-.044a.289.289,0,0,0,.148-.059.331.331,0,0,0,0-.17v-.54a4.258,4.258,0,0,1,.037-.74,2.068,2.068,0,0,0,0-.481v-.074a.962.962,0,0,0,.007-.385.251.251,0,0,0-.2-.081Zm-2.389,1.642v.562a1.512,1.512,0,0,0,0,.259.166.166,0,0,0,.1.126.505.505,0,0,0,.229.044.644.644,0,0,0,.577-.311,1.566,1.566,0,0,0,.207-.88,1.8,1.8,0,0,0-.222-.984.737.737,0,0,0-.636-.34h-.266v.939Zm-.118.969-.2.044h-.163v-.044a.215.215,0,0,0,.2-.126,2.228,2.228,0,0,0,.044-.592v-1.117a2.316,2.316,0,0,0-.044-.592.206.206,0,0,0-.2-.118v-.067h.163l.2.037.222-.052a1.113,1.113,0,0,1,.222,0,.952.952,0,0,1,.8.355,1.88,1.88,0,0,1,.007,1.99.9.9,0,0,1-.74.362,2.325,2.325,0,0,1-.5-.081h0m-1.561-2.655h.081l.348,1.331c.118.436.192.74.237.888a2.493,2.493,0,0,0,.1.288.245.245,0,0,0,.081.1.374.374,0,0,0,.133.044v.059h-.155l-.2-.044-.192.044h-.163v-.059a.281.281,0,0,0,.133-.044.117.117,0,0,0,.052-.111v-.207a2.311,2.311,0,0,0-.089-.392l-.067-.214h-.614l-.052.178c-.044.178-.074.325-.1.429a1.773,1.773,0,0,0,0,.237.151.151,0,0,0,.044.118.234.234,0,0,0,.133.044v.059h-.133l-.17-.044-.178.044h-.133v-.1a.352.352,0,0,0,.133,0,.364.364,0,0,0,.03-.133,7.955,7.955,0,0,0,.325-1.028l.044-.17Zm0,.473c-.052.163-.1.333-.141.51s-.1.362-.141.547h.555c-.044-.178-.089-.355-.141-.533l-.133-.525m-1.686.9a1.77,1.77,0,0,1-.259.991.736.736,0,0,1-1.3,0,1.971,1.971,0,0,1,0-1.975.736.736,0,0,1,1.3,0,1.78,1.78,0,0,1,.259.984m-.91,1.287a.51.51,0,0,0,.451-.355,2.516,2.516,0,0,0,0-1.856.473.473,0,0,0-.91,0,2.088,2.088,0,0,0-.169.932,2.123,2.123,0,0,0,.169.939.52.52,0,0,0,.459.348m-2.055-2.626h.163l.2.037.2-.037h.155v.067a.2.2,0,0,0-.192.118,1.957,1.957,0,0,0-.044.555v1.176a2.106,2.106,0,0,0,.044.57.209.209,0,0,0,.192.126v.059h-.155l-.2-.044-.207.044h-.155v-.059a.224.224,0,0,0,.215-.126,2.143,2.143,0,0,0,0-.57v-1.154a2.033,2.033,0,0,0,0-.6.2.2,0,0,0-.2-.126Zm-2-.081h.052a.055.055,0,0,0,.052.052,1.113,1.113,0,0,0,.222,0h.954a1.384,1.384,0,0,0,.229,0,.053.053,0,0,0,.044-.052h.052a.831.831,0,0,1,0,.126v.533h-.059a.466.466,0,0,0-.464-.468.332.332,0,0,0-.046,0h-.141v2.13a.781.781,0,0,0,0,.222.224.224,0,0,0,.081.1.426.426,0,0,0,.155,0v.059h-.185l-.215-.044-.214.044h-.185v-.015a.511.511,0,0,0,.17,0,.184.184,0,0,0,.074-.1.73.73,0,0,0,0-.215v-2.175h-.126a.634.634,0,0,0-.422.089.726.726,0,0,0-.1.385h.074a1.577,1.577,0,0,1,0-.2v-.459m-.976.037h.081l.348,1.331c.118.436.192.74.237.888a2.309,2.309,0,0,0,.1.288.229.229,0,0,0,.081.1.36.36,0,0,0,.133.044v.059h-.155l-.2-.044-.192.044h-.163v-.074a.285.285,0,0,0,.133-.044.121.121,0,0,0,.052-.111v-.207a2.311,2.311,0,0,0-.089-.392l-.067-.214h-.614l-.052.178c-.044.178-.074.325-.1.429a1.473,1.473,0,0,0,0,.237.147.147,0,0,0,.044.118.229.229,0,0,0,.133.044v.059h-.133l-.17-.044-.177.044h-.133v-.1a.352.352,0,0,0,.133,0,.4.4,0,0,0,.089-.1,8.127,8.127,0,0,0,.325-1.028l.044-.17Zm0,.473c-.052.163-.1.333-.141.51s-.1.362-.141.547h.518q-.06-.266-.133-.533l-.133-.525m-1.176-.385h.044v.244a.951.951,0,0,0,0,.155v.185a.649.649,0,0,0,0,.111h-.081a.936.936,0,0,0-.141-.533.444.444,0,0,0-.377-.178.6.6,0,0,0-.54.333,1.8,1.8,0,0,0-.2.925,1.889,1.889,0,0,0,.207.947.63.63,0,0,0,.562.355.508.508,0,0,0,.377-.148.691.691,0,0,0,.155-.429h.052a1.532,1.532,0,0,1,0,.17v.178a.176.176,0,0,0,0,.067v.074a.832.832,0,0,1-.259.148,1.269,1.269,0,0,1-.333.044.873.873,0,0,1-.74-.362,1.634,1.634,0,0,1-.274-.984,1.721,1.721,0,0,1,.281-1.021.879.879,0,0,1,.74-.385,1.269,1.269,0,0,1,.355.059l.185.059h0m-3.92-.044a1.268,1.268,0,0,1,.155,0l.2.037.214-.037h.133v.067a.286.286,0,0,0-.126.044.162.162,0,0,0-.059.1,1.815,1.815,0,0,0,0,.3v1.272a1.845,1.845,0,0,0,.074.385.647.647,0,0,0,.185.274.5.5,0,0,0,.69-.12.472.472,0,0,0,.05-.087,2.786,2.786,0,0,0,.133-1.058v-.429a1.827,1.827,0,0,0-.052-.577.222.222,0,0,0-.192-.141v-.059h.148l.148.037.148-.044h.133v.059a.192.192,0,0,0-.177.126,2.224,2.224,0,0,0-.044.592v.459a2.543,2.543,0,0,1-.2,1.154.6.6,0,0,1-.57.348.643.643,0,0,1-.385-.1.607.607,0,0,1-.244-.311,1.265,1.265,0,0,1-.089-.362V105.56a1.931,1.931,0,0,0-.1-.584.2.2,0,0,0-.192-.118Zm-1.768,1.612v.821a.166.166,0,0,0,.1.126.5.5,0,0,0,.229.044.665.665,0,0,0,.584-.311,1.639,1.639,0,0,0,.2-.88,1.8,1.8,0,0,0-.222-.984.737.737,0,0,0-.636-.34h-.133l-.111.044v.939Zm-.118,1.006-.163.007H105.8v-.044a.2.2,0,0,0,.155-.126,2.145,2.145,0,0,0,.052-.592v-1.117a2.218,2.218,0,0,0-.052-.614.191.191,0,0,0-.192-.118v-.044a1.268,1.268,0,0,1,.155,0l.2.037.222-.052a1.188,1.188,0,0,1,.229,0,.966.966,0,0,1,.8.355,1.923,1.923,0,0,1,.007,1.99.91.91,0,0,1-.74.362,2.252,2.252,0,0,1-.5-.081h0m-2.145-2.611h.148l.178.044a1.4,1.4,0,0,1,.281-.044h.422a.773.773,0,0,1,.185,0,.066.066,0,0,1,.037.059.1.1,0,0,1,0,.044l-.022.059v.392h-.052a.561.561,0,0,0-.089-.333c-.044-.059-.155-.059-.318-.059h-.281v.177c0,.086,0,.172,0,.259v.643h.281c.155,0,.251,0,.288-.052a.252.252,0,0,0,.067-.178h.052a.865.865,0,0,1,0,.148v.3a.864.864,0,0,1,0,.148h-.052a.308.308,0,0,0-.059-.192.483.483,0,0,0-.266-.052h-.311v.614a1.143,1.143,0,0,0,.052.481c0,.052.111.074.244.074a.65.65,0,0,0,.444-.118.737.737,0,0,0,.148-.414h.052a2,2,0,0,1,0,.251,1.607,1.607,0,0,1-.052.207.186.186,0,0,1,0,.059.1.1,0,0,1,0,.044.1.1,0,0,1-.037.089.422.422,0,0,1-.163,0h-.214a2.724,2.724,0,0,1-.348,0,1.343,1.343,0,0,1-.259-.044l-.163.037a.654.654,0,0,1-.17,0v-.037a.207.207,0,0,0,.2-.118,2.63,2.63,0,0,0,.044-.643v-.133a.655.655,0,0,0,0-.111v-.54a.571.571,0,0,0,0-.1v-.141a2.464,2.464,0,0,0-.067-.658.206.206,0,0,0-.2-.118Zm-1.694-.044h.081l.348,1.331c.118.436.192.74.237.888a2.493,2.493,0,0,0,.1.288.244.244,0,0,0,.081.1.374.374,0,0,0,.133.044v.059h-.155l-.2-.044-.192.044h-.163v-.059a.359.359,0,0,0,.141-.044.132.132,0,0,0,.044-.111v-.207a2.309,2.309,0,0,0-.089-.392l-.089-.214h-.614l-.052.178c-.044.178-.074.325-.1.429a1.6,1.6,0,0,0-.037.237.151.151,0,0,0,.044.118.263.263,0,0,0,.133.044v.059h-.133l-.17-.044-.177.044h-.133v-.1a.352.352,0,0,0,.133,0,.286.286,0,0,0,.089-.1,7.955,7.955,0,0,0,.325-1.028l.044-.17Zm0,.473c-.052.163-.1.333-.141.51s-.1.362-.141.547h.555l-.133-.533c-.052-.178-.1-.355-.141-.525m-3.1-.429h.274a.175.175,0,0,1,.074,0h.037a3.248,3.248,0,0,1,.472.74c.281.5.547.947.806,1.361V105.3a1,1,0,0,0-.081-.325.216.216,0,0,0-.067-.081.325.325,0,0,0-.111,0v-.081h.126l.163.037.155-.037h.111v.067a.163.163,0,0,0-.118.052.354.354,0,0,0-.052.141,4.571,4.571,0,0,0-.037.51v1.842a.423.423,0,0,1,0,.1h-.081c-.325-.577-.592-1.035-.784-1.368s-.377-.621-.531-.865v1.553a2.92,2.92,0,0,0,0,.385.189.189,0,0,0,.067.133.3.3,0,0,0,.154.059v.059h-.147l-.163-.044-.163.03h-.118v-.044a.194.194,0,0,0,.185-.163,4.13,4.13,0,0,0,.074-.806v-.9a1.686,1.686,0,0,0-.059-.577.223.223,0,0,0-.215-.111Zm-.547.044h.044v.126a.594.594,0,0,0-.037.111v.259a.274.274,0,0,0,0,.059,1.043,1.043,0,0,1,0,.141h-.1a.936.936,0,0,0-.141-.533.444.444,0,0,0-.377-.178.592.592,0,0,0-.54.333,1.909,1.909,0,0,0-.185.939,1.725,1.725,0,0,0,.214.939.637.637,0,0,0,.577.348.775.775,0,0,0,.185,0,.389.389,0,0,0,.118-.059v-.518a.758.758,0,0,0-.03-.37.229.229,0,0,0-.192-.089v-.052h.163l.2.037.17-.037h.126v.067a.16.16,0,0,0-.141.074.948.948,0,0,0-.044.392v.281a.244.244,0,0,0,0,.1.038.038,0,0,0,.044,0v.059a2.112,2.112,0,0,1-.34.148,1.364,1.364,0,0,1-.333.044.866.866,0,0,1-.74-.37,1.6,1.6,0,0,1-.274-.984,1.678,1.678,0,0,1,.274-1.021.879.879,0,0,1,.74-.385.981.981,0,0,1,.348.067l.185.059h0m-2.737-.089h.081l.429,1.339c.111.436.192.74.237.888a2.306,2.306,0,0,0,.1.288.192.192,0,0,0,.081.1.29.29,0,0,0,.126.044v.059h-.155l-.2-.044-.185.03h-.17v-.044a.29.29,0,0,0,.141-.044.136.136,0,0,0,.03-.111,1.13,1.13,0,0,0,0-.207,1.952,1.952,0,0,0-.081-.392l-.111-.214h-.614l-.044.178c-.044.178-.081.325-.1.429a1.266,1.266,0,0,0,0,.237.163.163,0,0,0,0,.118.286.286,0,0,0,.141.044v.059h-.133l-.17-.044-.178.044H94.9v-.1a.314.314,0,0,0,.133,0,.3.3,0,0,0,.1-.1,8.966,8.966,0,0,0,.318-1.028l.052-.17Zm-.037.473c-.044.163-.089.333-.141.51s-.089.362-.141.547h.555l-.133-.533c-.044-.178-.089-.355-.141-.525m-3.447-.429h.288a.4.4,0,0,1,.118-.044H92.8a.726.726,0,0,1,.052.133c.126.392.244.74.355,1.08s.222.629.325.9c.133-.4.288-.9.473-1.479.059-.207.1-.355.133-.436v.015c0-.111.067-.17.1-.17h.318v.067a.161.161,0,0,0-.155.067,1.2,1.2,0,0,0-.037.392v1.228a3.411,3.411,0,0,0,.059.74.169.169,0,0,0,.17.133h0v.059h-.658v-.067a.163.163,0,0,0,.163-.089,1.426,1.426,0,0,0,.037-.407v-1.716a4.976,4.976,0,0,1-.311,1.354c-.126.407-.222.74-.274.917H93.5c-.111-.37-.237-.74-.362-1.117s-.251-.74-.385-1.117a8.366,8.366,0,0,1-.037.991,3.678,3.678,0,0,0,0,.651,1.267,1.267,0,0,0,.044.436.217.217,0,0,0,.192.1v.059H92.81l-.17-.059-.148.037a.576.576,0,0,1-.148,0v-.037a.258.258,0,0,0,.141-.059.336.336,0,0,0,.067-.17v-.54a4.262,4.262,0,0,1,.037-.74,2.067,2.067,0,0,0,0-.481v-.074a.816.816,0,0,0,.007-.385.251.251,0,0,0-.2-.081Z" transform="translate(-92.344 -104.724)" fill="#fff"/>
  </g>
  <g id="Grupo_24" data-name="Grupo 24" transform="translate(29.043 14.188)">
    <path id="Trazado_24" data-name="Trazado 24" d="M115.43,122.268h0m-4.956-2.308,6,3.01-.635-.377-.044-.1a.535.535,0,0,1-.362-.222.637.637,0,0,0,.362.222,1.259,1.259,0,0,0,.422-.037c-.473,0-.688-.592-.7-.6a1.065,1.065,0,0,0,.266.155c.141.052.355-.155.355-.155-.288,0-.74-.422-.74-.422a1.557,1.557,0,0,0,.459.155c.133,0,.237-.207.237-.207a.883.883,0,0,1-.481-.074c-.192-.133-.177-.222-.177-.222a1.761,1.761,0,0,0,.3.067c.17,0,.3-.229.3-.229a.934.934,0,0,1-.355-.074c-.148-.074-.155-.348-.155-.348.081.185.444.059.533-.126-.177.067-.547-.1-.555-.584h0c.177-1.812-.614-2.648-2.367-2.522a1.145,1.145,0,0,0-1.265-.155,3.482,3.482,0,0,0-1.361,1.361c.074.118.141.237.207.355-.377.362-.525.74-.3,1.124h.067a2.417,2.417,0,0,0,.259-.192c.37-.052.614.052.984-.126l.2.606a3.224,3.224,0,0,1-.044.377c-.044.207.214.348.118.555a.227.227,0,0,0,0,.244,4.092,4.092,0,0,1-.377.207c.266.126.37-.1.288.473Z" transform="translate(-110.312 -116.99)" fill="#fff"/>
  </g>
  <g id="Grupo_25" data-name="Grupo 25" transform="translate(10.539 14.188)">
    <path id="Trazado_25" data-name="Trazado 25" d="M116.429,122.268h0m-4.963-2.308.266-1.109a9.486,9.486,0,0,1,1.827-1.183c-1.132.7-1.657,1.368-1.827,1.183m1.309,18.786c-1.058-3.89-6.294-10.8-1.065-13.734-4.593,3.772.207,9.407,1.065,13.734m3.831,0c1.049-3.89,6.293-10.8,1.057-13.734,4.593,3.772-.207,9.407-1.057,13.734m-2.9-19.584a.213.213,0,0,0-.141.214.223.223,0,0,0,.229.067.158.158,0,1,0-.111-.281m0,.081a.088.088,0,0,0-.059.089.1.1,0,0,0,.1,0,.1.1,0,0,0,.059-.089.089.089,0,0,0-.1,0m-1.775,4.7c-4.593-1.479-8.254,2.219-16.759.429-1.812-2.33-3.38-1.694-2.219-.51s12.75,5.177,17.44,1c-3.232,4.26-15.8.251-16.071.888.074,1.183,5.916,2.145,7.506,2.5-1.479-.251-6.715-1.479-7-.8.858,1.413,6.1,2.048,7.713,2.366-1.568-.3-5.79-.79-6.338-.251.592.932,3.055,1.213,4.932,1.413a10.744,10.744,0,0,0-3.4.288c.74.814,3.283,1.028,5.465,1.124a8.54,8.54,0,0,0-3.8.651c1.228,1.08,5.74.547,7.6.547-1.405,0-5.754.422-6.324.962,1.22.636,3.055.54,4.674.325a7.507,7.507,0,0,0-2.581.976c1.738.651,3.905.155,5.451-.377-1.228.562-2.537,1.479-2.633,1.99,1.317.044,3.04-1.1,4.186-1.9a6.03,6.03,0,0,0-1.864,2.611,6.117,6.117,0,0,0,2.219-1.206.68.68,0,0,0,.044.6c-.57.925-1.435,2.108-1.99,2.87a5.132,5.132,0,0,1-.858.969c-.74.629-1.834.141-2.559.74-.074.059-.274.377-.1.5.052.052.185-.126.281-.207.259-.215.577,0,.917-.133.178,0,.207.067,0,.237a1.992,1.992,0,0,0-.917,1.709c.081,0,.207-.044.214-.1a1.572,1.572,0,0,1,.348-.74c.34-.325.466-.688.976-.932.237.74.288,1.553,1.035,1.886,0-.7-.6-1.391-.385-1.923.244-.658,1.095-1.028,2.729-.3a1.625,1.625,0,0,0-1.561-.821c.118-.806.643-1.176,1.065-1.79s.74-1.154,1.05-1.709a.789.789,0,0,0,.8,0,4.07,4.07,0,0,0,.037.481c.333.74.325.163,1.146.525-.3.244-1.317,1.516-1.546,1.686.577-.059,1.1-.68,1.531-.784a6.365,6.365,0,0,1-2.367,2.078,2.48,2.48,0,0,0,2.219-.666c-1.087,2.16-2.3,2.152-4.172,2.751a4.331,4.331,0,0,0,2.515.081c.067.74-1.79,1.6-3.343,2.574,1.361-.052,3.5-.348,4.371-1.612-.044,1.228-1.154,2.167-1.908,2.743a3.068,3.068,0,0,0,2.885-2.018c.606.629.466,1.035-.466,2.307.843-.133,2.707-1.345,2.714-3.031h0c0,1.686,1.871,2.9,2.721,3.031-.938-1.271-1.079-1.678-.472-2.307a3.083,3.083,0,0,0,2.876,2.048c-.74-.576-1.871-1.515-1.916-2.743.88,1.265,3.01,1.561,4.371,1.612-1.553-.976-3.41-1.819-3.343-2.574a4.356,4.356,0,0,0,2.522-.081c-1.879-.6-3.092-.592-4.179-2.751a2.48,2.48,0,0,0,2.219.666,6.49,6.49,0,0,1-2.367-2.078c.436.1.954.74,1.531.784-.229-.17-1.25-1.442-1.546-1.686.821-.362.821.251,1.154-.525v-.481h.052c.155.488.7.17.954,0,.348.555.643,1.139,1.043,1.709s.954.984,1.073,1.79a1.625,1.625,0,0,0-1.561.821c1.635-.74,2.485-.355,2.729.3.214.533-.355,1.228-.392,1.923.74-.333.806-1.183,1.036-1.886.51.244.643.607.976.932a1.483,1.483,0,0,1,.348.74c0,.059.141.074.222.1a2.024,2.024,0,0,0-.91-1.716c-.214-.17-.192-.274,0-.237.34.1.658-.081.917.133.089.081.222.259.274.207.185-.118,0-.436-.1-.5-.74-.592-1.79-.1-2.559-.74a5.123,5.123,0,0,1-.851-.969c-.555-.74-1.42-1.945-1.99-2.87a.949.949,0,0,0,.081-.244,13.724,13.724,0,0,0,2,.851,5.917,5.917,0,0,0-1.886-2.611c1.146.8,2.87,1.945,4.186,1.9-.1-.488-1.405-1.428-2.633-1.99a8.57,8.57,0,0,0,5.459.377,7.566,7.566,0,0,0-2.589-.976,8.525,8.525,0,0,0,4.682-.325c-.577-.54-4.926-.954-6.331-.961,1.864,0,6.368.533,7.6-.547a9.027,9.027,0,0,0-3.8-.651c2.219-.1,4.711-.311,5.466-1.124a10.678,10.678,0,0,0-3.395-.288c1.871-.2,4.334-.481,4.926-1.413-.547-.539-4.771-.044-6.339.251,1.612-.318,6.856-.953,7.722-2.366-.3-.658-5.54.547-7.012.8,1.6-.355,7.4-1.317,7.514-2.5-.287-.636-12.846,3.373-16.153-.888,4.682,4.157,16.315.229,17.44-1s-.377-1.82-2.218.51c-8.728,1.849-12.359-2.13-17.152-.311l-.635-.377-.044-.1a.535.535,0,0,1-.362-.222.667.667,0,0,0,.362.222,1.259,1.259,0,0,0,.422-.037c-.473,0-.688-.592-.7-.6a1.263,1.263,0,0,0,.266.155c.141.052.355-.155.355-.155-.288,0-.74-.422-.74-.422a1.557,1.557,0,0,0,.459.155c.141,0,.237-.207.237-.207a.883.883,0,0,1-.481-.074c-.192-.133-.178-.222-.178-.222a1.761,1.761,0,0,0,.3.067c.17,0,.3-.229.3-.229a.934.934,0,0,1-.355-.074c-.148-.074-.155-.348-.155-.348.081.185.444.059.54-.126-.185.067-.555-.1-.562-.584h0c.177-1.812-.614-2.648-2.367-2.522a1.145,1.145,0,0,0-1.265-.155,3.582,3.582,0,0,0-1.361,1.361c.074.118.141.237.207.355-.377.362-.525.74-.3,1.124.229-.806,1.117-.355,1.479-.962-.222.584-1.257.3-1.427.962a2.413,2.413,0,0,0,.259-.192c.37-.052.614.052.984-.126l.2.606a3.224,3.224,0,0,1-.044.377c-.044.207.214.348.118.555a.227.227,0,0,0,0,.244,4.094,4.094,0,0,1-.377.207c.266.126.37-.1.288.473.244.052.059.4.059.4s-.133.1-.274.229-.525.1-.525.1h0" transform="translate(-92.8 -116.99)" fill="#0252a6"/>
  </g>
  <g id="Grupo_26" data-name="Grupo 26" transform="translate(30.143 16.966)">
    <path id="Trazado_26" data-name="Trazado 26" d="M115.482,119.619a8.151,8.151,0,0,0-2.086,1.095c-1.376.577-1.405.118-1.538-.259a1.176,1.176,0,0,0-.481,1.206c.325.562.651.459,1.435.422,1.531-.54,1.339-.791,2.049-1.716.192-.214.658-.229.621-.74" transform="translate(-111.353 -119.619)" fill="#fff"/>
  </g>
  <g id="Grupo_27" data-name="Grupo 27" transform="translate(30.116 16.933)">
    <path id="Trazado_27" data-name="Trazado 27" d="M112.178,122.14a.807.807,0,0,1-.821-.465l0-.007a1.2,1.2,0,0,1,.49-1.232l.029-.019.012.032c.01.027.019.055.027.082.054.164.1.318.262.39.216.1.613.023,1.214-.228a3.186,3.186,0,0,0,.6-.366,4.016,4.016,0,0,1,1.492-.73l.031-.008,0,.031a.586.586,0,0,1-.4.609.848.848,0,0,0-.228.159c-.162.211-.277.388-.378.542-.33.508-.5.762-1.68,1.181h-.007c-.093,0-.181.008-.261.014C112.413,122.132,112.29,122.14,112.178,122.14Zm-.775-.487c.278.471.549.454,1.147.419l.258-.014c1.164-.412,1.317-.647,1.65-1.158.1-.155.218-.333.383-.547a.863.863,0,0,1,.243-.171c.189-.1.385-.211.375-.528a3.972,3.972,0,0,0-1.444.714,3.142,3.142,0,0,1-.608.372c-.623.261-1.023.332-1.255.228a.612.612,0,0,1-.291-.422l-.016-.049A1.148,1.148,0,0,0,111.4,121.653Z" transform="translate(-111.328 -119.588)" fill="#0252a6"/>
  </g>
  <g id="Grupo_28" data-name="Grupo 28" transform="translate(74.975 35.211)">
    <path id="Trazado_28" data-name="Trazado 28" d="M180.487,156.318a3.388,3.388,0,0,0,.088,1.749,1.027,1.027,0,0,0,1.013.495,1.331,1.331,0,0,0,1.115-.5,3.7,3.7,0,0,0,.546-1.741l.065-.5h7l-.591,4.655a10.671,10.671,0,0,1-3.855,1.792,20.281,20.281,0,0,1-5.252.62c-2.915,0-4.9-.518-5.96-1.537s-1.457-2.8-1.115-5.334l.728-5.734q.5-3.862,2.493-5.37T183.5,143.4c3.155,0,5.21.547,6.31,1.64s1.457,2.994,1.144,5.734l-.481,3.789h-9.764Zm.8-6.361-.073.692h2.762l.087-.729a3.125,3.125,0,0,0-.1-1.712,1.019,1.019,0,0,0-1-.5,1.325,1.325,0,0,0-1.122.509,3.644,3.644,0,0,0-.539,1.7m-16.081-6.266a5.491,5.491,0,0,0,0-1.793.94.94,0,0,0-.6-.728l.539-4.248H173.1l-2.448,19.41a3.155,3.155,0,0,0,0,1.384,1.048,1.048,0,0,0,.656.619l-.539,4.255h-7.608l.161-1.282a9.255,9.255,0,0,1-2.4,1.085,9.61,9.61,0,0,1-2.623.365q-2.775,0-3.8-1.414c-.685-.933-.874-2.55-.582-4.859l.728-5.895q.5-4.023,1.895-5.523a5.454,5.454,0,0,1,4.226-1.5,8.909,8.909,0,0,1,2.185.269,10.927,10.927,0,0,1,2.186.786Zm-1.741,13.807,1.107-8.634a2.083,2.083,0,0,0-.591-.234,3.5,3.5,0,0,0-.546-.088,1.54,1.54,0,0,0-1.246.474,4.625,4.625,0,0,0-.6,2.12l-.525,4.117a3.567,3.567,0,0,0,.116,1.96,1.238,1.238,0,0,0,1.188.525,2.739,2.739,0,0,0,.525-.058,4.289,4.289,0,0,0,.568-.183" transform="translate(-153.783 -136.886)" fill="#0252a6"/>
  </g>
</svg>
